<svg width="64" height="68" viewBox="0 0 64 68" fill="none" xmlns="http://www.w3.org/2000/svg">
<path d="M38.968 15.874V26.828L42.8 29.238C42.9384 29.2684 43.0817 29.2684 43.22 29.238L59.696 18.13C59.684 17.5909 59.4868 17.0724 59.1375 16.6616C58.7882 16.2507 58.3082 15.9726 57.778 15.874H38.968Z" fill="#0072C6"/>
<path d="M38.9681 30.9141L42.4621 33.3141C42.6257 33.4137 42.8136 33.4664 43.0051 33.4664C43.1966 33.4664 43.3845 33.4137 43.5481 33.3141C42.9481 33.6761 59.6941 22.5581 59.6941 22.5581V42.6901C59.7378 43.098 59.6918 43.5106 59.5593 43.8989C59.4269 44.2872 59.2112 44.6419 58.9274 44.9381C58.6435 45.2344 58.2984 45.465 57.9161 45.6139C57.5338 45.7628 57.1235 45.8263 56.7141 45.8001H38.9661L38.9681 30.9141ZM20.8801 25.8641C20.2996 25.8613 19.7291 26.0156 19.2291 26.3107C18.7291 26.6057 18.3183 27.0305 18.0401 27.5401C17.2803 28.8908 16.9158 30.428 16.9881 31.9761C16.9091 33.521 17.2742 35.0561 18.0401 36.4001C18.3171 36.8887 18.7178 37.2958 19.202 37.5804C19.6862 37.8651 20.2368 38.0173 20.7984 38.0217C21.36 38.0262 21.913 37.8827 22.4016 37.6058C22.8902 37.3289 23.2974 36.9282 23.5821 36.4441C24.3397 35.1063 24.6972 33.5791 24.6121 32.0441C24.6989 30.4609 24.3532 28.8839 23.6121 27.4821C23.3473 26.9892 22.9528 26.5779 22.4713 26.2928C21.9899 26.0076 21.4397 25.8594 20.8801 25.8641Z" fill="#0072C6"/>
<path d="M4.30591 10.31V53.164L36.9059 60V4L4.30591 10.31ZM26.1219 38.982C25.5121 39.8417 24.7012 40.5392 23.76 41.0136C22.8187 41.4881 21.7757 41.7251 20.7219 41.704C19.6946 41.7223 18.6781 41.4921 17.7588 41.0332C16.8395 40.5742 16.0447 39.9001 15.4419 39.068C14.0123 37.072 13.2971 34.6525 13.4119 32.2C13.2903 29.6273 14.0184 27.086 15.4839 24.968C16.1014 24.0919 16.925 23.3811 17.8821 22.8984C18.8392 22.4157 19.9003 22.1758 20.9719 22.2C21.9918 22.1795 23.0011 22.4097 23.9112 22.8704C24.8213 23.331 25.6045 24.008 26.1919 24.842C27.6072 26.8813 28.3102 29.3305 28.1919 31.81C28.3166 34.3641 27.5884 36.8871 26.1219 38.982Z" fill="#0072C6"/>
</svg>
