<svg xmlns="http://www.w3.org/2000/svg" width="23.409" height="35.409" viewBox="0 0 23.409 35.409">
  <g>
    <path fill="none" stroke="rgb(19,1,255)" stroke-linecap="butt" stroke-linejoin="miter" stroke-width="2" d="M11.7045941 16.39282727h.00542398c.29380623.00001.66052403.00001 1.18620488-.08260771.50876095-.07996779 1.1339572-.23145359 2.001084-.50400604.6488361-.20393435 1.25615246-.10154718 1.75354947.3138113.53903677.45006754 1.05371368 1.37012205 1.05371368 2.92867887 0 .91807457-.24683852 1.57775629-.63911617 1.9889449-.35543786.37238968-.9494343.66698152-2.03782777.66698152H8.38147805c-1.08838147 0-1.6823299-.29459184-2.03773178-.66698152-.39239764-.41118861-.63917616-1.07087033-.63917616-1.9889449 0-1.55855682.51467691-2.47861133 1.05366568-2.92866886.49744501-.4153685 1.10483337-.51775566 1.75360948-.3138213.8671388.27256244 1.49234704.42403824 2.00110799.50400603.52568085.08261771.89239864.08261771 1.18621688.08260771h.00542397z"/>
    <path fill="none" stroke="rgb(19,1,255)" stroke-linecap="butt" stroke-linejoin="miter" stroke-width="2" d="M14.5328301 11.5325701l-.0002.00012c-.7914.79152-1.71 1.17194-2.828 1.17194-1.1172 0-2.036-.3804-2.8278-1.17198-.7918-.79152-1.1722-1.71022-1.1722-2.8282 0-1.11758.3804-2.03634 1.172-2.82796.7916-.79148 1.71-1.17186 2.828-1.17186 1.1174 0 2.0362.38026 2.8278 1.17156.7918.792 1.1722 1.71082 1.1722 2.82826 0 1.1181-.3804 2.03664-1.1718 2.82812z"/>
    <path fill="none" stroke="rgb(19,1,255)" stroke-linecap="butt" stroke-linejoin="miter" stroke-width="2" d="M6.4116801 30.4116151l-.00005.00003c-.19785.19788-.4275.292985-.707.292985-.2793 0-.509-.0951-.70695-.292995-.19795-.19788-.29305-.427555-.29305-.70705 0-.279395.0951-.509085.293-.70699.1979-.19787.4275-.292965.707-.292965.27935 0 .50905.095065.70695.29289.19795.198.29305.427705.29305.707065 0 .279525-.0951.50916-.29295.70703z"/>
    <path fill="none" stroke="rgb(19,1,255)" stroke-linecap="butt" stroke-linejoin="miter" stroke-width="2" d="M12.4116801 30.4116151l-.00005.00003c-.19785.19788-.4275.292985-.707.292985-.2793 0-.509-.0951-.70695-.292995-.19795-.19788-.29305-.427555-.29305-.70705 0-.279395.0951-.509085.293-.70699.1979-.19787.4275-.292965.707-.292965.27935 0 .50905.095065.70695.29289.19795.198.29305.427705.29305.707065 0 .279525-.0951.50916-.29295.70703z"/>
    <path fill="none" stroke="rgb(19,1,255)" stroke-linecap="butt" stroke-linejoin="miter" stroke-width="2" d="M18.4116801 30.4116151l-.00005.00003c-.19785.19788-.4275.292985-.707.292985-.2793 0-.509-.0951-.70695-.292995-.19795-.19788-.29305-.427555-.29305-.70705 0-.279395.0951-.509085.293-.70699.1979-.19787.4275-.292965.707-.292965.27935 0 .50905.095065.70695.29289.19795.198.29305.427705.29305.707065 0 .279525-.0951.50916-.29295.70703z"/>
    <path fill="none" stroke="rgb(19,1,255)" stroke-linecap="round" stroke-linejoin="miter" stroke-width="2" d="M11.7046301 21.7046301v7"/>
    <path fill="none" stroke="rgb(19,1,255)" stroke-linecap="round" stroke-linejoin="miter" stroke-width="2" d="M5.7046301 25.7046301h12"/>
    <path fill="none" stroke="rgb(19,1,255)" stroke-linecap="round" stroke-linejoin="miter" stroke-width="2" d="M5.7046301 25.7046301v3"/>
    <path fill="none" stroke="rgb(19,1,255)" stroke-linecap="round" stroke-linejoin="miter" stroke-width="2" d="M17.7046301 25.7046301v3"/>
  </g>
</svg>
