<svg width="16" height="16" viewBox="0 0 16 16" fill="none" xmlns="http://www.w3.org/2000/svg">
<path d="M11.7732 11.7733L11.0665 12.48L10.5932 12.0067L11.2998 11.3L10.0065 10.0067L9.29984 10.7133L8.8265 10.24L9.53317 9.53333L8.23984 8.24L7.53317 8.94666L7.05984 8.47333L7.7665 7.76666L6.4665 6.46666L5.75984 7.17333L5.2865 6.7L5.99317 5.99333L4.69984 4.7L3.99317 5.40666L3.51984 4.93333L4.2265 4.22666L2.6665 2.66666V12C2.6665 12.7333 3.2665 13.3333 3.99984 13.3333H13.3332L11.7732 11.7733ZM4.6665 11.3333V7.49333L8.5065 11.3333H4.6665Z" fill="#989898"/>
</svg>
