<svg xmlns="http://www.w3.org/2000/svg" width="40" height="40" viewBox="0 0 40 40">
  <defs>
    <rect id="rect-2" width="20" height="20" x="0" y="0"/>
  </defs>
  <g>
    <ellipse cx="20" cy="20" fill="rgb(241,157,80)" rx="20" ry="20"/>
    <g transform="translate(10 11)">
      <path fill="rgb(255,255,255)" fill-rule="evenodd" d="M5.23917007 2.30168009C6.48366022 2.13659 8.09037971 2 10 2c1.99730015 0 3.66320038.14942002 4.92990017.32458997 1.44699955.20009994 2.53410053 1.24601984 2.7536993 2.6545999C17.85770035 6.09541988 18 7.5266304 18 9.22217941c0 1.47122097-.10720062 2.6793213-.24780083 3.6314211-.2050991 1.38909911-1.36299896 2.41699886-2.92949962 2.63329887C13.31769943 15.6946001 11.5209999 15.8842001 10 15.8842001c-1.4356203 0-3.11822987-.16899968-4.57081032-.36310006-1.6850996-.2251997-2.96619963-1.38440036-3.1902697-2.93109989C2.10196995 11.6448002 2 10.50880051 2 9.22217941c0-1.52254963.14278007-2.91862964.31911993-4.06101942.23488998-1.52165007 1.39429998-2.65706992 2.92005014-2.8594799zM4.97616005.319052C6.30033016.14338701 7.9951601 0 10 0c2.09689999 0 3.85459995.156854 5.20389938.343443 2.28630066.31617597 4.09480095 2.01236693 4.45580101 4.32761709C19.84829903 5.88025999 20 7.41475009 20 9.22218037c0 1.56882-.11429977 2.8745203-.26919937 3.92361927-.36000061 2.4375-2.36930084 4.00959968-4.63460064 4.32229995-1.5355997.21190072-3.43840027.41610146-5.09619999.41610146-1.5666504 0-3.3509202-.18230057-4.83576012-.38070107C2.7327199 17.17850113.631006 15.44050026.259583 12.87680054.110297 11.84640026 0 10.61420059 0 9.22218037 0 7.5775299.153979 6.07753992.342532 4.85605.71279598 2.45738006 2.56960989.63830602 4.97616006.31905201z"/>
      <path fill="none" stroke="rgb(255,255,255)" stroke-linecap="butt" stroke-linejoin="miter" stroke-width="2" d="M18.0999 4l-6.4147 4.35569c-1.0174.69078-2.35323.69078-3.37055 0L1.8999 4"/>
    </g>
  </g>
</svg>
