<svg xmlns="http://www.w3.org/2000/svg" width="40" height="40" viewBox="0 0 40 40">
  <g>
    <ellipse cx="20" cy="20" fill="rgb(26,171,68)" rx="20" ry="20"/>
    <g>
      <path fill="none" stroke="rgb(255,255,255)" stroke-linecap="butt" stroke-linejoin="miter" stroke-width="2" d="M11.30803 24.6191C11.13394 23.2895 11 21.7101 11 20c0-1.71014.13394-3.28952.30803-4.61905.28593-2.18377 1.9064-3.83464 4.05805-4.10257C16.64193 11.11951 18.19996 11 20 11c1.9006 0 3.5313.13324 4.845.30535 2.0475.26826 3.5814 1.80214 3.8496 3.84963C28.8668 16.46866 29 18.09943 29 20c0 1.9006-.1332 3.5313-.3054 4.845-.2682 2.0475-1.8021 3.5814-3.8496 3.8496C23.5313 28.8668 21.9006 29 20 29c-1.80004 0-3.35807-.1195-4.63392-.2784-2.15165-.2679-3.77212-1.9188-4.05805-4.1025z"/>
      <path fill="none" stroke="rgb(255,255,255)" stroke-linecap="butt" stroke-linejoin="round" stroke-width="2" d="M11 21.95L16.66434 17 26 28"/>
      <path fill="none" stroke="rgb(255,255,255)" stroke-linecap="butt" stroke-linejoin="round" stroke-width="2" d="M21 21.875L24.6975 19 29 23"/>
    </g>
  </g>
</svg>
