<svg xmlns="http://www.w3.org/2000/svg" width="40" height="40" viewBox="0 0 40 40">
  <g>
    <ellipse cx="20" cy="20" fill="rgb(181,0,0)" rx="20" ry="20"/>
    <g>
      <path fill="rgb(255,255,255)" fill-rule="evenodd" d="M16 12c-.55227661 0-1 .44769287-1 1v14c0 .55230713.44770813 1 1 1h9c.55230713 0 1-.44769287 1-1V16h2v11c0 1.65692139-1.34309387 3-3 3h-9c-1.6568451 0-3-1.34307861-3-3V13c0-1.65686035 1.3431549-3 3-3h6v2h-6z"/>
      <path fill="rgb(255,255,255)" fill-rule="evenodd" d="M13.703613 17.74072h13.5926c1.10383005 0 2 .89616995 2 2v3.74074c0 1.10383005-.89616995 2-2 2h-13.5926c-1.10383005 0-2-.89616995-2-2v-3.74074c0-1.10383005.89616995-2 2-2z"/>
      <path fill="rgb(255,255,255)" fill-rule="evenodd" d="M28 16l-6-6v5c0 .55228.4477 1 1 1h5z"/>
    </g>
  </g>
</svg>
