<svg xmlns="http://www.w3.org/2000/svg" width="40" height="40" viewBox="0 0 40 40">
  <defs>
    <rect id="rect-2" width="20" height="20" x="0" y="0"/>
  </defs>
  <g>
    <ellipse cx="20" cy="20" fill="rgb(20,184,164)" rx="20" ry="20"/>
    <g transform="translate(10 10)">
      <path fill="rgb(255,255,255)" fill-rule="evenodd" d="M10 2c-1.42938995 0-2.68850994.08397007-3.7523899.20201993-2.14554025.23808002-3.76404 1.88376021-4.02206016 4.06136012C2.09481 7.36688995 2 8.63739967 2 10c0 1.36260033.09481 2.63310051.22555017 3.73659992.25801993 2.1775999 1.87651968 3.82330036 4.02205992 4.06140042C7.31149006 17.91600037 8.57061005 18 10 18c1.52460003 0 2.85550022-.09550095 3.96240044-.22610092 2.04120063-.24069786 3.57080078-1.770298 3.81150055-3.81149864C17.90449905 12.85550022 18 11.52460003 18 10c0-.55228043.4477005-1 1-1 .5522995 0 1 .44771957 1 1 0 1.60809994-.10080147 3.01739979-.2398014 4.19659996-.34909821 2.96030045-2.6032982 5.21450043-5.56359864 5.56360054C13.01739979 19.89919853 11.60809994 20 10 20c-1.50766945 0-2.84054995-.08860016-3.97296-.21419907C2.92338991 19.44140053.60285604 17.03910065.239447 13.9719.101057 12.80389977 0 11.45390034 0 10c0-1.45386028.101057-2.80395031.239448-3.97194004C.60285598 2.96092987 2.92340016.55861098 6.02704.214218 7.15945005.088561 8.49233055 0 10 0c.5522995 0 1 .44771501 1 1 0 .55227995-.4477005 1-1 1z"/>
      <path fill="rgb(255,255,255)" fill-rule="evenodd" d="M18.3425 2.1924l-.3775-.37475c-.3919-.38911-1.0274-.38911-1.4193 0L7.97438 10.3275c-.07131.0708-.13146.1518-.17843.2404l-1.17268 2.2119c-.2296.4331.24158.9009.67776.6729l2.22791-1.1642c.08924-.0467.17088-.1064.24219-.1772l8.57137-8.50979c.3919-.38912.3919-1.02 0-1.40911z"/>
    </g>
  </g>
</svg>
