<svg xmlns="http://www.w3.org/2000/svg" width="40" height="40" viewBox="0 0 40 40">
  <g>
    <g>
      <ellipse cx="20" cy="20" fill="rgb(0,189,255)" rx="20" ry="20"/>
      <path fill="rgb(255,255,255)" fill-rule="evenodd" d="M18 22.51204113v-5.1885416c0-.33335111.44372075-.52396706.75543792-.3245299l4.05469584 2.5942546c.25315499.16197334.25315499.48711076 0 .6490355l-4.05469584 2.5942789C18.44372075 23.0359677 18 22.84536794 18 22.51204113z"/>
    </g>
    <path fill="none" stroke="rgb(255,255,255)" stroke-linecap="butt" stroke-linejoin="miter" stroke-width="2" d="M11 16c0-1.65685 1.34315-3 3-3h11.5847866c1.6569 0 3 1.34315 3 3v6.91775341c0 1.6569-1.3431 3-3 3H22.5l-6.02941 2.54743978c-.66611.3552-1.47059-.1274-1.47059-.8824v-1.66503978h-1c-1.65685 0-3-1.3431-3-3V16z"/>
  </g>
</svg>
