<svg xmlns="http://www.w3.org/2000/svg" width="15.5" height="15.5" viewBox="0 0 15.5 15.5">
  <g id="Icons_Video" data-name="Icons / Video" transform="translate(0.25 0.25)">
    <path id="Path" d="M.231,3.286A3.489,3.489,0,0,1,3.275.209,28.185,28.185,0,0,1,6.75,0a28.039,28.039,0,0,1,3.634.229,3.3,3.3,0,0,1,2.887,2.887A28.028,28.028,0,0,1,13.5,6.75a28.027,28.027,0,0,1-.229,3.634,3.3,3.3,0,0,1-2.887,2.887A28.028,28.028,0,0,1,6.75,13.5a28.181,28.181,0,0,1-3.475-.209A3.489,3.489,0,0,1,.231,10.214,26.851,26.851,0,0,1,0,6.75,26.851,26.851,0,0,1,.231,3.286Z" transform="translate(0.75 0.75)" fill="none" stroke="#66687f" stroke-miterlimit="10" stroke-width="2"/>
    <g id="Group_5" data-name="Group 5" transform="translate(9 4)">
      <path id="Line_7" data-name="Line 7" d="M-.5.5l-3,3" fill="none" stroke="#66687f" stroke-linecap="round" stroke-miterlimit="10" stroke-width="2"/>
      <path id="Line_7_Copy" data-name="Line 7 Copy" d="M.5.5l3,3" transform="translate(-4 3)" fill="none" stroke="#66687f" stroke-linecap="round" stroke-miterlimit="10" stroke-width="2"/>
    </g>
  </g>
</svg>
