<svg xmlns="http://www.w3.org/2000/svg" width="40" height="40" viewBox="0 0 40 40">
  <defs>
    <rect id="rect-2" width="20" height="20" x="0" y="0"/>
  </defs>
  <g>
    <ellipse cx="20" cy="20" fill="rgb(0,0,255)" rx="20" ry="20"/>
    <g transform="translate(11 11)">
      <path fill="none" stroke="rgb(255,255,255)" stroke-linecap="butt" stroke-linejoin="miter" stroke-width="2" d="M.30803 13.6191C.13394 12.2895 0 10.7101 0 9c0-1.71014.13394-3.28952.30803-4.61905C.59396 2.19718 2.21443.54631 4.36608.27838 5.64193.11951 7.19996 0 9 0c1.9006 0 3.5313.13324 4.845.30535 2.0475.26826 3.5814 1.80214 3.8496 3.84963C17.8668 5.46866 18 7.09943 18 9c0 1.9006-.1332 3.5313-.3054 4.845-.2682 2.0475-1.8021 3.5814-3.8496 3.8496C12.5313 17.8668 10.9006 18 9 18c-1.80004 0-3.35807-.1195-4.63392-.2784-2.15165-.2679-3.77212-1.9188-4.05805-4.1025z"/>
      <path fill="rgb(255,255,255)" fill-rule="evenodd" d="M6 11.2936V6.70637c0-1.17815 1.29593-1.89642 2.295-1.272L11.9648 7.728c.94.5875.94 1.9565 0 2.544L8.295 12.5656C7.29593 13.19 6 12.4718 6 11.2936z"/>
    </g>
  </g>
</svg>
