<?xml version="1.0" standalone="no"?>
<!DOCTYPE svg PUBLIC "-//W3C//DTD SVG 20010904//EN"
 "http://www.w3.org/TR/2001/REC-SVG-20010904/DTD/svg10.dtd">
<svg version="1.0" xmlns="http://www.w3.org/2000/svg"
 width="840.000000pt" height="840.000000pt" viewBox="0 0 840.000000 840.000000"
 preserveAspectRatio="xMidYMid meet">
<metadata>
Created by potrace 1.15, written by Peter Selinger 2001-2017
</metadata>
<g transform="translate(0.000000,840.000000) scale(0.100000,-0.100000)"
fill="#888888" stroke="none">
<path d="M4105 8359 c-77 -15 -171 -47 -270 -94 -49 -23 -128 -53 -174 -65
-230 -60 -494 -169 -644 -267 -148 -95 -210 -174 -255 -328 -80 -271 -126
-608 -126 -925 0 -223 15 -356 58 -513 22 -81 23 -89 8 -93 -46 -14 -69 -33
-91 -77 -63 -126 -24 -410 84 -616 28 -52 49 -77 104 -119 83 -63 80 -55 181
-404 39 -132 87 -282 107 -332 l37 -91 6 -267 5 -266 62 -79 c75 -95 258 -275
367 -361 121 -96 347 -243 488 -317 152 -79 126 -82 340 38 335 187 604 408
804 660 l64 81 0 282 c0 278 0 283 26 350 14 37 56 175 95 306 101 345 97 337
180 400 64 48 75 62 114 143 61 125 95 248 102 370 9 166 -24 267 -97 291 -34
11 -34 12 -32 65 2 30 9 99 17 154 33 235 54 786 36 955 -46 437 -272 741
-702 944 -275 131 -692 212 -894 175z"/>
<path d="M2865 3779 c-176 -92 -425 -202 -567 -250 -181 -60 -1415 -412 -2106
-600 l-192 -52 0 -1012 0 -1012 114 -52 c592 -268 1135 -440 1846 -586 1372
-282 2990 -286 4390 -11 701 137 1313 331 1908 603 l142 65 0 997 0 997 -212
58 c-608 164 -1931 541 -2114 601 -155 52 -367 147 -556 250 -75 41 -139 75
-142 75 -3 0 -6 -13 -6 -30 0 -91 -198 -1401 -214 -1417 -2 -3 -73 47 -157
110 -159 117 -357 257 -482 339 -39 26 -129 73 -199 104 l-128 57 -67 -28
c-114 -47 -257 -121 -304 -157 -24 -18 -120 -87 -214 -152 -93 -66 -217 -155
-274 -198 -57 -44 -106 -76 -109 -73 -14 13 -148 870 -196 1243 -13 107 -26
195 -28 197 -1 1 -61 -28 -133 -66z m929 -1104 c39 -156 109 -308 179 -389
l33 -39 -53 -106 c-58 -116 -128 -289 -143 -354 -30 -138 -65 -627 -80 -1147
-6 -201 -12 -383 -13 -405 -2 -42 -62 173 -181 650 -161 645 -326 1446 -304
1473 27 32 515 381 534 382 6 0 19 -29 28 -65z m941 -27 c170 -119 379 -274
393 -291 8 -9 -2 -83 -38 -272 -97 -513 -210 -1000 -383 -1655 l-62 -235 -12
375 c-17 574 -45 992 -78 1180 -15 89 -76 250 -149 394 l-52 102 44 54 c68 83
136 237 172 388 6 28 17 52 23 52 7 0 71 -42 142 -92z"/>
</g>
</svg>
