<svg width="16" height="16" viewBox="0 0 16 16" fill="none" xmlns="http://www.w3.org/2000/svg">
<path d="M6.00016 11.3333C6.00016 11.7 5.70016 12 5.3335 12C4.96683 12 4.66683 11.7 4.66683 11.3333C4.66683 10.9667 4.96683 10.6667 5.3335 10.6667C5.70016 10.6667 6.00016 10.9667 6.00016 11.3333ZM8.00016 10.6667C7.6335 10.6667 7.3335 10.9667 7.3335 11.3333C7.3335 11.7 7.6335 12 8.00016 12C8.36683 12 8.66683 11.7 8.66683 11.3333C8.66683 10.9667 8.36683 10.6667 8.00016 10.6667ZM10.6668 10.6667C10.3002 10.6667 10.0002 10.9667 10.0002 11.3333C10.0002 11.7 10.3002 12 10.6668 12C11.0335 12 11.3335 11.7 11.3335 11.3333C11.3335 10.9667 11.0335 10.6667 10.6668 10.6667ZM12.6668 8V9.33333H3.3335V8C3.3335 5.64667 5.0735 3.71333 7.3335 3.38667V2H8.66683V3.38667C10.9268 3.71333 12.6668 5.64667 12.6668 8ZM11.3335 8C11.3335 6.16 9.84016 4.66667 8.00016 4.66667C6.16016 4.66667 4.66683 6.16 4.66683 8H11.3335ZM5.3335 12.6667C4.96683 12.6667 4.66683 12.9667 4.66683 13.3333C4.66683 13.7 4.96683 14 5.3335 14C5.70016 14 6.00016 13.7 6.00016 13.3333C6.00016 12.9667 5.70016 12.6667 5.3335 12.6667ZM8.00016 12.6667C7.6335 12.6667 7.3335 12.9667 7.3335 13.3333C7.3335 13.7 7.6335 14 8.00016 14C8.36683 14 8.66683 13.7 8.66683 13.3333C8.66683 12.9667 8.36683 12.6667 8.00016 12.6667ZM10.6668 12.6667C10.3002 12.6667 10.0002 12.9667 10.0002 13.3333C10.0002 13.7 10.3002 14 10.6668 14C11.0335 14 11.3335 13.7 11.3335 13.3333C11.3335 12.9667 11.0335 12.6667 10.6668 12.6667Z" fill="#989898"/>
</svg>
