<svg width="16" height="16" viewBox="0 0 16 16" fill="none" xmlns="http://www.w3.org/2000/svg">
<path d="M14.0002 7.18667V5.33334C14.0002 4.23334 13.1002 3.33334 12.0002 3.33334H9.3335C8.82016 3.33334 8.3535 3.53334 8.00016 3.85334C7.64683 3.53334 7.18016 3.33334 6.66683 3.33334H4.00016C2.90016 3.33334 2.00016 4.23334 2.00016 5.33334V7.18667C1.5935 7.55334 1.3335 8.08 1.3335 8.66667V12.6667H2.66683V11.3333H13.3335V12.6667H14.6668V8.66667C14.6668 8.08 14.4068 7.55334 14.0002 7.18667ZM9.3335 4.66667H12.0002C12.3668 4.66667 12.6668 4.96667 12.6668 5.33334V6.66667H8.66683V5.33334C8.66683 4.96667 8.96683 4.66667 9.3335 4.66667ZM3.3335 5.33334C3.3335 4.96667 3.6335 4.66667 4.00016 4.66667H6.66683C7.0335 4.66667 7.3335 4.96667 7.3335 5.33334V6.66667H3.3335V5.33334ZM2.66683 10V8.66667C2.66683 8.3 2.96683 8 3.3335 8H12.6668C13.0335 8 13.3335 8.3 13.3335 8.66667V10H2.66683Z" fill="#989898"/>
</svg>
