<svg width="16" height="16" viewBox="0 0 16 16" fill="none" xmlns="http://www.w3.org/2000/svg">
<path d="M8 4.66675C8.74 4.66675 9.33333 4.06675 9.33333 3.33341C9.33333 3.08008 9.26667 2.84675 9.14 2.64675L8 0.666748L6.86 2.64675C6.73333 2.84675 6.66667 3.08008 6.66667 3.33341C6.66667 4.06675 7.26667 4.66675 8 4.66675ZM12 6.66675H8.66667V5.33341H7.33333V6.66675H4C2.89333 6.66675 2 7.56008 2 8.66675V14.6667C2 15.0334 2.3 15.3334 2.66667 15.3334H13.3333C13.7 15.3334 14 15.0334 14 14.6667V8.66675C14 7.56008 13.1067 6.66675 12 6.66675ZM12.6667 14.0001H3.33333V12.0001C3.93333 11.9934 4.50667 11.7534 4.93333 11.3267L5.66 10.6134L6.37333 11.3267C7.24667 12.2001 8.76667 12.1934 9.63333 11.3267L10.3533 10.6134L11.0667 11.3267C11.4933 11.7534 12.0667 11.9934 12.6667 12.0001V14.0001ZM12.6667 11.0001C12.3267 10.9934 12.0067 10.8667 11.7667 10.6201L10.3467 9.20008L8.92 10.6201C8.42667 11.1134 7.56667 11.1134 7.07333 10.6201L5.65333 9.20008L4.22667 10.6201C3.99333 10.8601 3.67333 10.9934 3.33333 11.0001V8.66675C3.33333 8.30008 3.63333 8.00008 4 8.00008H12C12.3667 8.00008 12.6667 8.30008 12.6667 8.66675V11.0001Z" fill="#989898"/>
</svg>
