<svg width="64" height="64" viewBox="0 0 64 64" fill="none" xmlns="http://www.w3.org/2000/svg">
<g clip-path="url(#clip0_750_62971)">
<path d="M43.5444 41.5006C41.5125 43.3039 38.9749 45.5477 34.3737 45.5477H31.6223C28.2927 45.5477 25.2643 44.3375 23.0966 42.1438C20.9792 40.0003 19.8135 37.0667 19.8135 33.8821V30.1175C19.8135 26.933 20.9792 23.9994 23.0966 21.8559C25.2643 19.6622 28.2927 18.4538 31.6223 18.4538H34.3737C38.9805 18.4538 41.5125 20.6958 43.5444 22.4991C45.6545 24.3582 47.4745 25.983 52.3285 25.983C53.0688 25.9828 53.8079 25.9237 54.5389 25.8064L54.5222 25.7636C54.2314 25.0416 53.8905 24.3409 53.5016 23.6666L50.2575 18.0467C47.2838 12.8967 41.7705 9.71417 35.8238 9.71436H29.3338C23.387 9.71417 17.8738 12.8967 14.9001 18.0467L11.656 23.6666C8.68335 28.8171 8.68335 35.1826 11.656 40.3331L14.9001 45.953C17.8738 51.103 23.387 54.2855 29.3338 54.2853H35.8238C41.7705 54.2855 47.2838 51.103 50.2575 45.953L53.5016 40.3424C53.8905 39.6681 54.2314 38.9674 54.5222 38.2454L54.5389 38.2045C53.8083 38.0831 53.0692 38.021 52.3285 38.0185C47.4745 38.0185 45.6545 39.6341 43.5444 41.5024" fill="#006BFF"/>
<path d="M34.3736 21.8652H31.6222C26.5544 21.8652 23.2249 25.4848 23.2249 30.1176V33.8822C23.2249 38.515 26.5544 42.1346 31.6222 42.1346H34.3736C41.7578 42.1346 41.1778 34.6054 52.3284 34.6054C53.3849 34.6043 54.4392 34.7013 55.4777 34.8954C55.816 32.98 55.816 31.0198 55.4777 29.1044C54.439 29.2976 53.3849 29.3946 52.3284 29.3944C41.1741 29.3944 41.7578 21.8652 34.3736 21.8652Z" fill="#006BFF"/>
<path d="M61.8841 37.6469C59.9853 36.2561 57.7953 35.3147 55.4797 34.8936V34.9494C55.2804 36.0594 54.9688 37.1462 54.5501 38.1935C56.4629 38.4896 58.2781 39.2373 59.8447 40.3741C59.8447 40.389 59.8354 40.4076 59.8299 40.4243C56.145 52.3561 45.0394 60.5496 32.5515 60.5496C16.8897 60.5496 4.00191 47.6618 4.00191 32C4.00191 16.3382 16.8897 3.45042 32.5515 3.45042C45.0394 3.45042 56.145 11.6438 59.8299 23.5757C59.8299 23.5924 59.8392 23.611 59.8447 23.6259C58.2783 24.7629 56.4631 25.5098 54.5501 25.8047C54.9684 26.8532 55.2798 27.9413 55.4797 29.0525C55.4785 29.0697 55.4785 29.0872 55.4797 29.1045C57.7951 28.6842 59.9853 27.7433 61.8841 26.3531C63.7097 25.0016 63.3565 23.4753 63.0795 22.5718C58.9539 9.19082 46.5024 0 32.5 0C14.9453 0 0.5 14.4453 0.5 32C0.5 49.5547 14.9453 64 32.5 64C46.5024 64 58.9539 54.8092 63.0795 41.4282C63.3565 40.5247 63.7097 38.9984 61.8841 37.6469Z" fill="#006BFF"/>
<path d="M54.5389 25.8046C53.8082 25.926 53.0691 25.9881 52.3284 25.9905C47.4744 25.9905 45.6544 24.375 43.5462 22.5066C41.5124 20.7034 38.9804 18.4595 34.3736 18.4595H31.6222C28.2908 18.4595 25.2642 19.6697 23.0966 21.8634C20.9791 24.0069 19.8135 26.9405 19.8135 30.1251V33.8897C19.8135 37.0742 20.9791 40.0078 23.0966 42.1513C25.2642 44.345 28.2908 45.5534 31.6222 45.5534H34.3736C38.9804 45.5534 41.5124 43.3114 43.5462 41.5081C45.6544 39.649 47.4744 38.0242 52.3284 38.0242C53.0687 38.0244 53.8079 38.0835 54.5389 38.2008C54.9584 37.154 55.2698 36.067 55.4684 34.9568C55.4695 34.9382 55.4695 34.9196 55.4684 34.901C54.4297 34.7084 53.3755 34.6119 52.3191 34.6128C41.1648 34.6128 41.7485 42.1439 34.3643 42.1439H31.6129C26.5451 42.1439 23.2156 38.5224 23.2156 33.8897V30.1176C23.2156 25.4849 26.5451 21.8653 31.6129 21.8653H34.3643C41.7485 21.8653 41.1685 29.3926 52.3191 29.3926C53.3756 29.3945 54.4299 29.298 55.4684 29.1044V29.0524C55.2685 27.9412 54.9571 26.8531 54.5389 25.8046Z" fill="#0AE8F0"/>
<path d="M54.5389 25.8046C53.8082 25.926 53.0691 25.9881 52.3284 25.9905C47.4744 25.9905 45.6544 24.375 43.5462 22.5066C41.5124 20.7034 38.9804 18.4595 34.3736 18.4595H31.6222C28.2908 18.4595 25.2642 19.6697 23.0966 21.8634C20.9791 24.0069 19.8135 26.9405 19.8135 30.1251V33.8897C19.8135 37.0742 20.9791 40.0078 23.0966 42.1513C25.2642 44.345 28.2908 45.5534 31.6222 45.5534H34.3736C38.9804 45.5534 41.5124 43.3114 43.5462 41.5081C45.6544 39.649 47.4744 38.0242 52.3284 38.0242C53.0687 38.0244 53.8079 38.0835 54.5389 38.2008C54.9584 37.154 55.2698 36.067 55.4684 34.9568C55.4695 34.9382 55.4695 34.9196 55.4684 34.901C54.4297 34.7084 53.3755 34.6119 52.3191 34.6128C41.1648 34.6128 41.7485 42.1439 34.3643 42.1439H31.6129C26.5451 42.1439 23.2156 38.5224 23.2156 33.8897V30.1176C23.2156 25.4849 26.5451 21.8653 31.6129 21.8653H34.3643C41.7485 21.8653 41.1685 29.3926 52.3191 29.3926C53.3756 29.3945 54.4299 29.298 55.4684 29.1044V29.0524C55.2685 27.9412 54.9571 26.8531 54.5389 25.8046Z" fill="#0AE8F0"/>
</g>
<defs>
<clipPath id="clip0_750_62971">
<rect width="64" height="64" fill="white"/>
</clipPath>
</defs>
</svg>
