<svg width="16" height="14" viewBox="0 0 16 14" fill="none" xmlns="http://www.w3.org/2000/svg">
<path d="M1.45416 13.6665C1.06902 13.6648 0.699778 13.5175 0.427443 13.2561C0.155108 12.9946 0.00172152 12.6401 0 12.2703V2.49704C0.000959834 2.12704 0.154943 1.7729 0.427443 1.51127C0.699943 1.24963 1.06879 1.10179 1.45416 1.10087H3.64392V1.0586C3.64218 0.966805 3.66 0.875422 3.69504 0.789998C3.73008 0.704574 3.78195 0.62695 3.84841 0.560938C3.91486 0.494926 3.99357 0.442025 4.0813 0.405504C4.16903 0.368983 4.26402 0.34833 4.35963 0.346876L5.08671 0.333241C5.18244 0.331578 5.2774 0.348599 5.36647 0.382325C5.45553 0.416052 5.53627 0.465624 5.60504 0.529579C5.67381 0.593533 5.72898 0.670155 5.76693 0.754549C5.80488 0.838942 5.82525 0.92987 5.82657 1.02179V1.0995H10.1791V1.0436C10.1791 0.858456 10.2558 0.680947 10.3921 0.55003C10.5285 0.419113 10.7134 0.345512 10.9062 0.345512H11.6333C11.8261 0.345512 12.011 0.419113 12.1473 0.55003C12.2837 0.680947 12.3603 0.858456 12.3603 1.0436V1.0995H14.5458C14.9315 1.0995 15.3013 1.2467 15.574 1.50854C15.8467 1.77037 16 2.12539 16 2.49568V12.2689C15.999 12.6389 15.8451 12.9931 15.5726 13.2547C15.3001 13.5163 14.9312 13.6642 14.5458 13.6651L1.45416 13.6665ZM1.45416 12.2703H14.5501V2.49704H12.3603C12.3457 2.67234 12.2623 2.83609 12.1275 2.95516C11.9927 3.07423 11.8164 3.13979 11.6333 3.13923H10.9062C10.723 3.13979 10.5468 3.07423 10.412 2.95516C10.2772 2.83609 10.1938 2.67234 10.1791 2.49704H5.84503C5.82723 2.66734 5.74479 2.8257 5.61356 2.94153C5.48233 3.05736 5.31181 3.12286 5.13358 3.1256L4.4065 3.13787C4.22158 3.14092 4.04218 3.07584 3.90521 2.95653C3.76824 2.83721 3.68425 2.67268 3.66948 2.49568H1.45416V12.2703ZM7.27079 10.1228V8.72667H8.73063V10.1228H7.27079ZM5.09523 10.1228V8.72667H6.54939V10.1228H5.09523ZM2.914 10.1228V8.72667H4.36816V10.1228H2.914ZM11.6389 8.02858V6.6324H13.0931V8.02858H11.6389ZM9.45771 8.02858V6.6324H10.9119V8.02858H9.45771ZM7.27647 8.02858V6.6324H8.73631V8.02858H7.27647ZM5.10091 8.02858V6.6324H6.55507V8.02858H5.10091ZM2.91968 8.02858V6.6324H4.37384V8.02858H2.91968ZM11.6446 5.93431V4.53813H13.0988V5.93431H11.6446ZM9.46339 5.93431V4.53813H10.9175V5.93431H9.46339ZM7.28215 5.93431V4.53813H8.74199V5.93431H7.28215ZM5.10659 5.93431V4.53813H6.56075V5.93431H5.10659Z" fill="#989898"/>
</svg>
