<svg width="12" height="12" viewBox="0 0 12 12" fill="none" xmlns="http://www.w3.org/2000/svg">
<path d="M7.87577 8.40866C6.45119 9.53533 4.68536 10.2449 2.75702 10.3641C2.14494 10.402 1.63577 9.89283 1.63577 9.28074V8.34366C1.63036 7.79658 2.04202 7.33616 2.58911 7.27116L3.96494 7.11408C4.29536 7.07616 4.62036 7.18991 4.85327 7.42283L5.84994 8.41949C6.28869 8.19741 6.71119 7.93199 7.10119 7.63408L1.13744 1.67033C0.926191 1.45908 0.926191 1.11783 1.13744 0.906576C1.34869 0.695326 1.69536 0.695326 1.90661 0.906576L11.0987 10.1041C11.3099 10.3153 11.3099 10.6566 11.0987 10.8678C10.8874 11.0791 10.5462 11.0791 10.3349 10.8678L7.87577 8.40866ZM9.41952 4.84991L8.41744 3.84783C8.18452 3.61491 8.07077 3.28991 8.10869 2.95949L8.26577 1.59449C8.33077 1.04741 8.79119 0.635742 9.34369 0.635742H10.2808C10.8929 0.635742 11.402 1.14491 11.3641 1.75699C11.2449 3.69074 10.5299 5.45658 9.40327 6.88658L8.62869 6.11199C8.92661 5.71658 9.19202 5.29408 9.41952 4.84991Z" fill="#FF6068"/>
</svg>