<svg width="64" height="64" viewBox="0 0 64 64" fill="none" xmlns="http://www.w3.org/2000/svg">
<g clip-path="url(#clip0_750_62845)">
<g clip-path="url(#clip1_750_62845)">
<path d="M32 47.9932C40.8366 47.9932 48 40.8297 48 31.9932C48 23.1566 40.8366 15.9932 32 15.9932C23.1634 15.9932 16 23.1566 16 31.9932C16 40.8297 23.1634 47.9932 32 47.9932Z" fill="white"/>
<path d="M32.0001 16.0001H59.7083C56.9006 11.1352 52.8615 7.09539 47.9972 4.28673C43.1329 1.47807 37.6149 -0.000391827 31.9979 7.78931e-08C26.381 0.000391983 20.8632 1.47963 15.9993 4.28896C11.1354 7.0983 7.09686 11.1387 4.28979 16.0039L18.1439 40.0001L18.1563 39.9969C16.747 37.5666 16.0033 34.8076 16.0001 31.9983C15.9969 29.1889 16.7345 26.4283 18.1383 23.9949C19.5422 21.5614 21.5628 19.541 23.9964 18.1374C26.43 16.7338 29.1907 15.9966 32.0001 16.0001Z" fill="url(#paint0_linear_750_62845)"/>
<path d="M31.9999 44.6668C38.9955 44.6668 44.6666 38.9958 44.6666 32.0002C44.6666 25.0046 38.9955 19.3335 31.9999 19.3335C25.0043 19.3335 19.3333 25.0046 19.3333 32.0002C19.3333 38.9958 25.0043 44.6668 31.9999 44.6668Z" fill="#1A73E8"/>
<path d="M45.855 40.0036L32.0008 63.9998C37.6178 64.0005 43.1359 62.5225 48.0004 59.7142C52.8648 56.9059 56.9042 52.8663 59.7123 48.0017C62.5204 43.1371 63.9982 37.619 63.9972 32.0021C63.9962 26.3851 62.5164 20.8675 59.7066 16.0039H31.9984L31.9951 16.0163C34.8045 16.0109 37.5657 16.7462 40.0003 18.1481C42.4348 19.5501 44.4568 21.5691 45.8623 24.0016C47.2678 26.4341 48.0072 29.1942 48.0059 32.0036C48.0046 34.813 47.2627 37.5724 45.855 40.0036Z" fill="url(#paint1_linear_750_62845)"/>
<path d="M18.1448 40.0039L4.29062 16.0078C1.48145 20.8718 0.00240661 26.3897 0.00219729 32.0066C0.00198796 37.6236 1.48062 43.1415 4.28943 48.0057C7.09824 52.87 11.1382 56.9089 16.0031 59.7165C20.868 62.5241 26.3864 64.0014 32.0033 63.9998L45.8574 40.0037L45.8485 39.9946C44.4484 42.4303 42.431 44.4538 39.9996 45.8613C37.5682 47.2687 34.8087 48.0102 31.9993 48.0112C29.1899 48.0121 26.43 47.2724 23.9976 45.8666C21.5652 44.4609 19.5464 42.4387 18.1448 40.0039Z" fill="url(#paint2_linear_750_62845)"/>
</g>
</g>
<defs>
<linearGradient id="paint0_linear_750_62845" x1="4.28979" y1="20.0001" x2="59.7083" y2="20.0001" gradientUnits="userSpaceOnUse">
<stop stop-color="#D93025"/>
<stop offset="1" stop-color="#EA4335"/>
</linearGradient>
<linearGradient id="paint1_linear_750_62845" x1="27.6291" y1="63.5719" x2="55.3384" y2="15.578" gradientUnits="userSpaceOnUse">
<stop stop-color="#FCC934"/>
<stop offset="1" stop-color="#FBBC04"/>
</linearGradient>
<linearGradient id="paint2_linear_750_62845" x1="35.4641" y1="62.0018" x2="7.75476" y2="14.0078" gradientUnits="userSpaceOnUse">
<stop stop-color="#1E8E3E"/>
<stop offset="1" stop-color="#34A853"/>
</linearGradient>
<clipPath id="clip0_750_62845">
<rect width="64" height="64" fill="white"/>
</clipPath>
<clipPath id="clip1_750_62845">
<rect width="64" height="64" fill="white"/>
</clipPath>
</defs>
</svg>
