<?xml version="1.0" encoding="UTF-8"?>
<svg width="485px" height="80px" viewBox="0 0 485 80" version="1.1" xmlns="http://www.w3.org/2000/svg" xmlns:xlink="http://www.w3.org/1999/xlink">
    <title>crmgrow-logo-80px</title>
    <g id="Page-1" stroke="none" stroke-width="1" fill="none" fill-rule="evenodd">
        <g id="Artboard" transform="translate(-177.000000, -557.000000)" fill="#101336" fill-rule="nonzero">
            <path d="M206.961712,617 C210.622372,617 214.123874,616.569472 217.466216,615.708415 C220.808559,614.847358 223.753003,613.634051 226.29955,612.068493 C228.766517,610.659491 230,608.506849 230,605.610568 C230,603.575342 229.502628,601.892368 228.507883,600.561644 C227.513138,599.23092 226.25976,598.565558 224.747748,598.565558 C223.713213,598.565558 222.758258,598.741683 221.882883,599.093933 C221.007508,599.446184 219.813814,599.97456 218.301802,600.679061 C216.471471,601.618395 214.91967,602.303327 213.646396,602.733855 C212.373123,603.164384 210.900901,603.379648 209.22973,603.379648 C204.773273,603.379648 201.371246,601.970646 199.023649,599.152642 C196.676051,596.334638 195.502252,592.264188 195.502252,586.941292 C195.502252,581.618395 196.676051,577.567515 199.023649,574.78865 C201.371246,572.009785 204.773273,570.620352 209.22973,570.620352 C210.900901,570.620352 212.393018,570.855186 213.706081,571.324853 C215.019144,571.794521 216.511261,572.459883 218.182432,573.320939 C219.694444,574.02544 220.908033,574.553816 221.823198,574.906067 C222.738363,575.258317 223.713213,575.434442 224.747748,575.434442 C226.339339,575.434442 227.612613,574.78865 228.567568,573.497065 C229.522523,572.205479 230,570.542074 230,568.506849 C230,565.610568 228.766517,563.418787 226.29955,561.931507 C223.753003,560.365949 220.868243,559.152642 217.64527,558.291585 C214.422297,557.430528 211.219219,557 208.036036,557 C201.908408,557 196.496997,558.252446 191.801802,560.757339 C187.106607,563.262231 183.465841,566.804305 180.879505,571.383562 C178.293168,575.962818 177,581.266145 177,587.293542 C177,593.320939 178.213589,598.565558 180.640766,603.027397 C183.067943,607.489237 186.54955,610.933464 191.085586,613.360078 C195.621622,615.786693 200.913664,617 206.961712,617 Z M245.49162,617 C247.875233,617 249.867784,616.290261 251.469274,614.870782 C253.070764,613.451304 253.871508,611.361516 253.871508,608.601419 L253.871508,608.601419 L253.871508,586.008055 C253.871508,582.301639 254.783985,579.265533 256.608939,576.899735 C258.433892,574.533938 261.394786,573.11446 265.49162,572.6413 L265.49162,572.6413 L268.843575,572.28643 C271.897579,571.970991 274.020484,571.182392 275.212291,569.920633 C276.404097,568.658875 277,566.726807 277,564.12443 C277,561.679772 276.348231,559.84628 275.044693,558.623951 C273.741155,557.401622 271.972067,556.869318 269.73743,557.027038 L269.73743,557.027038 L268.173184,557.145328 C264.970205,557.381907 262.009311,558.407086 259.290503,560.220864 C256.571695,562.034642 254.541899,564.637019 253.201117,568.027995 L253.201117,568.027995 L253.201117,564.834169 C253.201117,562.389512 252.456238,560.477159 250.96648,559.09711 C249.476723,557.717062 247.614525,557.027038 245.379888,557.027038 C243.070764,557.027038 241.096834,557.736777 239.458101,559.156255 C237.819367,560.575734 237,562.586661 237,565.189038 L237,565.189038 L237,608.601419 C237,611.361516 237.800745,613.451304 239.402235,614.870782 C241.003724,616.290261 243.03352,617 245.49162,617 Z M363.439689,617 C365.950713,617 368.005188,616.292731 369.603113,614.878193 C371.201038,613.463654 372,611.381139 372,608.630648 L372,608.630648 L372,581.400786 C372,572.756385 370.364029,566.528487 367.092088,562.717092 C363.820147,558.905697 359.14051,557 353.053178,557 C348.944228,557 345.272806,557.962672 342.038911,559.888016 C338.805015,561.81336 336.313013,564.426326 334.562905,567.726916 C333.041072,563.954813 330.891483,561.223969 328.114137,559.534381 C325.336792,557.844794 321.93169,557 317.898833,557 C314.170342,557 310.841332,557.785855 307.911803,559.357564 C304.982274,560.929273 302.60441,563.208251 300.77821,566.194499 L300.77821,566.194499 L300.77821,565.015717 C300.77821,562.579568 300.017294,560.67387 298.49546,559.298625 C296.973627,557.923379 295.071336,557.235756 292.788586,557.235756 C290.353653,557.235756 288.280156,557.943026 286.568093,559.357564 C284.856031,560.772102 284,562.776031 284,565.369352 L284,565.369352 L284,608.630648 C284,611.381139 284.837008,613.463654 286.511025,614.878193 C288.185041,616.292731 290.239516,617 292.674449,617 C295.109382,617 297.144834,616.292731 298.780804,614.878193 C300.416775,613.463654 301.23476,611.381139 301.23476,608.630648 L301.23476,608.630648 L301.23476,583.876228 C301.23476,579.789784 302.185906,576.607073 304.088197,574.328094 C305.990489,572.049116 308.539559,570.909627 311.735409,570.909627 C314.322525,570.909627 316.243839,571.675835 317.499351,573.208251 C318.754864,574.740668 319.38262,577.392927 319.38262,581.165029 L319.38262,581.165029 L319.38262,608.630648 C319.38262,611.381139 320.219628,613.463654 321.893645,614.878193 C323.567661,616.292731 325.622136,617 328.057069,617 C330.568093,617 332.622568,616.292731 334.220493,614.878193 C335.818418,613.463654 336.61738,611.381139 336.61738,608.630648 L336.61738,608.630648 L336.61738,583.876228 C336.61738,579.789784 337.568526,576.607073 339.470817,574.328094 C341.373109,572.049116 343.922179,570.909627 347.118029,570.909627 C349.705145,570.909627 351.626459,571.675835 352.881971,573.208251 C354.137484,574.740668 354.76524,577.392927 354.76524,581.165029 L354.76524,581.165029 L354.76524,608.630648 C354.76524,611.381139 355.602248,613.463654 357.276265,614.878193 C358.950281,616.292731 361.004756,617 363.439689,617 Z M414.028571,637 C424.161905,637 431.857143,634.645924 437.114286,629.937771 C442.371429,625.229619 445,618.283164 445,609.098408 L445,609.098408 L445,565.45152 C445,562.981669 444.219048,560.994211 442.657143,559.489146 C441.095238,557.984081 439.019048,557.231548 436.428571,557.231548 C433.838095,557.231548 431.761905,557.94549 430.2,559.373372 C428.638095,560.801254 427.857143,562.750121 427.857143,565.219971 L427.857143,565.219971 L427.857143,566.377713 C426.180952,563.444766 423.761905,561.148577 420.6,559.489146 C417.438095,557.829715 413.914286,557 410.028571,557 C405.152381,557 400.828571,558.177038 397.057143,560.531114 C393.285714,562.885191 390.333333,566.204052 388.2,570.487699 C386.066667,574.771346 385,579.730342 385,585.364689 C385,590.999035 386.066667,595.958032 388.2,600.241679 C390.333333,604.525326 393.285714,607.824891 397.057143,610.140376 C400.828571,612.455861 405.152381,613.613603 410.028571,613.613603 C413.990476,613.613603 417.571429,612.764592 420.771429,611.06657 C423.971429,609.368548 426.371429,607.053063 427.971429,604.120116 L427.971429,604.120116 L427.971429,610.371925 C427.971429,614.925712 426.790476,618.321756 424.428571,620.560058 C422.066667,622.79836 418.447619,623.917511 413.571429,623.917511 C411.209524,623.917511 409,623.647371 406.942857,623.107091 C404.885714,622.566811 402.638095,621.833575 400.2,620.907381 C398.980952,620.444284 397.8,620.039074 396.657143,619.691751 C395.514286,619.344428 394.52381,619.170767 393.685714,619.170767 C392.161905,619.170767 390.942857,619.78823 390.028571,621.023155 C389.114286,622.25808 388.657143,623.840328 388.657143,625.769899 C388.657143,627.15919 389.038095,628.413411 389.8,629.532562 C390.561905,630.651712 391.628571,631.597202 393,632.36903 C398.485714,635.456343 405.495238,637 414.028571,637 Z M522.919802,573.963157 C523.660077,573.547621 524.563305,573.56887 525.282628,574.026904 L525.282628,574.026904 L543.905884,585.83189 C544.585633,586.263953 545,587.019472 545,587.834016 C545,588.64856 544.585633,589.404079 543.905884,589.836142 L543.905884,589.836142 L525.282628,601.641128 C524.905507,601.879589 524.477172,602 524.048837,602 C523.660077,602 523.273644,601.900838 522.919802,601.704875 C522.179528,601.286979 521.72093,600.498406 521.72093,599.639003 L521.72093,599.639003 L521.72093,576.02903 C521.72093,575.169627 522.179528,574.381053 522.919802,573.963157 Z M415.217292,572 C419.350132,572 422.566729,573.221188 424.867084,575.663563 C427.167439,578.105938 428.317616,581.486326 428.317616,585.804729 C428.317616,590.123131 427.167439,593.485821 424.867084,595.8928 C422.566729,598.299778 419.350132,599.503267 415.217292,599.503267 C411.084451,599.503267 407.848359,598.299778 405.509015,595.8928 C403.169672,593.485821 402,590.123131 402,585.804729 C402,581.486326 403.169672,578.105938 405.509015,575.663563 C407.848359,573.221188 411.084451,572 415.217292,572 Z M465.49162,617 C467.875233,617 469.867784,616.290261 471.469274,614.870782 C473.070764,613.451304 473.871508,611.361516 473.871508,608.601419 L473.871508,608.601419 L473.871508,586.008055 C473.871508,582.301639 474.783985,579.265533 476.608939,576.899735 C478.433892,574.533938 481.394786,573.11446 485.49162,572.6413 L485.49162,572.6413 L488.843575,572.28643 C491.897579,571.970991 494.020484,571.182392 495.212291,569.920633 C496.404097,568.658875 497,566.726807 497,564.12443 C497,561.679772 496.348231,559.84628 495.044693,558.623951 C493.741155,557.401622 491.972067,556.869318 489.73743,557.027038 L489.73743,557.027038 L488.173184,557.145328 C484.970205,557.381907 482.009311,558.407086 479.290503,560.220864 C476.571695,562.034642 474.541899,564.637019 473.201117,568.027995 L473.201117,568.027995 L473.201117,564.834169 C473.201117,562.389512 472.456238,560.477159 470.96648,559.09711 C469.476723,557.717062 467.614525,557.027038 465.379888,557.027038 C463.070764,557.027038 461.096834,557.736777 459.458101,559.156255 C457.819367,560.575734 457,562.586661 457,565.189038 L457,565.189038 L457,608.601419 C457,611.361516 457.800745,613.451304 459.402235,614.870782 C461.003724,616.290261 463.03352,617 465.49162,617 Z M532,617 C538,617 543.269231,615.767123 547.807692,613.30137 C552.346154,610.835616 555.846154,607.35225 558.307692,602.851272 C560.769231,598.350294 562,593.046967 562,586.941292 C562,580.835616 560.769231,575.53229 558.307692,571.031311 C555.846154,566.530333 552.346154,563.066536 547.807692,560.639922 C543.269231,558.213307 538,557 532,557 C526,557 520.730769,558.213307 516.192308,560.639922 C511.653846,563.066536 508.153846,566.530333 505.692308,571.031311 C503.230769,575.53229 502,580.835616 502,586.941292 C502,593.046967 503.230769,598.350294 505.692308,602.851272 C508.153846,607.35225 511.653846,610.835616 516.192308,613.30137 C520.730769,615.767123 526,617 532,617 Z M634.547962,617 C636.218625,617 637.813349,616.545455 639.332134,615.636364 C640.850919,614.727273 641.952038,613.403162 642.635492,611.664032 L642.635492,611.664032 L661.316547,568.027668 C661.772182,566.841897 662,565.774704 662,564.826087 C662,562.612648 661.164668,560.754941 659.494005,559.252964 C657.823341,557.750988 655.92486,557 653.798561,557 C652.431655,557 651.140687,557.434783 649.925659,558.304348 C648.710631,559.173913 647.761391,560.438735 647.077938,562.098814 L647.077938,562.098814 L635.003597,593.996047 L622.359712,562.335968 C621.676259,560.596838 620.651079,559.29249 619.284173,558.422925 C617.917266,557.55336 616.436451,557.118577 614.841727,557.118577 C613.247002,557.118577 611.785172,557.573123 610.456235,558.482213 C609.127298,559.391304 608.121103,560.675889 607.43765,562.335968 L607.43765,562.335968 L595.021583,593.996047 L582.833333,562.098814 C582.14988,560.438735 581.181655,559.173913 579.928657,558.304348 C578.675659,557.434783 577.289768,557 575.770983,557 C573.492806,557 571.461431,557.750988 569.676859,559.252964 C567.892286,560.754941 567,562.612648 567,564.826087 C567,565.853755 567.227818,566.920949 567.683453,568.027668 L567.683453,568.027668 L586.2506,611.664032 C586.934053,613.403162 588.035172,614.727273 589.553957,615.636364 C591.072742,616.545455 592.705436,617 594.452038,617 C596.27458,617 597.907274,616.545455 599.35012,615.636364 C600.792966,614.727273 601.856115,613.403162 602.539568,611.664032 L602.539568,611.664032 L614.272182,582.13834 L626.460432,611.664032 C627.143885,613.403162 628.226019,614.727273 629.706835,615.636364 C631.18765,616.545455 632.801359,617 634.547962,617 Z" id="crmgrow-logo-80px"></path>
        </g>
    </g>
</svg>