<?xml version="1.0" standalone="no"?>
<!DOCTYPE svg PUBLIC "-//W3C//DTD SVG 20010904//EN"
 "http://www.w3.org/TR/2001/REC-SVG-20010904/DTD/svg10.dtd">
<svg version="1.0" xmlns="http://www.w3.org/2000/svg"
 width="256.000000pt" height="256.000000pt" viewBox="0 0 256.000000 256.000000"
 preserveAspectRatio="xMidYMid meet">

<g transform="translate(0.000000,256.000000) scale(0.100000,-0.100000)"
fill="#000000" stroke="none">
<path d="M345 1975 c-16 -15 -25 -36 -25 -55 0 -19 9 -40 25 -55 l24 -25 911
0 911 0 24 25 c33 32 33 78 0 110 l-24 25 -911 0 -911 0 -24 -25z"/>
<path d="M345 1335 c-16 -15 -25 -36 -25 -55 0 -19 9 -40 25 -55 l24 -25 911
0 911 0 24 25 c33 32 33 78 0 110 l-24 25 -911 0 -911 0 -24 -25z"/>
<path d="M2025 935 c-23 -22 -25 -32 -25 -120 l0 -95 -95 0 c-88 0 -98 -2
-120 -25 -33 -32 -33 -78 0 -110 22 -23 32 -25 120 -25 l95 0 0 -95 c0 -88 2
-98 25 -120 15 -16 36 -25 55 -25 19 0 40 9 55 25 23 22 25 32 25 120 l0 95
95 0 c88 0 98 2 120 25 16 15 25 36 25 55 0 19 -9 40 -25 55 -22 23 -32 25
-120 25 l-95 0 0 95 c0 88 -2 98 -25 120 -15 16 -36 25 -55 25 -19 0 -40 -9
-55 -25z"/>
<path d="M345 695 c-16 -15 -25 -36 -25 -55 0 -19 9 -40 25 -55 l24 -25 551 0
551 0 24 25 c33 32 33 78 0 110 l-24 25 -551 0 -551 0 -24 -25z"/>
</g>
</svg>
