<svg width="12" height="12" viewBox="0 0 12 12" fill="none" xmlns="http://www.w3.org/2000/svg">
	<path d="M10.6667 0H1.33333C0.6 0 0 0.6 0 1.33333V10.6667C0 11.4 0.6 12 1.33333 12H10.6667C11.4 12 12 11.4 12 10.6667V1.33333C12 0.6 11.4 0 10.6667 0ZM10.6667 10.6667H1.33333V1.33333H10.6667V10.6667Z" fill="#4D4D4D" />
	<path d="M4 6H2.66667V9.33333H4V6Z" fill="#4D4D4D" />
	<path d="M9.33333 2.66667H8V9.33333H9.33333V2.66667Z" fill="#4D4D4D" />
	<path d="M6.66667 7.33333H5.33333V9.33333H6.66667V7.33333Z" fill="#4D4D4D" />
	<path d="M6.66667 4.66667H5.33333V6H6.66667V4.66667Z" fill="#4D4D4D" />
</svg>