<svg width="24" height="24" viewBox="-2 -2 16 16" fill="none" xmlns="http://www.w3.org/2000/svg">
<path d="M2.37967 1.34444C2.42 1.94272 2.52083 2.52756 2.68217 3.0855L1.8755 3.89217C1.59989 3.0855 1.42511 2.23178 1.36461 1.34444H2.37967ZM9.00778 9.42456C9.57917 9.58589 10.164 9.68672 10.7556 9.72706V10.7287C9.86822 10.6682 9.0145 10.4934 8.20111 10.2245L9.00778 9.42456ZM3.025 0H0.672222C0.3025 0 0 0.3025 0 0.672222C0 6.98439 5.11561 12.1 11.4278 12.1C11.7975 12.1 12.1 11.7975 12.1 11.4278V9.08172C12.1 8.712 11.7975 8.4095 11.4278 8.4095C10.5942 8.4095 9.78083 8.27506 9.02795 8.02633C8.96072 7.99944 8.88678 7.99272 8.81956 7.99272C8.64478 7.99272 8.47672 8.05995 8.34228 8.18767L6.86339 9.66656C4.961 8.69183 3.40144 7.139 2.43344 5.23661L3.91233 3.75772C4.10056 3.5695 4.15433 3.30733 4.08039 3.07206C3.83167 2.31917 3.69722 1.5125 3.69722 0.672222C3.69722 0.3025 3.39472 0 3.025 0Z" fill="#0020F5"/>
<path d="M8.85716 5.74531C8.86538 5.76335 8.86894 5.78317 8.86751 5.80294C8.86608 5.82272 8.85971 5.84182 8.84898 5.85849C8.83825 5.87516 8.8235 5.88888 8.8061 5.89837C8.78869 5.90786 8.76918 5.91284 8.74935 5.91283H7.71271C7.69032 5.91267 7.66842 5.90617 7.64958 5.89407C7.63073 5.88198 7.6157 5.86479 7.60623 5.84449L5.52332 1.37848C5.51493 1.36049 5.51119 1.34069 5.51244 1.32088C5.5137 1.30107 5.51992 1.2819 5.53052 1.26512C5.54112 1.24834 5.55577 1.2345 5.57312 1.22486C5.59047 1.21522 5.60996 1.2101 5.62981 1.20996V1.21195H6.66877V1.20996C6.69133 1.20993 6.71344 1.21634 6.73248 1.22845C6.75152 1.24056 6.76671 1.25785 6.77625 1.2783H6.77326L8.85716 5.74531Z" fill="#0020F5"/>
<path d="M10.7844 5.74531C10.7926 5.76335 10.7962 5.78317 10.7948 5.80294C10.7933 5.82272 10.787 5.84182 10.7762 5.85849C10.7655 5.87516 10.7507 5.88888 10.7333 5.89837C10.7159 5.90786 10.6964 5.91284 10.6766 5.91283H9.63995C9.61752 5.91264 9.59561 5.90609 9.57676 5.89393C9.55791 5.88178 9.5429 5.86452 9.53347 5.84416L7.45057 1.37848C7.44217 1.36049 7.43843 1.34069 7.43969 1.32088C7.44095 1.30107 7.44716 1.2819 7.45777 1.26512C7.46837 1.24834 7.48302 1.2345 7.50036 1.22486C7.51771 1.21522 7.53721 1.2101 7.55705 1.20996V1.21195H8.59602V1.20996C8.61858 1.20993 8.64068 1.21634 8.65972 1.22845C8.67877 1.24056 8.69395 1.25785 8.7035 1.2783H8.70051L10.7844 5.74531Z" fill="#0020F5"/>
<path d="M12.7131 5.74531C12.7214 5.76335 12.7249 5.78317 12.7235 5.80294C12.7221 5.82272 12.7157 5.84182 12.705 5.85849C12.6942 5.87516 12.6795 5.88888 12.6621 5.89837C12.6447 5.90786 12.6252 5.91284 12.6053 5.91283H11.5677C11.5456 5.91277 11.524 5.90652 11.5053 5.89479C11.4866 5.88306 11.4715 5.86633 11.4619 5.84648L9.3783 1.37848C9.36991 1.36049 9.36617 1.34069 9.36743 1.32088C9.36868 1.30107 9.3749 1.2819 9.3855 1.26512C9.3961 1.24834 9.41075 1.2345 9.4281 1.22486C9.44545 1.21522 9.46494 1.2101 9.48479 1.20996V1.21195H10.5218V1.20996C10.5443 1.20993 10.5664 1.21634 10.5855 1.22845C10.6045 1.24056 10.6197 1.25785 10.6292 1.2783H10.6263L12.7131 5.74531Z" fill="#0020F5"/>
</svg>
