<svg width="64" height="64" viewBox="0 0 64 64" fill="none" xmlns="http://www.w3.org/2000/svg">
<g clip-path="url(#clip0_750_62947)">
<path d="M39.2531 41.7294C39.027 42.1635 38.756 42.5725 38.4444 42.95C38.3615 43.0485 38.2571 43.1268 38.1393 43.1788C38.0081 43.2349 37.867 43.264 37.7243 43.2643C37.5783 43.2621 37.4341 43.231 37.3002 43.1727C37.1754 43.1194 37.0647 43.038 36.9767 42.9347C36.6492 42.5334 36.3715 42.0938 36.1498 41.6257L26.0375 21.697C25.9389 21.5473 25.885 21.3727 25.8818 21.1935C25.8818 20.8579 26.1972 20.69 26.8278 20.69H31.7954C32.1606 20.6634 32.5267 20.7284 32.8604 20.8792C33.1304 21.0794 33.3361 21.3541 33.4524 21.6695L38.179 31.4981L43.4609 22.0662C43.6701 21.6628 43.9351 21.2909 44.2482 20.9616C44.3444 20.8691 44.4587 20.7974 44.5839 20.7511C44.7165 20.7009 44.857 20.675 44.9988 20.6748C45.1375 20.6736 45.2752 20.6984 45.4047 20.748C45.5262 20.7944 45.6365 20.8662 45.7281 20.9585C46.0296 21.2932 46.2879 21.6643 46.4971 22.0632L51.7394 31.4004L56.4294 21.6512C56.5467 21.3313 56.7598 21.0553 57.0397 20.8609C57.3814 20.7117 57.7539 20.6468 58.126 20.6717H63.054C63.6846 20.6717 63.9999 20.8395 63.9999 21.1752C63.9959 21.3547 63.9408 21.5293 63.8412 21.6787L53.7899 41.6348C53.5682 42.103 53.2905 42.5426 52.963 42.9439C52.8751 43.0472 52.7643 43.1287 52.6395 43.1819C52.5056 43.2401 52.3614 43.2713 52.2154 43.2734C52.0811 43.2716 51.9484 43.2436 51.8248 43.191C51.7079 43.143 51.6036 43.0689 51.5197 42.9744C51.1935 42.5907 50.9091 42.1734 50.6714 41.7294L44.9592 31.5408L39.2531 41.7294Z" fill="#051727"/>
<path d="M17.5027 21.9991C17.3382 21.7129 17.2499 21.3893 17.2463 21.0593C17.3379 20.7816 18.1618 20.7725 18.1618 20.7725H23.578C23.7441 20.7811 23.9083 20.8119 24.0662 20.864C24.2731 20.9788 24.449 21.1422 24.5788 21.34L35.5639 42.8585C35.5639 42.8585 35.7164 43.1178 35.5639 43.2399C35.4275 43.3164 35.2707 43.3484 35.1153 43.3314H29.0125C28.779 43.3336 28.5478 43.2846 28.3351 43.188C28.1701 43.0736 28.0343 42.922 27.9384 42.7456L17.5027 21.9991Z" fill="#7FC547"/>
<path d="M8.93747 21.9991C8.77314 21.7129 8.68489 21.3893 8.68115 21.0593C8.77269 20.7816 9.59657 20.7725 9.59657 20.7725H15.0128C15.1789 20.7811 15.3431 20.8119 15.501 20.864C15.7079 20.9788 15.8838 21.1422 16.0137 21.34L26.9987 42.8585C26.9987 42.8585 27.1513 43.1178 26.9987 43.2399C26.8624 43.3164 26.7055 43.3484 26.5501 43.3314H20.4473C20.2138 43.3336 19.9826 43.2846 19.7699 43.188C19.6049 43.0736 19.4691 42.922 19.3732 42.7456L8.93747 21.9991Z" fill="#4BA6DD"/>
<path d="M0.256317 21.999C0.0923605 21.7137 0.00412321 21.3912 0 21.0622C0.0915419 20.7845 0.915419 20.7754 0.915419 20.7754H6.33775C6.50384 20.7841 6.66803 20.8148 6.82598 20.8669C7.03287 20.9818 7.20879 21.1451 7.33861 21.343L18.3236 42.8614C18.3236 42.8614 18.4762 43.1208 18.3236 43.2428C18.1873 43.3193 18.0305 43.3513 17.8751 43.3344H11.7723C11.5387 43.3365 11.3075 43.2876 11.0949 43.191C10.9299 43.0765 10.794 42.925 10.6982 42.7485L0.256317 21.999Z" fill="#3571DE"/>
</g>
<defs>
<clipPath id="clip0_750_62947">
<rect width="64" height="64" fill="white"/>
</clipPath>
</defs>
</svg>
