<svg id="Icons_20px_Template_Blue_Filled" data-name="Icons / 20px / Template Blue Filled" xmlns="http://www.w3.org/2000/svg" width="16" height="16" viewBox="0 0 16 16">
  <g id="TEmplate" transform="translate(1 1)">
    <path id="Shape" d="M2.807,14.572A2.982,2.982,0,0,1,.45,12.182,25.262,25.262,0,0,1,0,7.5C0,6.91.023,6.344.06,5.812A6.117,6.117,0,0,1,5.817.051l.124,2A4.117,4.117,0,0,0,2.056,5.953C2.02,6.443,2,6.962,2,7.5a23.35,23.35,0,0,0,.414,4.307L.45,12.182l1.964-.375a.984.984,0,0,0,.779.8,1,1,0,1,1-.386,1.963Zm9.8-11.379a1,1,0,0,0-.8-.8A22.5,22.5,0,0,0,7.5,2V0a24.53,24.53,0,0,1,4.694.428l-.386,1.963L12.194.428a3,3,0,0,1,2.378,2.379,1,1,0,1,1-1.963.386ZM5.817.051C6.338.019,6.9,0,7.5,0V2c-.557,0-1.077.018-1.559.048Z" fill="#101336"/>
    <path id="Path" d="M0,6.5a24.348,24.348,0,0,0,.471,4.7A1.506,1.506,0,0,0,1.64,12.516a3.688,3.688,0,0,0,.565.075h.157A10.228,10.228,0,0,0,12.59,2.362V2.214a3.82,3.82,0,0,0-.078-.589,1.5,1.5,0,0,0-1.3-1.173A23.2,23.2,0,0,0,6.5,0C5.921,0,5.38.019,4.879.05A5.116,5.116,0,0,0,.058,4.883C.022,5.394,0,5.936,0,6.5Z" transform="translate(1 1)" fill="rgba(16,19,54,0.1)"/>
    <path id="Path-2" data-name="Path" d="M3.914,2.043l-1.9-1.9a.5.5,0,0,0-.709,0L.145,1.323a.5.5,0,0,0,0,.705l1.9,1.9a.5.5,0,0,0,.709,0L3.916,2.748A.5.5,0,0,0,3.914,2.043Z" transform="translate(10.288 5.209)" fill="#101336"/>
    <path id="Path-3" data-name="Path" d="M3.747.146a.5.5,0,0,1,.707,0L6.368,2.06a.5.5,0,0,1,0,.707L2.984,6.151.574,6.508A.5.5,0,0,1,.006,5.94L.363,3.53Z" transform="translate(5.404 7.653)" fill="#101336"/>
  </g>
</svg>
