<svg width="64" height="64" viewBox="0 0 64 64" fill="none" xmlns="http://www.w3.org/2000/svg">
<g clip-path="url(#clip0_750_62911)">
<path d="M48.842 15.1582H15.158V48.8422H48.842V15.1582Z" fill="white"/>
<path d="M48.842 63.9998L64 48.8418L56.421 47.5488L48.842 48.8418L47.4587 55.7743L48.842 63.9998Z" fill="#EA4335"/>
<path d="M0 48.8418V58.9471C0 61.7388 2.261 63.9998 5.0525 63.9998H15.158L16.7143 56.4208L15.158 48.8418L6.89975 47.5488L0 48.8418Z" fill="#188038"/>
<path d="M64 15.158V5.0525C64 2.261 61.739 0 58.9475 0H48.842C47.92 3.759 47.4587 6.52525 47.4587 8.299C47.4587 10.0725 47.92 12.359 48.842 15.158C52.1945 16.118 54.7207 16.598 56.421 16.598C58.1212 16.598 60.6475 16.118 64 15.158Z" fill="#1967D2"/>
<path d="M64 15.1582H48.842V48.8422H64V15.1582Z" fill="#FBBC04"/>
<path d="M48.842 48.8418H15.158V63.9998H48.842V48.8418Z" fill="#34A853"/>
<path d="M48.842 0H5.05275C2.261 0 0 2.261 0 5.0525V48.842H15.158V15.158H48.842V0Z" fill="#4285F4"/>
<path d="M22.0674 41.2887C20.8084 40.4382 19.9367 39.1962 19.4609 37.5537L22.3832 36.3497C22.6482 37.3602 23.1114 38.1435 23.7727 38.6992C24.4294 39.255 25.2294 39.5287 26.1642 39.5287C27.1199 39.5287 27.9409 39.2382 28.6272 38.657C29.3137 38.076 29.6589 37.335 29.6589 36.4382C29.6589 35.5202 29.2967 34.7707 28.5727 34.1897C27.8484 33.6087 26.9389 33.3182 25.8527 33.3182H24.1642V30.4257H25.6799C26.6147 30.4257 27.4019 30.173 28.0419 29.6675C28.6819 29.1625 29.0019 28.4717 29.0019 27.5917C29.0019 26.8087 28.7157 26.1855 28.1432 25.7182C27.5707 25.2507 26.8462 25.015 25.9662 25.015C25.1072 25.015 24.4252 25.2425 23.9199 25.7012C23.415 26.1614 23.0353 26.7425 22.8167 27.3897L19.9242 26.1855C20.3072 25.0992 21.0104 24.1392 22.0419 23.3097C23.0737 22.4802 24.3914 22.0635 25.9914 22.0635C27.1747 22.0635 28.2399 22.291 29.1832 22.7497C30.1262 23.2087 30.8672 23.8445 31.4019 24.653C31.9369 25.4655 32.2019 26.375 32.2019 27.3855C32.2019 28.417 31.9537 29.2887 31.4569 30.0045C30.9599 30.7202 30.3494 31.2675 29.6252 31.6507V31.8232C30.5603 32.2088 31.3727 32.8421 31.9747 33.655C32.5852 34.476 32.8927 35.457 32.8927 36.6025C32.8927 37.7475 32.6019 38.7707 32.0209 39.6675C31.4399 40.5645 30.6359 41.2717 29.6167 41.7855C28.5937 42.2992 27.4442 42.5605 26.1684 42.5605C24.6904 42.5645 23.3264 42.1392 22.0674 41.2887ZM40.0167 26.7875L36.8084 29.1075L35.2042 26.674L40.9599 22.5222H43.1662V42.1055H40.0167V26.7875Z" fill="#4285F4"/>
</g>
<defs>
<clipPath id="clip0_750_62911">
<rect width="64" height="64" fill="white"/>
</clipPath>
</defs>
</svg>
