<svg width="16" height="9" viewBox="0 0 16 9" fill="none" xmlns="http://www.w3.org/2000/svg">
<path d="M2.65625 4.75586C3.40625 4.75586 4 4.16211 4 3.44336C4 2.69336 3.40625 2.09961 2.65625 2.09961C1.9375 2.09961 1.34375 2.69336 1.34375 3.44336C1.34375 4.16211 1.9375 4.75586 2.65625 4.75586ZM3.40625 5.50586C3.1875 5.47461 2.9375 5.44336 2.65625 5.44336C2 5.44336 1.375 5.56836 0.8125 5.81836C0.3125 6.03711 0 6.50586 0 7.06836V8.09961H3V7.03711C3 6.47461 3.15625 5.94336 3.40625 5.50586ZM13.3438 4.75586C14.0625 4.75586 14.6562 4.16211 14.6562 3.44336C14.6562 2.69336 14.0625 2.09961 13.3438 2.09961C12.5938 2.09961 12 2.69336 12 3.44336C12 4.16211 12.5938 4.75586 13.3438 4.75586ZM16 7.06836C16 6.50586 15.6875 6.03711 15.1875 5.81836C14.625 5.56836 14 5.44336 13.3438 5.44336C13.0625 5.44336 12.8125 5.47461 12.5938 5.50586C12.8438 5.94336 13 6.47461 13 7.03711V8.09961H16V7.06836ZM10.8125 5.19336C10.0312 4.84961 9.09375 4.59961 8 4.59961C6.90625 4.59961 5.96875 4.84961 5.1875 5.19336C4.46875 5.50586 4 6.22461 4 7.03711V8.09961H12V7.03711C12 6.22461 11.5312 5.50586 10.8125 5.19336ZM5.375 6.75586C5.4375 6.59961 5.46875 6.50586 6 6.31836C6.625 6.06836 7.3125 5.94336 8 5.94336C8.6875 5.94336 9.375 6.06836 10 6.31836C10.5312 6.50586 10.5625 6.59961 10.625 6.75586H5.375ZM8 1.44336C8.375 1.44336 8.65625 1.72461 8.65625 2.09961C8.65625 2.47461 8.375 2.75586 8 2.75586C7.625 2.75586 7.34375 2.47461 7.34375 2.09961C7.34375 1.72461 7.625 1.44336 8 1.44336ZM8 0.0996094C6.90625 0.0996094 6 1.00586 6 2.09961C6 3.19336 6.90625 4.09961 8 4.09961C9.09375 4.09961 10 3.19336 10 2.09961C10 1.00586 9.09375 0.0996094 8 0.0996094Z" fill="#101336"/>
</svg>
