<svg xmlns="http://www.w3.org/2000/svg" width="19" height="20" viewBox="0 0 19 20">
  <g id="Icons_Group_Call_Blue" data-name="Icons / Group Call Blue" transform="translate(1 1)">
    <g id="Icons_Teams" data-name="Icons / Teams" transform="translate(7 6)">
      <g id="Group_2" data-name="Group 2">
        <g id="Rectangle" transform="translate(0 7)" fill="none" stroke="blue" stroke-miterlimit="10" stroke-width="2">
          <path d="M4.222,0h1A5.778,5.778,0,0,1,11,5.778v0A.222.222,0,0,1,10.778,6H.222A.222.222,0,0,1,0,5.778V4.222A4.222,4.222,0,0,1,4.222,0Z" stroke="none"/>
          <path d="M3.88,1H6a4,4,0,0,1,4,4V5a0,0,0,0,1,0,0H1A0,0,0,0,1,1,5V3.88A2.88,2.88,0,0,1,3.88,1Z" fill="none"/>
        </g>
      </g>
    </g>
    <g id="Group_50" data-name="Group 50" transform="translate(-2 -1)">
      <g id="Icons_Calendar_Blue" data-name="Icons / Calendar Blue" transform="translate(2 1)">
        <g id="calendar">
          <path id="Path" d="M11.25,1.688h0A1.688,1.688,0,0,0,9.562,0H1.5A2.011,2.011,0,0,0,.446,1.167,22.021,22.021,0,0,0,0,5.735,22.422,22.422,0,0,0,.4,10.06a1.744,1.744,0,0,0,1.362,1.389,21.179,21.179,0,0,0,4.242.4" transform="translate(0 1.147)" fill="none" stroke="blue" stroke-linecap="round" stroke-miterlimit="10" stroke-width="2"/>
          <path id="Path-2" data-name="Path" d="M.5,1h6" transform="translate(0.5 6)" fill="none" stroke="blue" stroke-linecap="round" stroke-miterlimit="10" stroke-width="2"/>
          <path id="Path-3" data-name="Path" d="M.375,3V0" transform="translate(3.375)" fill="none" stroke="blue" stroke-linecap="round" stroke-miterlimit="10" stroke-width="2"/>
          <path id="Path-4" data-name="Path" d="M.375,3V0" transform="translate(7.875)" fill="none" stroke="blue" stroke-linecap="round" stroke-miterlimit="10" stroke-width="2"/>
        </g>
      </g>
      <path id="Path_Copy_8" data-name="Path Copy 8" d="M2.5,0A2.5,2.5,0,1,0,5,2.5,2.5,2.5,0,0,0,2.5,0Z" transform="translate(12 7)" fill="none" stroke="blue" stroke-miterlimit="10" stroke-width="2"/>
    </g>
  </g>
</svg>
