<?xml version="1.0" standalone="no"?>
<!DOCTYPE svg PUBLIC "-//W3C//DTD SVG 20010904//EN"
 "http://www.w3.org/TR/2001/REC-SVG-20010904/DTD/svg10.dtd">
<svg version="1.0" xmlns="http://www.w3.org/2000/svg"
 width="320.000000pt" height="320.000000pt" viewBox="0 0 320.000000 320.000000"
 preserveAspectRatio="xMidYMid meet">
<metadata>
Created by potrace 1.16, written by Peter Selinger 2001-2019
</metadata>
<g transform="translate(0.000000,320.000000) scale(0.100000,-0.100000)"
fill="#000000" stroke="none">
<path d="M606 3140 c-66 -59 -69 -135 -6 -195 23 -22 42 -29 92 -34 l63 -6 8
-158 c8 -184 23 -265 67 -371 56 -134 100 -190 320 -406 236 -232 260 -266
260 -370 0 -116 -36 -165 -293 -404 -147 -136 -212 -217 -267 -331 -60 -123
-78 -211 -86 -404 l-7 -169 -59 -4 c-69 -5 -105 -27 -132 -82 -16 -33 -17 -43
-6 -79 6 -22 25 -53 42 -69 l30 -28 960 0 960 0 30 21 c31 23 58 73 58 110 0
37 -32 89 -64 106 -17 9 -56 19 -86 22 l-55 6 -7 170 c-7 192 -26 282 -82 399
-53 109 -117 186 -318 378 -218 210 -243 246 -243 353 1 125 22 154 331 445
114 108 180 192 229 294 59 122 77 210 84 401 l6 170 62 6 c34 3 73 13 86 22
27 17 57 74 57 106 0 37 -27 87 -58 110 l-30 21 -956 0 -955 0 -35 -30z m1720
-387 c-8 -181 -29 -280 -80 -381 -53 -105 -113 -175 -292 -342 -233 -217 -274
-281 -274 -437 0 -140 48 -216 252 -403 224 -203 298 -301 354 -463 25 -71 43
-226 44 -374 l0 -63 -731 0 -731 0 4 173 c4 160 7 178 35 262 54 159 84 199
324 435 189 187 222 224 248 280 28 58 31 75 31 160 0 85 -3 102 -31 160 -26
57 -58 92 -244 275 -117 116 -229 235 -249 265 -81 125 -114 257 -116 460 -1
74 -1 138 -1 143 1 4 330 7 732 7 l731 0 -6 -157z"/>
<path d="M955 2493 c13 -55 75 -169 122 -228 27 -32 117 -122 201 -200 211
-194 268 -275 287 -410 16 -109 44 -107 64 4 25 139 49 174 285 406 118 116
228 232 246 258 34 51 80 156 80 182 0 13 -75 15 -646 15 l-646 0 7 -27z"/>
<path d="M1555 782 c-43 -24 -124 -80 -385 -266 l-225 -161 115 -6 c170 -9
755 -11 984 -3 l200 7 -35 29 c-18 16 -117 87 -219 158 -250 176 -239 167
-217 184 11 9 17 24 15 38 -2 18 -9 23 -33 23 -23 0 -31 -5 -33 -22 -4 -28 -4
-28 -55 1 -60 34 -78 37 -112 18z"/>
</g>
</svg>
