<svg width="10" height="14" viewBox="0 0 10 14" fill="none" xmlns="http://www.w3.org/2000/svg">
<path d="M4.99967 8.66667C6.10634 8.66667 6.99967 7.77334 6.99967 6.66667V2.66667C6.99967 1.56001 6.10634 0.666672 4.99967 0.666672C3.89301 0.666672 2.99967 1.56001 2.99967 2.66667V6.66667C2.99967 7.77334 3.89301 8.66667 4.99967 8.66667Z" fill="#4D4D4D"/>
<path d="M8.33301 6.66667C8.33301 8.50667 6.83967 10 4.99967 10C3.15967 10 1.66634 8.50667 1.66634 6.66667H0.333008C0.333008 9.02 2.07301 10.9533 4.33301 11.28V13.3333H5.66634V11.28C7.92634 10.9533 9.66634 9.02 9.66634 6.66667H8.33301Z" fill="#4D4D4D"/>
</svg>
