<svg width="14" height="14" viewBox="0 0 14 14" fill="none" xmlns="http://www.w3.org/2000/svg">
<path d="M9.33301 6.33333C9.88529 6.33333 10.333 5.88561 10.333 5.33333C10.333 4.78104 9.88529 4.33333 9.33301 4.33333C8.78072 4.33333 8.33301 4.78104 8.33301 5.33333C8.33301 5.88561 8.78072 6.33333 9.33301 6.33333Z" fill="#4D4D4D"/>
<path d="M4.66634 6.33333C5.21863 6.33333 5.66634 5.88561 5.66634 5.33333C5.66634 4.78104 5.21863 4.33333 4.66634 4.33333C4.11406 4.33333 3.66634 4.78104 3.66634 5.33333C3.66634 5.88561 4.11406 6.33333 4.66634 6.33333Z" fill="#4D4D4D"/>
<path d="M6.99967 11C8.51967 11 9.81301 9.89333 10.333 8.33333H3.66634C4.18634 9.89333 5.47967 11 6.99967 11Z" fill="#4D4D4D"/>
<path d="M6.99301 0.333328C3.31301 0.333328 0.333008 3.31999 0.333008 7C0.333008 10.68 3.31301 13.6667 6.99301 13.6667C10.6797 13.6667 13.6663 10.68 13.6663 7C13.6663 3.31999 10.6797 0.333328 6.99301 0.333328ZM6.99967 12.3333C4.05301 12.3333 1.66634 9.94666 1.66634 7C1.66634 4.05333 4.05301 1.66666 6.99967 1.66666C9.94634 1.66666 12.333 4.05333 12.333 7C12.333 9.94666 9.94634 12.3333 6.99967 12.3333Z" fill="#4D4D4D"/>
</svg>
