<?xml version="1.0" encoding="UTF-8"?>
<svg width="16px" height="16px" viewBox="0 0 16 16" version="1.1" xmlns="http://www.w3.org/2000/svg" xmlns:xlink="http://www.w3.org/1999/xlink">
    <title>Icons / Profile / Integration</title>
    <g id="Icons-/-Profile-/-Integration" stroke="none" stroke-width="1" fill="none" fill-rule="evenodd">
        <g transform="translate(1.000000, 1.000000)" id="Path" stroke="#797B8F" stroke-width="2">
            <path d="M9.64439931,14 L0.999999,14 C0.447709968,14 -1.00000034e-06,13.5178615 -1.00000034e-06,12.9230769 L-1.00000034e-06,10.2607077 C-1.00000034e-06,9.79806154 0.348219975,9.42307692 0.777779944,9.42307692 L1.30555991,9.42307692 C2.54819982,9.42307692 3.55555975,8.33822769 3.55555975,7 C3.55554975,5.66177231 2.54819982,4.57692308 1.30555991,4.57692308 L0.777779944,4.57692308 C0.348219975,4.57692308 -1.00000034e-06,4.20191692 -1.00000034e-06,3.73931385 L-1.00000034e-06,1.07692308 C-1.00000034e-06,0.48216 0.447709968,0 0.999999,0 L1.96295986,0 L8.48147939,0 L9.64439931,0 C10.0862993,0 10.4443993,0.385721538 10.4443993,0.861538462 L10.4443993,3.73311077 C10.4443993,4.34780769 10.9071992,4.84615385 11.4779992,4.84615385 L11.999999,4.84615385 C13.1045991,4.84615385 13.999999,5.81046308 13.999999,7 C13.999999,8.18953692 13.1045991,9.15384615 11.999999,9.15384615 L11.4779992,9.15384615 C10.9071992,9.15384615 10.4443993,9.65213846 10.4443993,10.2668462 L10.4443993,13.1384615 C10.4443993,13.6142462 10.0862993,14 9.64439931,14 Z"></path>
        </g>
    </g>
</svg>