<?xml version="1.0" encoding="UTF-8"?>
<svg width="24px" height="24px" viewBox="0 0 24 24" version="1.1" xmlns="http://www.w3.org/2000/svg" xmlns:xlink="http://www.w3.org/1999/xlink">
    <title>Icon / Table / New</title>
    <g id="Icon-/-Table-/-New" stroke="none" stroke-width="1" fill="none" fill-rule="evenodd">
        <g id="New" fill="#0000FF" fill-rule="nonzero">
            <path d="M0.571939,3.3582 C0.784253,1.89629 1.89629,0.784253 3.3582,0.571939 C5.22776,0.300422 8.16325,0 12,0 C15.8368,0 18.7722,0.300422 20.6418,0.571939 C22.1037,0.784253 23.2157,1.89629 23.4281,3.3582 C23.6996,5.22776 24,8.16325 24,12 C24,15.8368 23.6996,18.7722 23.4281,20.6418 C23.2157,22.1037 22.1037,23.2157 20.6418,23.4281 C18.7722,23.6996 15.8368,24 12,24 C8.16325,24 5.22776,23.6996 3.3582,23.4281 C1.89629,23.2157 0.784253,22.1037 0.571939,20.6418 C0.300422,18.7722 0,15.8368 0,12 C0,8.16325 0.300422,5.22776 0.571939,3.3582 Z" id="Path-Copy-2" opacity="0.24"></path>
            <circle id="Oval-Copy-7" cx="12" cy="12" r="4"></circle>
        </g>
    </g>
</svg>