<svg width="168" height="164" viewBox="0 0 168 164" fill="none" xmlns="http://www.w3.org/2000/svg">
<g clip-path="url(#clip0_933_20896)">
<g clip-path="url(#clip1_933_20896)">
<rect width="168" height="164" fill="#F5F5F5"/>
<g filter="url(#filter0_d_933_20896)">
<rect width="120" height="164" transform="translate(24)" fill="white"/>
<rect width="120" height="110" transform="translate(24)" fill="#989898"/>
<rect x="64" y="35" width="40" height="40" rx="20" fill="#B7D7F9"/>
<path d="M78.5 48V62L89.5 55L78.5 48Z" fill="white"/>
<rect x="32" y="118" width="16" height="16" rx="8" fill="#989898"/>
<rect width="26" height="4" transform="translate(52 120.997)" fill="#989898"/>
<rect width="7.27276" height="4" transform="matrix(1 -0.000819935 0.000185346 1 52 127.003)" fill="#989898"/>
<rect x="96" y="120" width="12" height="12" rx="6" fill="#066FD3"/>
<rect x="110" y="120" width="12" height="12" rx="6" fill="#066FD3"/>
<rect x="124" y="120" width="12" height="12" rx="6" fill="#066FD3"/>
<rect width="104" height="8" transform="translate(32 142)" fill="#4D4D4D"/>
<rect width="104" height="4" transform="translate(32 158)" fill="#4D4D4D"/>
</g>
</g>
</g>
<rect x="0.609756" y="0.609756" width="166.78" height="162.78" rx="7.39024" stroke="#E6E6E6" stroke-width="1.21951"/>
<defs>
<filter id="filter0_d_933_20896" x="16" y="-4" width="136" height="190.045" filterUnits="userSpaceOnUse" color-interpolation-filters="sRGB">
<feFlood flood-opacity="0" result="BackgroundImageFix"/>
<feColorMatrix in="SourceAlpha" type="matrix" values="0 0 0 0 0 0 0 0 0 0 0 0 0 0 0 0 0 0 127 0" result="hardAlpha"/>
<feOffset dy="4"/>
<feGaussianBlur stdDeviation="4"/>
<feColorMatrix type="matrix" values="0 0 0 0 0 0 0 0 0 0 0 0 0 0 0 0 0 0 0.16 0"/>
<feBlend mode="normal" in2="BackgroundImageFix" result="effect1_dropShadow_933_20896"/>
<feBlend mode="normal" in="SourceGraphic" in2="effect1_dropShadow_933_20896" result="shape"/>
</filter>
<clipPath id="clip0_933_20896">
<rect width="168" height="164" rx="8" fill="white"/>
</clipPath>
<clipPath id="clip1_933_20896">
<rect width="168" height="164" fill="white"/>
</clipPath>
</defs>
</svg>
