<svg width="168" height="164" viewBox="0 0 168 164" fill="none" xmlns="http://www.w3.org/2000/svg">
<g clip-path="url(#clip0_933_10337)">
<g filter="url(#filter0_d_933_10337)">
<rect width="168" height="26.24" fill="white"/>
<rect x="6.56006" y="6.56006" width="13.12" height="13.12" rx="6.56" fill="#989898"/>
<rect width="40.18" height="3.28" transform="translate(22.96 9.01611)" fill="#989898"/>
<rect width="17.8403" height="3.28" transform="matrix(1 -0.000435068 0.000349306 1 22.96 13.9438)" fill="#989898"/>
<rect width="19.68" height="3.28" transform="translate(118.8 11.48)" fill="#989898"/>
<rect width="19.68" height="3.28" transform="translate(141.76 11.48)" fill="#989898"/>
</g>
<rect width="168" height="137.76" transform="translate(0 26.2402)" fill="#F5F5F5"/>
<rect width="91.02" height="6.56" transform="translate(38.49 36.0801)" fill="#4D4D4D"/>
<rect width="143.5" height="3.28" transform="translate(12.25 49.2002)" fill="#4D4D4D"/>
<rect width="150.465" height="3.28" transform="translate(8.76685 54.1787) rotate(-0.0223359)" fill="#4D4D4D"/>
<rect width="89.38" height="3.28" transform="translate(39.3101 59.0986)" fill="#4D4D4D"/>
<rect width="154.88" height="90.2" transform="translate(6.56006 68.939)" fill="#989898"/>
<rect x="70.52" y="91.0205" width="32.8" height="32.8" rx="16.4" fill="#B7D7F9"/>
<path d="M82.4099 101.681V113.161L91.4299 107.421L82.4099 101.681Z" fill="white"/>
</g>
<rect x="0.5" y="0.5" width="167" height="163" rx="7.5" stroke="#E6E6E6"/>
<defs>
<filter id="filter0_d_933_10337" x="-8" y="-4" width="184" height="42.2402" filterUnits="userSpaceOnUse" color-interpolation-filters="sRGB">
<feFlood flood-opacity="0" result="BackgroundImageFix"/>
<feColorMatrix in="SourceAlpha" type="matrix" values="0 0 0 0 0 0 0 0 0 0 0 0 0 0 0 0 0 0 127 0" result="hardAlpha"/>
<feOffset dy="4"/>
<feGaussianBlur stdDeviation="4"/>
<feColorMatrix type="matrix" values="0 0 0 0 0 0 0 0 0 0 0 0 0 0 0 0 0 0 0.16 0"/>
<feBlend mode="normal" in2="BackgroundImageFix" result="effect1_dropShadow_933_10337"/>
<feBlend mode="normal" in="SourceGraphic" in2="effect1_dropShadow_933_10337" result="shape"/>
</filter>
<clipPath id="clip0_933_10337">
<rect width="168" height="164" rx="8" fill="white"/>
</clipPath>
</defs>
</svg>
