<svg width="148" height="111" viewBox="0 0 148 111" fill="none" xmlns="http://www.w3.org/2000/svg">
<g clip-path="url(#clip0_857_33404)">
<rect width="148" height="150.88" transform="translate(0 0.700195)" fill="#F5F5F5"/>
<rect width="59.28" height="7.36" transform="translate(7.35986 11.7397)" fill="#4D4D4D"/>
<rect width="59.28" height="3.68" transform="translate(7.35986 26.46)" fill="#4D4D4D"/>
<rect width="59.28" height="3.68" transform="translate(7.35938 32.0029) rotate(-0.0223359)" fill="#4D4D4D"/>
<rect width="59.28" height="3.68" transform="translate(7.35986 37.5229)" fill="#4D4D4D"/>
<rect width="59.28" height="3.68" transform="translate(7.35986 43.043)" fill="#4D4D4D"/>
<rect width="59.28" height="3.68" transform="translate(7.35986 48.563)" fill="#4D4D4D"/>
<rect width="59.28" height="70.84" transform="translate(7.35986 59.603)" fill="#989898"/>
<rect width="59.28" height="7.36" transform="translate(81.3599 11.7397)" fill="#4D4D4D"/>
<rect width="59.28" height="3.68" transform="translate(81.3599 26.46)" fill="#4D4D4D"/>
<rect width="59.28" height="3.68" transform="translate(81.3594 32.0029) rotate(-0.0223359)" fill="#4D4D4D"/>
<rect width="59.28" height="3.68" transform="translate(81.3599 37.5229)" fill="#4D4D4D"/>
<rect width="59.28" height="3.68" transform="translate(81.3599 43.043)" fill="#4D4D4D"/>
<rect width="59.28" height="3.68" transform="translate(81.3599 48.563)" fill="#4D4D4D"/>
<rect width="59.28" height="70.84" transform="translate(81.3599 59.603)" fill="#989898"/>
</g>
<rect x="0.560976" y="1.26117" width="146.878" height="149.758" rx="6.79902" stroke="#E6E6E6" stroke-width="1.12195"/>
<defs>
<clipPath id="clip0_857_33404">
<rect y="0.700195" width="148" height="150.88" rx="7.36" fill="white"/>
</clipPath>
</defs>
</svg>
