<svg width="16" height="16" viewBox="0 0 16 16" fill="none" xmlns="http://www.w3.org/2000/svg">
<path d="M6.00016 14C6.00016 14.3667 6.30016 14.6667 6.66683 14.6667H9.3335C9.70016 14.6667 10.0002 14.3667 10.0002 14V13.3333H6.00016V14ZM8.00016 1.33334C5.42683 1.33334 3.3335 3.42668 3.3335 6.00001C3.3335 7.58668 4.12683 8.98001 5.3335 9.82668V11.3333C5.3335 11.7 5.6335 12 6.00016 12H10.0002C10.3668 12 10.6668 11.7 10.6668 11.3333V9.82668C11.8735 8.98001 12.6668 7.58668 12.6668 6.00001C12.6668 3.42668 10.5735 1.33334 8.00016 1.33334ZM9.90016 8.73334L9.3335 9.13334V10.6667H6.66683V9.13334L6.10016 8.73334C5.20016 8.10668 4.66683 7.08668 4.66683 6.00001C4.66683 4.16001 6.16016 2.66668 8.00016 2.66668C9.84016 2.66668 11.3335 4.16001 11.3335 6.00001C11.3335 7.08668 10.8002 8.10668 9.90016 8.73334Z" fill="#4D4D4D"/>
</svg>
