<svg width="14" height="8" viewBox="0 0 14 8" fill="none" xmlns="http://www.w3.org/2000/svg">
<path d="M10.3335 0.666687H7.66683V2.00002H10.3335C11.4335 2.00002 12.3335 2.90002 12.3335 4.00002C12.3335 5.10002 11.4335 6.00002 10.3335 6.00002H7.66683V7.33335H10.3335C12.1735 7.33335 13.6668 5.84002 13.6668 4.00002C13.6668 2.16002 12.1735 0.666687 10.3335 0.666687ZM6.3335 6.00002H3.66683C2.56683 6.00002 1.66683 5.10002 1.66683 4.00002C1.66683 2.90002 2.56683 2.00002 3.66683 2.00002H6.3335V0.666687H3.66683C1.82683 0.666687 0.333496 2.16002 0.333496 4.00002C0.333496 5.84002 1.82683 7.33335 3.66683 7.33335H6.3335V6.00002ZM4.3335 3.33335H9.66683V4.66669H4.3335V3.33335Z" fill="#4D4D4D"/>
</svg>
