<svg xmlns="http://www.w3.org/2000/svg" width="16" height="16" viewBox="0 0 16 16">
  <g id="Materials" transform="translate(1 1)">
    <path id="Path" d="M7.455,1.179,7.174.717A.975.975,0,0,0,6.716.261,7.959,7.959,0,0,0,4.2,0,16.775,16.775,0,0,0,2.492.077,2.293,2.293,0,0,0,.5,1.975,22.97,22.97,0,0,0,0,6.892a27.792,27.792,0,0,0,.29,4.1A3.254,3.254,0,0,0,3.17,13.8,33.592,33.592,0,0,0,7,14a35.1,35.1,0,0,0,3.955-.2,3.22,3.22,0,0,0,2.905-2.883A25.217,25.217,0,0,0,14,8.185a21.132,21.132,0,0,0-.179-2.923A2.129,2.129,0,0,0,11.583,3.5,4.832,4.832,0,0,1,7.455,1.179Z" fill="rgba(19,1,255,0.1)" stroke="#1301ff" stroke-miterlimit="10" stroke-width="2"/>
    <path id="Path-2" data-name="Path" d="M0,3.88V1.12A.991.991,0,0,1,1.493.161l2.028,1.38a1.2,1.2,0,0,1,0,1.918L1.493,4.839A.991.991,0,0,1,0,3.88Z" transform="translate(5 5)" fill="#1301ff"/>
  </g>
</svg>
