<?xml version="1.0" standalone="no"?>
<!DOCTYPE svg PUBLIC "-//W3C//DTD SVG 20010904//EN"
 "http://www.w3.org/TR/2001/REC-SVG-20010904/DTD/svg10.dtd">
<svg version="1.0" xmlns="http://www.w3.org/2000/svg"
 width="225.000000pt" height="225.000000pt" viewBox="0 0 225.000000 225.000000"
 preserveAspectRatio="xMidYMid meet">
<metadata>
Created by potrace 1.16, written by Peter Selinger 2001-2019
</metadata>
<g transform="translate(0.000000,225.000000) scale(0.100000,-0.100000)"
fill="#000" stroke="none">
<path d="M1008 2041 c-104 -34 -178 -103 -230 -216 -22 -49 -23 -57 -23 -370
0 -308 1 -322 22 -375 31 -76 98 -149 175 -191 61 -33 67 -34 173 -34 101 0
114 2 162 27 102 54 167 133 198 240 14 49 16 102 13 355 -3 286 -4 300 -26
348 -35 76 -70 122 -124 161 -95 70 -226 91 -340 55z"/>
<path d="M498 1279 c-31 -30 -31 -31 -25 -109 23 -294 232 -529 530 -594 l27
-6 0 -100 0 -100 -115 0 c-111 0 -117 -1 -142 -26 -22 -22 -25 -32 -20 -72 9
-84 2 -82 372 -82 370 0 363 -2 372 82 5 40 2 50 -20 72 -25 25 -31 26 -142
26 l-115 0 0 100 0 100 28 6 c241 53 421 212 497 437 14 43 28 113 32 157 6
78 6 79 -25 109 -61 61 -145 28 -156 -60 -3 -24 -8 -65 -11 -91 -14 -111 -123
-261 -232 -320 -103 -56 -234 -72 -348 -43 -185 49 -323 209 -345 402 -5 46
-14 92 -20 103 -27 50 -97 54 -142 9z"/>
</g>
</svg>
