<?xml version="1.0" standalone="no"?>
<!DOCTYPE svg PUBLIC "-//W3C//DTD SVG 20010904//EN"
 "http://www.w3.org/TR/2001/REC-SVG-20010904/DTD/svg10.dtd">
<svg version="1.0" xmlns="http://www.w3.org/2000/svg"
 width="600.000000pt" height="601.000000pt" viewBox="0 0 600.000000 601.000000"
 preserveAspectRatio="xMidYMid meet">
<metadata>
Created by potrace 1.16, written by Peter Selinger 2001-2019
</metadata>
<g transform="translate(0.000000,601.000000) scale(0.100000,-0.100000)"
fill="#000" stroke="none">
<path d="M4671 5313 c-486 -491 -613 -615 -621 -603 -5 8 -12 35 -15 60 -9 72
-30 135 -88 262 -51 111 -108 191 -207 290 -93 92 -157 138 -281 200 -92 46
-141 62 -272 88 -162 33 -342 21 -520 -35 -136 -42 -292 -139 -407 -253 -99
-99 -156 -179 -207 -290 -57 -126 -74 -176 -92 -278 -16 -86 -15 -1594 0
-1678 17 -91 46 -181 90 -275 l39 -84 -95 -96 c-91 -93 -95 -95 -110 -76 -9
11 -20 29 -25 40 -6 11 -19 35 -30 53 -24 39 -63 132 -89 212 -33 98 -50 192
-61 334 -12 155 -21 185 -76 245 -54 61 -102 81 -191 81 -84 0 -118 -13 -176
-69 -59 -55 -87 -127 -87 -223 0 -83 20 -234 46 -353 16 -70 67 -243 84 -280
5 -11 23 -51 39 -88 17 -38 31 -70 31 -73 0 -8 122 -208 148 -242 l25 -33
-484 -487 c-266 -268 -597 -601 -734 -740 l-250 -252 185 -180 c102 -99 201
-195 220 -214 l35 -34 1875 1885 c1031 1036 2208 2220 2614 2629 l739 746
-134 134 c-74 75 -173 171 -220 215 l-87 79 -611 -617z"/>
<path d="M4469 3490 c-43 -22 -106 -90 -125 -136 -8 -19 -19 -96 -25 -172 -10
-139 -27 -232 -60 -332 -32 -97 -81 -206 -119 -265 -11 -16 -23 -37 -27 -45
-17 -39 -139 -184 -211 -252 -261 -245 -601 -370 -962 -354 -74 3 -147 9 -162
12 -24 6 -46 -13 -235 -201 -159 -158 -204 -208 -193 -215 8 -5 46 -19 85 -30
38 -12 90 -28 114 -36 25 -8 56 -14 70 -14 14 0 46 -6 71 -14 l45 -13 3 -263
c2 -185 -1 -267 -9 -276 -9 -11 -69 -14 -312 -14 -290 0 -301 -1 -344 -22 -86
-43 -127 -121 -125 -237 2 -125 44 -196 142 -240 44 -20 61 -21 910 -21 849 0
866 1 910 21 100 45 141 116 142 244 0 117 -37 186 -127 234 -38 20 -53 21
-341 21 -243 0 -304 3 -313 14 -8 9 -11 91 -9 276 l3 263 45 13 c25 8 55 14
68 14 30 0 229 60 319 96 297 119 591 347 789 614 38 52 164 254 164 264 0 3
14 35 31 73 16 37 34 77 39 88 36 82 85 265 101 374 5 36 13 89 19 120 19 101
13 212 -14 272 -26 58 -81 117 -133 143 -45 22 -176 20 -224 -4z"/>
<path d="M3533 2732 c-282 -281 -513 -516 -513 -522 0 -23 215 11 347 55 177
59 388 225 503 396 107 157 189 404 178 538 l-3 44 -512 -511z"/>
</g>
</svg>
