<svg width="57" height="53" viewBox="0 0 57 53" fill="none" xmlns="http://www.w3.org/2000/svg">
<path d="M0.0625 9.52181C0.0625 7.18735 0.989859 4.94851 2.64057 3.2978C4.29128 1.64709 6.53013 0.719727 8.86458 0.719727H45.4271C46.583 0.719727 47.7276 0.9474 48.7955 1.38975C49.8634 1.83209 50.8337 2.48045 51.6511 3.2978C52.4684 4.11515 53.1168 5.08548 53.5591 6.1534C54.0015 7.22132 54.2292 8.3659 54.2292 9.52181V25.0947H53.5304C53.356 22.4451 52.148 19.9699 50.1667 18.202V9.52181C50.1667 8.26479 49.6673 7.05926 48.7785 6.17042C47.8896 5.28157 46.6841 4.78223 45.4271 4.78223H8.86458C7.60757 4.78223 6.40204 5.28157 5.51319 6.17042C4.62435 7.05926 4.125 8.26479 4.125 9.52181V35.251C4.125 37.8672 6.24833 39.9906 8.86458 39.9906H27.1458V41.3447C27.1458 42.2656 27.2542 43.1701 27.4654 44.0531H8.86458C6.53013 44.0531 4.29128 43.1257 2.64057 41.475C0.989859 39.8243 0.0625 37.5854 0.0625 35.251V9.52181ZM52.875 35.9281C53.9524 35.9281 54.9858 36.3561 55.7476 37.1179C56.5095 37.8798 56.9375 38.9131 56.9375 39.9906V41.3447C56.9375 46.6828 51.9 52.1781 43.3958 52.1781C34.8917 52.1781 29.8542 46.6828 29.8542 41.3447V39.9906C29.8542 38.9131 30.2822 37.8798 31.044 37.1179C31.8059 36.3561 32.8392 35.9281 33.9167 35.9281H52.875ZM43.3958 18.3239C45.3711 18.3239 47.2655 19.1086 48.6623 20.5053C50.0591 21.9021 50.8438 23.7965 50.8438 25.7718C50.8438 27.7471 50.0591 29.6415 48.6623 31.0383C47.2655 32.435 45.3711 33.2197 43.3958 33.2197C41.4205 33.2197 39.5261 32.435 38.1294 31.0383C36.7326 29.6415 35.9479 27.7471 35.9479 25.7718C35.9479 23.7965 36.7326 21.9021 38.1294 20.5053C39.5261 19.1086 41.4205 18.3239 43.3958 18.3239Z" fill="#9797B4"/>
</svg>
