<svg width="16" height="16" viewBox="0 0 16 16" fill="none" xmlns="http://www.w3.org/2000/svg">
<g id="more_horiz">
<path id="Vector" d="M3.99984 6.66675C3.2665 6.66675 2.6665 7.26675 2.6665 8.00008C2.6665 8.73341 3.2665 9.33341 3.99984 9.33341C4.73317 9.33341 5.33317 8.73341 5.33317 8.00008C5.33317 7.26675 4.73317 6.66675 3.99984 6.66675ZM11.9998 6.66675C11.2665 6.66675 10.6665 7.26675 10.6665 8.00008C10.6665 8.73341 11.2665 9.33341 11.9998 9.33341C12.7332 9.33341 13.3332 8.73341 13.3332 8.00008C13.3332 7.26675 12.7332 6.66675 11.9998 6.66675ZM7.99984 6.66675C7.2665 6.66675 6.6665 7.26675 6.6665 8.00008C6.6665 8.73341 7.2665 9.33341 7.99984 9.33341C8.73317 9.33341 9.33317 8.73341 9.33317 8.00008C9.33317 7.26675 8.73317 6.66675 7.99984 6.66675Z" fill="#4D4D4D"/>
</g>
</svg>
