<svg width="16" height="16" viewBox="0 0 16 16" fill="none" xmlns="http://www.w3.org/2000/svg">
<path d="M13.3334 4.00001H8.00004L6.66671 2.66667H2.66671C1.93337 2.66667 1.33337 3.26667 1.33337 4.00001V12C1.33337 12.7333 1.93337 13.3333 2.66671 13.3333H13.3334C14.0667 13.3333 14.6667 12.7333 14.6667 12V5.33334C14.6667 4.6 14.0667 4.00001 13.3334 4.00001ZM13.3334 12H2.66671V4.00001H6.11337L7.44671 5.33334H13.3334V12ZM8.10671 8H5.33337V9.33334H8.10671L7.04671 10.3933L7.99337 11.3333L10.6667 8.67334L7.99337 6L7.05337 6.94L8.10671 8Z" fill="#4D4D4D"/>
</svg>
