<svg width="244" height="100" viewBox="0 0 244 100" fill="none" xmlns="http://www.w3.org/2000/svg">
<rect width="244" height="100" fill="#FAFAFA"/>
<rect x="82" y="10" width="80" height="80" rx="40" fill="#F5F5F5"/>
<path d="M132.605 59.195L112.805 39.395L111.395 40.805L113.705 43.125V56.295C113.705 57.395 114.605 58.295 115.705 58.295H128.875L131.185 60.605L132.605 59.195ZM115.705 56.295V45.125L122.545 51.965L121.705 53.015L119.705 50.295L116.705 54.295H124.875L126.875 56.295H115.705ZM118.535 42.295L116.535 40.295H129.705C130.805 40.295 131.705 41.195 131.705 42.295V55.465L129.705 53.465V42.295H118.535Z" fill="#4D4D4D"/>
</svg>
