<svg width="16" height="16" viewBox="0 0 16 16" fill="none" xmlns="http://www.w3.org/2000/svg">
	<path d="M2.83333 3.99998H4.16667V5.99998H10.8333V3.99998H12.1667V7.33331H13.5V3.99998C13.5 3.26665 12.9 2.66665 12.1667 2.66665H9.38C9.1 1.89331 8.36667 1.33331 7.5 1.33331C6.63333 1.33331 5.9 1.89331 5.62 2.66665H2.83333C2.1 2.66665 1.5 3.26665 1.5 3.99998V13.3333C1.5 14.0666 2.1 14.6666 2.83333 14.6666H6.83333V13.3333H2.83333V3.99998ZM7.5 2.66665C7.86667 2.66665 8.16667 2.96665 8.16667 3.33331C8.16667 3.69998 7.86667 3.99998 7.5 3.99998C7.13333 3.99998 6.83333 3.69998 6.83333 3.33331C6.83333 2.96665 7.13333 2.66665 7.5 2.66665Z" fill="#4D4D4D"/>
	<path d="M13.5 8.33331L9.84 12L7.83333 9.99998L6.83333 11L9.84 14L14.5 9.33331L13.5 8.33331Z" fill="#4D4D4D"/>
</svg>
