<svg width="14" height="10" viewBox="0 0 14 10" fill="none" xmlns="http://www.w3.org/2000/svg">
<path d="M5 6.25586C3.4375 6.25586 0.34375 7.03711 0.34375 8.59961V9.75586H9.65625V8.59961C9.65625 7.03711 6.5625 6.25586 5 6.25586ZM1.90625 8.44336C2.46875 8.03711 3.8125 7.59961 5 7.59961C6.1875 7.59961 7.53125 8.03711 8.09375 8.44336H1.90625ZM5 5.09961C6.28125 5.09961 7.34375 4.06836 7.34375 2.75586C7.34375 1.47461 6.28125 0.443359 5 0.443359C3.71875 0.443359 2.65625 1.47461 2.65625 2.75586C2.65625 4.06836 3.71875 5.09961 5 5.09961ZM5 1.75586C5.5625 1.75586 6 2.22461 6 2.75586C6 3.31836 5.5625 3.75586 5 3.75586C4.4375 3.75586 4 3.31836 4 2.75586C4 2.22461 4.4375 1.75586 5 1.75586ZM9.6875 6.31836C10.4688 6.88086 11 7.59961 11 8.59961V9.75586H13.6562V8.59961C13.6562 7.25586 11.3438 6.47461 9.6875 6.31836ZM9 5.09961C10.2812 5.09961 11.3438 4.06836 11.3438 2.75586C11.3438 1.47461 10.2812 0.443359 9 0.443359C8.625 0.443359 8.3125 0.505859 8 0.662109C8.40625 1.25586 8.65625 1.97461 8.65625 2.75586C8.65625 3.53711 8.40625 4.28711 8 4.88086C8.3125 5.00586 8.625 5.09961 9 5.09961Z" fill="#101336"/>
</svg>
