<svg width="64" height="64" viewBox="0 0 64 64" fill="none" xmlns="http://www.w3.org/2000/svg">
<g clip-path="url(#clip0_750_62995)">
<g clip-path="url(#clip1_750_62995)">
<path d="M64 33.4888C64.0038 32.9888 63.745 32.5225 63.3188 32.2613H63.3113L63.285 32.2463L41.1075 19.1188C41.0113 19.0538 40.9125 18.995 40.81 18.9413C39.9538 18.5 38.9363 18.5 38.08 18.9413C37.9775 18.995 37.8775 19.0538 37.7825 19.1188L15.605 32.245L15.5788 32.26C14.9013 32.6813 14.6938 33.5725 15.115 34.25C15.2388 34.45 15.41 34.6163 15.6138 34.735L37.79 47.8625C37.8863 47.9263 37.985 47.9863 38.0875 48.04C38.9438 48.4813 39.9613 48.4813 40.8175 48.04C40.92 47.9863 41.0188 47.9275 41.115 47.8625L63.2913 34.735C63.735 34.4775 64.005 34.0013 64 33.4888Z" fill="#0A2767"/>
<path d="M18.1914 24.7237H32.7451V38.0637H18.1914V24.7237ZM61.0239 11.1624V5.05992C61.0589 3.53367 59.8514 2.26867 58.3251 2.23242H20.5589C19.0326 2.26867 17.8251 3.53492 17.8601 5.05992V11.1624L40.1851 17.1162L61.0239 11.1624Z" fill="#0364B8"/>
<path d="M17.8601 11.1626H32.7439V24.5576H17.8601V11.1626Z" fill="#0078D4"/>
<path d="M47.6274 11.1626H32.7437V24.5576L47.6274 37.9526H61.0224V24.5588L47.6274 11.1626Z" fill="#28A8EA"/>
<path d="M32.7437 24.5586H47.6274V37.9536H32.7437V24.5586Z" fill="#0078D4"/>
<path d="M32.7437 37.9536H47.6274V51.3486H32.7437V37.9536Z" fill="#0364B8"/>
<path d="M18.1912 38.064H32.7449V50.1915H18.1912V38.064Z" fill="#14447D"/>
<path d="M47.6274 37.9536H61.0224V51.3486H47.6274V37.9536Z" fill="#0078D4"/>
<path d="M63.3188 34.6536L63.29 34.6686L41.1138 47.1411C41.0175 47.2011 40.9188 47.2573 40.8163 47.3073C40.44 47.4861 40.03 47.5886 39.6138 47.6048L38.4025 46.8961C38.3 46.8448 38.2013 46.7873 38.105 46.7248L15.63 33.8986H15.62L14.885 33.4873V58.7373C14.8963 60.4223 16.2713 61.7786 17.955 61.7673H60.9775C61.0025 61.7673 61.025 61.7548 61.0525 61.7548C61.4088 61.7323 61.7588 61.6586 62.0938 61.5373C62.2388 61.4761 62.3788 61.4036 62.5125 61.3198C62.6125 61.2636 62.7838 61.1398 62.7838 61.1398C63.5463 60.5761 63.9975 59.6848 64.0013 58.7361V33.4886C64 33.9711 63.7388 34.4161 63.3188 34.6536Z" fill="url(#paint0_linear_750_62995)"/>
<path opacity="0.5" d="M62.8088 33.389V34.9365L39.62 50.9027L15.6125 33.9102C15.6125 33.9015 15.6063 33.8952 15.5975 33.8952L13.395 32.5702V31.454L14.3025 31.439L16.2225 32.5402L16.2675 32.5552L16.4313 32.659C16.4313 32.659 38.995 45.534 39.055 45.5627L39.9188 46.069C39.9938 46.039 40.0675 46.009 40.1575 45.9802C40.2025 45.9502 62.5575 33.374 62.5575 33.374L62.8088 33.389Z" fill="#0A2767"/>
<path d="M63.3188 34.6538L63.29 34.67L41.1138 47.1425C41.0175 47.2025 40.9188 47.2588 40.8163 47.3088C39.955 47.73 38.9475 47.73 38.0863 47.3088C37.9838 47.2588 37.885 47.2025 37.7888 47.1425L15.6125 34.67L15.5863 34.6538C15.1575 34.4213 14.89 33.975 14.885 33.4888V58.7375C14.8963 60.4213 16.27 61.7788 17.9538 61.7675H60.9325C62.6163 61.7788 63.9913 60.4213 64.0013 58.7375V33.4888C64 33.9713 63.7388 34.4163 63.3188 34.6538Z" fill="#1490DF"/>
<path opacity="0.1" d="M41.4362 46.959L41.1037 47.1452C41.0075 47.2065 40.9087 47.2627 40.8062 47.314C40.44 47.494 40.0425 47.599 39.6362 47.624L48.0737 57.6015L62.7925 61.1477C63.1962 60.8427 63.5162 60.4427 63.7262 59.9827L41.4362 46.959Z" fill="black"/>
<path opacity="0.05" d="M42.9399 46.1123L41.1049 47.1436C41.0087 47.2048 40.9099 47.2611 40.8074 47.3123C40.4412 47.4923 40.0437 47.5973 39.6375 47.6223L43.59 58.5211L62.7975 61.1423C63.5537 60.5748 64 59.6836 64 58.7373V58.4111L42.9399 46.1123Z" fill="black"/>
<path d="M17.995 61.7675H60.9275C61.5888 61.7713 62.2325 61.5625 62.765 61.1725L38.4 46.9C38.2975 46.8488 38.1988 46.7913 38.1025 46.7288L15.6275 33.9025H15.6175L14.8838 33.4888V58.6513C14.8825 60.37 16.275 61.7663 17.995 61.7675Z" fill="#28A8EA"/>
<path opacity="0.1" d="M35.7213 16.8676V48.6151C35.7188 49.7276 35.0413 50.7289 34.01 51.1451C33.69 51.2826 33.3463 51.3539 32.9975 51.3539H14.8838V15.6289H17.86V14.1401H32.9963C34.5013 14.1451 35.7175 15.3639 35.7213 16.8676Z" fill="black"/>
<path opacity="0.2" d="M34.2325 18.3563V50.1038C34.2363 50.4638 34.16 50.8188 34.0088 51.145C33.595 52.1638 32.6075 52.8325 31.5088 52.8375H14.8838V15.6275H31.5088C31.94 15.6238 32.3663 15.7313 32.7438 15.94C33.6563 16.4 34.2325 17.335 34.2325 18.3563Z" fill="black"/>
<path opacity="0.2" d="M34.2325 18.3563V47.1263C34.225 48.6288 33.0113 49.8475 31.5088 49.86H14.8838V15.6275H31.5088C31.94 15.6238 32.3663 15.7313 32.7438 15.94C33.6563 16.4 34.2325 17.335 34.2325 18.3563Z" fill="black"/>
<path opacity="0.2" d="M32.7438 18.3562V47.1262C32.7425 48.6312 31.525 49.8524 30.02 49.8599H14.8838V15.6274H30.02C31.525 15.6287 32.745 16.8487 32.7438 18.3537C32.7438 18.3549 32.7438 18.3549 32.7438 18.3562Z" fill="black"/>
<path d="M2.72875 15.6274H30.0163C31.5225 15.6274 32.745 16.8487 32.745 18.3562V45.6437C32.745 47.1499 31.5238 48.3724 30.0163 48.3724H2.72875C1.22125 48.3724 0 47.1499 0 45.6437V18.3562C0 16.8499 1.22125 15.6274 2.72875 15.6274Z" fill="url(#paint1_linear_750_62995)"/>
<path d="M8.52754 27.07C9.20004 25.6375 10.285 24.4387 11.6438 23.6275C13.1488 22.7662 14.8625 22.3362 16.595 22.3862C18.2013 22.3512 19.7863 22.7587 21.1775 23.5637C22.485 24.3437 23.5388 25.4862 24.2088 26.8525C24.94 28.3587 25.3038 30.0162 25.2713 31.69C25.3063 33.4387 24.9325 35.1725 24.1775 36.75C23.4913 38.1662 22.4038 39.3487 21.0525 40.1537C19.6075 40.9837 17.9638 41.4012 16.2988 41.3625C14.6575 41.4025 13.0375 40.99 11.615 40.1712C10.2963 39.39 9.23004 38.2462 8.54254 36.8762C7.80754 35.3925 7.43879 33.7525 7.46754 32.0975C7.43754 30.3637 7.80004 28.645 8.52754 27.07ZM11.8488 35.1525C12.2075 36.0587 12.815 36.8437 13.6025 37.4175C14.4038 37.9775 15.3638 38.2662 16.3413 38.2425C17.3825 38.2837 18.4088 37.985 19.265 37.3912C20.0425 36.8187 20.6338 36.0312 20.9675 35.1262C21.3413 34.115 21.525 33.0437 21.5113 31.9662C21.5225 30.8787 21.35 29.7962 20.9988 28.7662C20.6888 27.8362 20.1163 27.0162 19.35 26.4062C18.515 25.785 17.4925 25.4687 16.4525 25.5137C15.4538 25.4875 14.4725 25.7787 13.65 26.3462C12.85 26.9225 12.23 27.715 11.8638 28.6312C11.0513 30.73 11.0463 33.0562 11.8513 35.1575L11.8488 35.1525Z" fill="white"/>
<path d="M47.6274 11.1626H61.0224V24.5576H47.6274V11.1626Z" fill="#50D9FF"/>
</g>
</g>
<defs>
<linearGradient id="paint0_linear_750_62995" x1="39.4418" y1="33.4882" x2="39.4418" y2="61.7673" gradientUnits="userSpaceOnUse">
<stop stop-color="#35B8F1"/>
<stop offset="1" stop-color="#28A8EA"/>
</linearGradient>
<linearGradient id="paint1_linear_750_62995" x1="5.68832" y1="13.4961" x2="27.0558" y2="50.5038" gradientUnits="userSpaceOnUse">
<stop stop-color="#1784D9"/>
<stop offset="0.5" stop-color="#107AD5"/>
<stop offset="1" stop-color="#0A63C9"/>
</linearGradient>
<clipPath id="clip0_750_62995">
<rect width="64" height="64" fill="white"/>
</clipPath>
<clipPath id="clip1_750_62995">
<rect width="64" height="64" fill="white"/>
</clipPath>
</defs>
</svg>
