<?xml version="1.0" encoding="UTF-8"?>
<svg width="20px" height="20px" viewBox="0 0 20 20" version="1.1" xmlns="http://www.w3.org/2000/svg" xmlns:xlink="http://www.w3.org/1999/xlink">
    <title>Icons / Send PDF Email</title>
    <g id="Icons-/-Send-PDF-Email" stroke="none" stroke-width="1" fill="none" fill-rule="evenodd">
        <g id="pdf-sent" transform="translate(1.000000, 1.000000)" stroke="#FFFFFF" stroke-width="2">
            <path d="M0.30803,13.6191 C0.13394,12.2895 0,10.7101 0,9 C0,7.28986 0.13394,5.71048 0.30803,4.38095 C0.59394,2.19734 2.21513,0.54616 4.36693,0.27828 C4.60247,0.24895 4.84763,0.22097 5.10215,0.19484 C6.22613,0.07942 7.53266,0 9,0 C9.5005,0 9.787,0.10913 9.9537,0.22149 C11.1658,1.03882 12.8984,2.40866 14.4675,3.91543 C16.0656,5.45003 17.3716,7.01193 17.8736,8.2116 C17.9428,8.37676 18,8.62739 18,9 C18,10.0619 17.9584,11.0396 17.8917,11.9248 C17.839,12.6237 17.7706,13.2649 17.6947,13.8444 C17.4265,15.892 15.8924,17.4264 13.845,17.6946 C12.5313,17.8668 10.9006,18 9,18 C7.19996,18 5.64193,17.8805 4.36608,17.7216 C2.21443,17.4537 0.59396,15.8028 0.30803,13.6191 Z" id="Path"></path>
            <line x1="5" y1="6" x2="13" y2="6" id="Path" stroke-linecap="round"></line>
            <line x1="5" y1="10" x2="13" y2="10" id="Path" stroke-linecap="round"></line>
        </g>
    </g>
</svg>