<svg width="14" height="14" viewBox="0 0 14 14" fill="none" xmlns="http://www.w3.org/2000/svg">
<path d="M12.3335 0.333496H4.3335C3.60016 0.333496 3.00016 0.933496 3.00016 1.66683V9.66683C3.00016 10.4002 3.60016 11.0002 4.3335 11.0002H12.3335C13.0668 11.0002 13.6668 10.4002 13.6668 9.66683V1.66683C13.6668 0.933496 13.0668 0.333496 12.3335 0.333496ZM12.3335 9.66683H4.3335V1.66683H12.3335V9.66683ZM1.66683 3.00016H0.333496V12.3335C0.333496 13.0668 0.933496 13.6668 1.66683 13.6668H11.0002V12.3335H1.66683V3.00016ZM9.66683 7.00016V5.00016C9.66683 4.6335 9.36683 4.3335 9.00016 4.3335H7.66683V7.66683H9.00016C9.36683 7.66683 9.66683 7.36683 9.66683 7.00016ZM8.3335 5.00016H9.00016V7.00016H8.3335V5.00016ZM11.0002 6.3335H11.6668V5.66683H11.0002V5.00016H11.6668V4.3335H10.3335V7.66683H11.0002V6.3335ZM5.66683 6.3335H6.3335C6.70016 6.3335 7.00016 6.0335 7.00016 5.66683V5.00016C7.00016 4.6335 6.70016 4.3335 6.3335 4.3335H5.00016V7.66683H5.66683V6.3335ZM5.66683 5.00016H6.3335V5.66683H5.66683V5.00016Z" fill="#4D4D4D"/>
</svg>
