<svg width="16" height="16" viewBox="0 0 16 16" fill="none" xmlns="http://www.w3.org/2000/svg">
<path d="M8 3.99999C8.73333 3.99999 9.33333 4.59999 9.33333 5.33332C9.33333 6.06666 8.73333 6.66666 8 6.66666C7.26666 6.66666 6.66666 6.06666 6.66666 5.33332C6.66666 4.59999 7.26666 3.99999 8 3.99999ZM8 10.6667C9.8 10.6667 11.8667 11.5267 12 12H4C4.15333 11.52 6.20666 10.6667 8 10.6667ZM8 2.66666C6.52666 2.66666 5.33333 3.85999 5.33333 5.33332C5.33333 6.80666 6.52666 7.99999 8 7.99999C9.47333 7.99999 10.6667 6.80666 10.6667 5.33332C10.6667 3.85999 9.47333 2.66666 8 2.66666ZM8 9.33332C6.22 9.33332 2.66666 10.2267 2.66666 12V13.3333H13.3333V12C13.3333 10.2267 9.78 9.33332 8 9.33332Z" fill="#989898"/>
</svg>
