<svg width="16" height="16" viewBox="0 0 16 16" fill="none" xmlns="http://www.w3.org/2000/svg">
<g id="person_pin_circle">
<path id="Vector" d="M7.99984 7.33325C8.8865 7.33325 10.6665 7.77992 10.6665 8.66659V8.77325C10.0198 9.51992 9.0665 9.99992 7.99984 9.99992C6.93317 9.99992 5.97984 9.51992 5.33317 8.77325V8.66659C5.33317 7.77992 7.11317 7.33325 7.99984 7.33325ZM7.99984 6.66659C7.2665 6.66659 6.6665 6.06659 6.6665 5.33325C6.6665 4.59992 7.2665 3.99992 7.99984 3.99992C8.73317 3.99992 9.33317 4.59992 9.33317 5.33325C9.33317 6.06659 8.73317 6.66659 7.99984 6.66659ZM11.9998 6.79992C11.9998 4.37992 10.2332 2.66659 7.99984 2.66659C5.7665 2.66659 3.99984 4.37992 3.99984 6.79992C3.99984 8.35992 5.29984 10.4266 7.99984 12.8933C10.6998 10.4266 11.9998 8.35992 11.9998 6.79992ZM7.99984 1.33325C10.7998 1.33325 13.3332 3.47992 13.3332 6.79992C13.3332 9.01325 11.5532 11.6333 7.99984 14.6666C4.4465 11.6333 2.6665 9.01325 2.6665 6.79992C2.6665 3.47992 5.19984 1.33325 7.99984 1.33325Z" fill="#4D4D4D"/>
</g>
</svg>
