<svg width="12" height="14" viewBox="0 0 12 14" fill="none" xmlns="http://www.w3.org/2000/svg">
	<path d="M5.99996 6.3335C6.88663 6.3335 8.66663 6.78016 8.66663 7.66683V7.7735C8.01996 8.52016 7.06663 9.00016 5.99996 9.00016C4.93329 9.00016 3.97996 8.52016 3.33329 7.7735V7.66683C3.33329 6.78016 5.11329 6.3335 5.99996 6.3335ZM5.99996 5.66683C5.26663 5.66683 4.66663 5.06683 4.66663 4.3335C4.66663 3.60016 5.26663 3.00016 5.99996 3.00016C6.73329 3.00016 7.33329 3.60016 7.33329 4.3335C7.33329 5.06683 6.73329 5.66683 5.99996 5.66683ZM9.99996 5.80016C9.99996 3.38016 8.23329 1.66683 5.99996 1.66683C3.76663 1.66683 1.99996 3.38016 1.99996 5.80016C1.99996 7.36016 3.29996 9.42683 5.99996 11.8935C8.69996 9.42683 9.99996 7.36016 9.99996 5.80016ZM5.99996 0.333496C8.79996 0.333496 11.3333 2.48016 11.3333 5.80016C11.3333 8.0135 9.55329 10.6335 5.99996 13.6668C2.44663 10.6335 0.666626 8.0135 0.666626 5.80016C0.666626 2.48016 3.19996 0.333496 5.99996 0.333496Z" fill="#4D4D4D" />
</svg>
