<?xml version="1.0" standalone="no"?>
<!DOCTYPE svg PUBLIC "-//W3C//DTD SVG 20010904//EN"
 "http://www.w3.org/TR/2001/REC-SVG-20010904/DTD/svg10.dtd">
<svg version="1.0" xmlns="http://www.w3.org/2000/svg"
 width="100.000000pt" height="100.000000pt" viewBox="0 0 100.000000 100.000000"
 preserveAspectRatio="xMidYMid meet">
<metadata>
Created by potrace 1.16, written by Peter Selinger 2001-2019
</metadata>
<g transform="translate(0.000000,100.000000) scale(0.100000,-0.100000)"
fill="#000000" stroke="none">
<path d="M447 994 c-4 -4 -7 -103 -7 -220 l0 -214 -217 -2 -218 -3 0 -55 0
-55 217 -3 218 -2 2 -218 3 -217 55 0 55 0 3 217 2 218 218 2 217 3 0 55 0 55
-217 3 -218 2 -2 218 -3 217 -50 3 c-28 2 -54 0 -58 -4z"/>
</g>
</svg>
