<svg width="12" height="12" viewBox="0 0 12 12" fill="none" xmlns="http://www.w3.org/2000/svg">
	<path d="M10.6667 0H1.33333C0.593333 0 0 0.6 0 1.33333V10.6667C0 11.4 0.593333 12 1.33333 12H10.6667C11.4 12 12 11.4 12 10.6667V1.33333C12 0.6 11.4067 0 10.6667 0ZM10.6667 10.6667H1.33333V2.66667H10.6667V10.6667ZM6 5C7.22667 5 8.32 5.64 8.89333 6.66667C8.32 7.69333 7.22667 8.33333 6 8.33333C4.77333 8.33333 3.68 7.69333 3.10667 6.66667C3.68 5.64 4.77333 5 6 5ZM6 4C4.18 4 2.62667 5.10667 2 6.66667C2.62667 8.22667 4.18 9.33333 6 9.33333C7.82 9.33333 9.37333 8.22667 10 6.66667C9.37333 5.10667 7.82 4 6 4ZM6 7.66667C5.44667 7.66667 5 7.22 5 6.66667C5 6.11333 5.44667 5.66667 6 5.66667C6.55333 5.66667 7 6.11333 7 6.66667C7 7.22 6.55333 7.66667 6 7.66667Z" fill="#4D4D4D" />
</svg>
