<svg width="16" height="16" viewBox="0 0 16 16" fill="none" xmlns="http://www.w3.org/2000/svg">
<path d="M8 1.33334C5.42 1.33334 3.33334 3.42001 3.33334 6.00001C3.33334 9.50001 8 14.6667 8 14.6667C8 14.6667 12.6667 9.50001 12.6667 6.00001C12.6667 3.42001 10.58 1.33334 8 1.33334ZM4.66667 6.00001C4.66667 4.16001 6.16 2.66668 8 2.66668C9.84 2.66668 11.3333 4.16001 11.3333 6.00001C11.3333 7.92001 9.41334 10.7933 8 12.5867C6.61334 10.8067 4.66667 7.90001 4.66667 6.00001Z" fill="#989898"/>
<path d="M8 7.66668C8.92048 7.66668 9.66667 6.92049 9.66667 6.00001C9.66667 5.07954 8.92048 4.33334 8 4.33334C7.07953 4.33334 6.33334 5.07954 6.33334 6.00001C6.33334 6.92049 7.07953 7.66668 8 7.66668Z" fill="#989898"/>
</svg>
