<svg width="10" height="14" viewBox="0 0 10 14" fill="none" xmlns="http://www.w3.org/2000/svg">
<path d="M5.00016 8.6665C6.10683 8.6665 6.9935 7.77317 6.9935 6.6665L7.00016 2.6665C7.00016 1.55984 6.10683 0.666504 5.00016 0.666504C3.8935 0.666504 3.00016 1.55984 3.00016 2.6665V6.6665C3.00016 7.77317 3.8935 8.6665 5.00016 8.6665ZM4.20016 2.59984C4.20016 2.15984 4.56016 1.79984 5.00016 1.79984C5.44016 1.79984 5.80016 2.15984 5.80016 2.59984L5.7935 6.73317C5.7935 7.17317 5.44016 7.53317 5.00016 7.53317C4.56016 7.53317 4.20016 7.17317 4.20016 6.73317V2.59984ZM8.5335 6.6665C8.5335 8.6665 6.84016 10.0665 5.00016 10.0665C3.16016 10.0665 1.46683 8.6665 1.46683 6.6665H0.333496C0.333496 8.93984 2.14683 10.8198 4.3335 11.1465V13.3332H5.66683V11.1465C7.8535 10.8265 9.66683 8.9465 9.66683 6.6665H8.5335Z" fill="white"/>
</svg>
