<svg
    width="16"
    height="16"
    viewBox="0 0 16 16"
    fill="none"
    xmlns="http://www.w3.org/2000/svg"
  >
    <path
      d="M12.9879 8.40107C11.9412 5.68107 8.21457 5.53441 9.11457 1.58107C9.18124 1.28774 8.86791 1.06107 8.61457 1.21441C6.19457 2.64107 4.45457 5.50107 5.91457 9.24774C6.03457 9.55441 5.67457 9.84107 5.41457 9.64107C4.20791 8.72774 4.08124 7.41441 4.18791 6.47441C4.22791 6.12774 3.77457 5.96107 3.58124 6.24774C3.12791 6.94107 2.66791 8.06107 2.66791 9.74774C2.92124 13.4811 6.07457 14.6277 7.20791 14.7744C8.82791 14.9811 10.5812 14.6811 11.8412 13.5277C13.2279 12.2411 13.7346 10.1877 12.9879 8.40107ZM6.80124 11.7544C7.76124 11.5211 8.25457 10.8277 8.38791 10.2144C8.60791 9.26107 7.74791 8.32774 8.32791 6.82107C8.54791 8.06774 10.5079 8.84774 10.5079 10.2077C10.5612 11.8944 8.73457 13.3411 6.80124 11.7544Z"
      fill="#DE5038"
    />
</svg>