<svg width="14" height="14" viewBox="0 0 14 14" fill="none" xmlns="http://www.w3.org/2000/svg">
<path d="M1.83333 2.99967H3.16667V4.99967H9.83333V2.99967H11.1667V6.33301H12.5V2.99967C12.5 2.26634 11.9 1.66634 11.1667 1.66634H8.38C8.1 0.893008 7.36667 0.333008 6.5 0.333008C5.63333 0.333008 4.9 0.893008 4.62 1.66634H1.83333C1.1 1.66634 0.5 2.26634 0.5 2.99967V12.333C0.5 13.0663 1.1 13.6663 1.83333 13.6663H5.83333V12.333H1.83333V2.99967ZM6.5 1.66634C6.86667 1.66634 7.16667 1.96634 7.16667 2.33301C7.16667 2.69967 6.86667 2.99967 6.5 2.99967C6.13333 2.99967 5.83333 2.69967 5.83333 2.33301C5.83333 1.96634 6.13333 1.66634 6.5 1.66634Z" fill="#4D4D4D"/>
<path d="M12.5 7.33301L8.84 10.9997L6.83333 8.99967L5.83333 9.99967L8.84 12.9997L13.5 8.33301L12.5 7.33301Z" fill="#4D4D4D"/>
</svg>
