<svg id="Group_57" data-name="Group 57" xmlns="http://www.w3.org/2000/svg" width="40" height="40" viewBox="0 0 40 40">
  <circle id="Oval_Copy_52" data-name="Oval Copy 52" cx="20" cy="20" r="20" fill="#b50000"/>
  <g id="PDF" transform="translate(11 10)">
    <path id="Shape" d="M12,18a1,1,0,0,0,1-1h2a3,3,0,0,1-3,3ZM3,20a3,3,0,0,1-3-3H2a1,1,0,0,0,1,1h9v2Zm10-3V6h2V17ZM0,17V3A3,3,0,0,1,3,0H9V2H3A1,1,0,0,0,2,3V17Z" transform="translate(2)" fill="#fff"/>
    <rect id="Rectangle" width="17.593" height="7.741" rx="2" transform="translate(0.704 7.741)" fill="#fff"/>
    <path id="Path" d="M6,6,0,0V5A1,1,0,0,0,1,6Z" transform="translate(11)" fill="#fff"/>
  </g>
</svg>
