<svg id="Group_59" data-name="Group 59" xmlns="http://www.w3.org/2000/svg" width="40" height="40" viewBox="0 0 40 40">
  <circle id="Oval_Copy_52" data-name="Oval Copy 52" cx="20" cy="20" r="20" fill="#1aab44"/>
  <g id="Image-sent" transform="translate(11 11)">
    <path id="Path" d="M.308,13.619A35.8,35.8,0,0,1,0,9,35.8,35.8,0,0,1,.308,4.381,4.653,4.653,0,0,1,4.366.278,37.58,37.58,0,0,1,9,0a37.387,37.387,0,0,1,4.845.305,4.4,4.4,0,0,1,3.85,3.85A37.37,37.37,0,0,1,18,9a37.37,37.37,0,0,1-.305,4.845,4.4,4.4,0,0,1-3.85,3.85A37.37,37.37,0,0,1,9,18a37.574,37.574,0,0,1-4.634-.278A4.653,4.653,0,0,1,.308,13.619Z" fill="none" stroke="#fff" stroke-miterlimit="10" stroke-width="2"/>
    <path id="Path-2" data-name="Path" d="M0,4.95,5.664,0,15,11" transform="translate(0 6)" fill="none" stroke="#fff" stroke-linejoin="round" stroke-miterlimit="10" stroke-width="2"/>
    <path id="Path-3" data-name="Path" d="M0,2.875,3.7,0,8,4" transform="translate(10 8)" fill="none" stroke="#fff" stroke-linejoin="round" stroke-miterlimit="10" stroke-width="2"/>
  </g>
</svg>
