<svg xmlns="http://www.w3.org/2000/svg" xmlns:xlink="http://www.w3.org/1999/xlink" width="26.409" height="30.409" viewBox="0 0 26.409 30.409">
  <defs>
    <path id="path-1" fill-rule="evenodd" d="M13.6693501 6.58107178l-.8252-1.22491778c-.09296-.13794445-.19416-.27684222-.35728-.34317111-.3212-.13067167-1.10344-.30835278-2.98224-.30835278-1.12152 0-1.928272.06331722-2.498104.14214778-.826248.1143061-1.400944.6798711-1.604792 1.4117061-.30816 1.10632168-.697104 2.28545056-.697104 4.83506834 0 2.1446389.235896 3.10837222.46804 4.24832778.220848 1.08441667 1.1266 1.89828889 2.334456 2.06187222 1.145424.15520556 2.846792.30087778 5.197504.30087778 2.39456 0 4.16712-.15116111 5.36712-.30954444 1.24008-.16365556 2.1808-.99125 2.36496-2.11040556.14312-.86977222.26792-1.34087778.26792-2.85783333 0-1.61301111-.14112-2.03503445-.29536-2.80385445-.16384-.81714389-.97456-1.3072511-1.89448-1.3072511h-1.42792c-1.39648 0-2.69184-.65751112-3.41752-1.73466945z"/>
  </defs>
  <g>
    <g>
      <use fill="rgb(16,19,55)" fill-opacity=".1" xlink:href="#path-1"/>
      <use fill-opacity="0" stroke="rgb(16,19,55)" stroke-linecap="butt" stroke-linejoin="miter" stroke-width="2" xlink:href="#path-1"/>
    </g>
    <path fill="none" stroke="rgb(16,19,55)" stroke-linecap="butt" stroke-linejoin="miter" stroke-width="2" d="M13.2046301 18.7046301v6.22892065"/>
    <path fill="none" stroke="rgb(16,19,55)" stroke-linecap="round" stroke-linejoin="miter" stroke-width="2" d="M5.2046301 24.7046301h16"/>
    <ellipse cx="5.705" cy="24.705" fill="rgb(16,19,55)" rx="2" ry="2"/>
    <ellipse cx="19.705" cy="24.705" fill="rgb(16,19,55)" rx="2" ry="2"/>
    <ellipse cx="12.705" cy="24.705" fill="rgb(16,19,55)" rx="2" ry="2"/>
  </g>
</svg>
