<svg id="Group_7" data-name="Group 7" xmlns="http://www.w3.org/2000/svg" width="72" height="32" viewBox="0 0 72 32">
  <path id="Rectangle_Copy_73" data-name="Rectangle Copy 73" d="M3,0H29a3,3,0,0,1,3,3V29a3,3,0,0,1-3,3H3a3,3,0,0,1-3-3V3A3,3,0,0,1,3,0Z" fill="#fff"/>
  <path id="Rectangle_Copy_77" data-name="Rectangle Copy 77" d="M2.5,0h27a2.5,2.5,0,0,1,0,5H2.5a2.5,2.5,0,0,1,0-5Z" transform="translate(40)" fill="#fff"/>
  <rect id="Rectangle_Copy_78" data-name="Rectangle Copy 78" width="32" height="5" rx="2.5" transform="translate(40 9)" fill="#fff"/>
</svg>
