<?xml version="1.0" standalone="no"?>
<!DOCTYPE svg PUBLIC "-//W3C//DTD SVG 20010904//EN"
 "http://www.w3.org/TR/2001/REC-SVG-20010904/DTD/svg10.dtd">
<svg version="1.0" xmlns="http://www.w3.org/2000/svg"
 width="512.000000pt" height="512.000000pt" viewBox="0 0 512.000000 512.000000"
 preserveAspectRatio="xMidYMid meet">
<metadata>
Created by potrace 1.16, written by Peter Selinger 2001-2019
</metadata>
<g transform="translate(0.000000,512.000000) scale(0.100000,-0.100000)"
fill="#000000" stroke="none">
<path d="M2305 5113 c-671 -72 -1279 -393 -1707 -903 -301 -358 -488 -764
-571 -1240 -19 -109 -21 -162 -21 -410 0 -248 2 -301 21 -410 94 -540 320
-987 693 -1374 383 -398 866 -650 1430 -749 109 -19 162 -21 410 -21 313 0
407 10 653 73 882 228 1600 946 1828 1828 63 246 73 340 73 653 0 313 -10 407
-73 653 -228 881 -946 1600 -1828 1828 -227 58 -334 71 -613 74 -140 2 -273 1
-295 -2z m385 -233 c61 -16 82 -17 117 -9 32 9 64 7 140 -5 905 -153 1653
-840 1878 -1726 42 -165 59 -285 46 -333 -8 -35 -7 -56 9 -117 35 -135 22
-241 -47 -374 -28 -53 -64 -98 -143 -176 -148 -148 -320 -257 -560 -356 -97
-40 -341 -123 -361 -124 -4 0 -3 17 2 38 17 73 11 128 -17 161 -44 53 -134 51
-170 -4 -8 -13 -25 -73 -39 -135 -13 -62 -27 -116 -32 -120 -8 -7 -207 -44
-333 -61 -376 -50 -864 -50 -1240 0 -151 21 -325 54 -336 65 -11 11 -44 185
-65 336 -50 376 -50 864 0 1240 17 126 54 325 61 333 4 5 59 19 121 33 99 20
118 27 142 54 39 44 38 110 -2 151 -25 24 -38 29 -78 29 -26 0 -65 -4 -85 -9
-21 -5 -38 -6 -38 -2 1 20 84 264 124 361 99 240 208 412 356 560 78 79 123
115 176 143 133 69 239 82 374 47z m-813 -137 c-187 -235 -353 -586 -447 -949
-20 -74 -24 -81 -54 -92 -46 -17 -77 -54 -83 -101 -5 -37 -2 -44 31 -77 l36
-36 -19 -117 c-48 -285 -56 -399 -56 -806 0 -398 4 -464 46 -753 12 -79 19
-145 17 -147 -7 -7 -238 70 -358 119 -240 99 -412 208 -560 356 -79 78 -115
123 -143 176 -69 133 -82 239 -47 374 16 60 17 83 9 114 -28 104 73 490 196
754 226 481 644 895 1130 1119 123 56 313 129 348 132 4 1 -16 -29 -46 -66z
m-1372 -2961 c197 -132 504 -265 785 -342 61 -17 112 -30 114 -30 2 0 14 -37
26 -82 99 -379 256 -713 448 -952 31 -38 48 -67 40 -63 -9 3 -35 11 -57 17
-125 34 -385 152 -526 240 -305 191 -575 460 -765 765 -88 141 -207 401 -240
526 -6 22 -14 48 -17 57 -4 8 25 -9 63 -40 38 -30 96 -73 129 -96z m4281 68
c-188 -602 -656 -1136 -1228 -1405 -264 -123 -650 -224 -754 -196 -31 8 -54 7
-114 -9 -135 -35 -241 -22 -374 47 -53 28 -98 64 -176 143 -148 148 -257 320
-356 560 -48 118 -126 351 -119 358 2 2 68 -5 147 -17 300 -43 355 -46 753
-46 408 0 521 8 808 56 l119 20 19 -26 c36 -45 115 -50 160 -9 10 9 24 32 31
50 11 30 17 34 92 54 204 53 409 130 591 221 121 61 306 179 380 243 22 19 41
33 42 32 1 -1 -8 -35 -21 -76z"/>
<path d="M3133 4686 c-24 -21 -28 -31 -28 -78 0 -48 6 -62 58 -141 32 -49 78
-128 102 -177 24 -48 56 -97 71 -109 68 -54 174 -5 174 81 0 65 -170 379 -234
430 -33 27 -108 24 -143 -6z"/>
<path d="M2304 3821 c-64 -39 -66 -137 -4 -181 26 -19 43 -20 263 -20 l235 0
31 31 c50 50 40 137 -19 172 -24 15 -61 17 -252 17 -202 0 -226 -2 -254 -19z"/>
<path d="M3545 3818 c-11 -6 -29 -22 -41 -36 -19 -23 -22 -24 -73 -13 -87 19
-135 14 -170 -15 -53 -45 -51 -132 5 -169 13 -8 74 -26 135 -39 61 -13 113
-27 116 -29 2 -3 16 -56 29 -119 21 -97 28 -117 54 -140 44 -40 110 -40 151 1
33 33 37 76 18 174 -12 56 -12 57 20 86 59 55 36 154 -43 182 -25 9 -36 22
-48 52 -22 62 -99 95 -153 65z"/>
<path d="M4234 3509 c-46 -13 -76 -51 -78 -97 -1 -64 18 -87 118 -138 50 -26
136 -75 192 -110 123 -78 157 -83 210 -30 44 44 47 99 9 144 -32 38 -152 115
-275 177 -115 58 -136 64 -176 54z"/>
<path d="M3685 2856 c-62 -27 -65 -41 -65 -291 0 -246 5 -270 55 -293 46 -21
99 -15 129 15 14 14 29 36 32 47 3 12 4 124 2 249 l-3 227 -25 24 c-31 31 -85
40 -125 22z"/>
<path d="M694 3446 c-133 -69 -239 -137 -266 -170 -11 -13 -18 -39 -18 -69 0
-40 5 -53 29 -78 23 -23 38 -29 72 -29 35 0 60 11 143 64 56 35 138 82 182
105 98 48 124 77 124 137 0 34 -6 48 -31 73 -49 49 -89 43 -235 -33z"/>
<path d="M3375 962 c-43 -15 -58 -32 -114 -138 -32 -60 -81 -147 -110 -194
-46 -75 -52 -90 -47 -125 9 -76 88 -116 161 -83 42 19 238 349 245 413 9 84
-62 151 -135 127z"/>
</g>
</svg>
