<svg width="136" height="24" viewBox="0 0 136 24" fill="none" xmlns="http://www.w3.org/2000/svg">
<path d="M12 17.77L18.18 21.5L16.54 14.47L22 9.74L14.81 9.13L12 2.5L9.19 9.13L2 9.74L7.46 14.47L5.82 21.5L12 17.77Z" fill="#EEAF53"/>
<path d="M40 17.77L46.18 21.5L44.54 14.47L50 9.74L42.81 9.13L40 2.5L37.19 9.13L30 9.74L35.46 14.47L33.82 21.5L40 17.77Z" fill="#EEAF53"/>
<path d="M68 17.77L74.18 21.5L72.54 14.47L78 9.74L70.81 9.13L68 2.5L65.19 9.13L58 9.74L63.46 14.47L61.82 21.5L68 17.77Z" fill="#E6E6E6"/>
<path d="M96 17.77L102.18 21.5L100.54 14.47L106 9.74L98.81 9.13L96 2.5L93.19 9.13L86 9.74L91.46 14.47L89.82 21.5L96 17.77Z" fill="#E6E6E6"/>
<path d="M124 17.77L130.18 21.5L128.54 14.47L134 9.74L126.81 9.13L124 2.5L121.19 9.13L114 9.74L119.46 14.47L117.82 21.5L124 17.77Z" fill="#E6E6E6"/>
</svg>
