<svg id="Group_50" data-name="Group 50" xmlns="http://www.w3.org/2000/svg" width="24px" height="24px" viewBox="0 0 24 24">
  <g id="group" transform="translate(2)">
    <g id="Path" transform="translate(6 11)" fill="#e5e5ff" stroke-miterlimit="10">
      <path d="M 11 8 L 1 8 L 1 2.790910005569458 C 1 2.221719980239868 1.433030009269714 1.811959981918335 1.691149950027466 1.618360042572021 C 2.215120077133179 1.225379943847656 2.955049991607666 1 3.72121000289917 1 L 8.278790473937988 1 C 9.044949531555176 1 9.784879684448242 1.225379943847656 10.30885028839111 1.618360042572021 C 10.566969871521 1.811959981918335 11 2.221719980239868 11 2.790910005569458 L 11 8 Z" stroke="none"/>
      <path d="M 3.721209526062012 2 C 2.59181022644043 2 2 2.587649822235107 2 2.790909767150879 L 2 7 L 10 7 L 10 2.790909767150879 C 10 2.587649822235107 9.40818977355957 2 8.278789520263672 2 L 3.721209526062012 2 M 3.721209526062012 0 L 8.278789520263672 0 C 10.33067035675049 0 12 1.251999855041504 12 2.790909767150879 L 12 8.44182014465332 C 12 8.750100135803223 11.66679954528809 9 11.25576019287109 9 L 0.7442398071289063 9 C 0.3332004547119141 9 0 8.750060081481934 0 8.44182014465332 L 0 2.790909767150879 C 0 1.251999855041504 1.669329643249512 0 3.721209526062012 0 Z" stroke="none" fill="blue"/>
    </g>
    <g id="Path-2" data-name="Path" transform="translate(7)" fill="#e5e5ff" stroke-miterlimit="10">
      <path d="M 5 9 C 4.316120147705078 9 3.640690088272095 8.823399543762207 3.046750068664551 8.489299774169922 C 1.784279942512512 7.779099941253662 1 6.442090034484863 1 5.000030040740967 C 1 2.794409990310669 2.794389963150024 1 5 1 C 7.205609798431396 1 9 2.794409990310669 9 5.000030040740967 C 9 6.442110061645508 8.215729713439941 7.779119968414307 6.953239917755127 8.489299774169922 C 6.359310150146484 8.823399543762207 5.683879852294922 9 5 9 Z" stroke="none"/>
      <path d="M 5 2 C 3.345789909362793 2 2 3.345809936523438 2 5.000030040740967 C 2 6.081350326538086 2.588970184326172 7.084409713745117 3.537030220031738 7.617730140686035 C 3.987949848175049 7.871390342712402 4.480169773101807 8 5 8 C 5.519830226898193 8 6.012049674987793 7.871390342712402 6.462960243225098 7.617739677429199 C 7.411040306091309 7.084420204162598 8 6.08137035369873 8 5.000030040740967 C 8 3.345809936523438 6.654210090637207 2 5 2 M 5 0 C 7.757009983062744 0 10 2.243030071258545 10 5.000030040740967 C 10 6.870049953460693 8.967889785766602 8.50337028503418 7.443520069122314 9.360870361328125 C 6.72052001953125 9.767569541931152 5.886980056762695 10 5 10 C 4.113019943237305 10 3.27947998046875 9.767569541931152 2.556479930877686 9.360870361328125 C 1.032159805297852 8.50337028503418 0 6.870110034942627 0 5.000030040740967 C 0 2.242969989776611 2.242990016937256 0 5 0 Z" stroke="none" fill="blue"/>
    </g>
    <path id="Path_Copy_8" data-name="Path Copy 8" d="M2.5,0A2.5,2.5,0,1,0,5,2.5,2.5,2.5,0,0,0,2.5,0Z" transform="translate(0 5)" fill="#e5e5ff" stroke="blue" stroke-miterlimit="10" stroke-width="2"/>
  </g>
  <g id="Rectangle" transform="translate(0 12)" fill="#e5e5ff" stroke="blue" stroke-miterlimit="10" stroke-width="2">
    <path d="M7.6,0H9.8a.2.2,0,0,1,.2.2V7.6a.4.4,0,0,1-.4.4H.4A.4.4,0,0,1,0,7.6v0A7.6,7.6,0,0,1,7.6,0Z" stroke="none"/>
    <path d="M7,1H8.833A.167.167,0,0,1,9,1.167V7A0,0,0,0,1,9,7H1A0,0,0,0,1,1,7V7A6,6,0,0,1,7,1Z" fill="none"/>
  </g>
</svg>
