<svg width="16" height="16" viewBox="0 0 16 16" fill="none" xmlns="http://www.w3.org/2000/svg">
<path fill-rule="evenodd" clip-rule="evenodd" d="M16 8C16 12.4183 12.4183 16 8 16C3.58172 16 0 12.4183 0 8C0 3.58172 3.58172 0 8 0C12.4183 0 16 3.58172 16 8ZM8.74532 9.71601H7.22266L6.89866 2.66667H9.06932L8.74532 9.71601ZM6.73306 12.5616C6.67257 12.3948 6.65033 12.2165 6.66799 12.04C6.65101 11.863 6.67359 11.6844 6.7341 11.5171C6.79461 11.3499 6.89153 11.1982 7.01786 11.073C7.14419 10.9479 7.29677 10.8523 7.46455 10.7933C7.63233 10.7344 7.81112 10.7134 7.98799 10.732C8.16565 10.7125 8.34542 10.7327 8.5143 10.7912C8.68319 10.8497 8.83698 10.9449 8.96457 11.0701C9.09215 11.1953 9.19034 11.3472 9.25203 11.5149C9.31373 11.6827 9.3374 11.862 9.32132 12.04C9.33632 12.2171 9.31179 12.3953 9.24949 12.5618C9.1872 12.7283 9.0887 12.8788 8.96111 13.0026C8.83353 13.1264 8.68004 13.2202 8.51175 13.2774C8.34346 13.3346 8.16456 13.3537 7.98799 13.3333C7.81185 13.3546 7.63319 13.336 7.4652 13.2789C7.29722 13.2218 7.14421 13.1277 7.01748 13.0036C6.89076 12.8794 6.79355 12.7284 6.73306 12.5616Z" fill="#DE5038"/>
</svg>
