<svg width="16" height="16" viewBox="0 0 16 16" fill="none" xmlns="http://www.w3.org/2000/svg">
<path fill-rule="evenodd" clip-rule="evenodd" d="M16 8C16 12.4183 12.4183 16 8 16C3.58172 16 0 12.4183 0 8C0 3.58172 3.58172 0 8 0C12.4183 0 16 3.58172 16 8ZM5.83 9.01303C5.27349 8.43322 4.68277 7.88724 4.061 7.37803C3.84592 7.62301 3.68931 7.91366 3.603 8.22803C3.57712 8.27939 3.48085 8.391 3.37335 8.51563C3.20666 8.70887 3.013 8.93339 3.013 9.01303C3.013 9.05076 3.12352 9.13262 3.24187 9.2203C3.32741 9.28367 3.41704 9.35007 3.472 9.40503C4.28262 10.0735 5.04859 10.7944 5.765 11.563C5.82915 11.6269 5.92067 11.7461 6.02182 11.878C6.2313 12.1511 6.48213 12.478 6.617 12.478C6.65705 12.478 6.84145 12.165 6.99501 11.9044C7.0945 11.7355 7.18105 11.5886 7.207 11.563C8.46062 9.67402 9.95862 7.95915 11.662 6.46303C11.6878 6.41187 11.8234 6.31145 11.9791 6.19613C12.222 6.01616 12.514 5.79992 12.514 5.67803C12.334 5.40426 12.1369 5.14208 11.924 4.89303C11.769 4.67706 11.658 4.47538 11.5702 4.31586C11.4722 4.13783 11.4031 4.01231 11.334 3.97803C9.66983 5.41631 8.17487 7.03944 6.878 8.81603C6.82495 8.86907 6.75042 9.00788 6.67181 9.15429C6.55629 9.36945 6.43195 9.60103 6.354 9.60103C6.354 9.60103 5.896 9.07803 5.83 9.01303Z" fill="#00CC7E"/>
</svg>
