<svg width="16" height="16" viewBox="0 0 16 16" fill="none" xmlns="http://www.w3.org/2000/svg">
<path fill-rule="evenodd" clip-rule="evenodd" d="M6.65877 0.381473C6.25536 0.630853 5.92937 0.987663 5.71736 1.41191L0.273357 12.3039C0.0789156 12.6933 -0.0128257 13.1259 0.00683507 13.5606C0.0264959 13.9954 0.156907 14.418 0.385698 14.7882C0.614489 15.1584 0.934073 15.4641 1.31414 15.6761C1.6942 15.8882 2.12214 15.9996 2.55736 15.9999H13.444C13.8792 15.9996 14.3072 15.8882 14.6872 15.6761C15.0673 15.4641 15.3869 15.1584 15.6157 14.7882C15.8445 14.418 15.9749 13.9954 15.9945 13.5606C16.0142 13.1259 15.9225 12.6933 15.728 12.3039L10.2854 1.41191C10.0733 0.987663 9.74736 0.630853 9.34394 0.381473C8.94053 0.132093 8.47563 0 8.00136 0C7.52709 0 7.06219 0.132093 6.65877 0.381473ZM8.8906 10.3826H7.36794L7.04394 3.33328H9.2146L8.8906 10.3826ZM6.87834 13.2282C6.81785 13.0614 6.79561 12.8832 6.81327 12.7066C6.79629 12.5296 6.81887 12.351 6.87938 12.1838C6.93989 12.0165 7.03681 11.8648 7.16314 11.7396C7.28947 11.6145 7.44204 11.5189 7.60983 11.4599C7.77761 11.401 7.9564 11.38 8.13327 11.3986C8.31093 11.3791 8.4907 11.3994 8.65958 11.4578C8.82847 11.5163 8.98226 11.6115 9.10985 11.7367C9.23743 11.8619 9.33562 12.0138 9.39731 12.1815C9.45901 12.3493 9.48268 12.5286 9.4666 12.7066C9.4816 12.8837 9.45707 13.062 9.39477 13.2284C9.33248 13.3949 9.23398 13.5455 9.10639 13.6692C8.97881 13.793 8.82532 13.8868 8.65703 13.944C8.48874 14.0012 8.30984 14.0203 8.13327 13.9999C7.95713 14.0212 7.77847 14.0026 7.61048 13.9455C7.4425 13.8885 7.28949 13.7944 7.16276 13.6702C7.03603 13.546 6.93883 13.395 6.87834 13.2282Z" fill="#EEAF53"/>
</svg>
