<svg width="16" height="16" viewBox="0 0 16 16" fill="none" xmlns="http://www.w3.org/2000/svg">
<path d="M12.7133 3.28683L11.7733 4.22683C12.7333 5.1935 13.3333 6.52683 13.3333 8.00016C13.3333 10.9468 10.9466 13.3335 7.99992 13.3335C5.05325 13.3335 2.66659 10.9468 2.66659 8.00016C2.66659 5.28016 4.69992 3.04016 7.33325 2.7135V4.06016C5.43992 4.38016 3.99992 6.02016 3.99992 8.00016C3.99992 10.2068 5.79325 12.0002 7.99992 12.0002C10.2066 12.0002 11.9999 10.2068 11.9999 8.00016C11.9999 6.8935 11.5533 5.8935 10.8266 5.1735L9.88659 6.1135C10.3666 6.60016 10.6666 7.26683 10.6666 8.00016C10.6666 9.4735 9.47325 10.6668 7.99992 10.6668C6.52659 10.6668 5.33325 9.4735 5.33325 8.00016C5.33325 6.76016 6.18659 5.72683 7.33325 5.42683V6.8535C6.93325 7.08683 6.66659 7.50683 6.66659 8.00016C6.66659 8.7335 7.26659 9.3335 7.99992 9.3335C8.73325 9.3335 9.33325 8.7335 9.33325 8.00016C9.33325 7.50683 9.06659 7.08016 8.66659 6.8535V1.3335H7.99992C4.31992 1.3335 1.33325 4.32016 1.33325 8.00016C1.33325 11.6802 4.31992 14.6668 7.99992 14.6668C11.6799 14.6668 14.6666 11.6802 14.6666 8.00016C14.6666 6.16016 13.9199 4.4935 12.7133 3.28683Z" fill="#4D4D4D"/>
</svg>
