<svg width="21" height="16" viewBox="0 0 21 16" fill="none" xmlns="http://www.w3.org/2000/svg">
<path d="M16.666 6.48V2C16.666 0.9 15.766 0 14.666 0H2.66602C1.56602 0 0.666016 0.9 0.666016 2V14C0.666016 15.1 1.56602 16 2.66602 16H14.666C15.766 16 16.666 15.1 16.666 14V9.52L20.666 13.5V2.5L16.666 6.48ZM14.666 14H2.66602V2H14.666V14Z" fill="#066FD3"/>
<path d="M8.66602 8C9.77059 8 10.666 7.10457 10.666 6C10.666 4.89543 9.77059 4 8.66602 4C7.56145 4 6.66602 4.89543 6.66602 6C6.66602 7.10457 7.56145 8 8.66602 8Z" fill="#066FD3"/>
<path d="M12.666 11.43C12.666 10.62 12.186 9.9 11.446 9.58C10.596 9.21 9.65602 9 8.66602 9C7.67602 9 6.73602 9.21 5.88602 9.58C5.14602 9.9 4.66602 10.62 4.66602 11.43V12H12.666V11.43Z" fill="#066FD3"/>
</svg>
