<svg fill="#9797B7" id="Capa_1" enable-background="new 0 0 512 512" height="512" viewBox="0 0 512 512" width="512" xmlns="http://www.w3.org/2000/svg"><g><path d="m331 195c0-41.355-33.645-75-75-75s-75 33.645-75 75 33.645 75 75 75 75-33.645 75-75zm-120 0c0-24.813 20.187-45 45-45s45 20.187 45 45-20.187 45-45 45-45-20.187-45-45z"/><circle cx="256" cy="195" r="15"/><circle cx="256" cy="75" r="15"/><path d="m421 165c0-90.981-74.018-165-165-165s-165 74.019-165 165c0 85.925 66.023 156.707 150 164.311v93.729c-59.708 8.098-113.179 60.925-115.606 63.353-5.858 5.858-5.858 15.355 0 21.213 5.857 5.858 15.355 5.858 21.213 0 .556-.556 56.221-55.606 109.393-55.606 52.964 0 108.845 55.061 109.394 55.606 5.857 5.858 15.355 5.859 21.213 0 5.858-5.858 5.858-15.355 0-21.213-2.427-2.428-55.899-55.255-115.606-63.353v-93.729c83.976-7.604 149.999-78.386 149.999-164.311zm-300 0c0-74.439 60.561-135 135-135s135 60.561 135 135-60.56 135-135 135-135-60.561-135-135z"/></g></svg>
