<svg width="16" height="16" viewBox="0 0 16 16" fill="none" xmlns="http://www.w3.org/2000/svg">
<path d="M7.99334 1.33333C4.31334 1.33333 1.33334 4.31999 1.33334 8C1.33334 11.68 4.31334 14.6667 7.99334 14.6667C11.68 14.6667 14.6667 11.68 14.6667 8C14.6667 4.31999 11.68 1.33333 7.99334 1.33333ZM12.6133 5.33333H10.6467C10.4333 4.49999 10.1267 3.7 9.72667 2.96C10.9533 3.38 11.9733 4.23333 12.6133 5.33333ZM8 2.69333C8.55334 3.49333 8.98667 4.38 9.27334 5.33333H6.72667C7.01334 4.38 7.44667 3.49333 8 2.69333ZM2.84 9.33333C2.73334 8.90666 2.66667 8.46 2.66667 8C2.66667 7.54 2.73334 7.09333 2.84 6.66666H5.09334C5.04 7.10666 5 7.54666 5 8C5 8.45333 5.04 8.89333 5.09334 9.33333H2.84ZM3.38667 10.6667H5.35334C5.56667 11.5 5.87334 12.3 6.27334 13.04C5.04667 12.62 4.02667 11.7733 3.38667 10.6667ZM5.35334 5.33333H3.38667C4.02667 4.22666 5.04667 3.38 6.27334 2.96C5.87334 3.7 5.56667 4.49999 5.35334 5.33333ZM8 13.3067C7.44667 12.5067 7.01334 11.62 6.72667 10.6667H9.27334C8.98667 11.62 8.55334 12.5067 8 13.3067ZM9.56 9.33333H6.44C6.38 8.89333 6.33334 8.45333 6.33334 8C6.33334 7.54666 6.38 7.1 6.44 6.66666H9.56C9.62 7.1 9.66667 7.54666 9.66667 8C9.66667 8.45333 9.62 8.89333 9.56 9.33333ZM9.72667 13.04C10.1267 12.3 10.4333 11.5 10.6467 10.6667H12.6133C11.9733 11.7667 10.9533 12.62 9.72667 13.04ZM10.9067 9.33333C10.96 8.89333 11 8.45333 11 8C11 7.54666 10.96 7.10666 10.9067 6.66666H13.16C13.2667 7.09333 13.3333 7.54 13.3333 8C13.3333 8.46 13.2667 8.90666 13.16 9.33333H10.9067Z" fill="#989898"/>
</svg>
