<svg width="98" height="98" viewBox="0 0 98 98" fill="none" xmlns="http://www.w3.org/2000/svg">
<circle cx="49" cy="49" r="49" fill="#F6F5FF"/>
<path d="M78.8452 56.9766C79.6308 54.3767 77.981 49.1771 65.0971 49.1771C52.2131 49.1771 49.254 43.2346 49.385 40.2634" stroke="black"/>
<path d="M49.2173 40.2634C50.0029 42.8633 48.3531 48.0629 35.4691 48.0629C22.5852 48.0629 19.6261 54.0054 19.757 56.9766" stroke="#101336"/>
<path d="M78.8452 56.9766C79.6308 54.3767 77.981 49.1771 65.0971 49.1771C52.2131 49.1771 49.254 43.2346 49.385 40.2634" stroke="#101336"/>
<circle cx="49.381" cy="75.9689" r="8.35659" fill="white"/>
<circle cx="79.0089" cy="63.8139" r="8.35659" fill="white"/>
<path d="M49.3809 39.1238V67.6122" stroke="#101336"/>
<path d="M49.2074 66.8525C47.4387 66.8525 45.7097 67.377 44.2391 68.3597C42.7685 69.3423 41.6222 70.739 40.9454 72.3731C40.2685 74.0072 40.0914 75.8053 40.4365 77.54C40.7815 79.2747 41.6333 80.8682 42.8839 82.1188C44.1346 83.3695 45.7281 84.2212 47.4628 84.5663C49.1975 84.9113 50.9956 84.7342 52.6297 84.0574C54.2638 83.3805 55.6605 82.2343 56.6431 80.7637C57.6258 79.293 58.1502 77.564 58.1502 75.7953C58.1502 73.4236 57.2081 71.1489 55.531 69.4718C53.8539 67.7947 51.5792 66.8525 49.2074 66.8525ZM49.2074 69.5354C49.7381 69.5354 50.2568 69.6928 50.698 69.9876C51.1392 70.2824 51.4831 70.7014 51.6861 71.1916C51.8892 71.6818 51.9423 72.2213 51.8388 72.7417C51.7353 73.2621 51.4797 73.7402 51.1045 74.1154C50.7293 74.4906 50.2513 74.7461 49.7309 74.8496C49.2104 74.9532 48.671 74.9 48.1808 74.697C47.6905 74.4939 47.2715 74.15 46.9767 73.7088C46.6819 73.2676 46.5246 72.7489 46.5246 72.2183C46.5246 71.866 46.594 71.5171 46.7288 71.1916C46.8636 70.8661 47.0612 70.5703 47.3104 70.3212C47.5595 70.0721 47.8553 69.8745 48.1808 69.7396C48.5063 69.6048 48.8551 69.5354 49.2074 69.5354ZM49.2074 82.4508C48.1476 82.446 47.1049 82.1826 46.1699 81.6837C45.2349 81.1847 44.4357 80.4651 43.8417 79.5873C43.8846 77.7988 47.4187 76.8142 49.2074 76.8142C50.9962 76.8142 54.5301 77.7988 54.5732 79.5873C53.9786 80.4646 53.1793 81.1838 52.2445 81.6828C51.3096 82.1819 50.2672 82.4457 49.2074 82.4515V82.4508Z" fill="#50526B"/>
<path d="M78.8354 54.6975C77.0667 54.6975 75.3377 55.222 73.867 56.2046C72.3964 57.1873 71.2502 58.584 70.5733 60.218C69.8965 61.8521 69.7194 63.6502 70.0644 65.385C70.4095 67.1197 71.2612 68.7131 72.5119 69.9638C73.7625 71.2145 75.356 72.0662 77.0907 72.4113C78.8255 72.7563 80.6236 72.5792 82.2576 71.9024C83.8917 71.2255 85.2884 70.0793 86.271 68.6086C87.2537 67.138 87.7782 65.409 87.7782 63.6403C87.7782 61.2685 86.836 58.9939 85.1589 57.3168C83.4818 55.6397 81.2072 54.6975 78.8354 54.6975ZM78.8354 57.3804C79.366 57.3804 79.8847 57.5377 80.3259 57.8325C80.7671 58.1273 81.111 58.5464 81.314 59.0366C81.5171 59.5268 81.5702 60.0663 81.4667 60.5867C81.3632 61.1071 81.1077 61.5852 80.7325 61.9604C80.3573 62.3356 79.8792 62.5911 79.3588 62.6946C78.8384 62.7981 78.2989 62.745 77.8087 62.542C77.3185 62.3389 76.8994 61.995 76.6046 61.5538C76.3098 61.1126 76.1525 60.5939 76.1525 60.0633C76.1525 59.711 76.2219 59.3621 76.3567 59.0366C76.4915 58.7111 76.6892 58.4153 76.9383 58.1662C77.1874 57.9171 77.4832 57.7194 77.8087 57.5846C78.1342 57.4498 78.4831 57.3804 78.8354 57.3804ZM78.8354 70.2958C77.7755 70.2909 76.7329 70.0276 75.7978 69.5286C74.8628 69.0296 74.0636 68.3101 73.4696 67.4323C73.5125 65.6438 77.0466 64.6591 78.8354 64.6591C80.6241 64.6591 84.158 65.6438 84.2011 67.4323C83.6066 68.3095 82.8073 69.0288 81.8724 69.5278C80.9375 70.0268 79.8951 70.2899 78.8354 70.2958Z" fill="#50526B"/>
<circle cx="19.7531" cy="63.8139" r="8.35659" fill="white"/>
<path d="M19.5795 54.6975C17.8108 54.6975 16.0818 55.222 14.6112 56.2046C13.1405 57.1873 11.9943 58.584 11.3175 60.218C10.6406 61.8521 10.4635 63.6502 10.8086 65.385C11.1536 67.1197 12.0053 68.7131 13.256 69.9638C14.5067 71.2145 16.1001 72.0662 17.8349 72.4113C19.5696 72.7563 21.3677 72.5792 23.0018 71.9024C24.6359 71.2255 26.0325 70.0793 27.0152 68.6086C27.9978 67.138 28.5223 65.409 28.5223 63.6403C28.5223 61.2685 27.5801 58.9939 25.903 57.3168C24.2259 55.6397 21.9513 54.6975 19.5795 54.6975ZM19.5795 57.3804C20.1101 57.3804 20.6288 57.5377 21.07 57.8325C21.5112 58.1273 21.8551 58.5464 22.0582 59.0366C22.2612 59.5268 22.3144 60.0663 22.2109 60.5867C22.1073 61.1071 21.8518 61.5852 21.4766 61.9604C21.1014 62.3356 20.6233 62.5911 20.1029 62.6946C19.5825 62.7981 19.0431 62.745 18.5528 62.542C18.0626 62.3389 17.6436 61.995 17.3488 61.5538C17.054 61.1126 16.8966 60.5939 16.8966 60.0633C16.8966 59.711 16.966 59.3621 17.1009 59.0366C17.2357 58.7111 17.4333 58.4153 17.6824 58.1662C17.9316 57.9171 18.2273 57.7194 18.5528 57.5846C18.8783 57.4498 19.2272 57.3804 19.5795 57.3804ZM19.5795 70.2958C18.5197 70.2909 17.477 70.0276 16.542 69.5286C15.6069 69.0296 14.8078 68.3101 14.2137 67.4323C14.2566 65.6438 17.7908 64.6591 19.5795 64.6591C21.3683 64.6591 24.9021 65.6438 24.9453 67.4323C24.3507 68.3095 23.5514 69.0288 22.6165 69.5278C21.6816 70.0268 20.6393 70.2907 19.5795 70.2965V70.2958Z" fill="#50526B"/>
<circle cx="49.3814" cy="25.8291" r="14.4341" fill="white"/>
<path d="M49.3298 10.6355C46.3349 10.6355 43.4073 11.5236 40.9172 13.1874C38.4271 14.8513 36.4862 17.2162 35.3401 19.9831C34.1941 22.75 33.8942 25.7946 34.4785 28.7319C35.0627 31.6692 36.5049 34.3673 38.6226 36.485C40.7403 38.6027 43.4384 40.0449 46.3757 40.6291C49.313 41.2134 52.3576 40.9135 55.1245 39.7674C57.8914 38.6214 60.2563 36.6805 61.9201 34.1904C63.584 31.7003 64.4721 28.7726 64.4721 25.7778C64.4721 21.7618 62.8767 17.9103 60.037 15.0706C57.1973 12.2308 53.3458 10.6355 49.3298 10.6355ZM49.3298 15.1783C50.2283 15.1783 51.1066 15.4447 51.8536 15.9439C52.6007 16.443 53.1829 17.1525 53.5268 17.9826C53.8706 18.8127 53.9606 19.7261 53.7853 20.6073C53.61 21.4885 53.1773 22.2979 52.542 22.9333C51.9067 23.5686 51.0973 24.0012 50.216 24.1765C49.3348 24.3518 48.4214 24.2619 47.5914 23.918C46.7613 23.5742 46.0518 22.9919 45.5526 22.2449C45.0535 21.4978 44.787 20.6195 44.787 19.721C44.787 19.1245 44.9045 18.5337 45.1328 17.9826C45.3611 17.4314 45.6957 16.9306 46.1176 16.5088C46.5394 16.087 47.0402 15.7524 47.5914 15.5241C48.1425 15.2958 48.7332 15.1783 49.3298 15.1783ZM49.3298 37.0471C47.5352 37.0389 45.7697 36.593 44.1865 35.7481C42.6033 34.9032 41.2501 33.6848 40.2443 32.1986C40.3169 29.1702 46.301 27.5029 49.3298 27.5029C52.3586 27.5029 58.3423 29.1702 58.4153 32.1986C57.4086 33.6839 56.0552 34.9018 54.4722 35.7468C52.8892 36.5918 51.1242 37.0385 49.3298 37.0484V37.0471Z" fill="#F5821F"/>
</svg>
