<svg width="95" height="95" viewBox="0 0 95 95" fill="none" xmlns="http://www.w3.org/2000/svg">
<circle cx="47.5" cy="47.5" r="47.5" fill="#F6F5FF"/>
<path d="M63.5721 59.1709C62.6971 57.0982 61.4273 55.2155 59.8334 53.6277C58.2443 52.0353 56.3619 50.7656 54.2902 49.8889C54.2716 49.8796 54.253 49.875 54.2345 49.8657C57.1244 47.7783 59.003 44.3782 59.003 40.542C59.003 34.187 53.8541 29.0381 47.4991 29.0381C41.1442 29.0381 35.9952 34.187 35.9952 40.542C35.9952 44.3782 37.8739 47.7783 40.7638 49.8704C40.7452 49.8796 40.7267 49.8843 40.7081 49.8936C38.63 50.7703 36.7653 52.0273 35.1649 53.6323C33.5725 55.2214 32.3029 57.1038 31.4261 59.1755C30.5648 61.2038 30.1003 63.3784 30.0577 65.5815C30.0565 65.6311 30.0652 65.6803 30.0833 65.7264C30.1014 65.7725 30.1285 65.8145 30.1631 65.85C30.1977 65.8854 30.239 65.9136 30.2846 65.9328C30.3303 65.952 30.3793 65.9619 30.4288 65.9619H33.212C33.4161 65.9619 33.5785 65.7996 33.5831 65.6001C33.6759 62.019 35.1139 58.6653 37.6559 56.1233C40.286 53.4932 43.7789 52.0459 47.4991 52.0459C51.2194 52.0459 54.7123 53.4932 57.3424 56.1233C59.8844 58.6653 61.3224 62.019 61.4152 65.6001C61.4198 65.8042 61.5822 65.9619 61.7863 65.9619H64.5695C64.619 65.9619 64.668 65.952 64.7136 65.9328C64.7593 65.9136 64.8006 65.8854 64.8352 65.85C64.8698 65.8145 64.8969 65.7725 64.915 65.7264C64.9331 65.6803 64.9418 65.6311 64.9406 65.5815C64.8942 63.3643 64.4349 61.2073 63.5721 59.1709ZM47.4991 48.5205C45.37 48.5205 43.3661 47.6902 41.8585 46.1826C40.3509 44.675 39.5206 42.6711 39.5206 40.542C39.5206 38.4128 40.3509 36.4089 41.8585 34.9014C43.3661 33.3938 45.37 32.5635 47.4991 32.5635C49.6283 32.5635 51.6322 33.3938 53.1398 34.9014C54.6473 36.4089 55.4777 38.4128 55.4777 40.542C55.4777 42.6711 54.6473 44.675 53.1398 46.1826C51.6322 47.6902 49.6283 48.5205 47.4991 48.5205Z" fill="#838383"/>
</svg>
