<svg width="98" height="98" viewBox="0 0 98 98" fill="none" xmlns="http://www.w3.org/2000/svg">
<circle cx="49" cy="49" r="49" fill="#F6F5FF"/>
<mask id="mask0" style="mask-type:alpha" maskUnits="userSpaceOnUse" x="0" y="0" width="98" height="98">
<circle cx="49" cy="49" r="49" fill="#F6F5FF"/>
</mask>
<g mask="url(#mask0)">
<path d="M89.9692 62.3225H42.5635V92.6833H89.9692V62.3225Z" fill="#DEE2E6"/>
<path d="M88.6126 66.1294H43.918V90.886H88.6126V66.1294Z" fill="white"/>
<path d="M89.9487 62.2947H42.543V64.3086H89.9487V62.2947Z" fill="#50526B"/>
<path d="M44.0393 63.6975C44.2454 63.6975 44.4126 63.5304 44.4126 63.3242C44.4126 63.118 44.2454 62.9509 44.0393 62.9509C43.8331 62.9509 43.666 63.118 43.666 63.3242C43.666 63.5304 43.8331 63.6975 44.0393 63.6975Z" fill="white"/>
<path d="M45.4563 63.6975C45.6624 63.6975 45.8296 63.5304 45.8296 63.3242C45.8296 63.118 45.6624 62.9509 45.4563 62.9509C45.2501 62.9509 45.083 63.118 45.083 63.3242C45.083 63.5304 45.2501 63.6975 45.4563 63.6975Z" fill="white"/>
<path d="M46.8733 63.6975C47.0794 63.6975 47.2465 63.5304 47.2465 63.3242C47.2465 63.118 47.0794 62.9509 46.8733 62.9509C46.6671 62.9509 46.5 63.118 46.5 63.3242C46.5 63.5304 46.6671 63.6975 46.8733 63.6975Z" fill="white"/>
<path d="M59.4737 68.6982H47.9893V88.3174H59.4737V68.6982Z" fill="#DEE2E6"/>
<path d="M84.4936 68.6978H61.3291V74.0982H84.4936V68.6978Z" fill="#50526B"/>
<path d="M84.4946 75.6023H61.3301V81.4129H84.4946V75.6023Z" fill="#DEE2E6"/>
<path d="M84.4946 82.9165H61.3301V88.3169H84.4946V82.9165Z" fill="#DEE2E6"/>
<path d="M12.3555 14.7345H53.2119C55.2354 14.7345 56.8758 16.3749 56.8758 18.3984V40.8218C56.8758 42.8453 55.2354 44.4857 53.2119 44.4857H12.3555C10.332 44.4857 8.69157 42.8453 8.69157 40.8218V18.3984C8.69157 16.3749 10.332 14.7345 12.3555 14.7345Z" fill="#F6F5FF" stroke="#222B45" stroke-width="0.672204"/>
<path d="M12.3555 14.7345H53.2119C55.2354 14.7345 56.8758 16.3749 56.8758 18.3984V40.8218C56.8758 42.8453 55.2354 44.4857 53.2119 44.4857H12.3555C10.332 44.4857 8.69157 42.8453 8.69157 40.8218V18.3984C8.69157 16.3749 10.332 14.7345 12.3555 14.7345Z" fill="white" stroke="#222B45" stroke-width="0.672204"/>
<path d="M19.5799 20.2595H12.6318C12.0796 20.2595 11.6318 20.7072 11.6318 21.2595V25.0758C11.6318 25.628 12.0796 26.0758 12.6318 26.0758H19.5799C20.1322 26.0758 20.5799 25.628 20.5799 25.0758V21.2595C20.5799 20.7072 20.1322 20.2595 19.5799 20.2595Z" fill="#CED4DA"/>
<path d="M30.699 20.2595H23.751C23.1987 20.2595 22.751 20.7072 22.751 21.2595V25.0758C22.751 25.628 23.1987 26.0758 23.751 26.0758H30.699C31.2513 26.0758 31.699 25.628 31.699 25.0758V21.2595C31.699 20.7072 31.2513 20.2595 30.699 20.2595Z" fill="#CED4DA"/>
<path d="M41.8172 20.2595H34.8691C34.3169 20.2595 33.8691 20.7072 33.8691 21.2595V25.0758C33.8691 25.628 34.3169 26.0758 34.8691 26.0758H41.8172C42.3695 26.0758 42.8172 25.628 42.8172 25.0758V21.2595C42.8172 20.7072 42.3695 20.2595 41.8172 20.2595Z" fill="#CED4DA"/>
<path d="M52.9363 20.2595H45.9883C45.436 20.2595 44.9883 20.7072 44.9883 21.2595V25.0758C44.9883 25.628 45.436 26.0758 45.9883 26.0758H52.9363C53.4886 26.0758 53.9363 25.628 53.9363 25.0758V21.2595C53.9363 20.7072 53.4886 20.2595 52.9363 20.2595Z" fill="#CED4DA"/>
<path d="M19.5799 28.4917H12.6318C12.0796 28.4917 11.6318 28.9394 11.6318 29.4917V33.3079C11.6318 33.8602 12.0796 34.3079 12.6318 34.3079H19.5799C20.1322 34.3079 20.5799 33.8602 20.5799 33.3079V29.4917C20.5799 28.9394 20.1322 28.4917 19.5799 28.4917Z" fill="#CED4DA"/>
<path d="M30.699 28.4917H23.751C23.1987 28.4917 22.751 28.9394 22.751 29.4917V33.3079C22.751 33.8602 23.1987 34.3079 23.751 34.3079H30.699C31.2513 34.3079 31.699 33.8602 31.699 33.3079V29.4917C31.699 28.9394 31.2513 28.4917 30.699 28.4917Z" fill="#CED4DA"/>
<path d="M41.8172 28.4917H34.8691C34.3169 28.4917 33.8691 28.9394 33.8691 29.4917V33.3079C33.8691 33.8602 34.3169 34.3079 34.8691 34.3079H41.8172C42.3695 34.3079 42.8172 33.8602 42.8172 33.3079V29.4917C42.8172 28.9394 42.3695 28.4917 41.8172 28.4917Z" fill="#CED4DA"/>
<path d="M52.9363 28.4917H45.9883C45.436 28.4917 44.9883 28.9394 44.9883 29.4917V33.3079C44.9883 33.8602 45.436 34.3079 45.9883 34.3079H52.9363C53.4886 34.3079 53.9363 33.8602 53.9363 33.3079V29.4917C53.9363 28.9394 53.4886 28.4917 52.9363 28.4917Z" fill="#CED4DA"/>
<path d="M19.5799 36.7239H12.6318C12.0796 36.7239 11.6318 37.1716 11.6318 37.7239V41.5401C11.6318 42.0924 12.0796 42.5401 12.6318 42.5401H19.5799C20.1322 42.5401 20.5799 42.0924 20.5799 41.5401V37.7239C20.5799 37.1716 20.1322 36.7239 19.5799 36.7239Z" fill="#CED4DA"/>
<path d="M30.699 36.7239H23.751C23.1987 36.7239 22.751 37.1716 22.751 37.7239V41.5401C22.751 42.0924 23.1987 42.5401 23.751 42.5401H30.699C31.2513 42.5401 31.699 42.0924 31.699 41.5401V37.7239C31.699 37.1716 31.2513 36.7239 30.699 36.7239Z" fill="#CED4DA"/>
<path d="M41.8172 36.7239H34.8691C34.3169 36.7239 33.8691 37.1716 33.8691 37.7239V41.5401C33.8691 42.0924 34.3169 42.5401 34.8691 42.5401H41.8172C42.3695 42.5401 42.8172 42.0924 42.8172 41.5401V37.7239C42.8172 37.1716 42.3695 36.7239 41.8172 36.7239Z" fill="#CED4DA"/>
<path d="M52.9363 36.7239H45.9883C45.436 36.7239 44.9883 37.1716 44.9883 37.7239V41.5401C44.9883 42.0924 45.436 42.5401 45.9883 42.5401H52.9363C53.4886 42.5401 53.9363 42.0924 53.9363 41.5401V37.7239C53.9363 37.1716 53.4886 36.7239 52.9363 36.7239Z" fill="#CED4DA"/>
<path d="M21.1508 17.9776C21.8921 17.9776 22.493 17.3767 22.493 16.6354C22.493 15.8941 21.8921 15.2932 21.1508 15.2932C20.4095 15.2932 19.8086 15.8941 19.8086 16.6354C19.8086 17.3767 20.4095 17.9776 21.1508 17.9776Z" fill="white"/>
<path d="M43.3422 17.9776C44.0835 17.9776 44.6844 17.3767 44.6844 16.6354C44.6844 15.8941 44.0835 15.2932 43.3422 15.2932C42.6009 15.2932 42 15.8941 42 16.6354C42 17.3767 42.6009 17.9776 43.3422 17.9776Z" fill="white"/>
<path d="M21.6064 16.5807V11.9716C21.6064 11.6535 21.3484 11.3955 21.0302 11.3955C20.712 11.3955 20.4541 11.6535 20.4541 11.9716V16.5807C20.4541 16.8989 20.712 17.1569 21.0302 17.1569C21.3484 17.1569 21.6064 16.8989 21.6064 16.5807Z" fill="#222B45"/>
<path d="M44.0771 16.5807V11.9716C44.0771 11.6535 43.8191 11.3955 43.5009 11.3955C43.1827 11.3955 42.9248 11.6535 42.9248 11.9716V16.5807C42.9248 16.8989 43.1827 17.1569 43.5009 17.1569C43.8191 17.1569 44.0771 16.8989 44.0771 16.5807Z" fill="#222B45"/>
<path d="M65.9002 62.2947C66.8269 59.6948 64.881 54.4952 49.6845 54.4952C34.4881 54.4952 30.9979 48.5527 31.1523 45.5815" stroke="#101336"/>
</g>
<circle cx="31.1473" cy="44.8216" r="1.51938" fill="#222B45"/>
<circle cx="66.0926" cy="63.0543" r="1.51938" fill="#222B45"/>
</svg>
