<svg width="308" height="246" viewBox="0 0 308 246" fill="none" xmlns="http://www.w3.org/2000/svg">
<path d="M244.69 205.096C238.61 205.096 232.727 202.939 228.087 199.01C223.447 195.08 220.352 189.633 219.35 183.635L219.329 183.509L219.411 183.41C220.775 181.775 221.92 179.971 222.82 178.041C221.826 179.125 220.7 180.081 219.468 180.885L219.057 181.158L219.033 180.665C219.012 180.24 219.002 179.817 219.002 179.409C219 177.01 219.331 174.623 219.986 172.315C222.968 161.833 223.478 150.577 221.501 138.86C221.164 136.85 220.994 134.817 220.994 132.779C220.997 124.169 224.065 115.842 229.648 109.288C235.231 102.733 242.965 98.3806 251.465 97.0086C259.965 95.6367 268.675 97.3352 276.037 101.8C283.399 106.265 288.931 113.204 291.642 121.376L291.725 121.625L291.482 121.723C289.655 122.497 287.719 122.977 285.743 123.147C287.831 123.628 289.973 123.833 292.114 123.759L292.34 123.751L292.395 123.971C293.113 126.852 293.476 129.81 293.476 132.779L293.474 133.101C293.468 135.374 293.94 137.624 294.861 139.703C295.782 141.782 297.131 143.643 298.82 145.166C301.564 147.662 303.734 150.724 305.182 154.14C306.63 157.556 307.321 161.244 307.207 164.953C307.093 168.661 306.177 172.3 304.522 175.621C302.868 178.941 300.513 181.864 297.621 184.188L297.487 184.296L297.33 184.224C294.022 182.723 291.612 181.088 289.85 179.137C291.025 181.641 292.607 183.934 294.531 185.921L294.78 186.178L294.471 186.358C290.543 188.648 286.078 189.854 281.532 189.852L281.402 189.852C281.356 189.851 281.31 189.851 281.264 189.851C274.31 189.851 267.718 192.541 263.159 197.242C260.758 199.715 257.888 201.684 254.717 203.032C251.545 204.381 248.136 205.083 244.69 205.096Z" fill="#F2F2F2"/>
<path d="M235.599 245.571C235.487 245.57 235.38 245.53 235.295 245.457C235.211 245.384 235.156 245.283 235.141 245.172C235.121 245.034 233.192 231.12 234.924 212.627C236.524 195.548 241.663 170.949 257.057 150.747C257.094 150.698 257.14 150.657 257.193 150.627C257.245 150.596 257.304 150.576 257.364 150.568C257.424 150.56 257.486 150.564 257.545 150.579C257.603 150.595 257.659 150.622 257.707 150.659C257.755 150.696 257.796 150.742 257.827 150.794C257.857 150.847 257.877 150.905 257.885 150.966C257.894 151.026 257.89 151.087 257.874 151.146C257.859 151.205 257.832 151.26 257.795 151.309C242.534 171.337 237.436 195.755 235.848 212.713C234.125 231.098 236.039 244.904 236.059 245.042C236.068 245.107 236.063 245.174 236.044 245.238C236.025 245.302 235.993 245.361 235.949 245.411C235.906 245.461 235.852 245.501 235.792 245.529C235.731 245.556 235.665 245.571 235.599 245.571Z" fill="#222B45"/>
<path d="M243.295 177.46C243.197 177.46 243.101 177.43 243.022 177.372C242.943 177.314 242.884 177.233 242.853 177.14C242.823 177.047 242.823 176.947 242.853 176.854C242.883 176.76 242.942 176.679 243.022 176.622C247.408 173.653 252.146 171.24 257.128 169.441C264.911 166.591 276.746 164.008 288.93 167.886C288.988 167.904 289.041 167.934 289.088 167.973C289.135 168.013 289.173 168.061 289.201 168.115C289.229 168.169 289.246 168.228 289.251 168.289C289.256 168.349 289.249 168.41 289.231 168.468C289.212 168.526 289.183 168.58 289.143 168.627C289.104 168.673 289.056 168.712 289.002 168.74C288.948 168.768 288.889 168.785 288.828 168.79C288.768 168.795 288.706 168.788 288.648 168.769C276.714 164.971 265.094 167.512 257.447 170.312C252.545 172.08 247.883 174.452 243.567 177.372C243.488 177.429 243.392 177.46 243.295 177.46Z" fill="#222B45"/>
<path d="M54.9377 211.14C50.6127 211.132 43.8035 211.481 40.0945 213.44C37.2443 214.945 34.6486 216.889 32.4027 219.201C31.537 220.096 30.7171 221.034 29.946 222.011C27.813 214.714 27.5648 206.995 29.2244 199.576C29.3411 199.077 29.3028 198.554 29.1145 198.077C28.9262 197.6 28.597 197.191 28.1706 196.906C27.7443 196.621 27.2412 196.473 26.7284 196.481C26.2155 196.489 25.7174 196.653 25.3004 196.952C19.275 201.346 15.4227 208.793 14.4859 216.326C13.2922 225.924 16.1029 235.597 20.0094 244.448L20.0082 244.453C20.001 244.493 19.99 244.536 19.9793 244.579C19.9648 244.645 19.9468 244.71 19.9323 244.775C19.9069 244.887 19.8781 245.002 19.8527 245.114L20.4853 245.085C20.5215 245.104 20.5576 245.118 20.5936 245.136H36.4364C36.6464 244.907 36.842 244.666 37.022 244.413C38.7752 242.009 39.5016 238.753 40.3873 235.814C41.0287 233.686 41.831 231.61 42.7874 229.604C45.1954 224.565 48.5181 220.017 52.5865 216.19C52.7166 216.068 52.8504 215.945 52.9842 215.825C53.6656 215.199 54.7218 214.361 55.7539 213.574C55.9795 213.402 56.1456 213.165 56.229 212.894C56.3123 212.623 56.3087 212.333 56.2186 212.064C56.1285 211.796 55.9565 211.562 55.7267 211.396C55.4969 211.231 55.221 211.141 54.9377 211.14Z" fill="#F2F2F2"/>
<path d="M161.905 61.7609C162.278 62.8029 162.226 63.9497 161.761 64.9539C161.296 65.9581 160.455 66.7393 159.419 67.1291C159.19 67.2146 158.954 67.2798 158.713 67.3237L156.319 81.9837L150.703 76.798L153.837 63.6716C153.721 62.5655 154.045 61.4582 154.739 60.589C155.433 59.7198 156.441 59.1587 157.545 59.0268C158.475 58.9203 159.412 59.1329 160.204 59.6298C160.997 60.1266 161.597 60.8781 161.905 61.7609L161.905 61.7609Z" fill="#9E616A"/>
<path d="M120.456 94.9792C120.456 94.9792 124.815 89.2198 140.633 89.3776L149.611 86.1155L151.663 67.3066L158.845 69.0165L157.819 92.2712L142.43 101.163L122.253 105.266L120.456 94.9792Z" fill="#0000FF"/>
<path d="M96.1509 236.773L100.295 238.538L109.078 223.396L102.962 220.79L96.1509 236.773Z" fill="#9E616A"/>
<path d="M130.392 240.693L134.896 240.693L137.039 223.32L130.391 223.32L130.392 240.693Z" fill="#9E616A"/>
<path d="M130.234 245.392L144.084 245.392V245.217C144.084 243.787 143.516 242.416 142.505 241.405C141.494 240.394 140.123 239.826 138.693 239.826H138.693L136.163 237.906L131.442 239.826L130.233 239.826L130.234 245.392Z" fill="#222B45"/>
<path d="M93.6309 239.78L106.373 245.21L106.442 245.049C107.002 243.734 107.017 242.25 106.483 240.923C105.95 239.597 104.911 238.537 103.596 237.976L103.595 237.976L102.021 235.218L96.9253 235.134L95.8131 234.66L93.6309 239.78Z" fill="#222B45"/>
<path d="M134.811 137.873L141.656 179.555L139.793 185.767L142.238 190.166L138.648 228.799L140.105 232.008L136.034 234.519H127.749L127.309 199.543L125.263 194.408V191.578L121.097 170.251L120.33 194.646L119.118 199.79L120.136 203.452L118.806 206.017L107.407 230.493H98.1172L98.8357 224.958C97.1713 224.115 101.335 221.652 101.735 219.83L100.367 216.752L101.735 210.938L102.989 199.578L101.666 175.599L102.289 143.308L113.156 134.998L134.811 137.873Z" fill="#222B45"/>
<path d="M118.141 82.9801C123.326 82.9801 127.529 78.7768 127.529 73.5918C127.529 68.4069 123.326 64.2036 118.141 64.2036C112.956 64.2036 108.752 68.4069 108.752 73.5918C108.752 78.7768 112.956 82.9801 118.141 82.9801Z" fill="#9E616A"/>
<path d="M101.827 155.163C102.09 154.691 102.247 154.168 102.286 153.629C102.325 153.09 102.245 152.55 102.052 152.045C101.859 151.541 101.558 151.084 101.17 150.709C100.782 150.333 100.317 150.047 99.8061 149.871L99.7839 136.742L94.0947 140.508L94.988 152.398C94.7489 153.275 94.8398 154.21 95.2437 155.024C95.6476 155.839 96.3363 156.477 97.1793 156.818C98.0223 157.159 98.9611 157.179 99.8178 156.874C100.674 156.569 101.389 155.96 101.827 155.163Z" fill="#9E616A"/>
<path d="M101.302 97.0719L98.7599 94.6221L96.8928 95.9697C96.8928 95.9697 95.0558 98.174 93.5862 104.787C92.1167 111.4 93.5862 147.772 93.5862 147.772L101.669 146.67L100.567 127.566L103.873 111.4L101.302 97.0719Z" fill="#0000FF"/>
<path d="M97.5483 95.2197L106.111 91.1294L111.925 85.7371L122.526 85.6577L125.946 90.1035L134.974 93.1703L133.47 124.301L134.496 126.695C134.496 126.695 133.781 127.341 133.454 127.702C133.128 128.063 133.906 131.087 133.906 131.087L134.344 134.376L133.128 135.245L134.709 137.113L135.102 140.057C135.102 140.057 107.499 133.196 102.283 144.562C102.008 145.162 102.686 139.294 102.686 139.294L103.365 134.997L102.692 131.141L101.666 130.115L103.386 128.394L102.283 120.23L97.5483 95.2197Z" fill="#0000FF"/>
<path d="M186.927 236.588H181.845L179.427 216.988H186.927V236.588Z" fill="#FFB6B6"/>
<path d="M189.609 245.392H185.965L185.315 241.952L183.649 245.392H173.984C173.521 245.392 173.069 245.244 172.696 244.97C172.323 244.695 172.047 244.308 171.909 243.866C171.772 243.424 171.779 242.949 171.93 242.511C172.081 242.073 172.368 241.695 172.749 241.432L180.467 236.101V232.623L188.586 233.108L189.609 245.392Z" fill="#222B45"/>
<path d="M236.346 226.506L231.975 229.098L219.897 213.473L226.348 209.648L236.346 226.506Z" fill="#FFB6B6"/>
<path d="M243.145 232.711L240.01 234.57L237.696 231.942L238.018 235.751L229.705 240.681C229.306 240.918 228.843 241.021 228.382 240.975C227.921 240.929 227.486 240.737 227.142 240.427C226.798 240.117 226.562 239.705 226.468 239.251C226.375 238.797 226.429 238.326 226.623 237.905L230.542 229.383L228.768 226.391L235.998 222.667L243.145 232.711Z" fill="#222B45"/>
<path d="M184.659 111.268L182.19 127.01L205.649 127.318L202.562 112.194L184.659 111.268Z" fill="#FFB6B6"/>
<path d="M182.1 126.811L175.399 143.061L174.911 186.516L180.629 228.007H186.957L189.549 187.193L195.926 159.266L202.215 188.474L221.769 217.064H231.378L213.712 185.559L211.668 151.24C211.668 151.24 212.942 136.681 206.42 128.09L204.833 123.504L182.1 126.811Z" fill="#222B45"/>
<path d="M214.919 138.675C214.266 138.497 213.66 138.178 213.143 137.74C212.627 137.303 212.213 136.757 211.93 136.142C211.647 135.527 211.502 134.857 211.506 134.18C211.51 133.503 211.662 132.836 211.952 132.224L201.973 99.6875L209.313 98.2324L218.441 130.125C219.436 130.68 220.193 131.581 220.569 132.657C220.944 133.733 220.912 134.91 220.478 135.964C220.044 137.018 219.238 137.876 218.214 138.376C217.189 138.875 216.017 138.982 214.919 138.675V138.675Z" fill="#FFB6B6"/>
<path d="M203.08 122.697L185.542 114.519C185.079 114.51 184.633 114.348 184.271 114.061C183.909 113.773 183.652 113.375 183.538 112.927C182.671 109.495 180.764 105.679 181.775 96.7703C181.975 95.0444 182.519 93.3761 183.374 91.864C184.23 90.352 185.38 89.027 186.757 87.9673C188.134 86.9076 189.709 86.1349 191.39 85.6948C193.071 85.2547 194.823 85.1561 196.542 85.405C198.356 85.6646 200.095 86.3049 201.644 87.2837C203.193 88.2625 204.517 89.5578 205.53 91.0846C206.544 92.6113 207.223 94.335 207.523 96.1427C207.823 97.9503 207.738 99.8009 207.272 101.573C205.237 109.303 205.455 117.569 205.223 120.746C205.188 121.206 205.005 121.641 204.7 121.986C204.394 122.331 203.985 122.567 203.533 122.657C203.399 122.684 203.262 122.697 203.125 122.698C203.11 122.698 203.095 122.697 203.08 122.697Z" fill="#0000FF"/>
<path d="M165.317 68.0528C165.22 68.2705 165.106 68.4803 164.975 68.68L173.362 88.3442L178.516 88.9766L178.579 96.8808L169.344 96.6482C168.598 96.6294 167.879 96.3691 167.293 95.9064C166.708 95.4437 166.288 94.8036 166.097 94.0821L159.881 70.5686C159.001 70.3059 158.221 69.7814 157.646 69.0648C157.071 68.3482 156.727 67.4735 156.662 66.557C156.596 65.6404 156.81 64.7256 157.277 63.9341C157.744 63.1426 158.44 62.5119 159.274 62.126C160.108 61.74 161.04 61.6171 161.945 61.7736C162.851 61.9301 163.687 62.3585 164.343 63.0019C164.999 63.6453 165.444 64.4732 165.618 65.3755C165.792 66.2777 165.687 67.2116 165.317 68.0528V68.0528Z" fill="#FFB6B6"/>
<path d="M174.206 87.6432C174.415 87.4583 174.661 87.3207 174.928 87.2396C175.194 87.1585 175.475 87.1359 175.752 87.1733L185.399 88.4794C186.826 88.4609 188.201 89.0086 189.224 90.0026C190.247 90.9965 190.834 92.3556 190.856 93.7816C190.878 95.2077 190.334 96.5845 189.343 97.61C188.352 98.6356 186.994 99.2262 185.568 99.2524L175.926 100.807C175.65 100.851 175.369 100.836 175.1 100.762C174.832 100.687 174.582 100.556 174.369 100.377C174.155 100.197 173.983 99.9739 173.864 99.722C173.745 99.47 173.681 99.1953 173.677 98.9166L173.552 89.1204C173.549 88.8416 173.605 88.5653 173.718 88.3104C173.831 88.0555 173.997 87.8279 174.206 87.6432Z" fill="#0000FF"/>
<path d="M201.525 107.929C201.278 107.799 201.063 107.617 200.892 107.397C200.722 107.176 200.602 106.921 200.539 106.649L198.348 97.1635C197.826 95.8362 197.852 94.3562 198.42 93.0481C198.988 91.7399 200.051 90.7103 201.377 90.185C202.703 89.6597 204.183 89.6814 205.493 90.2456C206.803 90.8097 207.835 91.8702 208.364 93.1944L213.23 101.664C213.368 101.906 213.453 102.174 213.479 102.452C213.505 102.73 213.47 103.009 213.378 103.272C213.285 103.535 213.138 103.775 212.944 103.976C212.751 104.177 212.516 104.334 212.257 104.435L203.138 108.018C202.879 108.12 202.6 108.165 202.322 108.149C202.044 108.134 201.772 108.059 201.525 107.929Z" fill="#0000FF"/>
<path d="M201.137 82.06C205.944 79.4325 207.71 73.4058 205.083 68.5991C202.455 63.7924 196.428 62.0259 191.622 64.6535C186.815 67.2811 185.049 73.3077 187.676 78.1144C190.304 82.9211 196.33 84.6876 201.137 82.06Z" fill="#FFB6B6"/>
<path d="M189.556 69.3691C187.428 69.3571 185.3 69.3452 183.171 69.3332C183.02 67.8828 183.666 66.4398 184.606 65.3255C185.547 64.2111 186.765 63.3721 187.967 62.547C189.188 61.7093 190.452 60.8525 191.903 60.5598C193.12 60.3144 194.377 60.4847 195.606 60.6555C197.235 60.8821 198.865 61.1088 200.495 61.3353C202.283 61.5841 204.155 61.8654 205.608 62.9382C207.573 64.389 207.07 67.7377 208.956 69.2904C214.649 73.9797 212.344 78.0749 212.45 82.3493C205.57 83.071 198.689 83.7927 191.808 84.5144C191.062 84.643 190.297 84.6208 189.559 84.449C188.836 84.2281 188.174 83.6299 188.12 82.8762C188.061 82.0344 188.729 81.3453 189.271 80.6988C190.565 79.0958 191.341 77.1377 191.498 75.0837C191.655 73.0297 191.184 70.9766 190.148 69.1959L189.556 69.3691Z" fill="#222B45"/>
<path d="M115.739 82.5207C115.699 82.4324 115.659 82.3438 115.619 82.2549C115.634 82.2554 115.649 82.2576 115.665 82.258L115.739 82.5207Z" fill="#222B45"/>
<path d="M108.491 64.6309C108.937 64.2104 109.516 63.9599 110.128 63.9232C110.735 63.9428 111.351 64.4911 111.225 65.0853C112.34 63.111 114.115 61.5924 116.238 60.7963C118.361 60.0002 120.697 59.9773 122.835 60.7318C124.344 61.2641 125.824 62.3291 126.17 63.8911C126.204 64.3012 126.326 64.6991 126.529 65.0573C126.704 65.2489 126.932 65.3849 127.183 65.4487C127.435 65.5125 127.7 65.5012 127.946 65.4163L127.961 65.4119C128.045 65.3832 128.135 65.3804 128.221 65.4038C128.306 65.4272 128.383 65.4758 128.441 65.5433C128.499 65.6107 128.535 65.6939 128.545 65.7821C128.555 65.8703 128.538 65.9595 128.496 66.0381L128.07 66.8343C128.608 66.9543 129.167 66.9424 129.7 66.7996C129.788 66.7764 129.881 66.7812 129.967 66.8132C130.053 66.8452 130.126 66.903 130.178 66.9785C130.23 67.0541 130.256 67.1437 130.255 67.2352C130.254 67.3266 130.224 67.4154 130.17 67.4893C129.461 68.46 128.534 69.2517 127.465 69.8014C126.396 70.351 125.213 70.6435 124.01 70.6555C122.305 70.6451 120.581 70.0572 118.921 70.4495C118.279 70.6012 117.679 70.8948 117.165 71.3088C116.651 71.7227 116.236 72.2464 115.951 72.8416C115.666 73.4367 115.518 74.0882 115.517 74.7481C115.516 75.408 115.664 76.0597 115.948 76.6553C115.438 76.0975 114.452 76.2295 113.93 76.7765C113.69 77.0692 113.512 77.4082 113.409 77.7724C113.305 78.1366 113.277 78.5183 113.326 78.8937C113.465 80.0438 113.807 81.1602 114.335 82.1913C112.318 82.1292 110.368 81.4496 108.749 80.2441C107.131 79.0386 105.921 77.3655 105.284 75.4506C104.647 73.5357 104.613 71.4714 105.186 69.5365C105.76 67.6016 106.913 65.8893 108.491 64.6309V64.6309Z" fill="#222B45"/>
<path d="M295.021 245.726H1.15943C1.05164 245.726 0.948376 245.683 0.872268 245.606C0.796159 245.53 0.753418 245.427 0.753418 245.319C0.753418 245.211 0.796159 245.108 0.872268 245.031C0.948376 244.955 1.05164 244.912 1.15943 244.912H295.021C295.074 244.911 295.127 244.922 295.177 244.942C295.227 244.963 295.272 244.993 295.309 245.03C295.347 245.068 295.377 245.113 295.398 245.163C295.419 245.212 295.429 245.265 295.429 245.319C295.429 245.372 295.419 245.425 295.398 245.475C295.377 245.524 295.347 245.569 295.309 245.607C295.272 245.645 295.227 245.675 295.177 245.695C295.127 245.716 295.074 245.726 295.021 245.726Z" fill="#CCCCCC"/>
<path d="M47.7323 91.3945C45.3074 86.7598 41.7713 82.7986 37.4404 79.8654C33.1095 76.9322 28.1189 75.1185 22.9153 74.5866C21.7315 74.4739 20.639 74.5217 19.825 75.5063C19.4789 75.9048 19.2614 76.3986 19.2012 76.923C19.1409 77.4473 19.2406 77.9776 19.4873 78.4443C20.2841 79.8426 22.17 80.1321 23.5961 79.6455C25.1301 79.1221 25.7572 77.5129 25.7021 75.9972C25.5597 72.0769 21.7575 69.8454 18.8433 67.9424C12.5657 63.843 6.39298 58.9069 2.89807 52.1147C-0.385765 45.7327 -0.95453 37.5749 3.09141 31.3961C3.80197 30.311 5.46613 31.4463 4.75556 32.5314C0.76293 38.6288 1.92794 46.6936 5.51806 52.6837C7.80744 56.3112 10.7258 59.501 14.136 62.103C15.7755 63.41 17.4853 64.6265 19.2313 65.7865C21.0208 66.8732 22.727 68.0914 24.3359 69.4311C27.0283 71.864 28.9159 75.9556 26.8818 79.4084C25.041 82.5328 19.9153 82.752 17.9026 79.6901C17.5467 79.1105 17.3203 78.4609 17.2387 77.7856C17.1572 77.1104 17.2224 76.4255 17.4301 75.7778C17.6377 75.1302 17.9828 74.535 18.4417 74.033C18.9006 73.531 19.4626 73.1341 20.0891 72.8694C21.6159 72.2396 23.345 72.5639 24.9227 72.8126C30.1287 73.6311 35.0696 75.6609 39.3477 78.7384C43.6257 81.8159 47.1212 85.855 49.5526 90.5306C50.1402 91.6866 48.3207 92.552 47.7323 91.3945L47.7323 91.3945Z" fill="#222B45"/>
<path d="M222.497 6.82799C228.272 7.19176 233.878 8.91882 238.856 11.8676C243.834 14.8163 248.043 18.9029 251.136 23.7922C252.004 25.1782 253.135 26.7014 252.535 28.4075C252.326 29.0617 251.901 29.6255 251.33 30.007C250.759 30.3884 250.075 30.5648 249.391 30.5074C247.621 30.292 246.479 28.5608 246.261 26.902C246.014 25.0204 247.342 23.5432 248.98 22.8441C252.985 21.1358 257.026 23.7759 260.288 25.883C267.722 30.6841 275.898 35.0261 284.905 35.5733C293.239 36.0795 302.175 32.8119 306.811 25.5849C307.622 24.3205 305.608 23.1522 304.801 24.4103C300.204 31.5777 290.911 34.1519 282.83 33.0441C278.015 32.2842 273.365 30.7055 269.082 28.3765C266.861 27.2239 264.707 25.9461 262.597 24.603C260.588 23.2016 258.46 21.9813 256.236 20.9564C252.526 19.4326 247.616 19.5517 245.025 23.0598C242.608 26.3326 244.476 31.7813 248.519 32.7014C252.35 33.5734 255.707 29.97 254.918 26.2023C254.515 24.275 253.063 22.389 251.94 20.8137C248.565 16.0657 244.168 12.1353 239.072 9.31208C233.977 6.48887 228.313 4.84471 222.497 4.50075C221 4.42671 221.004 6.75413 222.497 6.82799H222.497Z" fill="#222B45"/>
<path d="M92.1214 28.796C97.8959 28.4323 103.502 26.7052 108.48 23.7564C113.458 20.8077 117.667 16.7211 120.76 11.8318C121.628 10.4458 122.759 8.9226 122.159 7.21651C121.95 6.56236 121.525 5.99849 120.954 5.61706C120.383 5.23563 119.699 5.05921 119.015 5.11664C117.245 5.332 116.103 7.06318 115.885 8.72198C115.638 10.6036 116.966 12.0808 118.604 12.7799C122.609 14.4883 126.65 11.8481 129.912 9.74105C137.346 4.93991 145.522 0.597895 154.529 0.0507698C162.863 -0.455442 171.8 2.81215 176.435 10.0391C177.246 11.3035 175.232 12.4718 174.425 11.2137C169.828 4.04636 160.535 1.47216 152.454 2.57994C147.639 3.33983 142.989 4.91852 138.706 7.24753C136.485 8.40017 134.331 9.67789 132.221 11.021C130.212 12.4224 128.084 13.6427 125.86 14.6677C122.15 16.1914 117.24 16.0723 114.649 12.5642C112.232 9.29145 114.1 3.84277 118.143 2.92264C121.974 2.05064 125.331 5.65403 124.542 9.42169C124.139 11.349 122.688 13.235 121.564 14.8103C118.189 19.5584 113.792 23.4887 108.696 26.3119C103.601 29.1352 97.9365 30.7793 92.1213 31.1233C90.6243 31.1973 90.6282 28.8699 92.1213 28.796H92.1214Z" fill="#FF0000"/>
</svg>
