<svg width="98" height="98" viewBox="0 0 98 98" fill="none" xmlns="http://www.w3.org/2000/svg">
<circle cx="49" cy="49" r="49" fill="#F6F5FF"/>
<mask id="mask0" style="mask-type:alpha" maskUnits="userSpaceOnUse" x="0" y="0" width="98" height="98">
<circle cx="49" cy="49" r="49" fill="#F6F5FF"/>
</mask>
<g mask="url(#mask0)">
<path d="M24.7097 21.5H63.2903C66.7198 21.5 69.5 24.2802 69.5 27.7097V66.2903C69.5 69.7198 66.7198 72.5 63.2903 72.5H24.7097C21.2802 72.5 18.5 69.7198 18.5 66.2903V27.7097C18.5 24.2802 21.2802 21.5 24.7097 21.5Z" fill="white" stroke="#101336"/>
<path d="M26.3872 48.2581C26.3872 58.217 34.4605 66.2903 44.4195 66.2903C54.3784 66.2903 62.4517 58.217 62.4517 48.2581C62.4517 38.2991 54.3784 30.2258 44.4195 30.2258C34.4605 30.2258 26.3872 38.2991 26.3872 48.2581Z" fill="#DEE2E6"/>
<path d="M40.2259 26.8708C36.9913 26.8708 33.8292 27.83 31.1397 29.6271C28.4501 31.4242 26.3539 33.9785 25.116 36.967C23.8782 39.9554 23.5543 43.2438 24.1854 46.4164C24.8164 49.5889 26.3741 52.503 28.6613 54.7903C30.9486 57.0776 33.8627 58.6352 37.0353 59.2663C40.2078 59.8973 43.4962 59.5734 46.4847 58.3356C49.4731 57.0977 52.0274 55.0015 53.8245 52.3119C55.6216 49.6224 56.5808 46.4604 56.5808 43.2257C56.5808 38.8881 54.8577 34.7282 51.7905 31.6611C48.7234 28.5939 44.5635 26.8708 40.2259 26.8708ZM40.2259 31.7774C41.1964 31.7774 42.145 32.0652 42.9519 32.6043C43.7587 33.1434 44.3876 33.9097 44.759 34.8063C45.1304 35.7028 45.2275 36.6894 45.0382 37.6411C44.8489 38.5929 44.3816 39.4672 43.6954 40.1534C43.0092 40.8396 42.1349 41.3069 41.1831 41.4962C40.2314 41.6855 39.2448 41.5884 38.3483 41.217C37.4517 40.8456 36.6854 40.2167 36.1463 39.4099C35.6072 38.603 35.3194 37.6544 35.3194 36.6839C35.3194 36.0396 35.4463 35.4016 35.6929 34.8063C35.9395 34.211 36.3009 33.6701 36.7565 33.2145C37.2121 32.7589 37.753 32.3974 38.3483 32.1509C38.9436 31.9043 39.5816 31.7774 40.2259 31.7774ZM40.2259 55.3974C38.2877 55.3886 36.3808 54.907 34.6708 53.9944C32.9607 53.0819 31.4992 51.7659 30.4129 50.1606C30.4913 46.8897 36.9546 45.0889 40.2259 45.0889C43.4973 45.0889 49.9601 46.8897 50.039 50.1606C48.9516 51.7649 47.4899 53.0803 45.7801 53.9929C44.0703 54.9056 42.164 55.3881 40.2259 55.3988V55.3974Z" fill="#50526B"/>
<circle cx="69" cy="69" r="13" fill="#F6F5FF"/>
<path d="M80 69H63C61.8954 69 61 69.8954 61 71C61 72.1046 61.8954 73 63 73H80C81.1046 73 82 72.1046 82 71C82 69.8954 81.1046 69 80 69Z" fill="#50526B"/>
<path d="M74 79L74 63C74 61.8954 73.1046 61 72 61C70.8954 61 70 61.8954 70 63L70 79C70 80.1046 70.8954 81 72 81C73.1046 81 74 80.1046 74 79Z" fill="#50526B"/>
</g>
</svg>
