<svg width="98" height="98" viewBox="0 0 98 98" fill="none" xmlns="http://www.w3.org/2000/svg">
<circle cx="49" cy="49" r="49" fill="#F6F5FF"/>
<path d="M81.8948 32.371C81.8704 32.371 81.8466 32.3635 81.8266 32.3496L48.7818 9.33628C48.6813 9.26658 48.5618 9.22932 48.4394 9.22953C48.3171 9.22974 48.1977 9.2674 48.0974 9.33745L15.2907 32.3493C15.2647 32.3675 15.2326 32.3747 15.2014 32.3692C15.1702 32.3637 15.1424 32.3461 15.1242 32.3201C15.106 32.2942 15.0989 32.2621 15.1043 32.2308C15.1098 32.1996 15.1275 32.1719 15.1534 32.1537L47.9601 9.14177C48.1006 9.04371 48.2677 8.99101 48.439 8.99072C48.6103 8.99044 48.7776 9.0426 48.9184 9.1402L81.9631 32.1534C81.984 32.168 81.9997 32.1888 82.0079 32.2129C82.0161 32.237 82.0164 32.263 82.0088 32.2873C82.0012 32.3116 81.986 32.3328 81.9655 32.3478C81.945 32.3629 81.9202 32.371 81.8947 32.371L81.8948 32.371Z" fill="#3F3D56"/>
<path d="M17.1655 33.1869L48.4721 9.98486L80.0162 34.8378L50.0852 52.5814L33.8352 48.8773L17.1655 33.1869Z" fill="#F6F5FF"/>
<path d="M35.2063 63.5406H19.7401C19.6451 63.5407 19.5511 63.5221 19.4633 63.4859C19.3755 63.4496 19.2958 63.3964 19.2286 63.3293C19.1614 63.2622 19.1081 63.1825 19.0717 63.0948C19.0353 63.007 19.0166 62.913 19.0166 62.818C19.0166 62.7231 19.0353 62.629 19.0717 62.5413C19.1081 62.4536 19.1614 62.3739 19.2286 62.3068C19.2958 62.2397 19.3755 62.1864 19.4633 62.1502C19.5511 62.1139 19.6451 62.0953 19.7401 62.0955H35.2063C35.3013 62.0953 35.3953 62.1139 35.4831 62.1502C35.5709 62.1864 35.6507 62.2397 35.7178 62.3068C35.785 62.3739 35.8384 62.4536 35.8747 62.5413C35.9111 62.629 35.9298 62.7231 35.9298 62.818C35.9298 62.913 35.9111 63.007 35.8747 63.0948C35.8384 63.1825 35.785 63.2622 35.7178 63.3293C35.6507 63.3964 35.5709 63.4496 35.4831 63.4859C35.3953 63.5221 35.3013 63.5407 35.2063 63.5406Z" fill="#50526B"/>
<path d="M25.289 60.4339H19.7401C19.6451 60.434 19.5511 60.4154 19.4633 60.3792C19.3755 60.3429 19.2958 60.2897 19.2286 60.2226C19.1614 60.1555 19.1081 60.0758 19.0717 59.9881C19.0353 59.9003 19.0166 59.8063 19.0166 59.7113C19.0166 59.6164 19.0353 59.5223 19.0717 59.4346C19.1081 59.3469 19.1614 59.2672 19.2286 59.2001C19.2958 59.133 19.3755 59.0798 19.4633 59.0435C19.5511 59.0072 19.6451 58.9886 19.7401 58.9888H25.289C25.384 58.9886 25.4781 59.0072 25.5658 59.0435C25.6536 59.0798 25.7334 59.133 25.8006 59.2001C25.8678 59.2672 25.9211 59.3469 25.9574 59.4346C25.9938 59.5223 26.0125 59.6164 26.0125 59.7113C26.0125 59.8063 25.9938 59.9003 25.9574 59.9881C25.9211 60.0758 25.8678 60.1555 25.8006 60.2226C25.7334 60.2897 25.6536 60.3429 25.5658 60.3792C25.4781 60.4154 25.384 60.434 25.289 60.4339Z" fill="#50526B"/>
<path d="M48.9128 46.1099C48.7952 46.11 48.6787 46.0872 48.5699 46.0428L29.2622 38.0314V12.9546C29.2625 12.7328 29.3507 12.5202 29.5075 12.3634C29.6643 12.2066 29.8769 12.1184 30.0986 12.1182H67.139C67.3608 12.1184 67.5734 12.2066 67.7302 12.3634C67.887 12.5202 67.9752 12.7328 67.9754 12.9546V38.0489L67.9392 38.0644L49.266 46.0389C49.1541 46.0858 49.034 46.11 48.9128 46.1099Z" fill="white"/>
<path d="M48.9124 46.1698C48.7871 46.1699 48.6629 46.1456 48.5469 46.0982L29.2021 38.0715V12.9547C29.2024 12.7171 29.2969 12.4894 29.4649 12.3214C29.6329 12.1534 29.8607 12.0589 30.0983 12.0586H67.1387C67.3763 12.0589 67.6041 12.1534 67.7721 12.3214C67.9401 12.4894 68.0346 12.7171 68.0349 12.9547V38.0885L49.2891 46.0939C49.1699 46.1441 49.0418 46.1699 48.9124 46.1698ZM29.4411 37.9119L48.638 45.8773C48.817 45.95 49.0176 45.9488 49.1957 45.874L67.7959 37.9308V12.9547C67.7957 12.7805 67.7264 12.6135 67.6032 12.4903C67.48 12.3671 67.313 12.2978 67.1387 12.2976H30.0983C29.9241 12.2978 29.757 12.3671 29.6338 12.4903C29.5106 12.6135 29.4413 12.7805 29.4411 12.9547L29.4411 37.9119Z" fill="#3F3D56"/>
<path d="M81.656 32.1321H81.632L67.9152 37.9893L49.1476 46.0031C49.0743 46.034 48.9956 46.0501 48.916 46.0505C48.8365 46.0509 48.7576 46.0356 48.684 46.0055L29.3214 37.9725L15.2675 32.1416L15.2461 32.1321H15.2221C15.0004 32.1323 14.7878 32.2205 14.631 32.3773C14.4742 32.5341 14.386 32.7467 14.3857 32.9685V69.292C14.386 69.5138 14.4742 69.7263 14.631 69.8832C14.7878 70.04 15.0004 70.1282 15.2221 70.1284H81.656C81.8777 70.1282 82.0903 70.04 82.2471 69.8832C82.4039 69.7263 82.4921 69.5138 82.4924 69.292V32.9685C82.4921 32.7467 82.4039 32.5341 82.2471 32.3773C82.0903 32.2205 81.8777 32.1323 81.656 32.1321ZM82.2534 69.292C82.2533 69.4504 82.1904 69.6024 82.0783 69.7144C81.9663 69.8264 81.8144 69.8894 81.656 69.8894H15.2221C15.0637 69.8894 14.9118 69.8264 14.7998 69.7144C14.6877 69.6024 14.6248 69.4504 14.6247 69.292V32.9685C14.6249 32.814 14.6849 32.6656 14.792 32.5542C14.8991 32.4429 15.0451 32.3772 15.1994 32.3711L29.3214 38.2306L48.592 46.2266C48.8006 46.3114 49.0344 46.3102 49.242 46.223L67.9152 38.2485L81.6799 32.3711C81.834 32.3777 81.9796 32.4435 82.0864 32.5548C82.1932 32.6661 82.253 32.8142 82.2534 32.9685V69.292Z" fill="#3F3D56"/>
<path d="M47.8049 35.3386C47.4281 35.3393 47.0612 35.2183 46.7598 34.9941L46.7411 34.9801L42.8052 31.9898C42.6229 31.8512 42.47 31.6783 42.355 31.481C42.24 31.2838 42.1654 31.066 42.1352 30.8401C42.1051 30.6142 42.1201 30.3846 42.1794 30.1644C42.2387 29.9443 42.341 29.7379 42.4807 29.557C42.6204 29.3761 42.7946 29.2243 42.9933 29.1102C43.1921 28.9962 43.4116 28.9221 43.6393 28.8922C43.8669 28.8622 44.0983 28.8771 44.3201 28.936C44.5419 28.9948 44.7499 29.0964 44.9322 29.235L47.4816 31.1748L53.5061 23.3781C53.6458 23.1973 53.82 23.0455 54.0189 22.9315C54.2177 22.8175 54.4372 22.7435 54.6649 22.7137C54.8925 22.6838 55.1239 22.6988 55.3457 22.7577C55.5675 22.8166 55.7755 22.9183 55.9577 23.057L55.9202 23.1074L55.9587 23.0577C56.3262 23.338 56.5667 23.7516 56.6274 24.2077C56.6881 24.6638 56.564 25.1252 56.2823 25.4906L49.196 34.6614C49.0321 34.8727 48.8214 35.0437 48.5801 35.1612C48.3389 35.2786 48.0736 35.3393 47.8049 35.3386Z" fill="#138E6E"/>
</svg>
