<svg width="98" height="98" viewBox="0 0 98 98" fill="none" xmlns="http://www.w3.org/2000/svg">
<circle cx="49" cy="49" r="49" fill="#F6F5FF"/>
<mask id="mask0" style="mask-type:alpha" maskUnits="userSpaceOnUse" x="0" y="0" width="98" height="98">
<circle cx="49" cy="49" r="49" fill="#F6F5FF"/>
</mask>
<g mask="url(#mask0)">
<path d="M71.0695 31.1832V31.6832H71.5695H71.5721L71.5721 40.4855H71.5694H71.0694V40.9855V92.9603C71.0694 94.9416 70.2824 96.8416 68.8815 98.2426C67.4805 99.6435 65.5804 100.431 63.5992 100.431H34.4238C32.4426 100.431 30.5425 99.6435 29.1416 98.2425C27.7406 96.8416 26.9536 94.9415 26.9536 92.9603V17.4123C26.9536 16.4313 27.1468 15.4599 27.5223 14.5536C27.8977 13.6473 28.4479 12.8238 29.1416 12.1301C29.8353 11.4364 30.6588 10.8862 31.5651 10.5108C32.4714 10.1354 33.4428 9.94214 34.4238 9.94214H63.5993C64.5803 9.94214 65.5517 10.1354 66.458 10.5108C67.3643 10.8862 68.1878 11.4364 68.8815 12.1301C69.5752 12.8238 70.1254 13.6473 70.5008 14.5536C70.8762 15.4599 71.0695 16.4313 71.0695 17.4123V31.1832Z" fill="white"/>
<path d="M71.0695 31.1832V31.6832H71.5695H71.5721L71.5721 40.4855H71.5694H71.0694V40.9855V92.9603C71.0694 94.9416 70.2824 96.8416 68.8815 98.2426C67.4805 99.6435 65.5804 100.431 63.5992 100.431H34.4238C32.4426 100.431 30.5425 99.6435 29.1416 98.2425C27.7406 96.8416 26.9536 94.9415 26.9536 92.9603V17.4123C26.9536 16.4313 27.1468 15.4599 27.5223 14.5536C27.8977 13.6473 28.4479 12.8238 29.1416 12.1301C29.8353 11.4364 30.6588 10.8862 31.5651 10.5108C32.4714 10.1354 33.4428 9.94214 34.4238 9.94214H63.5993C64.5803 9.94214 65.5517 10.1354 66.458 10.5108C67.3643 10.8862 68.1878 11.4364 68.8815 12.1301C69.5752 12.8238 70.1254 13.6473 70.5008 14.5536C70.8762 15.4599 71.0695 16.4313 71.0695 17.4123V31.1832Z" fill="white"/>
<path d="M71.0695 31.1832V31.6832H71.5695H71.5721L71.5721 40.4855H71.5694H71.0694V40.9855V92.9603C71.0694 94.9416 70.2824 96.8416 68.8815 98.2426C67.4805 99.6435 65.5804 100.431 63.5992 100.431H34.4238C32.4426 100.431 30.5425 99.6435 29.1416 98.2425C27.7406 96.8416 26.9536 94.9415 26.9536 92.9603V17.4123C26.9536 16.4313 27.1468 15.4599 27.5223 14.5536C27.8977 13.6473 28.4479 12.8238 29.1416 12.1301C29.8353 11.4364 30.6588 10.8862 31.5651 10.5108C32.4714 10.1354 33.4428 9.94214 34.4238 9.94214H63.5993C64.5803 9.94214 65.5517 10.1354 66.458 10.5108C67.3643 10.8862 68.1878 11.4364 68.8815 12.1301C69.5752 12.8238 70.1254 13.6473 70.5008 14.5536C70.8762 15.4599 71.0695 16.4313 71.0695 17.4123V31.1832Z" stroke="black"/>
<path d="M63.9213 11.5156H60.1129C60.2881 11.945 60.3549 12.4109 60.3076 12.8722C60.2603 13.3335 60.1003 13.7761 59.8416 14.1609C59.5829 14.5458 59.2336 14.8612 58.8243 15.0792C58.4151 15.2973 57.9585 15.4114 57.4948 15.4114H40.7806C40.3168 15.4114 39.8602 15.2973 39.451 15.0792C39.0417 14.8612 38.6924 14.5458 38.4337 14.1609C38.1751 13.7761 38.015 13.3335 37.9677 12.8722C37.9204 12.4109 37.9872 11.945 38.1624 11.5156H34.6054C33.0268 11.5156 31.5129 12.1427 30.3966 13.2589C29.2804 14.3752 28.6533 15.8891 28.6533 17.4677V92.9048C28.6533 94.4834 29.2804 95.9973 30.3966 97.1135C31.5129 98.2298 33.0268 98.8569 34.6054 98.8569H63.9213C64.7029 98.8569 65.4769 98.7029 66.1991 98.4038C66.9212 98.1047 67.5773 97.6663 68.13 97.1135C68.6827 96.5609 69.1212 95.9047 69.4203 95.1826C69.7194 94.4604 69.8734 93.6864 69.8734 92.9048V17.4677C69.8734 16.686 69.7194 15.9121 69.4203 15.1899C69.1212 14.4678 68.6827 13.8116 68.13 13.2589C67.5773 12.7062 66.9212 12.2678 66.1991 11.9687C65.4769 11.6696 64.7029 11.5156 63.9213 11.5156Z" fill="white"/>
<path d="M50.2839 90.6162C47.4513 90.6175 44.7044 89.6452 42.5034 87.8622C40.3024 86.0792 38.7811 83.5939 38.1945 80.8227C37.6079 78.0515 37.9917 75.163 39.2814 72.6411C40.5711 70.1191 42.6885 68.1172 45.2786 66.9706C47.8688 65.8241 50.7743 65.6027 53.5083 66.3435C56.2423 67.0843 58.6386 68.7423 60.2956 71.0396C61.9526 73.337 62.7696 76.134 62.6097 78.9621C62.4498 81.7902 61.3227 84.4773 59.4173 86.5732L61.9967 89.4647L60.7095 90.0106C58.7183 90.8553 56.7698 90.0334 55.6761 89.3775C53.9953 90.1923 52.1518 90.6158 50.2839 90.6162ZM50.2839 67.9437C48.7087 67.9442 47.1544 68.3048 45.7399 68.9979C44.3253 69.691 43.088 70.6983 42.1223 71.9429C41.1567 73.1874 40.4883 74.6362 40.1683 76.1786C39.8483 77.7209 39.8851 79.316 40.2759 80.842C40.6667 82.368 41.4012 83.7844 42.4233 84.9831C43.4453 86.1817 44.7278 87.1309 46.1728 87.758C47.6178 88.3851 49.1871 88.6736 50.7606 88.6014C52.3342 88.5293 53.8705 88.0983 55.252 87.3415L55.803 87.0388L56.3153 87.4033C56.9007 87.8291 57.5655 88.1333 58.2705 88.2978L56.6474 86.4784L57.3589 85.8098C58.3923 84.8472 59.2154 83.681 59.7763 82.3848C60.3372 81.0886 60.6239 79.6904 60.6182 78.278C60.6151 75.5381 59.5253 72.9114 57.5879 70.974C55.6505 69.0366 53.0238 67.9468 50.2839 67.9437Z" fill="#EDEDF1"/>
<path d="M61.6211 78.3974C61.6201 75.9138 60.8032 73.4994 59.2962 71.5254C57.7891 69.5514 55.6753 68.1272 53.2798 67.4718C50.8843 66.8164 48.3399 66.9661 46.0378 67.8979C43.7357 68.8297 41.8034 70.4919 40.5382 72.629C39.273 74.7661 38.7449 77.2597 39.0352 79.7262C39.3254 82.1927 40.4179 84.4955 42.1447 86.2805C43.8714 88.0656 46.1368 89.2339 48.5923 89.6058C51.0478 89.9777 53.5575 89.5327 55.7354 88.3391C56.519 88.8966 58.4307 90.0087 60.3192 89.2077L58.0459 86.6594C59.176 85.6006 60.0764 84.3209 60.6914 82.8996C61.3064 81.4784 61.6229 79.946 61.6211 78.3974Z" fill="white"/>
<path d="M50.3766 75.2097H43.0285C42.8207 75.2097 42.6523 75.3781 42.6523 75.5858C42.6523 75.7936 42.8207 75.962 43.0285 75.962H50.3766C50.5843 75.962 50.7527 75.7936 50.7527 75.5858C50.7527 75.3781 50.5843 75.2097 50.3766 75.2097Z" fill="#0000FF"/>
<path d="M56.3955 77.812H43.0294C42.8217 77.812 42.6533 77.9804 42.6533 78.1881C42.6533 78.3959 42.8217 78.5643 43.0294 78.5643H56.3955C56.6032 78.5643 56.7716 78.3959 56.7716 78.1881C56.7716 77.9804 56.6032 77.812 56.3955 77.812Z" fill="#EDEDF1"/>
<path d="M56.3816 80.4143H43.0294C42.8217 80.4143 42.6533 80.5827 42.6533 80.7904C42.6533 80.9982 42.8217 81.1665 43.0294 81.1665H56.3816C56.5894 81.1665 56.7578 80.9982 56.7578 80.7904C56.7578 80.5827 56.5894 80.4143 56.3816 80.4143Z" fill="#EDEDF1"/>
<path d="M50.2839 35.7727C47.4513 35.774 44.7044 34.8017 42.5034 33.0187C40.3024 31.2357 38.7811 28.7504 38.1945 25.9792C37.6079 23.208 37.9917 20.3194 39.2814 17.7975C40.5711 15.2756 42.6885 13.2737 45.2786 12.1271C47.8688 10.9806 50.7743 10.7592 53.5083 11.5C56.2423 12.2408 58.6386 13.8988 60.2956 16.1961C61.9526 18.4935 62.7696 21.2905 62.6097 24.1186C62.4498 26.9466 61.3227 29.6338 59.4173 31.7297L61.9966 34.6212L60.7095 35.1671C58.7183 36.0117 56.7698 35.1899 55.6761 34.534C53.9953 35.3488 52.1518 35.7723 50.2839 35.7727ZM50.2839 13.1002C48.7087 13.1007 47.1544 13.4613 45.7399 14.1544C44.3253 14.8475 43.0879 15.8548 42.1223 17.0993C41.1567 18.3439 40.4883 19.7927 40.1683 21.335C39.8483 22.8774 39.8851 24.4725 40.2759 25.9985C40.6667 27.5245 41.4012 28.9409 42.4232 30.1396C43.4453 31.3382 44.7278 32.2874 46.1728 32.9145C47.6178 33.5416 49.1871 33.8301 50.7606 33.7579C52.3342 33.6857 53.8704 33.2548 55.252 32.498L55.803 32.1953L56.3153 32.5598C56.9007 32.9856 57.5655 33.2897 58.2705 33.4543L56.6474 31.6349L57.3588 30.9663C58.3923 30.0036 59.2154 28.8375 59.7763 27.5413C60.3372 26.2451 60.6239 24.8469 60.6182 23.4345C60.6151 20.6946 59.5253 18.0679 57.5879 16.1305C55.6505 14.1931 53.0238 13.1033 50.2839 13.1002V13.1002Z" fill="#EDEDF1"/>
<path d="M61.6211 23.4343C61.6201 20.9507 60.8033 18.5363 59.2962 16.5623C57.7891 14.5883 55.6753 13.1641 53.2798 12.5087C50.8843 11.8532 48.3399 12.0029 46.0378 12.9347C43.7357 13.8665 41.8034 15.5288 40.5382 17.6659C39.273 19.803 38.7449 22.2965 39.0352 24.7631C39.3254 27.2296 40.418 29.5324 42.1447 31.3174C43.8714 33.1025 46.1368 34.2708 48.5923 34.6427C51.0478 35.0146 53.5575 34.5696 55.7354 33.376C56.519 33.9335 58.4307 35.0456 60.3192 34.2445L58.046 31.6963C59.176 30.6374 60.0765 29.3577 60.6915 27.9365C61.3065 26.5153 61.6229 24.9828 61.6211 23.4343Z" fill="white"/>
<path d="M50.3756 21.1167H43.0275C42.8198 21.1167 42.6514 21.2851 42.6514 21.4928C42.6514 21.7005 42.8198 21.8689 43.0275 21.8689H50.3756C50.5833 21.8689 50.7517 21.7005 50.7517 21.4928C50.7517 21.2851 50.5833 21.1167 50.3756 21.1167Z" fill="#0000FF"/>
<path d="M56.3935 23.719H43.0275C42.8198 23.719 42.6514 23.8874 42.6514 24.0951C42.6514 24.3028 42.8198 24.4712 43.0275 24.4712H56.3935C56.6012 24.4712 56.7696 24.3028 56.7696 24.0951C56.7696 23.8874 56.6012 23.719 56.3935 23.719Z" fill="#EDEDF1"/>
<path d="M56.3797 26.321H43.0275C42.8198 26.321 42.6514 26.4894 42.6514 26.6972C42.6514 26.9049 42.8198 27.0733 43.0275 27.0733H56.3797C56.5874 27.0733 56.7558 26.9049 56.7558 26.6972C56.7558 26.4894 56.5874 26.321 56.3797 26.321Z" fill="#EDEDF1"/>
<path d="M65.9871 36.8265C66.9739 36.8265 67.774 36.0264 67.774 35.0396C67.774 34.0527 66.9739 33.2527 65.9871 33.2527C65.0002 33.2527 64.2002 34.0527 64.2002 35.0396C64.2002 36.0264 65.0002 36.8265 65.9871 36.8265Z" fill="#EDEDF1"/>
<path d="M65.9871 91.6702C66.9739 91.6702 67.774 90.8702 67.774 89.8833C67.774 88.8965 66.9739 88.0964 65.9871 88.0964C65.0002 88.0964 64.2002 88.8965 64.2002 89.8833C64.2002 90.8702 65.0002 91.6702 65.9871 91.6702Z" fill="#EDEDF1"/>
<path d="M26.5249 64.1194C25.2172 64.9037 22.8875 65.8863 20.5067 64.8765L18.9677 64.2237L22.0517 60.7665C19.5907 58.053 18.2292 54.5198 18.2329 50.8565C18.2367 47.1932 19.6054 43.6627 22.072 40.9543C24.5386 38.2458 27.9259 36.5537 31.5729 36.2082C35.2199 35.8628 38.8647 36.8888 41.7959 39.0859C44.7272 41.2831 46.7345 44.4938 47.426 48.0912C48.1175 51.6886 47.4436 55.4147 45.5359 58.542C43.6281 61.6693 40.6234 63.9735 37.1083 65.0048C33.5931 66.0361 29.8198 65.7204 26.5249 64.1194H26.5249Z" fill="#FF0000"/>
<path d="M39.8933 42.1223H25.9183C25.121 42.1223 24.4746 42.7687 24.4746 43.566V50.6864C24.4746 51.4837 25.121 52.1301 25.9183 52.1301H39.8933C40.6906 52.1301 41.337 51.4837 41.337 50.6864V43.566C41.337 42.7687 40.6906 42.1223 39.8933 42.1223Z" fill="white"/>
<path d="M40.8625 54.3142H24.9231C24.6754 54.3142 24.4746 54.515 24.4746 54.7627C24.4746 55.0105 24.6754 55.2113 24.9231 55.2113H40.8625C41.1102 55.2113 41.311 55.0105 41.311 54.7627C41.311 54.515 41.1102 54.3142 40.8625 54.3142Z" fill="white"/>
<path d="M40.846 57.417H24.9231C24.6754 57.417 24.4746 57.6178 24.4746 57.8655C24.4746 58.1132 24.6754 58.3141 24.9231 58.3141H40.846C41.0937 58.3141 41.2945 58.1132 41.2945 57.8655C41.2945 57.6178 41.0937 57.417 40.846 57.417Z" fill="white"/>
<path d="M31.6251 49.9962C31.4696 50.1129 31.2476 50.0019 31.2476 49.8074V44.4588C31.2476 44.2643 31.4696 44.1533 31.6251 44.27L35.1909 46.9443C35.3167 47.0387 35.3167 47.2275 35.1909 47.3219L31.6251 49.9962Z" fill="#FF0000"/>
</g>
</svg>
