<svg width="208" height="120" viewBox="0 0 208 120" fill="none" xmlns="http://www.w3.org/2000/svg">
<rect x="0.46648" y="0.46648" width="206.184" height="118.486" rx="3.26536" fill="white"/>
<rect x="0.46648" y="0.46648" width="206.184" height="118.486" rx="3.26536" fill="white"/>
<rect x="0.46648" y="0.46648" width="206.184" height="118.486" rx="3.26536" stroke="#CED4DA" stroke-width="0.932961"/>
<ellipse cx="162.505" cy="36.0795" rx="8.42212" ry="8.43055" fill="#138E6E"/>
<g clip-path="url(#clip0)">
<path d="M161.377 36.9893L160.139 35.75L159.81 35.4209L159.48 35.7489L158.946 36.2796L158.614 36.6092L158.945 36.9401L161.047 39.044L161.377 39.3743L161.707 39.044L166.219 34.5276L166.548 34.1979L166.219 33.8682L165.688 33.3375L165.359 33.0074L165.029 33.3374L161.377 36.9893Z" fill="white"/>
<path d="M161.377 36.9893L160.139 35.75L159.81 35.4209L159.48 35.7489L158.946 36.2796L158.614 36.6092L158.945 36.9401L161.047 39.044L161.377 39.3743L161.707 39.044L166.219 34.5276L166.548 34.1979L166.219 33.8682L165.688 33.3375L165.359 33.0074L165.029 33.3374L161.377 36.9893Z" fill="white"/>
<path d="M161.377 36.9893L160.139 35.75L159.81 35.4209L159.48 35.7489L158.946 36.2796L158.614 36.6092L158.945 36.9401L161.047 39.044L161.377 39.3743L161.707 39.044L166.219 34.5276L166.548 34.1979L166.219 33.8682L165.688 33.3375L165.359 33.0074L165.029 33.3374L161.377 36.9893Z" stroke="white" stroke-width="0.932961"/>
<path d="M161.377 36.9893L160.139 35.75L159.81 35.4209L159.48 35.7489L158.946 36.2796L158.614 36.6092L158.945 36.9401L161.047 39.044L161.377 39.3743L161.707 39.044L166.219 34.5276L166.548 34.1979L166.219 33.8682L165.688 33.3375L165.359 33.0074L165.029 33.3374L161.377 36.9893Z" stroke="white" stroke-width="0.932961"/>
</g>
<path d="M137.882 21.5618H43.0877C38.9656 21.5618 35.624 24.9034 35.624 29.0255V42.5393C35.624 46.6613 38.9656 50.003 43.0877 50.003H137.882C142.004 50.003 145.346 46.6613 145.346 42.5393V29.0255C145.346 24.9034 142.004 21.5618 137.882 21.5618Z" fill="#138E6E"/>
<path d="M130.733 27.8535H74.0004C73.2688 27.8535 72.6758 28.4466 72.6758 29.1781C72.6758 29.9097 73.2688 30.5027 74.0004 30.5027H130.733C131.464 30.5027 132.057 29.9097 132.057 29.1781C132.057 28.4466 131.464 27.8535 130.733 27.8535Z" fill="white"/>
<path d="M130.733 27.8535H74.0004C73.2688 27.8535 72.6758 28.4466 72.6758 29.1781C72.6758 29.9097 73.2688 30.5027 74.0004 30.5027H130.733C131.464 30.5027 132.057 29.9097 132.057 29.1781C132.057 28.4466 131.464 27.8535 130.733 27.8535Z" fill="white"/>
<path d="M92.5235 34.4763H74.0004C73.2688 34.4763 72.6758 35.0694 72.6758 35.8009C72.6758 36.5325 73.2688 37.1255 74.0004 37.1255H92.5235C93.255 37.1255 93.8481 36.5325 93.8481 35.8009C93.8481 35.0694 93.255 34.4763 92.5235 34.4763Z" fill="white"/>
<path d="M92.5235 34.4763H74.0004C73.2688 34.4763 72.6758 35.0694 72.6758 35.8009C72.6758 36.5325 73.2688 37.1255 74.0004 37.1255H92.5235C93.255 37.1255 93.8481 36.5325 93.8481 35.8009C93.8481 35.0694 93.255 34.4763 92.5235 34.4763Z" fill="white"/>
<path d="M113.53 41.0994H74.0004C73.2688 41.0994 72.6758 41.6924 72.6758 42.424C72.6758 43.1555 73.2688 43.7486 74.0004 43.7486H113.53C114.262 43.7486 114.855 43.1555 114.855 42.424C114.855 41.6924 114.262 41.0994 113.53 41.0994Z" fill="white"/>
<path d="M113.53 41.0994H74.0004C73.2688 41.0994 72.6758 41.6924 72.6758 42.424C72.6758 43.1555 73.2688 43.7486 74.0004 43.7486H113.53C114.262 43.7486 114.855 43.1555 114.855 42.424C114.855 41.6924 114.262 41.0994 113.53 41.0994Z" fill="white"/>
<path d="M58.3326 25.8164C56.3048 25.8164 54.3224 26.4183 52.6363 27.5461C50.9502 28.6738 49.6361 30.2767 48.8601 32.1521C48.084 34.0275 47.881 36.0911 48.2766 38.0819C48.6722 40.0728 49.6487 41.9016 51.0826 43.3369C52.5165 44.7723 54.3434 45.7497 56.3323 46.1458C58.3212 46.5418 60.3828 46.3385 62.2563 45.5617C64.1298 44.7849 65.7311 43.4694 66.8577 41.7816C67.9843 40.0939 68.5856 38.1096 68.5856 36.0797C68.5856 33.3577 67.5054 30.7472 65.5826 28.8225C63.6598 26.8977 61.0519 25.8164 58.3326 25.8164ZM58.3326 28.8954C58.941 28.8954 59.5357 29.076 60.0415 29.4144C60.5474 29.7527 60.9416 30.2336 61.1744 30.7962C61.4072 31.3588 61.4681 31.9779 61.3495 32.5752C61.2308 33.1724 60.9378 33.7211 60.5076 34.1517C60.0774 34.5823 59.5294 34.8756 58.9327 34.9944C58.336 35.1132 57.7175 35.0522 57.1555 34.8191C56.5934 34.5861 56.113 34.1915 55.775 33.6851C55.4371 33.1788 55.2566 32.5835 55.2566 31.9745C55.2566 31.5701 55.3362 31.1698 55.4908 30.7962C55.6454 30.4226 55.8719 30.0832 56.1576 29.7973C56.4432 29.5114 56.7823 29.2846 57.1555 29.1298C57.5287 28.9751 57.9287 28.8954 58.3326 28.8954ZM58.3326 43.7179C57.1175 43.7123 55.9221 43.4101 54.85 42.8375C53.778 42.2648 52.8617 41.439 52.1807 40.4316C52.2299 38.379 56.2818 37.2489 58.3326 37.2489C60.3834 37.2489 64.435 38.379 64.4845 40.4316C63.8028 41.4384 62.8864 42.2638 61.8146 42.8365C60.7427 43.4093 59.5476 43.7121 58.3326 43.7187V43.7179Z" fill="white"/>
<ellipse cx="162.505" cy="83.3497" rx="8.42212" ry="8.43055" fill="#F6F5FF"/>
<path d="M137.882 68.8318H43.0877C38.9656 68.8318 35.624 72.1734 35.624 76.2955V89.8093C35.624 93.9314 38.9656 97.273 43.0877 97.273H137.882C142.004 97.273 145.346 93.9314 145.346 89.8093V76.2955C145.346 72.1734 142.004 68.8318 137.882 68.8318Z" fill="#F6F5FF"/>
<path d="M130.733 75.1235H74.0004C73.2688 75.1235 72.6758 75.7166 72.6758 76.4481C72.6758 77.1797 73.2688 77.7727 74.0004 77.7727H130.733C131.464 77.7727 132.057 77.1797 132.057 76.4481C132.057 75.7166 131.464 75.1235 130.733 75.1235Z" fill="#6F7086"/>
<path d="M92.5235 81.7466H74.0004C73.2688 81.7466 72.6758 82.3396 72.6758 83.0712C72.6758 83.8027 73.2688 84.3958 74.0004 84.3958H92.5235C93.255 84.3958 93.8481 83.8027 93.8481 83.0712C93.8481 82.3396 93.255 81.7466 92.5235 81.7466Z" fill="#6F7086"/>
<path d="M113.53 88.3696H74.0004C73.2688 88.3696 72.6758 88.9627 72.6758 89.6942C72.6758 90.4258 73.2688 91.0188 74.0004 91.0188H113.53C114.262 91.0188 114.855 90.4258 114.855 89.6942C114.855 88.9627 114.262 88.3696 113.53 88.3696Z" fill="#6F7086"/>
<path d="M58.3326 73.0864C56.3048 73.0864 54.3224 73.6884 52.6363 74.8161C50.9502 75.9438 49.6361 77.5467 48.8601 79.4221C48.084 81.2975 47.881 83.3611 48.2766 85.352C48.6722 87.3428 49.6487 89.1716 51.0826 90.6069C52.5165 92.0423 54.3434 93.0198 56.3323 93.4158C58.3212 93.8118 60.3828 93.6085 62.2563 92.8317C64.1298 92.0549 65.7311 90.7395 66.8577 89.0517C67.9843 87.3639 68.5856 85.3796 68.5856 83.3497C68.5856 80.6277 67.5054 78.0172 65.5826 76.0925C63.6598 74.1677 61.0519 73.0864 58.3326 73.0864ZM58.3326 76.1655C58.941 76.1655 59.5357 76.346 60.0415 76.6844C60.5474 77.0227 60.9416 77.5036 61.1744 78.0662C61.4072 78.6288 61.4681 79.2479 61.3495 79.8452C61.2308 80.4425 60.9378 80.9911 60.5076 81.4217C60.0774 81.8523 59.5294 82.1456 58.9327 82.2644C58.336 82.3832 57.7175 82.3222 57.1555 82.0892C56.5934 81.8561 56.113 81.4615 55.775 80.9551C55.4371 80.4488 55.2566 79.8535 55.2566 79.2445C55.2566 78.8402 55.3362 78.4398 55.4908 78.0662C55.6454 77.6926 55.8719 77.3532 56.1576 77.0673C56.4432 76.7814 56.7823 76.5546 57.1555 76.3998C57.5287 76.2451 57.9287 76.1655 58.3326 76.1655ZM58.3326 90.9879C57.1175 90.9824 55.9221 90.6802 54.85 90.1075C53.778 89.5348 52.8617 88.709 52.1807 87.7016C52.2299 85.649 56.2818 84.519 58.3326 84.519C60.3834 84.519 64.435 85.649 64.4845 87.7016C63.8028 88.7084 62.8864 89.5338 61.8146 90.1066C60.7427 90.6793 59.5476 90.9821 58.3326 90.9888V90.9879Z" fill="#6F7086"/>
<defs>
<clipPath id="clip0">
<rect width="9.0237" height="9.03273" fill="white" transform="translate(157.993 31.5632)"/>
</clipPath>
</defs>
</svg>
