<svg width="208" height="121" viewBox="0 0 208 121" fill="none" xmlns="http://www.w3.org/2000/svg">
<rect x="1.34929" y="1.39934" width="206.184" height="118.367" rx="3.26536" fill="white"/>
<rect x="1.34929" y="1.39934" width="206.184" height="118.367" rx="3.26536" fill="white"/>
<rect x="1.34929" y="1.39934" width="206.184" height="118.367" rx="3.26536" stroke="#CED4DA" stroke-width="0.932961"/>
<path d="M88.6933 67.1731H26.5731C22.451 67.1731 19.1094 70.5147 19.1094 74.6368V87.8774C19.1094 91.9994 22.451 95.3411 26.5731 95.3411H88.6933C92.8154 95.3411 96.157 91.9994 96.157 87.8774V74.6368C96.157 70.5147 92.8154 67.1731 88.6933 67.1731Z" fill="#F6F5FF"/>
<path d="M184.796 67.2104H122.676C118.554 67.2104 115.212 70.5521 115.212 74.6741V87.9147C115.212 92.0368 118.554 95.3784 122.676 95.3784H184.796C188.918 95.3784 192.26 92.0368 192.26 87.9147V74.6741C192.26 70.5521 188.918 67.2104 184.796 67.2104Z" fill="#F6F5FF"/>
<path d="M35.9903 71.4607C33.9625 71.4607 31.9802 72.062 30.2941 73.1886C28.608 74.3152 27.2938 75.9166 26.5178 77.79C25.7417 79.6635 25.5387 81.7251 25.9343 83.714C26.3299 85.7029 27.3064 87.5298 28.7404 88.9637C30.1743 90.3976 32.0012 91.3741 33.9901 91.7697C35.9789 92.1653 38.0405 91.9623 39.914 91.1862C41.7875 90.4102 43.3888 89.0961 44.5154 87.41C45.642 85.7239 46.2433 83.7416 46.2433 81.7137C46.2433 78.9944 45.1631 76.3865 43.2403 74.4637C41.3175 72.5409 38.7096 71.4607 35.9903 71.4607ZM35.9903 74.5367C36.5987 74.5367 37.1934 74.7171 37.6992 75.055C38.2051 75.393 38.5993 75.8734 38.8321 76.4355C39.0649 76.9975 39.1259 77.616 39.0072 78.2127C38.8885 78.8094 38.5955 79.3575 38.1653 79.7876C37.7352 80.2178 37.1871 80.5108 36.5904 80.6295C35.9937 80.7482 35.3753 80.6872 34.8132 80.4544C34.2511 80.2216 33.7708 79.8274 33.4328 79.3215C33.0948 78.8157 32.9144 78.221 32.9144 77.6126C32.9144 77.2087 32.9939 76.8087 33.1485 76.4355C33.3031 76.0623 33.5296 75.7232 33.8153 75.4376C34.1009 75.1519 34.44 74.9254 34.8132 74.7708C35.1864 74.6162 35.5864 74.5366 35.9903 74.5367ZM35.9903 89.3443C34.7752 89.3387 33.5798 89.0368 32.5077 88.4647C31.4357 87.8926 30.5194 87.0676 29.8384 86.0613C29.8876 84.0107 33.9395 82.8818 35.9903 82.8818C38.0411 82.8818 42.0928 84.0107 42.1422 86.0613C41.4605 87.067 40.5441 87.8916 39.4723 88.4638C38.4004 89.036 37.2053 89.3384 35.9903 89.3451V89.3443Z" fill="#CED4DA"/>
<path d="M132.092 71.4607C130.065 71.4607 128.082 72.062 126.396 73.1886C124.71 74.3152 123.396 75.9166 122.62 77.79C121.844 79.6635 121.641 81.7251 122.036 83.714C122.432 85.7029 123.408 87.5298 124.842 88.9637C126.276 90.3976 128.103 91.3741 130.092 91.7697C132.081 92.1653 134.143 91.9623 136.016 91.1862C137.89 90.4102 139.491 89.0961 140.617 87.41C141.744 85.7239 142.345 83.7416 142.345 81.7137C142.345 78.9944 141.265 76.3865 139.342 74.4637C137.42 72.5409 134.812 71.4607 132.092 71.4607ZM132.092 74.5367C132.701 74.5367 133.295 74.7171 133.801 75.055C134.307 75.393 134.701 75.8734 134.934 76.4355C135.167 76.9975 135.228 77.616 135.109 78.2127C134.991 78.8094 134.698 79.3575 134.267 79.7876C133.837 80.2178 133.289 80.5108 132.692 80.6295C132.096 80.7482 131.477 80.6872 130.915 80.4544C130.353 80.2216 129.873 79.8274 129.535 79.3215C129.197 78.8157 129.016 78.221 129.016 77.6126C129.016 77.2087 129.096 76.8087 129.251 76.4355C129.405 76.0623 129.632 75.7232 129.917 75.4376C130.203 75.1519 130.542 74.9254 130.915 74.7708C131.288 74.6162 131.688 74.5366 132.092 74.5367ZM132.092 89.3443C130.877 89.3387 129.682 89.0368 128.61 88.4647C127.538 87.8926 126.621 87.0676 125.94 86.0613C125.99 84.0107 130.042 82.8818 132.092 82.8818C134.143 82.8818 138.195 84.0107 138.244 86.0613C137.563 87.067 136.646 87.8916 135.574 88.4638C134.502 89.036 133.307 89.3384 132.092 89.3451V89.3443Z" fill="#CED4DA"/>
<path d="M88.6933 19.5923H26.5731C22.451 19.5923 19.1094 22.9339 19.1094 27.056V40.2966C19.1094 44.4186 22.451 47.7602 26.5731 47.7602H88.6933C92.8154 47.7602 96.157 44.4186 96.157 40.2966V27.056C96.157 22.9339 92.8154 19.5923 88.6933 19.5923Z" fill="#F6F5FF"/>
<path d="M57.5306 31.3664C58.1053 31.3664 58.6104 31.4926 59.0457 31.7451C59.4898 31.989 59.8338 32.3329 60.0776 32.777C60.3214 33.2211 60.4433 33.7305 60.4433 34.3052C60.4433 34.906 60.304 35.4372 60.0254 35.8987C59.7554 36.3602 59.3679 36.7216 58.8629 36.9828C58.3665 37.2353 57.7918 37.3616 57.1388 37.3616C56.5989 37.3616 56.0677 37.2745 55.5453 37.1003C55.0315 36.9175 54.5918 36.6737 54.2261 36.3689C54.0258 36.1947 53.9257 35.9901 53.9257 35.755C53.9257 35.5634 53.9779 35.4024 54.0824 35.2717C54.1956 35.1324 54.3262 35.0628 54.4742 35.0628C54.5613 35.0628 54.644 35.0802 54.7224 35.115C54.8008 35.1411 54.8922 35.189 54.9967 35.2587C55.345 35.5025 55.6846 35.6897 56.0155 35.8203C56.3464 35.9509 56.699 36.0162 57.0735 36.0162C57.6482 36.0162 58.0879 35.8726 58.3927 35.5852C58.6974 35.2979 58.8498 34.8886 58.8498 34.3574C58.8498 33.8437 58.6931 33.4388 58.3796 33.1427C58.0748 32.838 57.6525 32.6856 57.1126 32.6856C56.7731 32.6856 56.4683 32.7335 56.1983 32.8292C55.9371 32.925 55.6672 33.0861 55.3885 33.3125C55.2231 33.4257 55.0533 33.4823 54.8791 33.4823C54.705 33.4823 54.557 33.4301 54.4351 33.3256C54.3131 33.2211 54.2522 33.0818 54.2522 32.9076V28.8324C54.2522 28.5886 54.3219 28.3971 54.4612 28.2577C54.6005 28.1184 54.7964 28.0488 55.0489 28.0488H59.3984C59.9209 28.0488 60.1821 28.2664 60.1821 28.7018C60.1821 29.1372 59.9209 29.3549 59.3984 29.3549H55.8979V31.8366C56.342 31.5231 56.8863 31.3664 57.5306 31.3664ZM64.8791 37.3746C63.7907 37.3746 62.9591 36.9741 62.3844 36.173C61.8097 35.3632 61.5223 34.1876 61.5223 32.6464C61.5223 31.1138 61.8097 29.947 62.3844 29.1459C62.9591 28.3361 63.7907 27.9312 64.8791 27.9312C65.9676 27.9312 66.7991 28.3361 67.3738 29.1459C67.9486 29.947 68.2359 31.1138 68.2359 32.6464C68.2359 34.1789 67.9486 35.3501 67.3738 36.1599C66.7991 36.9697 65.9676 37.3746 64.8791 37.3746ZM64.8791 36.0554C65.4712 36.0554 65.9023 35.7855 66.1722 35.2456C66.4421 34.697 66.5771 33.8306 66.5771 32.6464C66.5771 31.4534 66.4421 30.5914 66.1722 30.0602C65.9023 29.5203 65.4712 29.2504 64.8791 29.2504C64.287 29.2504 63.856 29.5203 63.586 30.0602C63.3161 30.6001 63.1811 31.4621 63.1811 32.6464C63.1811 33.8306 63.3161 34.697 63.586 35.2456C63.856 35.7855 64.287 36.0554 64.8791 36.0554ZM73.1288 37.0742C73.0505 37.2135 72.9547 37.318 72.8415 37.3877C72.7283 37.4574 72.6151 37.4922 72.5019 37.4922C72.3452 37.4922 72.2058 37.4356 72.0839 37.3224C71.9707 37.2092 71.9141 37.0655 71.9141 36.8914C71.9141 36.7433 71.9577 36.5953 72.0447 36.4473L76.7991 28.2316C76.8775 28.0923 76.9733 27.9878 77.0865 27.9181C77.1997 27.8485 77.3129 27.8136 77.4261 27.8136C77.5828 27.8136 77.7178 27.8702 77.831 27.9834C77.9529 28.0966 78.0138 28.2403 78.0138 28.4145C78.0138 28.5625 77.9703 28.7105 77.8832 28.8586L73.1288 37.0742ZM71.679 33.5476C70.9476 33.5476 70.3772 33.3082 69.968 32.8292C69.5587 32.3503 69.3541 31.6494 69.3541 30.7264C69.3541 29.8121 69.5587 29.1154 69.968 28.6365C70.3772 28.1576 70.9476 27.9181 71.679 27.9181C72.4105 27.9181 72.9808 28.1576 73.3901 28.6365C73.808 29.1154 74.017 29.8121 74.017 30.7264C74.017 31.6494 73.808 32.3503 73.3901 32.8292C72.9808 33.3082 72.4105 33.5476 71.679 33.5476ZM71.679 32.4896C72.0099 32.4896 72.2494 32.3547 72.3974 32.0847C72.5541 31.8061 72.6325 31.3533 72.6325 30.7264C72.6325 30.1168 72.5541 29.6727 72.3974 29.3941C72.2407 29.1154 72.0012 28.9761 71.679 28.9761C71.3568 28.9761 71.1174 29.1154 70.9606 29.3941C70.8126 29.664 70.7386 30.1081 70.7386 30.7264C70.7386 31.3533 70.8126 31.8061 70.9606 32.0847C71.1174 32.3547 71.3568 32.4896 71.679 32.4896ZM78.2489 37.3485C77.5175 37.3485 76.9471 37.1091 76.5379 36.6301C76.1286 36.1512 75.924 35.4459 75.924 34.5142C75.924 33.5999 76.1286 32.9076 76.5379 32.4374C76.9559 31.9585 77.5262 31.719 78.2489 31.719C78.9804 31.719 79.5507 31.9585 79.96 32.4374C80.3692 32.9163 80.5739 33.6129 80.5739 34.5272C80.5739 35.4502 80.3692 36.1512 79.96 36.6301C79.5507 37.1091 78.9804 37.3485 78.2489 37.3485ZM78.2489 36.2905C78.5711 36.2905 78.8106 36.1556 78.9673 35.8856C79.1241 35.607 79.2024 35.1542 79.2024 34.5272C79.2024 33.9177 79.1241 33.4736 78.9673 33.195C78.8106 32.9163 78.5711 32.777 78.2489 32.777C77.9268 32.777 77.6873 32.9163 77.5306 33.195C77.3738 33.4736 77.2955 33.9177 77.2955 34.5272C77.2955 35.1542 77.3738 35.607 77.5306 35.8856C77.6873 36.1556 77.9268 36.2905 78.2489 36.2905Z" fill="#6F7086"/>
<path d="M56.7469 76.4451C57.9138 76.4451 58.8106 76.8413 59.4376 77.6337C60.0732 78.4174 60.3911 79.5407 60.3911 81.0036C60.3911 82.0049 60.243 82.8757 59.947 83.6159C59.6509 84.3473 59.2243 84.9089 58.667 85.3008C58.1184 85.6926 57.4697 85.8885 56.7208 85.8885C56.2245 85.8885 55.7238 85.8015 55.2187 85.6273C54.7224 85.4445 54.3001 85.2006 53.9518 84.8959C53.8386 84.8001 53.7559 84.7087 53.7036 84.6216C53.6601 84.5258 53.6383 84.4126 53.6383 84.282C53.6383 84.0904 53.6905 83.9293 53.795 83.7987C53.9082 83.6594 54.0389 83.5897 54.1869 83.5897C54.274 83.5897 54.3567 83.6071 54.4351 83.642C54.5134 83.6681 54.6092 83.716 54.7224 83.7857C55.4451 84.2907 56.0895 84.5432 56.6555 84.5432C57.2912 84.5432 57.7918 84.2515 58.1576 83.6681C58.5233 83.076 58.7149 82.2488 58.7323 81.1864C58.532 81.5783 58.2316 81.8917 57.831 82.1269C57.4305 82.3532 56.982 82.4664 56.4857 82.4664C55.9371 82.4664 55.4495 82.3445 55.0228 82.1007C54.5961 81.8482 54.2609 81.4999 54.0171 81.0558C53.782 80.603 53.6644 80.0893 53.6644 79.5146C53.6644 78.9224 53.795 78.3956 54.0563 77.9341C54.3262 77.4639 54.6919 77.0982 55.1534 76.837C55.6236 76.5757 56.1548 76.4451 56.7469 76.4451ZM56.8384 81.1342C57.326 81.1342 57.7178 80.9818 58.0139 80.677C58.3187 80.3636 58.471 79.9586 58.471 79.4623C58.471 78.9573 58.3187 78.5524 58.0139 78.2476C57.7178 77.9341 57.326 77.7774 56.8384 77.7774C56.3594 77.7774 55.9763 77.9341 55.689 78.2476C55.4016 78.5524 55.2579 78.9573 55.2579 79.4623C55.2579 79.9674 55.4016 80.3723 55.689 80.677C55.9763 80.9818 56.3594 81.1342 56.8384 81.1342ZM64.8791 85.8885C63.7907 85.8885 62.9591 85.488 62.3844 84.6869C61.8097 83.8771 61.5223 82.7016 61.5223 81.1603C61.5223 79.6278 61.8097 78.4609 62.3844 77.6598C62.9591 76.85 63.7907 76.4451 64.8791 76.4451C65.9676 76.4451 66.7991 76.85 67.3738 77.6598C67.9486 78.4609 68.2359 79.6278 68.2359 81.1603C68.2359 82.6928 67.9486 83.864 67.3738 84.6738C66.7991 85.4836 65.9676 85.8885 64.8791 85.8885ZM64.8791 84.5693C65.4712 84.5693 65.9023 84.2994 66.1722 83.7595C66.4421 83.211 66.5771 82.3445 66.5771 81.1603C66.5771 79.9674 66.4421 79.1053 66.1722 78.5741C65.9023 78.0343 65.4712 77.7643 64.8791 77.7643C64.287 77.7643 63.856 78.0343 63.586 78.5741C63.3161 79.114 63.1811 79.9761 63.1811 81.1603C63.1811 82.3445 63.3161 83.211 63.586 83.7595C63.856 84.2994 64.287 84.5693 64.8791 84.5693ZM73.1288 85.5881C73.0505 85.7275 72.9547 85.8319 72.8415 85.9016C72.7283 85.9713 72.6151 86.0061 72.5019 86.0061C72.3452 86.0061 72.2058 85.9495 72.0839 85.8363C71.9707 85.7231 71.9141 85.5794 71.9141 85.4053C71.9141 85.2572 71.9577 85.1092 72.0447 84.9612L76.7991 76.7455C76.8775 76.6062 76.9733 76.5017 77.0865 76.4321C77.1997 76.3624 77.3129 76.3276 77.4261 76.3276C77.5828 76.3276 77.7178 76.3842 77.831 76.4974C77.9529 76.6106 78.0138 76.7542 78.0138 76.9284C78.0138 77.0764 77.9703 77.2245 77.8832 77.3725L73.1288 85.5881ZM71.679 82.0615C70.9476 82.0615 70.3772 81.8221 69.968 81.3432C69.5587 80.8642 69.3541 80.1633 69.3541 79.2403C69.3541 78.326 69.5587 77.6294 69.968 77.1504C70.3772 76.6715 70.9476 76.4321 71.679 76.4321C72.4105 76.4321 72.9808 76.6715 73.3901 77.1504C73.808 77.6294 74.017 78.326 74.017 79.2403C74.017 80.1633 73.808 80.8642 73.3901 81.3432C72.9808 81.8221 72.4105 82.0615 71.679 82.0615ZM71.679 81.0036C72.0099 81.0036 72.2494 80.8686 72.3974 80.5987C72.5541 80.32 72.6325 79.8672 72.6325 79.2403C72.6325 78.6307 72.5541 78.1866 72.3974 77.908C72.2407 77.6294 72.0012 77.49 71.679 77.49C71.3568 77.49 71.1174 77.6294 70.9606 77.908C70.8126 78.1779 70.7386 78.622 70.7386 79.2403C70.7386 79.8672 70.8126 80.32 70.9606 80.5987C71.1174 80.8686 71.3568 81.0036 71.679 81.0036ZM78.2489 85.8624C77.5175 85.8624 76.9471 85.623 76.5379 85.144C76.1286 84.6651 75.924 83.9598 75.924 83.0281C75.924 82.1138 76.1286 81.4215 76.5379 80.9513C76.9559 80.4724 77.5262 80.2329 78.2489 80.2329C78.9804 80.2329 79.5507 80.4724 79.96 80.9513C80.3692 81.4302 80.5739 82.1269 80.5739 83.0412C80.5739 83.9642 80.3692 84.6651 79.96 85.144C79.5507 85.623 78.9804 85.8624 78.2489 85.8624ZM78.2489 84.8044C78.5711 84.8044 78.8106 84.6695 78.9673 84.3995C79.1241 84.1209 79.2024 83.6681 79.2024 83.0412C79.2024 82.4316 79.1241 81.9875 78.9673 81.7089C78.8106 81.4302 78.5711 81.2909 78.2489 81.2909C77.9268 81.2909 77.6873 81.4302 77.5306 81.7089C77.3738 81.9875 77.2955 82.4316 77.2955 83.0412C77.2955 83.6681 77.3738 84.1209 77.5306 84.3995C77.6873 84.6695 77.9268 84.8044 78.2489 84.8044Z" fill="#6F7086"/>
<path d="M153.29 84.4124C153.812 84.4124 154.074 84.6344 154.074 85.0785C154.074 85.54 153.812 85.7708 153.29 85.7708H148.875C148.344 85.7708 148.078 85.54 148.078 85.0785C148.078 84.6344 148.344 84.4124 148.875 84.4124H150.234V78.4563L148.98 79.227C148.858 79.2966 148.749 79.3315 148.653 79.3315C148.47 79.3315 148.313 79.2531 148.183 79.0963C148.061 78.9396 148 78.7655 148 78.5739C148 78.3214 148.113 78.1254 148.34 77.9861L150.364 76.7322C150.625 76.5755 150.874 76.4971 151.109 76.4971C151.352 76.4971 151.548 76.5711 151.696 76.7192C151.844 76.8672 151.918 77.0718 151.918 77.3331V84.4124H153.29ZM158.496 85.8883C157.408 85.8883 156.576 85.4878 156.002 84.6867C155.427 83.8768 155.14 82.7013 155.14 81.1601C155.14 79.6275 155.427 78.4607 156.002 77.6596C156.576 76.8498 157.408 76.4449 158.496 76.4449C159.585 76.4449 160.416 76.8498 160.991 77.6596C161.566 78.4607 161.853 79.6275 161.853 81.1601C161.853 82.6926 161.566 83.8638 160.991 84.6736C160.416 85.4834 159.585 85.8883 158.496 85.8883ZM158.496 84.5691C159.088 84.5691 159.519 84.2992 159.789 83.7593C160.059 83.2107 160.194 82.3443 160.194 81.1601C160.194 79.9671 160.059 79.1051 159.789 78.5739C159.519 78.034 159.088 77.7641 158.496 77.7641C157.904 77.7641 157.473 78.034 157.203 78.5739C156.933 79.1138 156.798 79.9758 156.798 81.1601C156.798 82.3443 156.933 83.2107 157.203 83.7593C157.473 84.2992 157.904 84.5691 158.496 84.5691ZM166.746 85.5879C166.668 85.7272 166.572 85.8317 166.459 85.9014C166.345 85.971 166.232 86.0059 166.119 86.0059C165.962 86.0059 165.823 85.9493 165.701 85.8361C165.588 85.7229 165.531 85.5792 165.531 85.405C165.531 85.257 165.575 85.109 165.662 84.9609L170.416 76.7453C170.495 76.606 170.59 76.5015 170.704 76.4318C170.817 76.3622 170.93 76.3273 171.043 76.3273C171.2 76.3273 171.335 76.3839 171.448 76.4971C171.57 76.6103 171.631 76.754 171.631 76.9281C171.631 77.0762 171.587 77.2242 171.5 77.3722L166.746 85.5879ZM165.296 82.0613C164.565 82.0613 163.994 81.8218 163.585 81.3429C163.176 80.864 162.971 80.163 162.971 79.24C162.971 78.3257 163.176 77.6291 163.585 77.1502C163.994 76.6713 164.565 76.4318 165.296 76.4318C166.028 76.4318 166.598 76.6713 167.007 77.1502C167.425 77.6291 167.634 78.3257 167.634 79.24C167.634 80.163 167.425 80.864 167.007 81.3429C166.598 81.8218 166.028 82.0613 165.296 82.0613ZM165.296 81.0033C165.627 81.0033 165.867 80.8684 166.015 80.5984C166.171 80.3198 166.25 79.867 166.25 79.24C166.25 78.6305 166.171 78.1864 166.015 77.9078C165.858 77.6291 165.618 77.4898 165.296 77.4898C164.974 77.4898 164.735 77.6291 164.578 77.9078C164.43 78.1777 164.356 78.6218 164.356 79.24C164.356 79.867 164.43 80.3198 164.578 80.5984C164.735 80.8684 164.974 81.0033 165.296 81.0033ZM171.866 85.8622C171.135 85.8622 170.564 85.6227 170.155 85.1438C169.746 84.6649 169.541 83.9596 169.541 83.0278C169.541 82.1135 169.746 81.4213 170.155 80.9511C170.573 80.4722 171.143 80.2327 171.866 80.2327C172.598 80.2327 173.168 80.4722 173.577 80.9511C173.986 81.43 174.191 82.1266 174.191 83.0409C174.191 83.9639 173.986 84.6649 173.577 85.1438C173.168 85.6227 172.598 85.8622 171.866 85.8622ZM171.866 84.8042C172.188 84.8042 172.428 84.6692 172.585 84.3993C172.741 84.1207 172.82 83.6679 172.82 83.0409C172.82 82.4314 172.741 81.9873 172.585 81.7086C172.428 81.43 172.188 81.2907 171.866 81.2907C171.544 81.2907 171.304 81.43 171.148 81.7086C170.991 81.9873 170.913 82.4314 170.913 83.0409C170.913 83.6679 170.991 84.1207 171.148 84.3993C171.304 84.6692 171.544 84.8042 171.866 84.8042Z" fill="#6F7086"/>
<path d="M184.796 19.592H122.676C118.554 19.592 115.212 22.9336 115.212 27.0557V40.2963C115.212 44.4184 118.554 47.76 122.676 47.76H184.796C188.918 47.76 192.26 44.4184 192.26 40.2963V27.0557C192.26 22.9336 188.918 19.592 184.796 19.592Z" fill="#138E6E"/>
<path d="M35.9903 23.3015C33.9625 23.3015 31.9802 23.9028 30.2941 25.0295C28.608 26.1561 27.2938 27.7574 26.5178 29.6309C25.7417 31.5044 25.5387 33.5659 25.9343 35.5548C26.3299 37.5437 27.3064 39.3706 28.7404 40.8045C30.1743 42.2384 32.0012 43.2149 33.9901 43.6105C35.9789 44.0061 38.0405 43.8031 39.914 43.0271C41.7875 42.251 43.3888 40.9369 44.5154 39.2508C45.642 37.5647 46.2433 35.5824 46.2433 33.5545C46.2433 30.8353 45.1631 28.2274 43.2403 26.3046C41.3175 24.3817 38.7096 23.3015 35.9903 23.3015ZM35.9903 26.3775C36.5987 26.3775 37.1934 26.5579 37.6992 26.8959C38.2051 27.2339 38.5993 27.7143 38.8321 28.2763C39.0649 28.8384 39.1259 29.4568 39.0072 30.0535C38.8885 30.6502 38.5955 31.1983 38.1653 31.6285C37.7352 32.0586 37.1871 32.3516 36.5904 32.4703C35.9937 32.589 35.3753 32.5281 34.8132 32.2953C34.2511 32.0624 33.7708 31.6682 33.4328 31.1623C33.0948 30.6565 32.9144 30.0618 32.9144 29.4534C32.9144 29.0495 32.9939 28.6495 33.1485 28.2763C33.3031 27.9031 33.5296 27.564 33.8153 27.2784C34.1009 26.9928 34.44 26.7662 34.8132 26.6116C35.1864 26.457 35.5864 26.3775 35.9903 26.3775ZM35.9903 41.1851C34.7752 41.1796 33.5798 40.8776 32.5077 40.3056C31.4357 39.7335 30.5194 38.9085 29.8384 37.9021C29.8876 35.8516 33.9395 34.7226 35.9903 34.7226C38.0411 34.7226 42.0928 35.8516 42.1422 37.9021C41.4605 38.9079 40.5441 39.7325 39.4723 40.3046C38.4004 40.8768 37.2053 41.1793 35.9903 41.1859V41.1851Z" fill="#CED4DA"/>
<path d="M132.092 23.3015C130.065 23.3015 128.082 23.9028 126.396 25.0295C124.71 26.1561 123.396 27.7574 122.62 29.6309C121.844 31.5044 121.641 33.5659 122.036 35.5548C122.432 37.5437 123.408 39.3706 124.842 40.8045C126.276 42.2384 128.103 43.2149 130.092 43.6105C132.081 44.0061 134.143 43.8031 136.016 43.0271C137.89 42.251 139.491 40.9369 140.617 39.2508C141.744 37.5647 142.345 35.5824 142.345 33.5545C142.345 30.8353 141.265 28.2274 139.342 26.3046C137.42 24.3817 134.812 23.3015 132.092 23.3015ZM132.092 26.3775C132.701 26.3775 133.295 26.5579 133.801 26.8959C134.307 27.2339 134.701 27.7143 134.934 28.2763C135.167 28.8384 135.228 29.4568 135.109 30.0535C134.991 30.6502 134.698 31.1983 134.267 31.6285C133.837 32.0586 133.289 32.3516 132.692 32.4703C132.096 32.589 131.477 32.5281 130.915 32.2953C130.353 32.0624 129.873 31.6682 129.535 31.1623C129.197 30.6565 129.016 30.0618 129.016 29.4534C129.016 29.0495 129.096 28.6495 129.251 28.2763C129.405 27.9031 129.632 27.564 129.917 27.2784C130.203 26.9928 130.542 26.7662 130.915 26.6116C131.288 26.457 131.688 26.3775 132.092 26.3775ZM132.092 41.1851C130.877 41.1796 129.682 40.8776 128.61 40.3056C127.538 39.7335 126.621 38.9085 125.94 37.9021C125.99 35.8516 130.042 34.7226 132.092 34.7226C134.143 34.7226 138.195 35.8516 138.244 37.9021C137.563 38.9079 136.646 39.7325 135.574 40.3046C134.502 40.8768 133.307 41.1793 132.092 41.1859V41.1851Z" fill="white"/>
<path d="M153.29 35.8984C153.812 35.8984 154.074 36.1205 154.074 36.5646C154.074 37.0261 153.812 37.2568 153.29 37.2568H148.875C148.344 37.2568 148.078 37.0261 148.078 36.5646C148.078 36.1205 148.344 35.8984 148.875 35.8984H150.234V29.9424L148.98 30.713C148.858 30.7827 148.749 30.8175 148.653 30.8175C148.47 30.8175 148.313 30.7392 148.183 30.5824C148.061 30.4257 148 30.2515 148 30.06C148 29.8075 148.113 29.6115 148.34 29.4722L150.364 28.2183C150.625 28.0616 150.874 27.9832 151.109 27.9832C151.352 27.9832 151.548 28.0572 151.696 28.2052C151.844 28.3533 151.918 28.5579 151.918 28.8191V35.8984H153.29ZM158.496 37.3744C157.408 37.3744 156.576 36.9738 156.002 36.1727C155.427 35.3629 155.14 34.1874 155.14 32.6461C155.14 31.1136 155.427 29.9468 156.002 29.1457C156.576 28.3359 157.408 27.931 158.496 27.931C159.585 27.931 160.416 28.3359 160.991 29.1457C161.566 29.9468 161.853 31.1136 161.853 32.6461C161.853 34.1787 161.566 35.3499 160.991 36.1597C160.416 36.9695 159.585 37.3744 158.496 37.3744ZM158.496 36.0552C159.088 36.0552 159.519 35.7852 159.789 35.2454C160.059 34.6968 160.194 33.8304 160.194 32.6461C160.194 31.4532 160.059 30.5911 159.789 30.06C159.519 29.5201 159.088 29.2502 158.496 29.2502C157.904 29.2502 157.473 29.5201 157.203 30.06C156.933 30.5998 156.798 31.4619 156.798 32.6461C156.798 33.8304 156.933 34.6968 157.203 35.2454C157.473 35.7852 157.904 36.0552 158.496 36.0552ZM166.328 37.3744C165.24 37.3744 164.408 36.9738 163.833 36.1727C163.259 35.3629 162.971 34.1874 162.971 32.6461C162.971 31.1136 163.259 29.9468 163.833 29.1457C164.408 28.3359 165.24 27.931 166.328 27.931C167.417 27.931 168.248 28.3359 168.823 29.1457C169.398 29.9468 169.685 31.1136 169.685 32.6461C169.685 34.1787 169.398 35.3499 168.823 36.1597C168.248 36.9695 167.417 37.3744 166.328 37.3744ZM166.328 36.0552C166.92 36.0552 167.351 35.7852 167.621 35.2454C167.891 34.6968 168.026 33.8304 168.026 32.6461C168.026 31.4532 167.891 30.5911 167.621 30.06C167.351 29.5201 166.92 29.2502 166.328 29.2502C165.736 29.2502 165.305 29.5201 165.035 30.06C164.765 30.5998 164.63 31.4619 164.63 32.6461C164.63 33.8304 164.765 34.6968 165.035 35.2454C165.305 35.7852 165.736 36.0552 166.328 36.0552ZM174.578 37.074C174.499 37.2133 174.404 37.3178 174.29 37.3875C174.177 37.4571 174.064 37.4919 173.951 37.4919C173.794 37.4919 173.655 37.4353 173.533 37.3221C173.42 37.2089 173.363 37.0653 173.363 36.8911C173.363 36.7431 173.407 36.5951 173.494 36.447L178.248 28.2314C178.326 28.092 178.422 27.9876 178.535 27.9179C178.649 27.8482 178.762 27.8134 178.875 27.8134C179.032 27.8134 179.167 27.87 179.28 27.9832C179.402 28.0964 179.463 28.2401 179.463 28.4142C179.463 28.5623 179.419 28.7103 179.332 28.8583L174.578 37.074ZM173.128 33.5474C172.397 33.5474 171.826 33.3079 171.417 32.829C171.008 32.3501 170.803 31.6491 170.803 30.7261C170.803 29.8118 171.008 29.1152 171.417 28.6363C171.826 28.1574 172.397 27.9179 173.128 27.9179C173.859 27.9179 174.43 28.1574 174.839 28.6363C175.257 29.1152 175.466 29.8118 175.466 30.7261C175.466 31.6491 175.257 32.3501 174.839 32.829C174.43 33.3079 173.859 33.5474 173.128 33.5474ZM173.128 32.4894C173.459 32.4894 173.698 32.3544 173.846 32.0845C174.003 31.8059 174.081 31.3531 174.081 30.7261C174.081 30.1166 174.003 29.6725 173.846 29.3938C173.69 29.1152 173.45 28.9759 173.128 28.9759C172.806 28.9759 172.566 29.1152 172.41 29.3938C172.262 29.6638 172.188 30.1079 172.188 30.7261C172.188 31.3531 172.262 31.8059 172.41 32.0845C172.566 32.3544 172.806 32.4894 173.128 32.4894ZM179.698 37.3483C178.966 37.3483 178.396 37.1088 177.987 36.6299C177.578 36.151 177.373 35.4456 177.373 34.5139C177.373 33.5996 177.578 32.9074 177.987 32.4372C178.405 31.9582 178.975 31.7188 179.698 31.7188C180.429 31.7188 181 31.9582 181.409 32.4372C181.818 32.9161 182.023 33.6127 182.023 34.527C182.023 35.45 181.818 36.151 181.409 36.6299C181 37.1088 180.429 37.3483 179.698 37.3483ZM179.698 36.2903C180.02 36.2903 180.26 36.1553 180.416 35.8854C180.573 35.6067 180.651 35.1539 180.651 34.527C180.651 33.9175 180.573 33.4734 180.416 33.1947C180.26 32.9161 180.02 32.7768 179.698 32.7768C179.376 32.7768 179.136 32.9161 178.98 33.1947C178.823 33.4734 178.744 33.9175 178.744 34.527C178.744 35.1539 178.823 35.6067 178.98 35.8854C179.136 36.1553 179.376 36.2903 179.698 36.2903Z" fill="white"/>
</svg>
