<svg width="208" height="120" viewBox="0 0 208 120" fill="none" xmlns="http://www.w3.org/2000/svg">
<rect x="0.907887" y="0.46648" width="206.184" height="118.486" rx="3.26536" fill="white"/>
<rect x="0.907887" y="0.46648" width="206.184" height="118.486" rx="3.26536" fill="white"/>
<rect x="0.907887" y="0.46648" width="206.184" height="118.486" rx="3.26536" stroke="#CED4DA" stroke-width="0.932961"/>
<path d="M63.7065 29.0283H144.036C147.96 29.0283 151.142 32.2097 151.142 36.1342V89.6575C151.142 93.582 147.96 96.7634 144.036 96.7634H63.7065C59.782 96.7634 56.6006 93.582 56.6006 89.6575V36.1342C56.6006 32.2097 59.782 29.0283 63.7065 29.0283Z" fill="#F6F5FF" stroke="#222B45" stroke-width="1.30369"/>
<path d="M63.7065 29.0283H144.036C147.96 29.0283 151.142 32.2097 151.142 36.1342V89.6575C151.142 93.582 147.96 96.7634 144.036 96.7634H63.7065C59.782 96.7634 56.6006 93.582 56.6006 89.6575V36.1342C56.6006 32.2097 59.782 29.0283 63.7065 29.0283Z" fill="white" stroke="#222B45" stroke-width="1.30369"/>
<path d="M77.9905 41.677H64.3154C63.2443 41.677 62.376 42.5453 62.376 43.6164V52.9362C62.376 54.0073 63.2443 54.8756 64.3154 54.8756H77.9905C79.0616 54.8756 79.93 54.0073 79.93 52.9362V43.6164C79.93 42.5453 79.0616 41.677 77.9905 41.677Z" fill="#CED4DA"/>
<path d="M100.017 41.677H86.3423C85.2711 41.677 84.4028 42.5453 84.4028 43.6164V52.9362C84.4028 54.0073 85.2711 54.8756 86.3423 54.8756H100.017C101.089 54.8756 101.957 54.0073 101.957 52.9362V43.6164C101.957 42.5453 101.088 41.677 100.017 41.677Z" fill="#138E6E"/>
<path d="M95.0498 45.9145L91.9571 49.4886L90.9531 48.3271L90.6014 47.9204L90.2484 48.3259L89.7864 48.8566L89.5206 49.1618L89.7853 49.468L91.6041 51.5718L91.957 51.98L92.3099 51.5718L96.2142 47.0555L96.478 46.7504L96.2142 46.4453L95.7555 45.9147L95.4027 45.5066L95.0498 45.9145Z" fill="white"/>
<path d="M95.0498 45.9145L91.9571 49.4886L90.9531 48.3271L90.6014 47.9204L90.2484 48.3259L89.7864 48.8566L89.5206 49.1618L89.7853 49.468L91.6041 51.5718L91.957 51.98L92.3099 51.5718L96.2142 47.0555L96.478 46.7504L96.2142 46.4453L95.7555 45.9147L95.4027 45.5066L95.0498 45.9145Z" fill="white"/>
<path d="M95.0498 45.9145L91.9571 49.4886L90.9531 48.3271L90.6014 47.9204L90.2484 48.3259L89.7864 48.8566L89.5206 49.1618L89.7853 49.468L91.6041 51.5718L91.957 51.98L92.3099 51.5718L96.2142 47.0555L96.478 46.7504L96.2142 46.4453L95.7555 45.9147L95.4027 45.5066L95.0498 45.9145Z" stroke="white" stroke-width="0.932961"/>
<path d="M95.0498 45.9145L91.9571 49.4886L90.9531 48.3271L90.6014 47.9204L90.2484 48.3259L89.7864 48.8566L89.5206 49.1618L89.7853 49.468L91.6041 51.5718L91.957 51.98L92.3099 51.5718L96.2142 47.0555L96.478 46.7504L96.2142 46.4453L95.7555 45.9147L95.4027 45.5066L95.0498 45.9145Z" stroke="white" stroke-width="0.932961"/>
<path d="M121.615 41.677H107.939C106.868 41.677 106 42.5453 106 43.6164V52.9362C106 54.0073 106.868 54.8756 107.939 54.8756H121.615C122.686 54.8756 123.554 54.0073 123.554 52.9362V43.6164C123.554 42.5453 122.686 41.677 121.615 41.677Z" fill="#CED4DA"/>
<path d="M143.428 41.677H129.752C128.681 41.677 127.813 42.5453 127.813 43.6164V52.9362C127.813 54.0073 128.681 54.8756 129.752 54.8756H143.428C144.499 54.8756 145.367 54.0073 145.367 52.9362V43.6164C145.367 42.5453 144.499 41.677 143.428 41.677Z" fill="#CED4DA"/>
<path d="M77.9905 60.3577H64.3154C63.2443 60.3577 62.376 61.226 62.376 62.2971V71.6168C62.376 72.6879 63.2443 73.5562 64.3154 73.5562H77.9905C79.0616 73.5562 79.93 72.6879 79.93 71.6168V62.2971C79.93 61.226 79.0616 60.3577 77.9905 60.3577Z" fill="#CED4DA"/>
<path d="M99.802 60.3577H86.1269C85.0558 60.3577 84.1875 61.226 84.1875 62.2971V71.6168C84.1875 72.6879 85.0558 73.5562 86.1269 73.5562H99.8021C100.873 73.5562 101.741 72.6879 101.741 71.6168V62.2971C101.741 61.226 100.873 60.3577 99.802 60.3577Z" fill="#CED4DA"/>
<path d="M121.525 60.3179H107.85C106.778 60.3179 105.91 61.1862 105.91 62.2573V71.577C105.91 72.6481 106.778 73.5165 107.85 73.5165H121.525C122.596 73.5165 123.464 72.6481 123.464 71.577V62.2573C123.464 61.1862 122.596 60.3179 121.525 60.3179Z" fill="#138E6E"/>
<path d="M143.428 60.3577H129.752C128.681 60.3577 127.813 61.226 127.813 62.2971V71.6168C127.813 72.6879 128.681 73.5562 129.752 73.5562H143.428C144.499 73.5562 145.367 72.6879 145.367 71.6168V62.2971C145.367 61.226 144.499 60.3577 143.428 60.3577Z" fill="#CED4DA"/>
<path d="M77.9905 79.0386H64.3154C63.2443 79.0386 62.376 79.9069 62.376 80.978V90.2977C62.376 91.3688 63.2443 92.2372 64.3154 92.2372H77.9905C79.0616 92.2372 79.93 91.3688 79.93 90.2977V80.978C79.93 79.9069 79.0616 79.0386 77.9905 79.0386Z" fill="#138E6E"/>
<path d="M99.802 79.0386H86.1269C85.0558 79.0386 84.1875 79.9069 84.1875 80.978V90.2977C84.1875 91.3688 85.0558 92.2372 86.1269 92.2372H99.8021C100.873 92.2372 101.741 91.3688 101.741 90.2977V80.978C101.741 79.9069 100.873 79.0386 99.802 79.0386Z" fill="#CED4DA"/>
<path d="M121.615 79.0386H107.939C106.868 79.0386 106 79.9069 106 80.978V90.2977C106 91.3688 106.868 92.2372 107.939 92.2372H121.615C122.686 92.2372 123.554 91.3688 123.554 90.2977V80.978C123.554 79.9069 122.686 79.0386 121.615 79.0386Z" fill="#CED4DA"/>
<path d="M143.428 79.0386H129.752C128.681 79.0386 127.813 79.9069 127.813 80.978V90.2977C127.813 91.3688 128.681 92.2372 129.752 92.2372H143.428C144.499 92.2372 145.367 91.3688 145.367 90.2977V80.978C145.367 79.9069 144.499 79.0386 143.428 79.0386Z" fill="#CED4DA"/>
<path d="M81.0511 36.4984C82.5053 36.4984 83.6842 35.1347 83.6842 33.4526C83.6842 31.7704 82.5053 30.4067 81.0511 30.4067C79.5968 30.4067 78.418 31.7704 78.418 33.4526C78.418 35.1347 79.5968 36.4984 81.0511 36.4984Z" fill="white"/>
<path d="M124.585 36.4984C126.039 36.4984 127.218 35.1347 127.218 33.4526C127.218 31.7704 126.039 30.4067 124.585 30.4067C123.131 30.4067 121.952 31.7704 121.952 33.4526C121.952 35.1347 123.131 36.4984 124.585 36.4984Z" fill="white"/>
<path d="M81.9446 33.5058V22.6923C81.9446 22.068 81.4385 21.562 80.8143 21.562C80.1901 21.562 79.6841 22.068 79.6841 22.6923V33.5058C79.6841 34.1301 80.1901 34.6361 80.8143 34.6361C81.4385 34.6361 81.9446 34.1301 81.9446 33.5058Z" fill="#222B45"/>
<path d="M126.024 33.5058V22.6923C126.024 22.068 125.518 21.562 124.894 21.562C124.27 21.562 123.764 22.068 123.764 22.6923V33.5058C123.764 34.1301 124.27 34.6361 124.894 34.6361C125.518 34.6361 126.024 34.1301 126.024 33.5058Z" fill="#222B45"/>
<path d="M116.557 64.1591L113.464 67.7332L112.46 66.5718L112.109 66.165L111.756 66.5705L111.294 67.1012L111.028 67.4064L111.293 67.7126L113.111 69.8165L113.464 70.2247L113.817 69.8165L117.722 65.3001L117.985 64.995L117.722 64.69L117.263 64.1593L116.91 63.7513L116.557 64.1591Z" fill="white"/>
<path d="M116.557 64.1591L113.464 67.7332L112.46 66.5718L112.109 66.165L111.756 66.5705L111.294 67.1012L111.028 67.4064L111.293 67.7126L113.111 69.8165L113.464 70.2247L113.817 69.8165L117.722 65.3001L117.985 64.995L117.722 64.69L117.263 64.1593L116.91 63.7513L116.557 64.1591Z" fill="white"/>
<path d="M116.557 64.1591L113.464 67.7332L112.46 66.5718L112.109 66.165L111.756 66.5705L111.294 67.1012L111.028 67.4064L111.293 67.7126L113.111 69.8165L113.464 70.2247L113.817 69.8165L117.722 65.3001L117.985 64.995L117.722 64.69L117.263 64.1593L116.91 63.7513L116.557 64.1591Z" stroke="white" stroke-width="0.932961"/>
<path d="M116.557 64.1591L113.464 67.7332L112.46 66.5718L112.109 66.165L111.756 66.5705L111.294 67.1012L111.028 67.4064L111.293 67.7126L113.111 69.8165L113.464 70.2247L113.817 69.8165L117.722 65.3001L117.985 64.995L117.722 64.69L117.263 64.1593L116.91 63.7513L116.557 64.1591Z" stroke="white" stroke-width="0.932961"/>
<path d="M73.542 83.2331L70.4493 86.8072L69.4453 85.6457L69.0936 85.239L68.7406 85.6445L68.2785 86.1752L68.0128 86.4804L68.2775 86.7866L70.0963 88.8904L70.4492 89.2987L70.802 88.8904L74.7064 84.3741L74.9702 84.069L74.7064 83.7639L74.2477 83.2333L73.8949 82.8252L73.542 83.2331Z" fill="white"/>
<path d="M73.542 83.2331L70.4493 86.8072L69.4453 85.6457L69.0936 85.239L68.7406 85.6445L68.2785 86.1752L68.0128 86.4804L68.2775 86.7866L70.0963 88.8904L70.4492 89.2987L70.802 88.8904L74.7064 84.3741L74.9702 84.069L74.7064 83.7639L74.2477 83.2333L73.8949 82.8252L73.542 83.2331Z" fill="white"/>
<path d="M73.542 83.2331L70.4493 86.8072L69.4453 85.6457L69.0936 85.239L68.7406 85.6445L68.2785 86.1752L68.0128 86.4804L68.2775 86.7866L70.0963 88.8904L70.4492 89.2987L70.802 88.8904L74.7064 84.3741L74.9702 84.069L74.7064 83.7639L74.2477 83.2333L73.8949 82.8252L73.542 83.2331Z" stroke="white" stroke-width="0.932961"/>
<path d="M73.542 83.2331L70.4493 86.8072L69.4453 85.6457L69.0936 85.239L68.7406 85.6445L68.2785 86.1752L68.0128 86.4804L68.2775 86.7866L70.0963 88.8904L70.4492 89.2987L70.802 88.8904L74.7064 84.3741L74.9702 84.069L74.7064 83.7639L74.2477 83.2333L73.8949 82.8252L73.542 83.2331Z" stroke="white" stroke-width="0.932961"/>
</svg>
