<svg width="98" height="98" viewBox="0 0 98 98" fill="none" xmlns="http://www.w3.org/2000/svg">
<circle cx="49" cy="49" r="49" fill="#F6F5FF"/>
<path d="M23.4839 25.5H66.5161C70.3732 25.5 73.5 28.6268 73.5 32.4839V58.6774C73.5 62.5345 70.3732 65.6613 66.5161 65.6613H23.4839C19.6268 65.6613 16.5 62.5345 16.5 58.6774V32.4839C16.5 28.6268 19.6268 25.5 23.4839 25.5Z" fill="white" stroke="#101336"/>
<path d="M41.2581 57.7419V35.2903L59.9677 48.1198L41.2581 57.7419Z" fill="#F6F5FF"/>
<path d="M37.5161 56.8064V34.3547L56.2258 47.1842L37.5161 56.8064Z" fill="#50526B"/>
<circle cx="73" cy="65" r="13" fill="#F6F5FF"/>
<path d="M83 65H66C64.8954 65 64 65.8954 64 67C64 68.1046 64.8954 69 66 69H83C84.1046 69 85 68.1046 85 67C85 65.8954 84.1046 65 83 65Z" fill="#50526B"/>
<path d="M77 75L77 59C77 57.8954 76.1046 57 75 57C73.8954 57 73 57.8954 73 59L73 75C73 76.1046 73.8954 77 75 77C76.1046 77 77 76.1046 77 75Z" fill="#50526B"/>
</svg>
