<?xml version="1.0" encoding="utf-8"?>
<svg viewBox="0 0 500 500" xmlns="http://www.w3.org/2000/svg">
  <circle style="fill: rgb(81, 165, 0);" cx="249.44" cy="250.281" r="246.08"/>
  <path d="M 239.403 202.927 L 454.761 202.927 L 454.761 418.285 L 239.403 418.285 L 239.403 202.927 Z" fill="none" style=""/>
  <path d="M 333.738 146.065 L 322.886 146.065 L 322.886 124.358 L 301.179 124.358 L 301.179 146.065 L 192.648 146.065 L 192.648 124.358 L 170.941 124.358 L 170.941 146.065 L 160.088 146.065 C 148.149 146.065 138.381 155.833 138.381 167.771 L 138.381 341.421 C 138.381 353.36 148.149 363.128 160.088 363.128 L 333.738 363.128 C 345.677 363.128 355.444 353.36 355.444 341.421 L 355.444 167.771 C 355.444 155.833 345.677 146.065 333.738 146.065 Z M 333.738 341.421 L 160.088 341.421 L 160.088 222.037 L 333.738 222.037 L 333.738 341.421 Z M 333.738 200.33 L 160.088 200.33 L 160.088 167.771 L 333.738 167.771 L 333.738 200.33 Z" style="fill: rgb(255, 255, 255);"/>
</svg>