<svg width="32" height="32" viewBox="0 0 32 32" fill="none" xmlns="http://www.w3.org/2000/svg">
<rect width="32" height="32" rx="4" fill="#40D99E"/>
<path d="M25 9.18L13.59 20.6L9.35 16.36L10.76 14.95L13.59 17.78L23.59 7.78L25 9.18ZM15 24C10.59 24 7 20.41 7 16C7 11.59 10.59 8 15 8C16.57 8 18.04 8.46 19.28 9.25L20.73 7.8C19.1 6.67 17.13 6 15 6C9.48 6 5 10.48 5 16C5 21.52 9.48 26 15 26C16.73 26 18.36 25.56 19.78 24.78L18.28 23.28C17.28 23.74 16.17 24 15 24ZM22 19H19V21H22V24H24V21H27V19H24V16H22V19Z" fill="white"/>
</svg>
