<svg width="600" height="600" viewBox="0 0 600 600" fill="none" xmlns="http://www.w3.org/2000/svg">
<rect width="600" height="600" rx="300" fill="#F28422"/>
<path fill-rule="evenodd" clip-rule="evenodd" d="M159.792 440.208C166.319 446.736 174.167 450 183.333 450H300V416.667H183.333V183.333H216.667V233.333H383.333V183.333H416.667V283.333H450V183.333C450 174.167 446.736 166.319 440.208 159.792C433.681 153.264 425.833 150 416.667 150H347.5C344.444 140.278 338.542 132.292 329.792 126.042C321.042 119.792 311.111 116.667 300 116.667C289.444 116.667 279.722 119.792 270.833 126.042C261.944 132.292 255.972 140.278 252.917 150H183.333C174.167 150 166.319 153.264 159.792 159.792C153.264 166.319 150 174.167 150 183.333V416.667C150 425.833 153.264 433.681 159.792 440.208ZM311.875 178.542C308.681 181.736 304.722 183.333 300 183.333C295.278 183.333 291.319 181.736 288.125 178.542C284.931 175.347 283.333 171.389 283.333 166.667C283.333 161.944 284.931 157.986 288.125 154.792C291.319 151.597 295.278 150 300 150C304.722 150 308.681 151.597 311.875 154.792C315.069 157.986 316.667 161.944 316.667 166.667C316.667 171.389 315.069 175.347 311.875 178.542ZM282.5 385L376.667 290.833L352.5 266.667L282.084 337.083L247.084 302.083L223.334 325.833L282.5 385ZM333.333 415.417V466.667H384.583L476.25 375C478.75 372.5 480.556 369.653 481.667 366.458C482.778 363.264 483.333 360.139 483.333 357.083C483.333 354.028 482.708 350.972 481.458 347.917C480.208 344.861 478.472 342.083 476.25 339.583L460.833 324.167C458.333 321.667 455.556 319.792 452.5 318.542C449.444 317.292 446.25 316.667 442.917 316.667C439.861 316.667 436.806 317.222 433.75 318.333C430.694 319.444 427.917 321.25 425.417 323.75L333.333 415.417ZM374.167 441.667H358.333V425.833L409.167 375.417L424.583 390.833L374.167 441.667Z" fill="white"/>
</svg>
