<svg id="Icons_Follow_Up_Updated" data-name="Icons / Follow Up Updated" xmlns="http://www.w3.org/2000/svg" width="20" height="20" viewBox="0 0 20 20">
  <g id="Icons_Follow_Copy" data-name="Icons / Follow Copy" transform="translate(2)">
    <g id="Group_42" data-name="Group 42">
      <path id="Path" d="M.274,12.862A35.9,35.9,0,0,1,0,8.5,35.893,35.893,0,0,1,.274,4.138,4.274,4.274,0,0,1,3.881.263,31.467,31.467,0,0,1,8,0a31.308,31.308,0,0,1,4.307.288,4.038,4.038,0,0,1,3.422,3.636A37.469,37.469,0,0,1,16,8.5a37.468,37.468,0,0,1-.271,4.576,4.038,4.038,0,0,1-3.422,3.636A31.293,31.293,0,0,1,8,17a31.462,31.462,0,0,1-4.119-.263A4.274,4.274,0,0,1,.274,12.862Z" transform="translate(0 2)" fill="#ebfaf6" stroke="#46d3a9" stroke-miterlimit="10" stroke-width="2"/>
      <g id="Group_3" data-name="Group 3" transform="translate(5 8)">
        <path id="Path-2" data-name="Path" d="M.5,6V0" transform="translate(2.5 1)" fill="none" stroke="#46d3a9" stroke-linecap="round" stroke-miterlimit="10" stroke-width="2"/>
        <path id="Path-3" data-name="Path" d="M3.04.62l-3,2.667" fill="none" stroke="#46d3a9" stroke-linecap="round" stroke-miterlimit="10" stroke-width="2"/>
        <path id="Path_Copy" data-name="Path Copy" d="M-3.5.62l3,2.667" transform="translate(6.54)" fill="none" stroke="#46d3a9" stroke-linecap="round" stroke-miterlimit="10" stroke-width="2"/>
      </g>
      <g id="Rectangle" transform="translate(2)" fill="#ecfaf6" stroke="#46d3a9" stroke-miterlimit="10" stroke-width="2">
        <rect width="12" height="5" rx="2.5" stroke="none"/>
        <rect x="1" y="1" width="10" height="3" rx="1.5" fill="none"/>
      </g>
    </g>
  </g>
</svg>
