<?xml version="1.0" encoding="utf-8"?>
<svg viewBox="0 0 500 500" xmlns="http://www.w3.org/2000/svg">
  <path d="M 101.989 153.472 L 125.989 153.472 L 125.989 177.472 L 101.989 177.472 L 101.989 153.472 Z" fill="none"/>
  <circle style="fill: rgb(81, 165, 0);" cx="249.64" cy="250.112" r="246.08"/>
  <path d="M 239.603 202.758 L 454.961 202.758 L 454.961 418.116 L 239.603 418.116 L 239.603 202.758 Z" fill="none" style=""/>
  <path d="M 21.832 -16.372 L 483.612 -16.372 L 483.612 445.408 L 21.832 445.408 L 21.832 -16.372 Z" style="" fill="none"/>
  <g transform="matrix(0.298814, 0, 0, -0.298814, 105.988785, 381.086151)" fill="#034DAC" stroke="none" style="">
    <path d="M295 983 c-44 -23 -94 -73 -116 -115 -26 -51 -26 -155 0 -206 41 -79 137 -142 216 -142 118 0 245 127 245 245 0 81 -62 175 -142 216 -47 24 -159 25 -203 2z m172 -118 c54 -36 65 -124 22 -179 -42 -53 -146 -53 -188 0 -87 111 48 256 166 179z" style="fill: rgb(255, 255, 255);"/>
    <path d="M175 480 c-4 -6 -9 -8 -13 -6 -27 17 -160 -109 -148 -140 3 -8 2 -14 -2 -14 -5 0 -9 -41 -9 -91 -2 -86 0 -93 28 -132 17 -23 49 -54 72 -70 41 -27 41 -27 191 -25 l151 3 3 32 c4 44 -14 51 -139 51 -96 0 -110 2 -146 25 -50 32 -67 71 -61 139 5 44 11 57 42 85 42 38 58 40 146 13 82 -25 122 -25 201 0 63 20 99 47 99 73 0 7 -11 24 -25 37 -24 23 -28 23 -73 10 -79 -22 -116 -23 -194 -1 -82 23 -114 26 -123 11z" style="fill: rgb(255, 255, 255);"/>
    <path d="M 239.402 203.207 L 454.76 203.207 L 454.76 418.565 L 239.402 418.565 L 239.402 203.207 Z" fill="none" style="" transform="matrix(2.944155, 0, 0, -2.944155, 324.204984, 1804.71827)"/>
    <path id="Path" d="M 791.266 342.84 C 791.319 328.281 780.204 316.111 765.7 314.849 C 649.309 304.919 589.238 224.62 625.048 73.95 C 653.75 154.454 732.615 159.642 770.457 157.16 C 782.81 155.774 791.937 144.996 791.266 132.583 L 791.266 106.327 C 790.314 86.742 810.921 73.469 828.359 82.44 C 830.282 83.426 832.069 84.656 833.682 86.097 L 951.846 194.819 C 975.137 216.779 975.137 253.813 951.846 275.77 L 833.682 384.492 C 819.062 397.559 795.779 389.902 791.772 370.704 C 791.328 368.581 791.159 366.41 791.266 364.244 L 791.266 342.84 Z" stroke="#ffffff" stroke-miterlimit="10" style="fill: rgba(16, 19, 54, 0); stroke-width: 52.9948px;"/>
  </g>
</svg>