<svg width="32" height="32" viewBox="0 0 32 32" fill="none" xmlns="http://www.w3.org/2000/svg">
<rect width="32" height="32" rx="4" fill="#4D4D4D"/>
<path d="M23.482 16.6016C21.912 12.5216 16.322 12.3016 17.672 6.37161C17.772 5.93161 17.302 5.59161 16.922 5.82161C13.292 7.96161 10.682 12.2516 12.872 17.8716C13.052 18.3316 12.512 18.7616 12.122 18.4616C10.312 17.0916 10.122 15.1216 10.282 13.7116C10.342 13.1916 9.66195 12.9416 9.37195 13.3716C8.69195 14.4116 8.00195 16.0916 8.00195 18.6216C8.38195 24.2216 13.112 25.9416 14.812 26.1616C17.242 26.4716 19.872 26.0216 21.762 24.2916C23.842 22.3616 24.602 19.2816 23.482 16.6016ZM14.202 21.6316C15.642 21.2816 16.382 20.2416 16.582 19.3216C16.912 17.8916 15.622 16.4916 16.492 14.2316C16.822 16.1016 19.762 17.2716 19.762 19.3116C19.842 21.8416 17.102 24.0116 14.202 21.6316Z" fill="white"/>
</svg>
