<svg id="ic-opended-email" xmlns="http://www.w3.org/2000/svg" width="40" height="40" viewBox="0 0 40 40">
  <g id="Oval_Copy_53" data-name="Oval Copy 53" fill="#fff" stroke="#f19d50" stroke-miterlimit="10" stroke-width="1">
    <circle cx="20" cy="20" r="20" stroke="none"/>
    <circle cx="20" cy="20" r="19.5" fill="none"/>
  </g>
  <path id="Path" d="M.455,13.676A35.375,35.375,0,0,1,0,8.108,5.528,5.528,0,0,1,2.649,3.562L7.347.492a3.03,3.03,0,0,1,3.308,0l4.717,3.076A5.5,5.5,0,0,1,18,8.108a35.543,35.543,0,0,1-.446,5.734A3.258,3.258,0,0,1,14.8,16.56,36.829,36.829,0,0,1,9,17a37,37,0,0,1-5.647-.416A3.445,3.445,0,0,1,.455,13.676Z" transform="translate(11 11)" fill="rgba(241,157,80,0.1)" stroke="#f19d50" stroke-miterlimit="10" stroke-width="2"/>
  <path id="Path-2" data-name="Path" d="M17,0,10.347,3.594a3.51,3.51,0,0,1-3.205.037L0,0" transform="translate(12 16)" fill="none" stroke="#f19d50" stroke-miterlimit="10" stroke-width="2"/>
</svg>
