<svg id="ic-send-video-text" xmlns="http://www.w3.org/2000/svg" width="40" height="40" viewBox="0 0 40 40">
  <circle id="Oval_Copy_52" data-name="Oval Copy 52" cx="20" cy="20" r="20" fill="#00bdff"/>
  <path id="Path_Copy_46" data-name="Path Copy 46" d="M0,5.594V.406A.482.482,0,0,1,.755.081L4.81,2.675a.372.372,0,0,1,0,.649L.755,5.919A.482.482,0,0,1,0,5.594Z" transform="translate(18 17)" fill="#fff"/>
  <path id="Path" d="M0,3A3,3,0,0,1,3,0H14.585a3,3,0,0,1,3,3V9.918a3,3,0,0,1-3,3H11.5L5.471,15.465A1,1,0,0,1,4,14.583V12.918H3a3,3,0,0,1-3-3Z" transform="translate(11 13)" fill="none" stroke="#fff" stroke-miterlimit="10" stroke-width="2"/>
</svg>
