<?xml version="1.0" encoding="UTF-8" standalone="no" ?>
<!DOCTYPE svg PUBLIC "-//W3C//DTD SVG 1.1//EN" "http://www.w3.org/Graphics/SVG/1.1/DTD/svg11.dtd">
<svg xmlns="http://www.w3.org/2000/svg" xmlns:xlink="http://www.w3.org/1999/xlink" version="1.1" width="128" height="128" viewBox="0 0 500 500" xml:space="preserve">
<desc>Created with Fabric.js 4.6.0</desc>
<defs>
</defs>
<g transform="matrix(7.09 0 0 7.03 250 250)" id="UE5c65rO8IErGg-iI54Sd"  >
<path style="stroke: rgb(0,0,0); stroke-width: 0; stroke-dasharray: none; stroke-linecap: butt; stroke-dashoffset: 0; stroke-linejoin: miter; stroke-miterlimit: 4; fill: rgb(0,189,255); fill-rule: nonzero; opacity: 1;" vector-effect="non-scaling-stroke"  transform=" translate(-35, -35)" d="M 0 35 C 0 15.67003 15.67003 0 35 0 C 54.32997 0 70 15.67003 70 35 C 70 54.32997 54.32997 70 35 70 C 15.67003 70 0 54.32997 0 35 z" stroke-linecap="round" />
</g>
<g transform="matrix(13.39 0 0 11.25 248.26 246.27)" id="K0yubiVktJHSkImNsLNtr"  >
<path style="stroke: none; stroke-width: 1; stroke-dasharray: none; stroke-linecap: butt; stroke-dashoffset: 0; stroke-linejoin: miter; stroke-miterlimit: 4; fill: rgb(255,255,255); fill-rule: nonzero; opacity: 1;" vector-effect="non-scaling-stroke"  transform=" translate(-12, -12)" d="M 7 18 L 9 18 L 9 6 L 7 6 L 7 18 z M 11 22 L 13 22 L 13 2 L 11 2 L 11 22 z M 3 14 L 5 14 L 5 10 L 3 10 L 3 14 z M 15 18 L 17 18 L 17 6 L 15 6 L 15 18 z M 19 10 L 19 14 L 21 14 L 21 10 L 19 10 z" stroke-linecap="round" />
</g>
</svg>