<svg xmlns="http://www.w3.org/2000/svg" width="40" height="40" viewBox="0 0 40 40">
  <g id="Group_52" data-name="Group 52" transform="translate(-36)">
    <circle id="Oval" cx="20" cy="20" r="20" transform="translate(36)" fill="blue"/>
    <g id="Icons_Video_Sent" data-name="Icons / Video Sent" transform="translate(46 10)">
      <rect id="Icons_Video_Sent_background" data-name="Icons / Video Sent background" width="20" height="20" fill="none"/>
      <g id="video-sent" transform="translate(1 1)">
        <path id="Path" d="M.308,13.619A35.8,35.8,0,0,1,0,9,35.8,35.8,0,0,1,.308,4.381,4.653,4.653,0,0,1,4.366.278,37.58,37.58,0,0,1,9,0a37.387,37.387,0,0,1,4.845.305,4.4,4.4,0,0,1,3.85,3.85A37.37,37.37,0,0,1,18,9a37.37,37.37,0,0,1-.305,4.845,4.4,4.4,0,0,1-3.85,3.85A37.37,37.37,0,0,1,9,18a37.574,37.574,0,0,1-4.634-.278A4.653,4.653,0,0,1,.308,13.619Z" fill="none" stroke="#fff" stroke-miterlimit="10" stroke-width="2"/>
        <path id="Path-2" data-name="Path" d="M0,6.09V1.5A1.5,1.5,0,0,1,2.3.23l3.67,2.294a1.5,1.5,0,0,1,0,2.544L2.3,7.362A1.5,1.5,0,0,1,0,6.09Z" transform="translate(6 5.204)" fill="#fff"/>
      </g>
    </g>
  </g>
</svg>
