<svg id="ic-send-pdf-email" xmlns="http://www.w3.org/2000/svg" width="40" height="40" viewBox="0 0 40 40">
  <circle id="Oval_Copy_52" data-name="Oval Copy 52" cx="20" cy="20" r="20" fill="#b50000"/>
  <g id="PDF" transform="translate(11 10)">
    <path id="Path" d="M9,0H0V2H9Z" transform="translate(5 18)" fill="#fff"/>
    <path id="Path-2" data-name="Path" d="M2,14V0H0V14Z" transform="translate(2 3)" fill="#fff"/>
    <path id="Path-3" data-name="Path" d="M0,0V11H2V0Z" transform="translate(15 6)" fill="#fff"/>
    <path id="Path-4" data-name="Path" d="M0,2H6V0H0Z" transform="translate(5)" fill="#fff"/>
    <path id="Path-5" data-name="Path" d="M3,1A1,1,0,0,1,2,0H0A3,3,0,0,0,3,3Z" transform="translate(2 17)" fill="#fff"/>
    <path id="Path-6" data-name="Path" d="M0,3A3,3,0,0,0,3,0H1A1,1,0,0,1,0,1Z" transform="translate(14 17)" fill="#fff"/>
    <path id="Path-7" data-name="Path" d="M2,3A1,1,0,0,1,3,2V0A3,3,0,0,0,0,3Z" transform="translate(2)" fill="#fff"/>
    <rect id="Rectangle" width="17.593" height="7.741" rx="2" transform="translate(0.704 7.741)" fill="#fff"/>
    <path id="Path-8" data-name="Path" d="M6,6,0,0V5A1,1,0,0,0,1,6Z" transform="translate(11)" fill="#fff"/>
  </g>
</svg>
