<svg id="ic-watched-pdf" xmlns="http://www.w3.org/2000/svg" width="40" height="40" viewBox="0 0 40 40">
  <circle id="Oval_Copy_56" data-name="Oval Copy 56" cx="20" cy="20" r="20" fill="#b50000"/>
  <path id="Path" d="M5,3.3,1.1,0,0,2.586C0,3.13,1.017,4,1.6,4Z" transform="translate(23 11)" fill="#fff"/>
  <g id="Rectangle" transform="translate(12 11)" fill="none" stroke-miterlimit="10">
    <path d="M0,3A3,3,0,0,1,3,0h9.106V3.2a.1.1,0,0,0,.1.1H16V17a3,3,0,0,1-3,3H3a3,3,0,0,1-3-3Z" stroke="none"/>
    <path d="M 3 2 C 2.448599815368652 2 2 2.448600769042969 2 3 L 2 17 C 2 17.55139923095703 2.448599815368652 18 3 18 L 13 18 C 13.55140018463135 18 14 17.55139923095703 14 17 L 14 5.300000190734863 L 12.20596981048584 5.300000190734863 C 11.04802989959717 5.300000190734863 10.10597038269043 4.357939720153809 10.10597038269043 3.200000762939453 L 10.10597038269043 2 L 3 2 M 3 0 L 12.10597038269043 0 L 12.10597038269043 3.200000762939453 C 12.10597038269043 3.255229949951172 12.1507396697998 3.299999237060547 12.20596981048584 3.299999237060547 L 16 3.299999237060547 L 16 17 C 16 18.65685081481934 14.65684986114502 20 13 20 L 3 20 C 1.34315013885498 20 0 18.65685081481934 0 17 L 0 3 C 0 1.343149185180664 1.34315013885498 0 3 0 Z" stroke="none" fill="#fff"/>
  </g>
  <path id="Path-2" data-name="Path" d="M8,8C4.393,8,1.358,6.324,0,4,1.358,1.676,4.393,0,8,0s6.643,1.676,8,4C14.643,6.324,11.61,8,8,8Z" transform="translate(12 19)" fill="none" stroke="#fff" stroke-miterlimit="10" stroke-width="2"/>
  <circle id="Oval" cx="2" cy="2" r="2" transform="translate(18 21)" fill="#fff"/>
</svg>
