<svg width="16" height="16" viewBox="0 0 16 16" fill="none" xmlns="http://www.w3.org/2000/svg">
<path d="M8 4.22266C5.27273 4.22266 2.94364 5.88132 2 8.22266C2.94364 10.564 5.27273 12.2227 8 12.2227C10.7273 12.2227 13.0564 10.564 14 8.22266C13.0564 5.88132 10.7273 4.22266 8 4.22266ZM8 10.8893C6.49455 10.8893 5.27273 9.69466 5.27273 8.22266C5.27273 6.75066 6.49455 5.55599 8 5.55599C9.50545 5.55599 10.7273 6.75066 10.7273 8.22266C10.7273 9.69466 9.50545 10.8893 8 10.8893ZM8 6.62266C7.09455 6.62266 6.36364 7.33732 6.36364 8.22266C6.36364 9.10799 7.09455 9.82266 8 9.82266C8.90545 9.82266 9.63636 9.10799 9.63636 8.22266C9.63636 7.33732 8.90545 6.62266 8 6.62266Z" fill="white"/>
</svg>
