<svg width="16" height="16" viewBox="0 0 16 16" fill="none" xmlns="http://www.w3.org/2000/svg">
<path d="M14.6663 8.03986C14.6663 4.33589 11.6813 1.33301 7.99934 1.33301C4.31737 1.33301 1.33301 4.33589 1.33301 8.03986C1.33301 11.3887 3.77331 14.1659 6.96263 14.6656V9.97678H5.25888V8.03986H6.96263L6.96333 6.5629C6.96333 4.88182 7.95348 3.94935 9.47587 3.94935C10.2055 3.94935 10.9628 4.09125 10.9628 4.09125V5.73039H10.1276C9.29938 5.73039 9.03604 6.25185 9.03604 6.78239V8.04057H10.8885L10.5925 9.97748H9.03604V14.6663C12.2268 14.1652 14.6663 11.3887 14.6663 8.03986Z" fill="#0000FF"/>
</svg>
