<svg width="16" height="16" viewBox="0 0 16 16" fill="none" xmlns="http://www.w3.org/2000/svg">
<path d="M14.133 1.33301H1.86634C1.57134 1.33301 1.33301 1.57134 1.33301 1.86634V14.133C1.33301 14.428 1.57134 14.6663 1.86634 14.6663H14.133C14.428 14.6663 14.6663 14.428 14.6663 14.133V1.86634C14.6663 1.57134 14.428 1.33301 14.133 1.33301ZM5.28801 12.6947H3.30967V6.33134H5.28801V12.6947ZM4.29967 5.46134C4.07289 5.46134 3.85119 5.39409 3.66262 5.26809C3.47405 5.1421 3.32708 4.96301 3.24029 4.75348C3.1535 4.54396 3.1308 4.3134 3.17504 4.09097C3.21929 3.86854 3.32849 3.66422 3.48886 3.50386C3.64922 3.34349 3.85354 3.23429 4.07597 3.19004C4.2984 3.1458 4.52896 3.1685 4.73848 3.25529C4.94801 3.34208 5.1271 3.48905 5.25309 3.67762C5.37909 3.86619 5.44634 4.08789 5.44634 4.31467C5.44467 4.94801 4.93134 5.46134 4.29967 5.46134ZM12.6947 12.6947H10.718V9.59968C10.718 8.86134 10.7047 7.91301 9.68968 7.91301C8.66134 7.91301 8.50301 8.71634 8.50301 9.54634V12.6947H6.52801V6.33134H8.42467V7.20134H8.45134C8.71467 6.70134 9.35968 6.17301 10.323 6.17301C12.3263 6.17301 12.6947 7.49134 12.6947 9.20467V12.6947Z" fill="#0000FF"/>
</svg>
