<svg width="16" height="16" viewBox="0 0 16 16" fill="none" xmlns="http://www.w3.org/2000/svg">
<path d="M11.333 4.66699H8.66634V6.00033H11.333C12.433 6.00033 13.333 6.90033 13.333 8.00033C13.333 9.10033 12.433 10.0003 11.333 10.0003H8.66634V11.3337H11.333C13.173 11.3337 14.6663 9.84033 14.6663 8.00033C14.6663 6.16033 13.173 4.66699 11.333 4.66699ZM7.33301 10.0003H4.66634C3.56634 10.0003 2.66634 9.10033 2.66634 8.00033C2.66634 6.90033 3.56634 6.00033 4.66634 6.00033H7.33301V4.66699H4.66634C2.82634 4.66699 1.33301 6.16033 1.33301 8.00033C1.33301 9.84033 2.82634 11.3337 4.66634 11.3337H7.33301V10.0003ZM5.33301 7.33366H10.6663V8.66699H5.33301V7.33366Z" fill="white"/>
<path d="M11.333 4.66699H8.66634V6.00033H11.333C12.433 6.00033 13.333 6.90033 13.333 8.00033C13.333 9.10033 12.433 10.0003 11.333 10.0003H8.66634V11.3337H11.333C13.173 11.3337 14.6663 9.84033 14.6663 8.00033C14.6663 6.16033 13.173 4.66699 11.333 4.66699ZM7.33301 10.0003H4.66634C3.56634 10.0003 2.66634 9.10033 2.66634 8.00033C2.66634 6.90033 3.56634 6.00033 4.66634 6.00033H7.33301V4.66699H4.66634C2.82634 4.66699 1.33301 6.16033 1.33301 8.00033C1.33301 9.84033 2.82634 11.3337 4.66634 11.3337H7.33301V10.0003ZM5.33301 7.33366H10.6663V8.66699H5.33301V7.33366Z" fill="white"/>
</svg>
