<svg width="28" height="28" viewBox="0 0 28 28" fill="none" xmlns="http://www.w3.org/2000/svg">
<circle cx="14" cy="14" r="14" fill="#B0E0D4"/>
<path d="M16.0837 13.7913C16.659 13.7913 17.1253 13.325 17.1253 12.7497C17.1253 12.1744 16.659 11.708 16.0837 11.708C15.5084 11.708 15.042 12.1744 15.042 12.7497C15.042 13.325 15.5084 13.7913 16.0837 13.7913Z" fill="#138E6E"/>
<path d="M11.9167 13.7913C12.492 13.7913 12.9583 13.325 12.9583 12.7497C12.9583 12.1744 12.492 11.708 11.9167 11.708C11.3414 11.708 10.875 12.1744 10.875 12.7497C10.875 13.325 11.3414 13.7913 11.9167 13.7913Z" fill="#138E6E"/>
<path d="M23.1163 14.55C23.1497 14.375 23.1663 14.1917 23.1663 14C23.1663 13.8083 23.1497 13.625 23.1163 13.45C22.908 12.1917 21.983 11.1667 20.7747 10.8083C20.333 9.875 19.708 9.05833 18.9497 8.38333C17.633 7.20833 15.8997 6.5 13.9997 6.5C12.0997 6.5 10.3663 7.20833 9.04967 8.38333C8.28301 9.05833 7.65801 9.88333 7.22467 10.8083C6.01634 11.1667 5.09134 12.1833 4.88301 13.45C4.84967 13.625 4.83301 13.8083 4.83301 14C4.83301 14.1917 4.84967 14.375 4.88301 14.55C5.09134 15.8083 6.01634 16.8333 7.22467 17.1917C7.65801 18.1167 8.28301 18.9333 9.03301 19.6C10.3497 20.7833 12.0913 21.5 13.9997 21.5C15.908 21.5 17.6497 20.7833 18.9747 19.6C19.7247 18.9333 20.3497 18.1083 20.783 17.1917C21.983 16.8333 22.908 15.8167 23.1163 14.55ZM19.833 15.6667C19.7497 15.6667 19.6747 15.65 19.5913 15.6417C19.4247 16.2 19.183 16.7167 18.8747 17.1917C17.833 18.7833 16.0413 19.8333 13.9997 19.8333C11.958 19.8333 10.1663 18.7833 9.12467 17.1917C8.81634 16.7167 8.57467 16.2 8.40801 15.6417C8.32467 15.65 8.24967 15.6667 8.16634 15.6667C7.24967 15.6667 6.49967 14.9167 6.49967 14C6.49967 13.0833 7.24967 12.3333 8.16634 12.3333C8.24967 12.3333 8.32467 12.35 8.40801 12.3583C8.57467 11.8 8.81634 11.2833 9.12467 10.8083C10.1663 9.21667 11.958 8.16667 13.9997 8.16667C16.0413 8.16667 17.833 9.21667 18.8747 10.8083C19.183 11.2833 19.4247 11.8 19.5913 12.3583C19.6747 12.35 19.7497 12.3333 19.833 12.3333C20.7497 12.3333 21.4997 13.0833 21.4997 14C21.4997 14.9167 20.7497 15.6667 19.833 15.6667ZM10.2497 15.6667C10.883 17.1417 12.3247 18.1667 13.9997 18.1667C15.6747 18.1667 17.1163 17.1417 17.7497 15.6667H10.2497Z" fill="#138E6E"/>
</svg>
