<svg width="208" height="121" viewBox="0 0 208 121" fill="none" xmlns="http://www.w3.org/2000/svg">
<rect x="0.46648" y="1.3991" width="206.184" height="118.367" rx="3.26536" fill="white"/>
<rect x="0.46648" y="1.3991" width="206.184" height="118.367" rx="3.26536" fill="white"/>
<rect x="0.46648" y="1.3991" width="206.184" height="118.367" rx="3.26536" stroke="#CED4DA" stroke-width="0.932961"/>
<path d="M112.35 88.7005C120.276 88.7005 126.701 82.2757 126.701 74.3503C126.701 66.4248 120.276 60 112.35 60C104.425 60 98 66.4248 98 74.3503C98 82.2757 104.425 88.7005 112.35 88.7005Z" fill="#F6F5FF"/>
<path fill-rule="evenodd" clip-rule="evenodd" d="M126.701 74.3503C126.701 82.2757 120.276 88.7005 112.35 88.7005C104.425 88.7005 98 82.2757 98 74.3503C98 66.4248 104.425 60 112.35 60C120.276 60 126.701 66.4248 126.701 74.3503ZM124.692 74.351C124.692 81.1669 119.167 86.6922 112.351 86.6922C105.535 86.6922 100.01 81.1669 100.01 74.351C100.01 67.5351 105.535 62.0098 112.351 62.0098C119.167 62.0098 124.692 67.5351 124.692 74.351Z" fill="#0000FF"/>
<path d="M111.759 81.6323V79.8361C110.851 79.8184 109.912 79.4982 109.364 79.0536L109.74 77.862C110.391 78.35 111.181 78.6178 111.994 78.6267C113.106 78.6267 113.857 77.8976 113.857 76.8839C113.857 75.9057 113.247 75.3011 112.088 74.7675C110.491 74.0561 109.505 73.238 109.505 71.6908C109.505 70.2146 110.429 69.0942 111.869 68.8275V67.0312H112.84V68.7564C113.563 68.7663 114.269 68.9822 114.875 69.3788L114.483 70.5526C113.903 70.1551 113.215 69.9441 112.511 69.9479C111.306 69.9479 110.851 70.766 110.851 71.4774C110.851 72.4022 111.431 72.8645 112.793 73.5048C114.405 74.2518 115.219 75.1766 115.219 76.7593C115.219 78.1643 114.358 79.4805 112.746 79.7826V81.6323H111.759Z" fill="#0000FF"/>
<path d="M176.953 45.5471C176.707 45.3575 176.417 45.2307 176.111 45.1775C175.788 45.1033 175.458 45.0566 175.13 45.0048L170.878 44.3918C170.449 44.3121 170.012 44.2889 169.576 44.3227C169.358 44.3406 169.146 44.4018 168.951 44.5026C168.757 44.6034 168.584 44.7418 168.444 44.9099C168.317 45.0662 168.247 45.2612 168.247 45.4624C168.27 45.665 168.336 45.8603 168.44 46.0358C168.481 46.1177 168.516 46.2026 168.545 46.2896C168.586 46.4849 168.637 46.678 168.697 46.8681C168.716 46.9092 168.741 46.9476 168.77 46.9821C168.771 46.9918 168.771 47.0016 168.77 47.0114C168.723 47.2497 168.874 47.4984 168.806 47.7281C168.748 47.9249 168.556 48.0441 168.435 48.2081C168.354 48.3245 168.31 48.462 168.307 48.6035C168.304 48.7451 168.342 48.8844 168.418 49.0042C168.547 49.2045 168.782 49.3409 168.849 49.5706C168.937 49.8728 168.699 50.1646 168.487 50.3977C168.096 50.8269 167.735 51.2821 167.406 51.7602C167.313 51.8778 167.254 52.0178 167.233 52.166C167.214 52.4665 167.502 52.7307 167.452 53.0294C167.413 53.2643 167.183 53.4076 166.984 53.5475C166.251 54.031 165.662 54.8081 165.603 55.687C165.415 54.2886 164.835 52.9717 163.931 51.888C163.684 51.591 163.413 51.2922 163.311 50.9158C163.273 50.7656 163.267 50.605 163.215 50.4599C163.042 50.0023 162.493 49.8054 162.253 49.3841C162.08 49.0871 162.08 48.7054 161.866 48.4447C161.652 48.1839 161.315 48.1252 161.13 47.8731C161.038 47.7023 160.96 47.5245 160.896 47.3412C160.818 47.1918 160.709 47.061 160.576 46.9579C160.551 46.9375 160.524 46.9185 160.497 46.9009C160.525 46.8752 160.548 46.8438 160.564 46.8087C160.58 46.7736 160.588 46.7356 160.588 46.6971C160.588 46.4951 160.388 46.3621 160.214 46.262C159.989 46.1342 159.77 45.996 159.556 45.8527C159.789 45.7439 159.992 45.5783 160.144 45.3709C160.336 45.0616 160.415 44.6957 160.369 44.3348C160.357 44.0435 160.248 43.7646 160.06 43.5422C159.951 43.4265 159.815 43.3436 159.701 43.2348C159.405 42.9464 159.305 42.5199 159.183 42.1262C159.02 41.6082 158.766 41.0642 158.293 40.7896C158.065 40.6567 157.799 40.5945 157.577 40.4546C157.354 40.3148 157.167 40.0506 157.245 39.7967C157.297 39.624 157.457 39.5049 157.566 39.3581C157.696 39.1683 157.746 38.9349 157.705 38.7087C157.664 38.4824 157.535 38.2814 157.347 38.1493C157.219 38.0681 157.062 37.9973 157.036 37.8488C156.936 37.8229 156.846 37.7692 156.775 37.6941C156.704 37.619 156.656 37.5254 156.636 37.424C156.597 37.221 156.597 37.0124 156.636 36.8093C156.68 36.4881 156.725 36.1681 156.768 35.8492C156.845 35.8808 156.926 35.8971 157.009 35.8971C157.091 35.8971 157.172 35.8808 157.249 35.8492C157.398 36.0917 157.572 36.3185 157.767 36.5261C158.292 37.1471 158.702 37.8578 158.975 38.6242C159.074 38.9005 159.174 39.2096 159.43 39.3564C159.518 39.4064 159.618 39.4323 159.704 39.4859C159.811 39.5601 159.902 39.6539 159.973 39.7622C160.181 40.0367 160.388 40.3096 160.593 40.5841L160.604 40.6256C160.609 40.6499 160.619 40.6732 160.631 40.6947C160.67 40.7377 160.723 40.7648 160.78 40.7706C161.415 40.9174 162.129 41.0521 162.679 40.705C163.177 40.3942 163.394 39.7794 163.816 39.3685C164.114 39.0766 164.538 38.8504 164.622 38.4394C164.521 38.4083 164.422 38.372 164.325 38.3306C164.411 38.2443 164.498 38.1441 164.615 38.0302C164.786 37.8631 164.94 37.6798 165.075 37.4827C165.22 37.2397 165.336 36.9799 165.42 36.7091C165.753 35.7605 166.086 34.8113 166.421 33.8616C166.58 33.4126 166.739 32.9602 166.94 32.5233C167.147 32.0501 167.392 31.596 167.618 31.1315C168.202 29.9234 168.652 28.6553 168.962 27.3497C169.016 27.1716 169.035 26.9842 169.015 26.7988C168.967 26.5001 168.741 26.2652 168.525 26.0528C168.308 25.8179 168.06 25.6129 167.789 25.4433C167.653 25.3586 167.501 25.3018 167.343 25.2763C167.185 25.2509 167.023 25.2571 166.867 25.2948C166.425 25.4243 166.147 25.8767 166.045 26.3309C165.943 26.785 165.981 27.253 165.938 27.7123C165.876 28.3772 165.648 29.0195 165.593 29.6861C165.563 30.0712 165.593 30.4614 165.546 30.8465C165.461 31.3505 165.285 31.8349 165.028 32.2763C164.468 33.3291 163.71 34.2638 162.795 35.0289C162.69 35.117 162.581 35.2016 162.477 35.2966C162.477 35.2223 162.489 35.1463 162.5 35.0721C162.425 35.0916 162.351 35.1176 162.281 35.1498C162.289 35.0626 162.28 34.9745 162.255 34.8908C162.116 34.4781 161.502 34.3727 161.391 33.9531C161.373 33.8493 161.363 33.7442 161.362 33.6388C161.326 33.271 161.075 32.9602 160.989 32.6027C160.909 32.2729 160.97 31.912 160.816 31.6063C160.685 31.4152 160.531 31.2412 160.357 31.0883C160.149 30.8513 160 30.5693 159.92 30.2646C159.898 30.18 159.877 30.0919 159.853 30.0073C159.879 29.8157 159.857 29.6206 159.79 29.4392C159.633 29.0489 159.227 28.7985 159.081 28.4031C158.967 28.0957 159.017 27.7123 158.801 27.474C158.686 27.3602 158.546 27.2755 158.392 27.2271C157.601 26.9193 156.772 26.7234 155.928 26.6451C155.454 26.602 154.933 26.5778 154.594 26.2445C154.199 25.8577 154.18 25.1618 153.717 24.863C153.31 24.5988 152.733 24.794 152.417 25.1652C152.369 25.2199 152.326 25.2775 152.286 25.3379C152.228 25.1065 152.216 24.8661 152.249 24.6299C152.249 24.5712 152.261 24.5108 152.267 24.4572C153.046 24.2024 153.71 23.6785 154.139 22.9791C154.139 22.9791 154.139 22.9791 154.139 22.9894L154.159 23.043C154.209 23.169 154.289 23.2899 154.406 23.3037C154.484 23.3028 154.56 23.2754 154.62 23.226C154.724 23.1536 154.821 23.0702 154.907 22.9773C154.951 22.929 154.992 22.8789 155.031 22.8271C155.111 22.7193 155.179 22.6035 155.235 22.4817C155.321 22.2985 155.379 22.1035 155.408 21.9033C155.439 21.7029 155.442 21.4974 155.477 21.2971C155.509 21.1421 155.551 20.9892 155.603 20.8395C155.62 20.7894 155.637 20.7394 155.653 20.6893C155.668 20.6392 155.691 20.5719 155.708 20.5166C155.816 20.1614 155.874 19.793 155.881 19.4218C155.881 19.3596 155.881 19.2975 155.881 19.2353C155.875 18.993 155.82 18.7545 155.72 18.5336C155.621 18.3127 155.478 18.1139 155.301 17.9488C155.004 17.7053 154.61 17.6034 154.392 17.2736C154.251 17.0526 154.22 16.7677 154.137 16.5086C154.047 16.1986 153.873 15.92 153.633 15.7042C153.393 15.4884 153.097 15.3441 152.779 15.2878C152.397 15.2458 152.013 15.3514 151.705 15.583L151.681 15.602C151.51 15.7328 151.365 15.8945 151.253 16.0786C151.025 16.0158 150.816 15.8971 150.645 15.7333C150.472 15.5727 150.339 15.3706 150.165 15.2152C150.002 15.066 149.802 14.9632 149.586 14.9176C149.369 14.8721 149.145 14.8854 148.936 14.9562C148.72 15.0426 148.528 15.1789 148.375 15.3539C148.222 15.5289 148.113 15.7376 148.057 15.9629C147.962 16.3187 147.979 16.7279 147.78 17.0249C147.627 17.2563 147.374 17.3703 147.198 17.581C147.089 17.7144 147.014 17.8728 146.981 18.0421C146.96 18.1367 146.95 18.2335 146.951 18.3304C146.951 18.3736 146.951 18.4168 146.962 18.4582C146.962 18.4582 146.962 18.472 146.962 18.4789C146.968 18.5263 146.978 18.573 146.991 18.6188C147.04 18.7939 147.128 18.9556 147.248 19.092C147.362 19.2226 147.505 19.3253 147.665 19.3924C147.73 19.4179 147.797 19.4392 147.865 19.4563L148.07 19.503L148.143 19.5202C147.895 19.9858 147.757 20.5022 147.741 21.0294C147.724 21.5567 147.828 22.0808 148.046 22.5612C148.046 22.6095 148.034 22.6579 148.029 22.7062C148.001 23.3862 148.031 24.0673 148.119 24.7422C148.143 25.0098 148.157 25.3051 147.993 25.5175C147.918 25.6011 147.834 25.6758 147.742 25.7403C147.836 25.6194 147.931 25.5002 148.027 25.3811C147.784 25.1359 147.399 25.1048 147.053 25.129C146.385 25.1789 145.736 25.3771 145.154 25.7092C144.767 25.932 144.37 26.2272 143.928 26.1754C143.667 26.1461 143.41 26.0028 143.156 26.0718C143.013 26.1302 142.88 26.2093 142.76 26.3067C142.666 26.3744 142.552 26.4096 142.436 26.4068C142.165 26.0736 141.745 25.8473 141.42 25.5762C141.051 25.2473 140.713 24.8849 140.41 24.4935C139.851 23.8183 139.293 23.1414 138.744 22.4593C138.281 21.886 137.806 21.2661 137.725 20.5321C137.717 20.4593 137.713 20.3861 137.713 20.3128C137.724 19.9641 137.768 19.6172 137.844 19.2767C137.865 19.1945 137.865 19.1086 137.844 19.0263C137.792 18.8537 137.594 18.7898 137.423 18.7518C137.445 18.6188 137.461 18.4824 137.469 18.3529C137.566 16.8678 137.461 15.3586 137.775 13.9046C137.894 13.3451 138.089 12.7787 138.492 12.3729C139.122 11.7357 140.177 11.582 140.661 10.8273C141.065 10.1988 140.904 9.30946 140.396 8.75514C139.889 8.20083 139.106 7.97461 138.362 8.00224C138.153 7.99508 137.947 8.05039 137.77 8.16111C137.604 8.30823 137.48 8.49646 137.411 8.70679L136.67 10.5079C136.455 10.9768 136.274 11.4604 136.128 11.955C135.92 12.7113 135.874 13.5091 135.71 14.2724C135.71 14.8595 135.332 15.5917 135.124 16.1322C134.893 16.74 134.643 17.341 134.434 17.9609C134.382 18.1163 134.2 18.5774 134.088 18.997C134.046 19.0217 134.006 19.0512 133.971 19.0851C133.881 19.2006 133.799 19.3224 133.726 19.4494C133.568 19.6566 133.313 19.7672 133.14 19.9675C132.968 20.1678 132.931 20.5356 133.171 20.6358C133.22 20.6521 133.27 20.6631 133.322 20.6686C133.353 20.6712 133.384 20.6764 133.415 20.6841C133.674 20.7566 133.776 21.083 133.738 21.3524C133.7 21.6218 133.565 21.8704 133.543 22.1398C133.496 22.6164 133.776 23.0602 134.045 23.4609C134.324 23.8951 134.632 24.31 134.967 24.7025C135.211 24.9753 135.485 25.2205 135.73 25.483C136.665 26.4431 137.407 27.5655 138.246 28.6086C138.548 29.0022 138.892 29.3623 139.27 29.6826C139.518 29.8761 139.777 30.0543 140.046 30.2162L141.489 31.1315C141.653 31.2514 141.838 31.3388 142.035 31.3888C142.099 31.3974 142.164 31.3974 142.229 31.3888C142.237 31.4319 142.244 31.4734 142.254 31.5165C142.367 31.969 142.614 32.38 142.641 32.841C142.669 33.3021 142.627 33.7735 142.66 34.2398C142.691 34.6697 142.786 35.1032 142.81 35.5262C142.859 36.3413 142.659 37.146 142.465 37.9438C142.173 39.1112 141.997 40.3027 141.429 41.3612C141.27 41.6531 141.084 41.9501 141.084 42.2833C141.084 42.3231 141.084 42.3645 141.094 42.4042L140.835 42.551C140.759 42.5942 140.683 42.6373 140.614 42.6822C140.286 42.8964 139.935 43.1329 139.801 43.5025C139.692 43.8012 139.742 44.1431 139.611 44.4333C139.604 44.4463 139.597 44.459 139.59 44.4712C139.452 44.7406 139.177 44.9409 139.115 45.2362C139.068 45.4624 139.158 45.7025 139.115 45.927C139.115 45.927 139.115 45.927 139.115 45.9356C139.076 46.0483 139.045 46.1638 139.022 46.281C139.02 46.3193 139.023 46.3576 139.032 46.3949C139.065 46.5258 139.137 46.6433 139.239 46.7317C139.302 46.7914 139.369 46.8452 139.441 46.8923C139.515 46.9406 139.591 46.9855 139.669 47.027L139.714 47.0511C139.78 47.0857 139.846 47.1185 139.913 47.1496L139.958 47.1686C140.035 47.2031 140.115 47.2342 140.194 47.2618L140.25 47.2791C140.312 47.2998 140.376 47.3188 140.44 47.3343L140.483 47.3481L140.522 47.3568L140.695 47.393L140.759 47.4051C140.835 47.4178 140.913 47.4282 140.992 47.4362H141.061C141.12 47.4362 141.177 47.4449 141.234 47.4466H141.315C141.375 47.4466 141.434 47.4466 141.488 47.4466H141.55C141.631 47.4466 141.712 47.4345 141.793 47.4241H141.819C141.892 47.4138 141.964 47.4017 142.037 47.3861L142.092 47.3741C142.159 47.3585 142.227 47.343 142.294 47.3222L142.33 47.3119C142.412 47.2877 142.493 47.2618 142.572 47.2307C142.847 47.1178 143.114 46.9856 143.37 46.8353C143.543 46.7403 143.715 46.6436 143.888 46.5555C144.016 46.491 144.148 46.4333 144.282 46.3828C144.608 46.2433 144.964 46.1841 145.318 46.2102C145.493 46.234 145.666 46.2692 145.836 46.3155C145.836 46.3345 145.836 46.3535 145.836 46.3725C145.976 47.2014 146.115 48.0302 146.252 48.8591C146.478 48.6964 146.717 48.5526 146.967 48.4291C146.92 48.5543 146.89 48.6848 146.875 48.8177C146.865 48.9205 146.865 49.024 146.875 49.1268C146.891 49.2908 146.926 49.4722 146.827 49.6017C146.767 49.6811 146.654 49.726 146.622 49.8158C146.598 49.9076 146.592 50.0032 146.604 50.0973C146.597 50.2046 146.552 50.3058 146.476 50.3825C146.401 50.4592 146.301 50.5063 146.193 50.5152C146.243 50.6542 146.244 50.8058 146.197 50.9455C146.149 51.0852 146.056 51.205 145.933 51.2853C145.86 51.3201 145.793 51.3642 145.732 51.4166C145.673 51.4929 145.634 51.5823 145.617 51.6773C145.388 52.5325 144.919 53.304 144.264 53.8998C144.019 54.0927 143.795 54.3115 143.596 54.5525C143.473 54.7391 143.372 54.9389 143.294 55.1483C142.834 56.2742 142.366 57.4006 141.892 58.5277C141.629 59.158 141.374 59.7986 141.291 60.4773C141.084 62.3388 139.426 63.9171 139.737 65.7648C139.8 66.2264 139.986 66.6625 140.275 67.0271C140.621 67.4433 141.139 67.6816 141.657 67.875C142.988 68.3931 144.392 68.6763 145.791 68.9612L147.988 69.4119C148.419 69.511 148.856 69.5803 149.296 69.6191C149.827 69.6554 150.371 69.6053 150.887 69.74C151.206 69.8229 151.512 69.9766 151.842 69.9938C152.125 70.0094 152.474 69.949 152.641 70.1803C152.809 70.4117 152.679 70.7174 152.838 70.9229C153.094 71.2493 153.717 70.9229 153.995 71.2303C154.071 71.3483 154.129 71.4769 154.168 71.6119C154.21 71.6954 154.269 71.7694 154.341 71.8295C154.357 71.9269 154.364 72.0259 154.361 72.1248C154.325 72.5258 154.242 72.9211 154.113 73.3025C153.905 74.0035 153.699 74.7052 153.493 75.4075C153.414 75.6555 153.356 75.9096 153.32 76.1673C153.307 76.2924 153.307 76.4186 153.32 76.5437C153.356 76.9254 153.576 77.3191 153.94 77.4434C154.223 77.5181 154.523 77.481 154.779 77.3398C155.026 77.2108 155.258 77.0544 155.47 76.8736C155.852 76.5843 156.188 76.2384 156.466 75.8478C157.33 74.5561 157.05 72.8086 157.656 71.3805C158.058 70.4273 158.842 69.6537 159.103 68.6486C159.164 68.4574 159.171 68.2531 159.124 68.0581C159.015 67.7127 158.647 67.5158 158.304 67.3915H158.288C158.006 67.291 157.717 67.2085 157.425 67.1446C157.352 67.129 157.278 67.1169 157.204 67.1049C157.039 66.9712 156.909 66.8008 156.822 66.6075C156.808 66.5048 156.781 66.4043 156.741 66.3088C156.713 66.2676 156.676 66.2336 156.633 66.2096C156.59 66.1856 156.542 66.1722 156.492 66.1706C156.319 66.1534 156.088 66.2155 155.9 66.2017C155.515 66.1741 155.259 65.7959 154.914 65.6215C154.568 65.4471 154.194 65.4903 153.826 65.5162C153.694 65.5342 153.561 65.5259 153.432 65.492C153.279 65.4214 153.139 65.325 153.018 65.2071C152.805 65.0417 152.557 64.928 152.293 64.8749C152.029 64.8219 151.756 64.831 151.496 64.9014C151.331 64.9682 151.156 65.0078 150.978 65.0188C150.642 64.9998 150.403 64.6994 150.155 64.4714C149.474 63.848 148.506 63.684 147.68 63.2747C147.554 63.2277 147.448 63.1371 147.383 63.0192C147.288 62.7843 147.502 62.5495 147.696 62.3889L149.115 61.2094C150.669 59.9178 152.612 58.9456 153.334 57.0512C153.409 56.7972 153.526 56.5574 153.679 56.3415C153.735 56.2756 153.8 56.2175 153.871 56.1688C154.185 55.9654 154.565 55.8911 154.933 55.9616C155.381 56.0618 155.805 56.2471 156.183 56.5073C156.801 56.8814 157.403 57.2843 157.988 57.7161C158.567 58.1301 159.118 58.5823 159.637 59.0699C160.543 59.9333 161.298 60.9573 162.142 61.8881C162.987 62.8189 163.952 63.6875 165.125 64.133C166.297 64.5785 167.715 64.5595 168.722 63.8118C169.884 62.9484 170.257 61.4046 170.55 59.9886C171.198 59.3635 171.393 58.412 171.709 57.571C171.908 57.0374 172.161 56.5349 172.376 56.003C172.631 55.3779 172.831 54.7321 173.032 54.088C173.259 53.4412 173.413 52.771 173.491 52.09C173.574 51.0142 173.286 49.8693 173.588 48.8591C173.987 48.7711 174.349 48.5466 174.741 48.4153C175.325 48.2237 175.95 48.2547 176.568 48.2582H176.608C176.821 48.2809 177.035 48.2303 177.216 48.1149C177.423 47.9422 177.456 47.6469 177.466 47.3792C177.49 46.7179 177.449 45.9753 176.953 45.5471ZM151.933 16.0907C151.791 16.1261 151.643 16.1366 151.496 16.1218L151.933 16.0907Z" fill="url(#paint0_linear_2107:6938)"/>
<path d="M152.614 27.0152C152.405 27.1928 152.16 27.323 151.896 27.3969L150.672 27.8355C150.007 28.0738 149.312 28.3138 148.611 28.2275C148.219 28.1791 146.539 27.9322 146.285 27.6265C145.899 27.1534 147.254 26.4575 147.717 26.0586C147.822 25.9831 147.919 25.8975 148.007 25.803C148.18 25.5923 148.157 25.297 148.133 25.0311C148.045 24.3574 148.015 23.6774 148.043 22.9986C148.057 22.8368 148.08 22.6759 148.112 22.5168C148.285 21.7225 149.024 22.0126 149.608 22.2233C150.31 22.4515 150.99 22.7458 151.637 23.1022C151.834 23.2038 152.005 23.3491 152.138 23.527C152.393 23.9138 152.291 24.4215 152.25 24.9085C152.214 25.2867 152.215 25.6493 152.452 25.9239C152.571 26.0288 152.68 26.1444 152.778 26.2692C152.834 26.3949 152.847 26.5349 152.818 26.669C152.788 26.8031 152.717 26.9243 152.614 27.0152Z" fill="#BE6F72"/>
<path d="M135.702 14.5701C135.874 13.8051 135.912 13.0159 136.12 12.2578C136.266 11.7649 136.447 11.2831 136.662 10.8159L137.423 9.03901C137.493 8.82919 137.617 8.64153 137.783 8.49505C137.96 8.3851 138.166 8.32985 138.375 8.33619C139.119 8.30856 139.901 8.53995 140.409 9.08736C140.917 9.63477 141.077 10.5206 140.673 11.1475C140.19 11.9021 139.135 12.0541 138.504 12.6895C138.102 13.0953 137.907 13.66 137.788 14.2178C137.473 15.6683 137.579 17.1724 137.482 18.654C137.451 19.1151 137.361 19.6418 136.964 19.8801C136.724 19.9977 136.457 20.0495 136.19 20.0303L135.058 20.0493C134.868 20.0493 134.179 20.1685 134.053 20.0251C133.832 19.7747 134.336 18.528 134.427 18.2499C134.631 17.6335 134.881 17.0325 135.118 16.4264C135.324 15.8859 135.702 15.1555 135.702 14.5701Z" fill="#BE6F72"/>
<path d="M159.092 68.8199C158.831 69.818 158.047 70.5951 157.645 71.5466C157.039 72.9712 157.311 74.7136 156.455 76.0018C156.177 76.3931 155.841 76.7396 155.458 77.0293C155.246 77.2096 155.015 77.3654 154.768 77.4938C154.512 77.635 154.211 77.6721 153.928 77.5974C153.564 77.4731 153.345 77.0794 153.309 76.6995C153.296 76.5749 153.296 76.4493 153.309 76.3247C153.345 76.0677 153.403 75.8141 153.481 75.5667C153.688 74.8679 153.895 74.1679 154.101 73.4668C154.23 73.0866 154.314 72.6924 154.35 72.2926C154.372 71.8574 154.096 71.291 154.213 70.8852C154.267 70.7022 154.467 70.5398 154.559 70.3862C154.689 70.165 154.789 69.9274 154.856 69.6799C154.997 69.1981 155.094 68.6835 155.391 68.2777C155.585 68.037 155.812 67.8248 156.065 67.6474C156.251 67.4837 156.47 67.3608 156.707 67.2865C156.937 67.2461 157.173 67.2573 157.398 67.3193C157.691 67.3819 157.979 67.4638 158.261 67.5645H158.277C158.622 67.6888 158.988 67.8805 159.097 68.2293C159.15 68.4229 159.148 68.6273 159.092 68.8199Z" fill="#222B45"/>
<path d="M177.465 47.5897C177.455 47.8573 177.422 48.1561 177.215 48.3236C177.034 48.439 176.82 48.4896 176.607 48.4669H176.56C175.944 48.4669 175.317 48.4324 174.733 48.624C174.29 48.7708 173.882 49.0402 173.419 49.0937C172.782 49.1663 172.183 48.8174 171.618 48.5135C171.086 48.2271 170.541 47.9677 169.983 47.7364C169.617 47.5862 168.869 47.4895 168.693 47.0889C168.633 46.8993 168.582 46.7068 168.541 46.5121C168.512 46.4251 168.477 46.3403 168.436 46.2583C168.332 46.0833 168.266 45.8886 168.242 45.6867C168.243 45.4854 168.312 45.2905 168.439 45.1341C168.58 44.9673 168.752 44.8301 168.946 44.7302C169.141 44.6303 169.353 44.5698 169.57 44.5522C170.005 44.5183 170.443 44.5416 170.872 44.6212L175.124 45.2325C175.452 45.2792 175.782 45.3258 176.104 45.4052C176.411 45.4584 176.7 45.5852 176.947 45.7748C177.45 46.1961 177.491 46.9369 177.465 47.5897Z" fill="#222B45"/>
<path d="M173.728 48.6955C173.21 49.7885 173.583 51.0819 173.49 52.2907C173.411 52.97 173.257 53.6385 173.03 54.2835C172.83 54.9259 172.63 55.57 172.374 56.1934C172.16 56.7114 171.906 57.2295 171.708 57.7579C171.392 58.6006 171.19 59.5486 170.549 60.1755C170.255 61.588 169.882 63.1318 168.72 63.9883C167.71 64.7343 166.303 64.7602 165.123 64.3095C163.944 63.8588 162.985 62.9954 162.141 62.0646C161.296 61.1338 160.542 60.1202 159.635 59.2533C159.116 58.7657 158.564 58.3139 157.983 57.9012C157.398 57.4764 156.796 57.0769 156.178 56.7028C155.8 56.4438 155.375 56.2592 154.928 56.1588C154.56 56.0883 154.18 56.1626 153.866 56.3661C153.795 56.4148 153.73 56.4728 153.674 56.5387C153.521 56.7539 153.404 56.9932 153.329 57.2467C152.604 59.1359 150.657 60.1064 149.103 61.3946L147.684 62.5706C147.49 62.7312 147.276 62.966 147.371 63.1991C147.437 63.317 147.542 63.4077 147.668 63.4547C148.494 63.8622 149.462 64.0263 150.143 64.6479C150.392 64.8759 150.63 65.1764 150.967 65.1936C151.144 65.1832 151.319 65.1441 151.485 65.0779C151.744 65.0076 152.017 64.9985 152.281 65.0512C152.545 65.104 152.793 65.2171 153.006 65.3818C153.127 65.4998 153.267 65.5961 153.42 65.6668C153.549 65.7007 153.683 65.7089 153.814 65.691C154.182 65.6651 154.572 65.6322 154.902 65.7963C155.232 65.9603 155.503 66.3471 155.888 66.3748C156.076 66.3886 156.301 66.3264 156.48 66.3437C156.53 66.3453 156.578 66.3586 156.621 66.3827C156.665 66.4067 156.702 66.4407 156.729 66.4818C156.769 66.5767 156.797 66.6767 156.81 66.7789C156.881 67.0223 157.119 67.1709 157.275 67.3712C157.513 67.6785 157.548 68.0964 157.523 68.485C157.445 69.6999 156.904 70.8384 156.011 71.6658C155.757 71.925 155.434 72.1049 155.08 72.1838C154.903 72.2209 154.718 72.2014 154.553 72.1279C154.387 72.0545 154.249 71.9309 154.158 71.7746C154.119 71.6401 154.061 71.5121 153.985 71.3947C153.707 71.089 153.084 71.4137 152.828 71.0873C152.669 70.8835 152.783 70.5572 152.631 70.3465C152.479 70.1358 152.113 70.1738 151.832 70.1617C151.502 70.1445 151.196 69.989 150.877 69.9079C150.359 69.7732 149.816 69.8233 149.286 69.787C148.846 69.7482 148.408 69.6789 147.977 69.5798L145.781 69.1308C144.382 68.8459 142.978 68.5575 141.647 68.0481C141.137 67.8547 140.625 67.6164 140.265 67.2019C139.976 66.8378 139.79 66.4023 139.727 65.9413C139.414 64.0988 141.072 62.5239 141.281 60.6676C141.355 59.9907 141.626 59.3517 141.882 58.7232C142.35 57.5996 142.818 56.4754 143.284 55.3507C143.359 55.1413 143.458 54.9409 143.577 54.7532C143.776 54.5128 144 54.2945 144.246 54.1022C144.9 53.5083 145.37 52.7386 145.598 51.8849C145.615 51.7899 145.654 51.7005 145.714 51.6242C145.775 51.5729 145.842 51.5294 145.914 51.4947C146.037 51.4144 146.13 51.2949 146.177 51.1556C146.225 51.0162 146.224 50.865 146.175 50.7262C146.282 50.7173 146.382 50.6703 146.458 50.5936C146.533 50.5169 146.578 50.4157 146.586 50.3083C146.573 50.2148 146.579 50.1198 146.603 50.0286C146.644 49.9388 146.748 49.8939 146.808 49.8144C146.907 49.6849 146.872 49.5036 146.857 49.3413C146.846 49.2385 146.846 49.135 146.857 49.0322C146.894 48.6665 147.058 48.3253 147.319 48.0669C147.732 47.6611 148.319 47.7664 148.889 47.6697C149.458 47.547 150.013 47.3695 150.547 47.1396C152.045 46.5492 153.623 46.1843 155.228 46.0569C156.842 45.93 158.462 46.188 159.956 46.8098C160.174 46.8978 160.379 47.0139 160.566 47.1551C160.699 47.2576 160.808 47.3878 160.885 47.5367C160.949 47.7196 161.028 47.8969 161.12 48.0669C161.305 48.319 161.654 48.4002 161.856 48.6385C162.058 48.8768 162.075 49.2791 162.243 49.5744C162.483 49.9958 163.039 50.1909 163.205 50.6485C163.256 50.7936 163.263 50.9524 163.301 51.1027C163.395 51.4791 163.674 51.7761 163.921 52.0731C164.827 53.1559 165.406 54.4732 165.593 55.8722C165.648 54.9967 166.237 54.2213 166.974 53.7378C167.173 53.6083 167.403 53.465 167.442 53.2301C167.492 52.9331 167.204 52.6689 167.223 52.3667C167.244 52.2192 167.304 52.0798 167.396 51.9626C167.725 51.4856 168.086 51.0316 168.477 50.6036C168.689 50.3705 168.927 50.0856 168.839 49.7782C168.772 49.5485 168.537 49.4138 168.408 49.2135C168.332 49.0941 168.293 48.955 168.296 48.8137C168.299 48.6724 168.344 48.5352 168.425 48.4192C168.546 48.2551 168.737 48.136 168.796 47.9408C168.863 47.7112 168.713 47.4625 168.76 47.2259C168.823 47.0365 168.948 46.874 169.116 46.7649C169.345 46.5562 169.605 46.3849 169.887 46.2572C170.343 46.0845 170.851 46.1484 171.335 46.2157C172.143 46.328 173.049 46.5007 173.505 47.1776C173.797 47.6006 173.946 48.243 173.728 48.6955Z" fill="#6F7086"/>
<path opacity="0.1" d="M177.466 47.5897C177.455 47.8573 177.422 48.1561 177.215 48.3236C177.035 48.439 176.82 48.4896 176.607 48.4669H176.561C176.631 48.1077 177.068 47.9022 177.144 47.5379C177.157 47.4259 177.147 47.3125 177.114 47.2047C177.082 47.0969 177.027 46.9969 176.954 46.911C176.585 46.412 175.991 46.1357 175.4 45.9336C173.732 45.3616 171.944 45.2278 170.209 45.5451C169.738 45.6219 169.279 45.7631 168.845 45.9647C168.702 46.0546 168.563 46.1526 168.431 46.2583C168.327 46.0833 168.261 45.8886 168.237 45.6867C168.238 45.4854 168.307 45.2905 168.434 45.1341C168.575 44.9673 168.747 44.8301 168.942 44.7302C169.136 44.6303 169.348 44.5698 169.565 44.5522C170 44.5183 170.438 44.5416 170.867 44.6212L175.119 45.2325C175.447 45.2792 175.777 45.3258 176.1 45.4052C176.406 45.4584 176.695 45.5852 176.942 45.7748C177.45 46.1961 177.491 46.9369 177.466 47.5897Z" fill="#101336"/>
<path opacity="0.1" d="M159.092 68.8205C158.831 69.8187 158.047 70.5957 157.645 71.5472C157.039 72.9719 157.311 74.7142 156.455 76.0024C156.177 76.3937 155.841 76.7402 155.458 77.0299C155.246 77.2102 155.015 77.3661 154.768 77.4944C154.512 77.6357 154.211 77.6728 153.928 77.598C153.564 77.4737 153.345 77.08 153.309 76.7001C153.296 76.5755 153.296 76.4499 153.309 76.3254L153.319 76.353C153.469 76.7156 153.714 77.0955 154.101 77.1594C154.246 77.1699 154.392 77.1503 154.529 77.1019C154.667 77.0534 154.792 76.9772 154.899 76.878C155.469 76.4203 155.8 75.7382 156.116 75.0803C156.364 74.6059 156.559 74.1063 156.7 73.5901C156.769 73.2965 156.802 72.996 156.873 72.7025C157.201 71.2761 158.318 70.1122 158.565 68.6669C158.585 68.5674 158.59 68.4655 158.579 68.3647C158.546 68.2331 158.496 68.1066 158.43 67.9882C158.37 67.8546 158.326 67.7143 158.299 67.5703C158.644 67.6946 159.011 67.8863 159.119 68.2351C159.164 68.4291 159.154 68.6316 159.092 68.8205Z" fill="#101336"/>
<path opacity="0.1" d="M156.484 66.3442C156.324 66.7621 156.055 67.1294 155.705 67.408C155.213 67.7825 154.638 68.0315 154.028 68.1332C153.744 68.2056 153.447 68.202 153.165 68.1229C152.781 67.9899 152.505 67.6307 152.113 67.5271C151.833 67.4511 151.533 67.5185 151.25 67.477C150.74 67.4062 150.345 67.0177 149.934 66.7069C148.675 65.7606 147.022 65.4549 145.764 64.5086C145.707 64.4742 145.661 64.4261 145.629 64.3687C145.605 64.3067 145.596 64.2398 145.603 64.1736C145.608 63.5996 145.737 63.0335 145.981 62.5141C146.181 62.1518 146.42 61.8119 146.693 61.5005C147.82 60.119 148.953 58.7272 150.303 57.5616C150.87 57.0729 151.488 56.617 152.203 56.396C152.6 56.2733 153.384 56.1576 153.868 56.3649C153.796 56.4136 153.732 56.4717 153.676 56.5375C153.522 56.7527 153.405 56.992 153.331 57.2456C152.604 59.1364 150.657 60.1069 149.103 61.3951L147.684 62.5711C147.49 62.7317 147.276 62.9665 147.371 63.1997C147.437 63.3176 147.542 63.4082 147.668 63.4552C148.494 63.8628 149.462 64.0268 150.143 64.6485C150.391 64.8764 150.63 65.1769 150.967 65.1942C151.144 65.1837 151.319 65.1447 151.485 65.0785C151.744 65.0082 152.017 64.999 152.281 65.0518C152.545 65.1045 152.793 65.2177 153.006 65.3824C153.127 65.5003 153.267 65.5967 153.42 65.6673C153.549 65.7013 153.683 65.7095 153.814 65.6915C154.182 65.6656 154.572 65.6328 154.902 65.7968C155.232 65.9609 155.503 66.3477 155.888 66.3753C156.08 66.3891 156.304 66.3235 156.484 66.3442Z" fill="#101336"/>
<path d="M140.602 42.9079C140.274 43.1186 139.925 43.3569 139.791 43.723C139.68 44.0217 139.732 44.3636 139.599 44.6537C139.466 44.9438 139.167 45.1459 139.102 45.4567C139.055 45.6829 139.147 45.9212 139.102 46.1474C139.063 46.2651 139.031 46.385 139.007 46.5066C138.99 46.7639 139.211 46.9729 139.426 47.1162C139.886 47.4151 140.409 47.6021 140.954 47.662C141.499 47.722 142.051 47.6534 142.564 47.4616C143.025 47.2889 143.441 47.0074 143.883 46.7864C144.315 46.5381 144.808 46.4183 145.305 46.441C145.589 46.4721 145.862 46.5757 146.147 46.6137C146.288 46.6415 146.433 46.6347 146.571 46.5937C146.708 46.5528 146.834 46.4791 146.936 46.3788C147.024 46.2574 147.083 46.1174 147.109 45.9696C147.349 45.0216 147.24 44.0165 147.012 43.0633C146.784 42.1101 146.439 41.1932 146.196 40.2451C146.023 39.5423 145.89 38.8222 145.602 38.1574C145.313 37.4926 144.828 36.8743 144.149 36.6205C144.096 36.5942 144.035 36.5863 143.977 36.5981C143.933 36.6163 143.895 36.6447 143.864 36.6809C143.328 37.2498 142.923 37.9303 142.68 38.6737C142.409 39.5009 142.334 40.3781 142.086 41.2087C141.979 41.5541 141.841 42.0169 141.568 42.2811C141.295 42.5453 140.912 42.7093 140.602 42.9079Z" fill="#222B45"/>
<path opacity="0.1" d="M147.114 45.9631C147.085 46.1114 147.023 46.2513 146.932 46.3723C146.83 46.4729 146.705 46.5467 146.567 46.5874C146.429 46.628 146.284 46.6343 146.143 46.6055C145.86 46.5709 145.587 46.4656 145.302 46.4328C144.805 46.4098 144.312 46.5296 143.881 46.7781C143.439 46.9992 143.018 47.2738 142.56 47.4516C141.891 47.7055 141.159 47.7471 140.465 47.5708C140.097 47.4781 139.747 47.324 139.429 47.1149C139.212 46.9733 138.992 46.7695 139.01 46.5053C139.034 46.3843 139.066 46.2649 139.105 46.1479C139.15 45.9216 139.06 45.6833 139.105 45.4571C139.17 45.1463 139.471 44.9391 139.602 44.6524C139.733 44.3658 139.683 44.0221 139.792 43.7234C139.927 43.3556 140.277 43.119 140.605 42.9066C140.933 42.6942 141.324 42.5319 141.586 42.2746C141.62 42.2345 141.651 42.1918 141.678 42.1468C141.867 41.8549 142.006 41.5332 142.089 41.1953C142.343 40.363 142.412 39.4875 142.681 38.6586C142.925 37.9158 143.33 37.236 143.867 36.6675C143.896 36.6305 143.934 36.6018 143.978 36.5847C144.036 36.5728 144.097 36.5801 144.151 36.6054C144.827 36.8609 145.313 37.4792 145.603 38.144C145.893 38.8088 146.016 39.5254 146.197 40.23C146.439 41.178 146.786 42.0984 147.014 43.0499C147.242 44.0014 147.354 45.0133 147.114 45.9631Z" fill="#101336"/>
<path opacity="0.1" d="M152.25 24.903C151.438 25.161 150.559 25.1098 149.782 24.7591C149.006 24.4085 148.386 23.7832 148.043 23.0035C148.056 22.8417 148.079 22.6808 148.112 22.5217C148.285 21.7274 149.024 22.0175 149.607 22.2281C150.31 22.4564 150.989 22.7507 151.637 23.1071C151.834 23.2087 152.005 23.354 152.137 23.5319C152.393 23.9135 152.291 24.4212 152.25 24.903Z" fill="#101336"/>
<path d="M151.208 24.8917C153.115 24.8917 154.661 23.3455 154.661 21.438C154.661 19.5306 153.115 17.9844 151.208 17.9844C149.3 17.9844 147.754 19.5306 147.754 21.438C147.754 23.3455 149.3 24.8917 151.208 24.8917Z" fill="#BE6F72"/>
<path opacity="0.1" d="M160.578 47.2478C160.578 47.5345 160.19 47.626 159.901 47.6104C158.865 47.55 157.851 47.2651 156.826 47.3514C155.529 47.4688 154.337 48.1855 153.037 48.2511C152.536 48.277 152.027 48.2027 151.533 48.2943C150.894 48.4134 150.324 48.802 149.673 48.8572C149.108 48.9056 148.551 48.6932 147.986 48.7156C147.591 48.7392 147.206 48.8488 146.858 49.0368C146.896 48.6712 147.06 48.33 147.321 48.0715C147.734 47.6657 148.321 47.771 148.891 47.6743C149.459 47.5516 150.014 47.3741 150.549 47.1442C152.047 46.5538 153.625 46.1889 155.23 46.0615C156.843 45.9332 158.462 46.1895 159.956 46.8092C160.174 46.8972 160.379 47.0133 160.566 47.1546C160.575 47.1847 160.58 47.2163 160.578 47.2478Z" fill="#101336"/>
<path d="M149.61 27.7456L148.211 27.2275L147.62 27.0099C147.38 26.9091 147.127 26.8417 146.868 26.8096C146.191 26.7578 145.553 27.2085 145.193 27.7835C144.832 28.3586 144.695 29.0441 144.58 29.7124C144.421 30.6265 144.286 31.544 144.175 32.465C144.056 33.2967 143.996 34.1357 143.994 34.9758C144.034 37.1136 144.486 39.2221 144.984 41.3029C145.227 42.2255 145.411 43.1628 145.534 44.109C145.576 44.4993 145.595 44.8913 145.636 45.2833C145.681 45.7236 145.754 46.1588 145.826 46.5957L146.242 49.0771C146.761 48.7093 147.349 48.3864 147.987 48.3674C148.551 48.3467 149.111 48.5574 149.674 48.509C150.321 48.4555 150.895 48.0669 151.534 47.9478C152.027 47.8563 152.537 47.9288 153.039 47.9046C154.338 47.839 155.531 47.1206 156.826 47.0049C157.854 46.9117 158.874 47.2018 159.903 47.2622C160.19 47.2795 160.579 47.188 160.579 46.8996C160.579 46.6993 160.378 46.5663 160.204 46.4662C159.382 45.9712 158.599 45.4128 157.864 44.7963C157.184 44.2575 156.493 43.7049 156.025 42.9762C154.897 41.2235 155.284 38.8525 154.322 37.0031C153.54 35.5008 154.322 33.5322 154.322 31.8381C154.322 30.9937 154.322 30.1389 154.124 29.3187C154 28.8599 153.845 28.41 153.661 27.9718L152.989 26.2708C152.975 26.2211 152.948 26.1763 152.91 26.1413C152.865 26.1102 152.811 26.0939 152.756 26.0947C152.353 26.0705 151.955 26.198 151.641 26.4522C151.325 26.7095 151.123 27.079 150.812 27.3467C150.472 27.6419 150.033 27.901 149.61 27.7456Z" fill="#E3E8F4"/>
<path d="M151.866 26.764C151.977 26.2909 152.096 25.7987 152.412 25.4292C152.728 25.0596 153.305 24.8645 153.712 25.1287C154.175 25.4292 154.194 26.1234 154.59 26.5102C154.935 26.8417 155.453 26.8676 155.923 26.9108C156.767 26.9877 157.597 27.183 158.387 27.491C158.541 27.5388 158.681 27.6229 158.796 27.7362C159.012 27.9814 158.969 28.3579 159.076 28.6635C159.223 29.0572 159.629 29.3076 159.786 29.6996C159.958 30.1348 159.786 30.6218 159.641 31.069C159.38 31.872 159.216 32.706 158.962 33.5125C158.708 34.3189 158.347 35.1133 157.753 35.7211C157.491 35.9905 157.1 36.2391 156.755 36.0786L156.622 37.0369C156.583 37.2394 156.583 37.4475 156.622 37.65C156.642 37.7513 156.69 37.8449 156.761 37.92C156.832 37.9952 156.923 38.0488 157.023 38.0748C157.049 38.2233 157.206 38.2941 157.334 38.3752C157.428 38.4397 157.509 38.5223 157.571 38.6182C157.633 38.7141 157.675 38.8214 157.696 38.9338C157.716 39.0463 157.714 39.1616 157.69 39.2732C157.665 39.3849 157.619 39.4905 157.553 39.584C157.444 39.7308 157.284 39.8465 157.232 40.0209C157.154 40.273 157.339 40.539 157.563 40.6771C157.788 40.8153 158.052 40.8791 158.28 41.0121C158.753 41.285 159.007 41.822 159.169 42.3435C159.29 42.7372 159.39 43.1637 159.687 43.4504C159.801 43.5592 159.938 43.6421 160.046 43.7561C160.235 43.9785 160.344 44.2574 160.356 44.5487C160.403 44.9096 160.324 45.2758 160.131 45.5848C159.786 46.0786 159.142 46.2254 158.577 46.4482C157.66 46.8246 156.905 47.4981 156.097 48.0714C155.768 48.3365 155.38 48.5189 154.966 48.6033C154.407 48.6775 153.856 48.4306 153.293 48.4081C152.956 48.4113 152.621 48.4553 152.295 48.5394L151.259 48.7639C151.314 47.9609 150.872 47.1562 150.625 46.3912C150.159 44.951 150.072 43.4107 150.183 41.9014C150.293 40.3922 150.601 38.9037 150.905 37.422C151.117 36.3859 151.096 35.3032 151.423 34.2965C151.728 33.3277 152.165 32.3969 152.326 31.3885C152.588 29.7566 151.497 28.3734 151.866 26.764Z" fill="#222B45"/>
<path d="M159.722 29.9581C159.817 30.1336 159.884 30.323 159.921 30.5193C160.001 30.8235 160.15 31.1049 160.358 31.3413C160.531 31.4945 160.686 31.6685 160.817 31.8593C160.976 32.1598 160.915 32.5259 160.99 32.854C161.076 33.2114 161.326 33.5223 161.363 33.8901C161.364 33.9955 161.374 34.1006 161.392 34.2044C161.504 34.6223 162.119 34.7224 162.255 35.1403C162.347 35.4114 162.19 35.7067 162.219 35.9916C162.241 36.0798 162.246 36.171 162.235 36.261C162.196 36.3628 162.127 36.4506 162.038 36.5131C161.466 37.0591 161.071 37.7632 160.902 38.5353C160.735 39.3031 160.648 40.086 160.641 40.8717L159.966 39.9789C159.894 39.8706 159.803 39.7768 159.696 39.7026C159.61 39.6508 159.51 39.6249 159.422 39.5731C159.166 39.428 159.066 39.1207 158.968 38.8444C158.694 38.0795 158.285 37.3705 157.759 36.7514C157.484 36.4285 157.165 36.1039 157.104 35.6843C157.086 35.4915 157.097 35.2972 157.135 35.1075C157.308 33.9764 157.493 32.8177 158.044 31.8144C158.301 31.3447 158.634 30.9199 158.881 30.4433C159.047 30.1273 159.28 29.3053 159.722 29.9581Z" fill="#222B45"/>
<path d="M142.687 31.0435C142.69 31.1889 142.653 31.3323 142.58 31.458C142.514 31.5345 142.428 31.5911 142.331 31.6216C142.235 31.6521 142.132 31.6552 142.034 31.6307C141.838 31.5813 141.652 31.4945 141.488 31.3751C141.007 31.0712 140.526 30.7667 140.045 30.4616C139.776 30.2997 139.517 30.1221 139.269 29.9297C138.891 29.61 138.547 29.2505 138.245 28.8574C137.406 27.8213 136.664 26.6971 135.729 25.7491C135.476 25.49 135.211 25.2414 134.966 24.9703C134.631 24.5784 134.323 24.1641 134.044 23.7304C133.775 23.3315 133.495 22.8894 133.542 22.4128C133.569 22.1434 133.699 21.8948 133.737 21.6271C133.775 21.3594 133.673 21.0331 133.414 20.9605C133.383 20.9529 133.352 20.9477 133.321 20.945C133.269 20.9396 133.219 20.9286 133.17 20.9122C132.93 20.812 132.967 20.4408 133.139 20.2456C133.312 20.0505 133.567 19.9417 133.725 19.7276C133.798 19.6005 133.88 19.4788 133.97 19.3632C134.085 19.2641 134.224 19.1947 134.372 19.1612C135.368 18.8677 136.422 18.8279 137.437 19.0455C137.61 19.0835 137.807 19.1526 137.859 19.3201C137.879 19.4017 137.879 19.4871 137.859 19.5687C137.783 19.9092 137.739 20.2561 137.727 20.6048C137.727 20.6775 137.731 20.7502 137.74 20.8224C137.821 21.5546 138.296 22.1745 138.758 22.7461C139.307 23.4265 139.865 24.1017 140.425 24.7751C140.727 25.1654 141.066 25.5267 141.435 25.8544C141.78 26.141 142.228 26.3724 142.497 26.7403C142.716 27.0373 142.645 27.4431 142.67 27.8005C142.75 28.8799 142.756 29.9634 142.687 31.0435Z" fill="#222B45"/>
<path d="M164.618 38.2479C164.789 38.0821 164.943 37.8999 165.078 37.7039C165.223 37.4611 165.339 37.202 165.423 36.932L166.425 34.0914C166.583 33.6424 166.742 33.1917 166.943 32.7548C167.15 32.2834 167.395 31.8292 167.621 31.3733C168.203 30.1736 168.653 28.9143 168.963 27.6175C169.018 27.4393 169.036 27.252 169.017 27.0666C168.968 26.7679 168.742 26.5348 168.526 26.3224C168.309 26.0879 168.062 25.8835 167.791 25.7145C167.654 25.6298 167.503 25.5731 167.344 25.5476C167.186 25.5221 167.024 25.5284 166.868 25.566C166.426 25.6955 166.148 26.148 166.046 26.6021C165.945 27.0563 165.983 27.5208 165.939 27.9836C165.877 28.6467 165.649 29.2873 165.594 29.9522C165.565 30.3373 165.594 30.7258 165.547 31.1091C165.462 31.6126 165.287 32.0964 165.029 32.5372C164.468 33.5873 163.71 34.5195 162.797 35.2829C162.546 35.4677 162.321 35.6842 162.126 35.927C161.964 36.1699 161.854 36.444 161.804 36.7317C161.689 37.1699 161.739 37.6349 161.943 38.0389C162.225 38.519 162.765 38.7297 163.282 38.8367C163.979 38.9818 164.14 38.7435 164.618 38.2479Z" fill="#BE6F72"/>
<path d="M151.228 16.4342C151.377 16.1548 151.605 15.9254 151.883 15.7746C152.161 15.6238 152.478 15.5583 152.793 15.5863C153.11 15.6425 153.406 15.7865 153.646 16.002C153.886 16.2174 154.06 16.4958 154.15 16.8054C154.231 17.0627 154.264 17.3477 154.406 17.5687C154.62 17.902 155.017 17.9987 155.314 18.2404C155.491 18.4052 155.634 18.6037 155.734 18.8243C155.833 19.0449 155.888 19.2832 155.894 19.5252C155.911 20.0195 155.833 20.5124 155.665 20.9775C155.593 21.1759 155.536 21.379 155.492 21.5853C155.457 21.7856 155.454 21.9894 155.423 22.1897C155.385 22.4494 155.295 22.6989 155.159 22.9234C155.023 23.1479 154.843 23.3429 154.63 23.4969C154.57 23.5463 154.494 23.5737 154.416 23.5746C154.281 23.5591 154.199 23.4019 154.148 23.2603C153.874 22.4677 153.94 21.499 153.434 20.8669C153.203 20.612 152.925 20.4049 152.615 20.2574C152.489 20.1758 152.346 20.1222 152.197 20.1002C151.978 20.112 151.768 20.189 151.593 20.3213C151.228 20.5657 150.824 20.7446 150.398 20.8497C150.185 20.9 149.964 20.9023 149.75 20.8563C149.537 20.8103 149.336 20.7172 149.163 20.5837C148.925 20.3869 148.75 20.0916 148.486 19.9379C148.222 19.7842 147.946 19.7928 147.685 19.6875C147.519 19.6168 147.371 19.5092 147.253 19.3727C147.134 19.2362 147.049 19.0745 147.003 18.9C146.956 18.7254 146.95 18.5426 146.985 18.3655C147.021 18.1883 147.096 18.0215 147.205 17.8778C147.378 17.6706 147.633 17.5531 147.787 17.3235C147.985 17.0265 147.968 16.6189 148.063 16.2632C148.119 16.0381 148.228 15.8297 148.381 15.6552C148.534 15.4808 148.726 15.3452 148.942 15.2599C149.151 15.1889 149.376 15.1753 149.592 15.2205C149.808 15.2658 150.008 15.3682 150.172 15.5172C150.344 15.6726 150.482 15.8729 150.652 16.0353C150.819 16.1952 151.023 16.3106 151.246 16.371C151.47 16.4313 151.705 16.4346 151.929 16.3806" fill="#222B45"/>
<path opacity="0.1" d="M154.067 41.851C153.967 41.9405 153.895 42.0583 153.863 42.1889C153.83 42.3195 153.838 42.4569 153.884 42.5832C153.922 42.6643 155.704 42.3207 155.892 42.2948C156.362 42.2275 157.186 42.2603 157.502 41.8303C158.065 41.0688 156.321 41.238 156.001 41.2656C155.393 41.3174 154.53 41.4003 154.067 41.851Z" fill="#101336"/>
<path d="M137.855 19.5756C137.779 19.9161 137.735 20.263 137.724 20.6117C137.206 20.7171 136.667 20.5444 136.169 20.3717L134.741 19.8847C134.654 19.8292 134.55 19.8089 134.448 19.8278C134.347 19.8467 134.257 19.9035 134.196 19.9866C133.966 20.2249 133.65 20.6773 133.332 20.945C133.281 20.9396 133.231 20.9286 133.182 20.9122C132.942 20.812 132.978 20.4408 133.151 20.2456C133.324 20.0505 133.579 19.9417 133.736 19.7276C133.809 19.6005 133.891 19.4788 133.982 19.3632C134.097 19.2641 134.235 19.1947 134.384 19.1612C135.38 18.8677 136.434 18.8279 137.449 19.0455C137.622 19.0835 137.819 19.1526 137.87 19.3201C137.887 19.4052 137.882 19.4932 137.855 19.5756Z" fill="#222B45"/>
<path opacity="0.1" d="M137.855 19.5756C137.779 19.9161 137.735 20.263 137.724 20.6117C137.206 20.7171 136.667 20.5444 136.169 20.3717L134.741 19.8847C134.654 19.8292 134.55 19.8089 134.448 19.8278C134.347 19.8467 134.257 19.9035 134.196 19.9866C133.966 20.2249 133.65 20.6773 133.332 20.945C133.281 20.9396 133.231 20.9286 133.182 20.9122C132.942 20.812 132.978 20.4408 133.151 20.2456C133.324 20.0505 133.579 19.9417 133.736 19.7276C133.809 19.6005 133.891 19.4788 133.982 19.3632C134.097 19.2641 134.235 19.1947 134.384 19.1612C135.38 18.8677 136.434 18.8279 137.449 19.0455C137.622 19.0835 137.819 19.1526 137.87 19.3201C137.887 19.4052 137.882 19.4932 137.855 19.5756Z" fill="#101336"/>
<path opacity="0.1" d="M150.919 52.3607C151.167 52.4436 151.437 52.5645 151.521 52.8131L149.522 52.3054L148.486 52.0412C148.303 51.9946 147.646 51.9411 147.526 51.7978C147.353 51.5871 147.966 51.7321 148.076 51.7477C148.411 51.7977 148.746 51.8496 149.08 51.91C149.708 52.0222 150.313 52.207 150.919 52.3607Z" fill="#101336"/>
<path opacity="0.1" d="M151.694 54.13C151.521 54.0143 151.026 54.0281 150.813 53.9781C150.502 53.9038 150.197 53.8054 149.891 53.7104C149.271 53.5084 148.656 53.2787 148.019 53.1302C147.902 53.1043 147.501 53.0974 147.52 52.9489C147.539 52.8004 147.921 52.7486 148.016 52.7416C148.58 52.7002 149.285 52.9644 149.81 53.1526C150.479 53.3923 151.113 53.721 151.694 54.13Z" fill="#101336"/>
<path opacity="0.1" d="M150.427 50.7814C149.793 50.6087 149.218 50.215 148.565 50.139C148.395 50.1455 148.228 50.0944 148.09 49.994C148.013 49.9186 147.96 49.8226 147.937 49.7177C148.373 49.6952 148.881 49.88 149.278 50.0544C149.497 50.1482 149.707 50.2602 149.907 50.3894C150.052 50.4775 150.269 50.7313 150.427 50.7814Z" fill="#101336"/>
<path d="M162.508 35.3193C162.4 36.0373 162.556 36.7698 162.944 37.3828C163.333 37.9957 163.93 38.4482 164.625 38.6573C164.54 39.0666 164.117 39.2928 163.818 39.5846C163.397 39.9939 163.179 40.6069 162.682 40.9177C162.128 41.2631 161.415 41.1284 160.783 40.9834C160.725 40.9769 160.672 40.9492 160.634 40.9056C160.621 40.885 160.612 40.8622 160.606 40.8383C160.397 40.0733 160.261 39.2565 160.475 38.4898C160.648 37.8371 161.062 37.281 161.394 36.7043C161.725 36.1275 161.756 35.5093 162.508 35.3193Z" fill="#222B45"/>
<path d="M147.068 25.4168C146.4 25.4654 145.751 25.6631 145.169 25.9953C144.782 26.2163 144.385 26.5133 143.943 26.4598C143.682 26.4305 143.425 26.2871 143.171 26.3562C143.028 26.4139 142.894 26.4931 142.775 26.5911C142.715 26.6391 142.643 26.6708 142.567 26.6829C142.491 26.695 142.413 26.6872 142.34 26.6601L142.168 29.0501C142.102 29.9584 142.038 30.8857 142.256 31.7716C142.368 32.224 142.615 32.635 142.642 33.0943C142.67 33.5536 142.629 34.0251 142.661 34.4896C142.692 34.9196 142.787 35.3426 142.812 35.7726C142.86 36.5842 142.66 37.3889 142.466 38.1781C142.174 39.342 141.998 40.5318 141.43 41.5851C141.271 41.877 141.085 42.174 141.085 42.5055C141.085 42.547 141.085 42.5867 141.095 42.6264C140.922 42.7214 140.762 42.8112 140.615 42.9045C140.287 43.1169 139.936 43.3534 139.802 43.7212C139.693 44.02 139.743 44.3619 139.612 44.6503C139.481 44.9387 139.18 45.1442 139.114 45.455C139.068 45.6812 139.158 45.9195 139.114 46.1457C139.075 46.2628 139.044 46.3822 139.02 46.5032C139.002 46.7622 139.222 46.9711 139.439 47.1127C139.756 47.3219 140.107 47.476 140.475 47.5686L141.506 43.476C142.446 41.7382 143.228 39.9194 143.843 38.0417C144.018 37.4279 144.244 36.8296 144.518 36.2527C144.713 35.9263 144.886 35.5871 145.036 35.2373C145.193 34.8021 145.208 34.3307 145.284 33.8714C145.375 33.3353 145.51 32.8078 145.69 32.2948C145.877 31.7405 146.093 31.1879 146.131 30.6059C146.188 29.7736 145.885 28.8946 146.207 28.1245C146.343 27.8362 146.52 27.5692 146.733 27.3319C147.179 26.7862 147.585 26.2146 148.03 25.6689C147.799 25.422 147.414 25.3961 147.068 25.4168Z" fill="#222B45"/>
<g opacity="0.1">
<path opacity="0.1" d="M151.933 15.8672L151.718 15.8827L151.693 15.9C151.774 15.8967 151.855 15.8857 151.933 15.8672Z" fill="#101336"/>
<path opacity="0.1" d="M155.885 19.4522C155.849 19.7955 155.775 20.1338 155.664 20.4607C155.593 20.6591 155.535 20.8622 155.491 21.0685C155.457 21.2688 155.453 21.4726 155.422 21.6729C155.384 21.9327 155.294 22.1821 155.158 22.4066C155.022 22.6311 154.842 22.8261 154.63 22.9801C154.569 23.0295 154.494 23.0569 154.415 23.0579C154.281 23.0423 154.198 22.8852 154.148 22.7436C153.873 21.951 153.939 20.9822 153.433 20.3502C153.203 20.0952 152.925 19.8881 152.614 19.7406C152.488 19.659 152.345 19.6054 152.196 19.5835C151.977 19.5952 151.767 19.6722 151.592 19.8045C151.228 20.049 150.823 20.2278 150.397 20.3329C150.184 20.3833 149.963 20.3855 149.75 20.3395C149.536 20.2935 149.335 20.2004 149.162 20.067C148.924 19.8701 148.75 19.5748 148.486 19.4211C148.221 19.2675 147.945 19.2761 147.684 19.1707C147.521 19.1012 147.376 18.9958 147.26 18.8625C147.143 18.7292 147.058 18.5713 147.011 18.4006C147.005 18.379 147 18.3571 146.997 18.335C146.954 18.5277 146.959 18.7281 147.011 18.9186C147.058 19.0893 147.143 19.2472 147.26 19.3805C147.376 19.5139 147.521 19.6192 147.684 19.6888C147.945 19.7941 148.239 19.7959 148.486 19.9392C148.732 20.0825 148.924 20.3882 149.162 20.585C149.335 20.7185 149.536 20.8116 149.75 20.8576C149.963 20.9036 150.184 20.9013 150.397 20.851C150.823 20.7459 151.228 20.567 151.592 20.3225C151.767 20.1903 151.977 20.1133 152.196 20.1015C152.345 20.1235 152.488 20.1771 152.614 20.2587C152.921 20.409 153.195 20.6179 153.421 20.8734C153.927 21.5054 153.861 22.4742 154.136 23.2668C154.186 23.4101 154.269 23.5655 154.403 23.5811C154.486 23.5815 154.567 23.5521 154.63 23.4982C154.843 23.3437 155.023 23.148 155.16 22.9226C155.296 22.6971 155.386 22.4466 155.424 22.1858C155.455 21.9855 155.458 21.7817 155.493 21.5814C155.537 21.3751 155.594 21.172 155.666 20.9736C155.834 20.5085 155.912 20.0156 155.895 19.5213C155.892 19.5006 155.888 19.4764 155.885 19.4522Z" fill="#101336"/>
</g>
<path d="M43.4059 89.7005C51.3314 89.7005 57.7562 83.2757 57.7562 75.3503C57.7562 67.4248 51.3314 61 43.4059 61C35.4805 61 29.0557 67.4248 29.0557 75.3503C29.0557 83.2757 35.4805 89.7005 43.4059 89.7005Z" fill="#F6F5FF"/>
<path fill-rule="evenodd" clip-rule="evenodd" d="M57.7562 75.3503C57.7562 83.2757 51.3314 89.7005 43.4059 89.7005C35.4805 89.7005 29.0557 83.2757 29.0557 75.3503C29.0557 67.4248 35.4805 61 43.4059 61C51.3314 61 57.7562 67.4248 57.7562 75.3503ZM55.7479 75.351C55.7479 82.1669 50.2225 87.6922 43.4067 87.6922C36.5908 87.6922 31.0654 82.1669 31.0654 75.351C31.0654 68.5351 36.5908 63.0098 43.4067 63.0098C50.2225 63.0098 55.7479 68.5351 55.7479 75.351Z" fill="#0000FF"/>
<path d="M42.8151 82.6323V80.8361C41.9071 80.8184 40.9678 80.4982 40.4199 80.0536L40.7956 78.862C41.4467 79.35 42.2363 79.6178 43.05 79.6267C44.1615 79.6267 44.9129 78.8976 44.9129 77.8839C44.9129 76.9057 44.3024 76.3011 43.1439 75.7675C41.5471 75.0561 40.5608 74.238 40.5608 72.6908C40.5608 71.2146 41.4845 70.0942 42.9248 69.8275V68.0312H43.8953V69.7564C44.6191 69.7663 45.3251 69.9822 45.9305 70.3788L45.5391 71.5526C44.9584 71.1551 44.2703 70.9441 43.5666 70.9479C42.3612 70.9479 41.9072 71.766 41.9072 72.4774C41.9072 73.4022 42.4864 73.8645 43.8484 74.5048C45.4608 75.2518 46.275 76.1766 46.275 77.7593C46.275 79.1643 45.4139 80.4805 43.8014 80.7826V82.6323H42.8151Z" fill="#0000FF"/>
<path d="M78.3503 76.7005C86.2757 76.7005 92.7005 70.2757 92.7005 62.3503C92.7005 54.4248 86.2757 48 78.3503 48C70.4248 48 64 54.4248 64 62.3503C64 70.2757 70.4248 76.7005 78.3503 76.7005Z" fill="#F6F5FF"/>
<path fill-rule="evenodd" clip-rule="evenodd" d="M92.7005 62.3503C92.7005 70.2757 86.2757 76.7005 78.3503 76.7005C70.4248 76.7005 64 70.2757 64 62.3503C64 54.4248 70.4248 48 78.3503 48C86.2757 48 92.7005 54.4248 92.7005 62.3503ZM90.6922 62.351C90.6922 69.1669 85.1669 74.6922 78.351 74.6922C71.5351 74.6922 66.0098 69.1669 66.0098 62.351C66.0098 55.5351 71.5351 50.0098 78.351 50.0098C85.1669 50.0098 90.6922 55.5351 90.6922 62.351Z" fill="#0000FF"/>
<path d="M77.7595 69.6323V67.8361C76.8515 67.8184 75.9122 67.4982 75.3643 67.0536L75.7399 65.862C76.3911 66.35 77.1807 66.6178 77.9943 66.6267C79.1058 66.6267 79.8573 65.8976 79.8573 64.8839C79.8573 63.9057 79.2467 63.3011 78.0882 62.7675C76.4914 62.0561 75.5051 61.238 75.5051 59.6908C75.5051 58.2146 76.4288 57.0942 77.8691 56.8275V55.0312H78.8397V56.7564C79.5634 56.7663 80.2694 56.9822 80.8749 57.3788L80.4834 58.5526C79.9027 58.1551 79.2146 57.9441 78.5109 57.9479C77.3055 57.9479 76.8515 58.766 76.8515 59.4774C76.8515 60.4022 77.4307 60.8645 78.7927 61.5048C80.4052 62.2518 81.2193 63.1766 81.2193 64.7593C81.2193 66.1643 80.3582 67.4805 78.7457 67.7826V69.6323H77.7595Z" fill="#0000FF"/>
<path d="M58.5661 104.541C48.4334 106.052 38.1327 106.052 28 104.541V101.097C38.1434 102.455 48.4227 102.455 58.5661 101.097V104.541Z" fill="#50526B"/>
<path d="M58.5661 99.2302C48.4334 100.741 38.1327 100.741 28 99.2302V95.7861C38.1434 97.1446 48.4227 97.1446 58.5661 95.7861V99.2302Z" fill="#50526B"/>
<path d="M58.5661 93.9206C48.4334 95.4317 38.1327 95.4317 28 93.9206V90.4766C38.1434 91.835 48.4227 91.835 58.5661 90.4766V93.9206Z" fill="#50526B"/>
<path d="M93.5661 92.5407C83.4334 94.0519 73.1327 94.0519 63 92.5407V89.0967C73.1434 90.4551 83.4227 90.4551 93.5661 89.0967V92.5407Z" fill="#50526B"/>
<path d="M93.5661 98.4441C83.4334 99.9552 73.1327 99.9552 63 98.4441V95C73.1434 96.3584 83.4227 96.3584 93.5661 95V98.4441Z" fill="#50526B"/>
<path d="M93.5661 104.444C83.4334 105.955 73.1327 105.955 63 104.444V101C73.1434 102.358 83.4227 102.358 93.5661 101V104.444Z" fill="#50526B"/>
<path d="M93.5661 87.2302C83.4334 88.7413 73.1327 88.7413 63 87.2302V83.7861C73.1434 85.1446 83.4227 85.1446 93.5661 83.7861V87.2302Z" fill="#50526B"/>
<path d="M93.5661 81.9206C83.4334 83.4317 73.1327 83.4317 63 81.9206V78.4766C73.1434 79.835 83.4227 79.835 93.5661 78.4766V81.9206Z" fill="#50526B"/>
<path d="M128.566 104.541C118.433 106.052 108.133 106.052 98 104.541V101.097C108.143 102.455 118.423 102.455 128.566 101.097V104.541Z" fill="#50526B"/>
<path d="M128.566 99.2302C118.433 100.741 108.133 100.741 98 99.2302V95.7861C108.143 97.1446 118.423 97.1446 128.566 95.7861V99.2302Z" fill="#50526B"/>
<path d="M128.566 93.9206C118.433 95.4317 108.133 95.4317 98 93.9206V90.4766C108.143 91.835 118.423 91.835 128.566 90.4766V93.9206Z" fill="#50526B"/>
<defs>
<linearGradient id="paint0_linear_2107:6938" x1="155.235" y1="77.49" x2="155.235" y2="8.01951" gradientUnits="userSpaceOnUse">
<stop stop-color="#808080" stop-opacity="0.25"/>
<stop offset="0.54" stop-color="#808080" stop-opacity="0.12"/>
<stop offset="1" stop-color="#808080" stop-opacity="0.1"/>
</linearGradient>
</defs>
</svg>
