<svg width="208" height="120" viewBox="0 0 208 120" fill="none" xmlns="http://www.w3.org/2000/svg">
<g clip-path="url(#clip0_2107:6900)">
<rect x="0.907887" y="0.46648" width="206.184" height="118.486" rx="3.26536" fill="white"/>
<rect x="0.907887" y="0.46648" width="206.184" height="118.486" rx="3.26536" fill="white"/>
<rect x="0.907887" y="0.46648" width="206.184" height="118.486" rx="3.26536" stroke="#CED4DA" stroke-width="0.932961"/>
<path d="M47.3869 70.3676C59.1986 70.3676 68.7739 60.7924 68.7739 48.9807C68.7739 37.169 59.1986 27.5938 47.3869 27.5938C35.5753 27.5938 26 37.169 26 48.9807C26 60.7924 35.5753 70.3676 47.3869 70.3676Z" fill="#DEE2E6"/>
<path d="M47.3869 66.8031C57.2299 66.8031 65.2093 58.8237 65.2093 48.9806C65.2093 39.1376 57.2299 31.1582 47.3869 31.1582C37.5438 31.1582 29.5645 39.1376 29.5645 48.9806C29.5645 58.8237 37.5438 66.8031 47.3869 66.8031Z" fill="#0000FF"/>
<path d="M104.181 70.3676C115.993 70.3676 125.568 60.7923 125.568 48.9807C125.568 37.169 115.993 27.5938 104.181 27.5938C92.3692 27.5938 82.7939 37.169 82.7939 48.9807C82.7939 60.7923 92.3692 70.3676 104.181 70.3676Z" fill="#DEE2E6"/>
<path d="M104.182 66.8031C114.025 66.8031 122.004 58.8237 122.004 48.9806C122.004 39.1376 114.025 31.1582 104.182 31.1582C94.3388 31.1582 86.3594 39.1376 86.3594 48.9806C86.3594 58.8237 94.3388 66.8031 104.182 66.8031Z" fill="white"/>
<path d="M160.975 70.3676C172.786 70.3676 182.362 60.7923 182.362 48.9807C182.362 37.169 172.786 27.5938 160.975 27.5938C149.163 27.5938 139.588 37.169 139.588 48.9807C139.588 60.7923 149.163 70.3676 160.975 70.3676Z" fill="#DEE2E6"/>
<path d="M160.975 66.8031C170.818 66.8031 178.797 58.8237 178.797 48.9806C178.797 39.1376 170.818 31.1582 160.975 31.1582C151.132 31.1582 143.152 39.1376 143.152 48.9806C143.152 58.8237 151.132 66.8031 160.975 66.8031Z" fill="white"/>
<path d="M45.8727 55.4254C45.8408 55.4254 45.8089 55.4247 45.777 55.4231C45.4951 55.4095 45.2195 55.3351 44.9691 55.205C44.7187 55.0749 44.4994 54.8922 44.3262 54.6694L41.5924 51.1544C41.274 50.7441 41.1314 50.2244 41.1958 49.7091C41.2602 49.1939 41.5263 48.7252 41.9358 48.4059L42.0342 48.3293C42.4444 48.011 42.9642 47.8684 43.4795 47.9328C43.9948 47.9972 44.4635 48.2633 44.7828 48.6728C44.9369 48.8709 45.132 49.0334 45.3547 49.1492C45.5774 49.2649 45.8225 49.3311 46.0731 49.3434C46.3238 49.3556 46.5742 49.3135 46.8071 49.22C47.04 49.1264 47.2499 48.9837 47.4226 48.8015L52.9737 42.9417C53.1506 42.755 53.3626 42.6049 53.5975 42.5001C53.8324 42.3953 54.0856 42.3377 54.3427 42.3308C54.5999 42.3238 54.8558 42.3676 55.096 42.4596C55.3363 42.5516 55.556 42.69 55.7427 42.8669L55.8333 42.9528C56.2104 43.31 56.4301 43.8024 56.4441 44.3217C56.4581 44.8409 56.2653 45.3445 55.9081 45.7215L47.2941 54.8138C47.1112 55.0071 46.8909 55.161 46.6465 55.2661C46.4021 55.3713 46.1388 55.4255 45.8727 55.4254Z" fill="white"/>
<path d="M94.7937 44.6495H80.7168V32.407C80.7313 31.649 81.0457 30.9276 81.5912 30.4011C82.1367 29.8745 82.8688 29.5857 83.6268 29.598H88.306C91.8834 29.598 94.7937 32.4073 94.7937 35.8604V44.6495Z" fill="#50526B"/>
<path d="M78.6022 64.2852L76.8584 75.402L93.4246 75.6199L91.2448 64.9392L78.6022 64.2852Z" fill="#FFB6B6"/>
<path d="M77.3374 72.6885L72.0612 86.7377L71.4072 144.96H75.8758L86.5566 98.1815L96.3656 143.739H100.725L97.6735 92.5141C97.6735 92.5141 98.5734 82.2327 93.9679 76.1658L92.8468 72.9271L77.3374 72.6885Z" fill="#50526B"/>
<path d="M99.9699 83.641C99.5087 83.5153 99.0806 83.29 98.7158 82.981C98.3511 82.6719 98.0585 82.2867 97.8587 81.8523C97.659 81.418 97.5569 80.9451 97.5596 80.467C97.5624 79.989 97.6699 79.5173 97.8747 79.0853L90.8271 56.1086L96.0109 55.0811L102.457 77.603C103.159 77.9951 103.694 78.6314 103.959 79.3914C104.224 80.1514 104.202 80.9822 103.895 81.7265C103.589 82.4708 103.02 83.0767 102.296 83.4296C101.573 83.7825 100.745 83.8577 99.9699 83.641H99.9699Z" fill="#FFB6B6"/>
<path d="M90.6443 70.4255L79.2247 70.2051C78.8983 70.1981 78.5832 70.0844 78.3276 69.8813C78.0721 69.6781 77.8901 69.3968 77.8096 69.0804C77.1975 66.6566 75.8506 60.3399 76.565 54.0484C76.706 52.8296 77.09 51.6514 77.6943 50.5837C78.2986 49.5159 79.111 48.5802 80.0833 47.8318C81.0556 47.0835 82.1681 46.5378 83.355 46.227C84.5419 45.9162 85.7791 45.8466 86.9934 46.0223C88.2743 46.2057 89.502 46.6579 90.5958 47.3491C91.6897 48.0403 92.6251 48.955 93.3406 50.0332C94.0561 51.1114 94.5356 52.3286 94.7476 53.6052C94.9596 54.8817 94.8992 56.1886 94.5706 57.4401C93.1331 62.8989 92.3212 66.8042 92.1573 69.0478C92.1331 69.3722 92.0033 69.6797 91.7878 69.9234C91.5724 70.1671 91.2831 70.3336 90.9641 70.3974C90.8692 70.4163 90.7727 70.4258 90.676 70.4259C90.6654 70.4259 90.6549 70.4257 90.6443 70.4255Z" fill="#DEE2E6"/>
<path d="M55.9567 50.2429C56.0253 50.3968 56.0817 50.5558 56.1253 50.7185L70.4193 55.5757L73.1813 53.1628L77.3677 56.8553L72.8932 61.602C72.5317 61.9855 72.0556 62.2414 71.5363 62.3312C71.017 62.4211 70.4826 62.3401 70.0133 62.1003L54.7178 54.2874C54.1647 54.6267 53.5214 54.7896 52.8734 54.7543C52.2255 54.7191 51.6036 54.4874 51.0906 54.0901C50.5775 53.6928 50.1976 53.1487 50.0013 52.5302C49.805 51.9117 49.8016 51.2481 49.9917 50.6277C50.1818 50.0072 50.5562 49.4594 51.0652 49.0569C51.5743 48.6545 52.1938 48.4166 52.8413 48.3748C53.4889 48.333 54.1338 48.4894 54.6903 48.8231C55.2468 49.1568 55.6886 49.652 55.9567 50.2429V50.2429Z" fill="#FFB6B6"/>
<path d="M70.4483 54.8004C70.4494 54.6035 70.4929 54.4092 70.576 54.2307C70.659 54.0523 70.7796 53.8938 70.9295 53.7662L76.1634 49.3079C76.8257 48.5489 77.762 48.0836 78.7669 48.014C79.7719 47.9444 80.7634 48.2762 81.524 48.9366C82.2847 49.5971 82.7523 50.5322 82.8244 51.537C82.8965 52.5418 82.5672 53.5341 81.9086 54.2964L78.1815 60.1002C78.0751 60.2659 77.9342 60.4066 77.7686 60.5129C77.6029 60.6192 77.4162 60.6885 77.2213 60.7162C77.0264 60.7439 76.8279 60.7292 76.6391 60.6732C76.4504 60.6172 76.276 60.5212 76.1277 60.3917L70.917 55.8405C70.7686 55.711 70.6499 55.5511 70.569 55.3716C70.4882 55.1921 70.447 54.9972 70.4483 54.8004Z" fill="#DEE2E6"/>
<path d="M90.5116 61.9276C90.3374 61.836 90.185 61.7078 90.0648 61.5519C89.9446 61.396 89.8595 61.216 89.8152 61.0242L88.2678 54.3254C87.8992 53.388 87.9174 52.3427 88.3184 51.4187C88.7194 50.4947 89.4704 49.7675 90.4068 49.3964C91.3432 49.0254 92.3885 49.0408 93.3136 49.4394C94.2386 49.8379 94.9679 50.5871 95.3414 51.5225L98.7771 57.5035C98.8751 57.6742 98.9352 57.864 98.9533 58.06C98.9713 58.256 98.9469 58.4537 98.8817 58.6394C98.8166 58.8251 98.7121 58.9946 98.5755 59.1364C98.4389 59.2781 98.2733 59.3887 98.0901 59.4607L91.6507 61.9905C91.4675 62.0626 91.2709 62.0943 91.0743 62.0834C90.8777 62.0726 90.6858 62.0194 90.5116 61.9276Z" fill="#DEE2E6"/>
<path d="M96.0522 30.7942C96.5809 29.5564 95.6716 27.9814 94.0212 27.2765C92.3708 26.5715 90.6043 27.0034 90.0755 28.2412C89.5468 29.479 90.4561 31.0539 92.1065 31.7589C93.7569 32.4639 95.5234 32.032 96.0522 30.7942Z" fill="#50526B"/>
<path d="M90.932 39.9958C92.6976 36.766 91.5106 32.7165 88.2808 30.9509C85.051 29.1853 81.0015 30.3723 79.2359 33.6021C77.4703 36.8319 78.6573 40.8815 81.8871 42.647C85.1169 44.4126 89.1665 43.2256 90.932 39.9958Z" fill="#FFB6B6"/>
<path d="M88.7403 29.1642H81.1169C80.558 29.157 80.0171 29.3613 79.6025 29.7363C79.188 30.1112 78.9305 30.629 78.8817 31.1858C78.862 31.4817 78.9033 31.7784 79.003 32.0577C79.1026 32.337 79.2586 32.5929 79.4612 32.8094C79.6638 33.026 79.9087 33.1986 80.1808 33.3167C80.4528 33.4347 80.7462 33.4956 81.0427 33.4956C81.6171 33.4956 82.168 33.7238 82.5741 34.1299C82.9803 34.5361 83.2084 35.0869 83.2084 35.6613V44.5406H95.1197V35.5436C95.1197 34.7059 94.9547 33.8763 94.6341 33.1023C94.3135 32.3284 93.8436 31.6251 93.2512 31.0327C92.6588 30.4403 91.9556 29.9704 91.1816 29.6498C90.4076 29.3293 89.578 29.1642 88.7403 29.1642Z" fill="#50526B"/>
</g>
<defs>
<clipPath id="clip0_2107:6900">
<rect width="207.117" height="119.419" fill="white" transform="translate(0.441406)"/>
</clipPath>
</defs>
</svg>
