<svg width="208" height="120" viewBox="0 0 208 120" fill="none" xmlns="http://www.w3.org/2000/svg">
<rect x="0.46648" y="0.46648" width="206.184" height="118.486" rx="3.26536" fill="white"/>
<rect x="0.46648" y="0.46648" width="206.184" height="118.486" rx="3.26536" fill="white"/>
<rect x="0.46648" y="0.46648" width="206.184" height="118.486" rx="3.26536" stroke="#CED4DA" stroke-width="0.932961"/>
<path d="M51 54C56.2426 44.4834 75.618 28.6827 96.5 33C114.419 36.7048 125.37 27.3023 131.5 24.5" stroke="#DEE2E6"/>
<path d="M52 60.0001C57.2426 50.4835 87.8 48.8807 108.5 54C121.667 57.2562 150.87 60.3025 157 57.5002" stroke="#DEE2E6"/>
<path d="M49 58.0001C54.2426 67.5168 73.7977 82.2717 95 80C109 78.5 143.5 92.5 148 96.5" stroke="#DEE2E6"/>
<path d="M168.487 45C165.819 45 163.212 45.7918 160.994 47.2752C158.776 48.7586 157.047 50.867 156.027 53.3338C155.006 55.8006 154.739 58.515 155.259 61.1337C155.78 63.7525 157.064 66.1579 158.95 68.0459C160.836 69.9339 163.239 71.2197 165.855 71.7406C168.472 72.2615 171.183 71.9941 173.648 70.9724C176.112 69.9506 178.218 68.2203 179.7 66.0002C181.182 63.7801 181.973 61.17 181.973 58.5C181.973 54.9196 180.552 51.4858 178.023 48.9541C175.494 46.4223 172.063 45 168.487 45V45ZM168.487 49.0501C169.287 49.0501 170.069 49.2876 170.734 49.7326C171.4 50.1777 171.918 50.8102 172.225 51.5502C172.531 52.2903 172.611 53.1046 172.455 53.8903C172.299 54.6759 171.913 55.3976 171.347 55.964C170.782 56.5304 170.061 56.9161 169.276 57.0724C168.491 57.2287 167.677 57.1485 166.938 56.8419C166.199 56.5354 165.567 56.0163 165.122 55.3502C164.678 54.6842 164.44 53.9012 164.44 53.1002C164.44 52.5683 164.545 52.0416 164.748 51.5502C164.952 51.0589 165.25 50.6124 165.626 50.2363C166.001 49.8602 166.447 49.5619 166.938 49.3584C167.429 49.1548 167.955 49.0501 168.487 49.0501V49.0501ZM168.487 68.5471C166.888 68.5398 165.316 68.1423 163.906 67.389C162.495 66.6357 161.29 65.5494 160.394 64.2244C160.459 61.5245 165.789 60.038 168.487 60.038C171.184 60.038 176.513 61.5245 176.579 64.2244C175.682 65.5487 174.476 66.6344 173.067 67.3878C171.657 68.1411 170.085 68.5394 168.487 68.5482V68.5471Z" fill="#50526B"/>
<path d="M154.753 85C152.428 85 150.156 85.69 148.223 86.9827C146.291 88.2754 144.784 90.1129 143.895 92.2626C143.005 94.4123 142.772 96.7778 143.226 99.06C143.679 101.342 144.799 103.438 146.442 105.084C148.086 106.729 150.18 107.85 152.46 108.303C154.74 108.757 157.103 108.524 159.251 107.634C161.398 106.744 163.234 105.236 164.525 103.301C165.817 101.366 166.506 99.0916 166.506 96.7648C166.506 93.6446 165.268 90.6521 163.064 88.4458C160.86 86.2395 157.87 85 154.753 85V85ZM154.753 88.5295C155.45 88.5295 156.132 88.7365 156.712 89.1243C157.292 89.5122 157.744 90.0634 158.011 90.7083C158.277 91.3532 158.347 92.0629 158.211 92.7476C158.075 93.4322 157.739 94.0611 157.246 94.5547C156.753 95.0483 156.125 95.3845 155.441 95.5207C154.757 95.6569 154.048 95.587 153.404 95.3198C152.759 95.0527 152.209 94.6003 151.821 94.0199C151.434 93.4395 151.227 92.7571 151.227 92.059C151.227 91.5955 151.318 91.1365 151.495 90.7083C151.673 90.2801 151.932 89.891 152.26 89.5633C152.587 89.2355 152.976 88.9755 153.404 88.7982C153.831 88.6208 154.29 88.5295 154.753 88.5295V88.5295ZM154.753 105.52C153.36 105.514 151.99 105.168 150.761 104.511C149.532 103.855 148.482 102.908 147.701 101.753C147.757 99.4005 152.402 98.1051 154.753 98.1051C157.104 98.1051 161.748 99.4005 161.805 101.753C161.024 102.907 159.973 103.854 158.744 104.51C157.516 105.167 156.146 105.514 154.753 105.521V105.52Z" fill="#50526B"/>
<path d="M140 9C137.824 9 135.698 9.64578 133.889 10.8557C132.08 12.0656 130.67 13.7853 129.837 15.7973C129.005 17.8093 128.787 20.0232 129.211 22.1592C129.636 24.2951 130.683 26.2571 132.222 27.797C133.76 29.3369 135.72 30.3856 137.854 30.8104C139.988 31.2353 142.2 31.0172 144.21 30.1838C146.22 29.3505 147.937 27.9391 149.146 26.1284C150.355 24.3176 151 22.1888 151 20.011C151 17.0907 149.841 14.29 147.778 12.2251C145.715 10.1601 142.917 9 140 9V9ZM140 12.3034C140.653 12.3034 141.291 12.4971 141.833 12.8601C142.376 13.2231 142.799 13.739 143.049 14.3426C143.299 14.9462 143.364 15.6104 143.237 16.2512C143.109 16.892 142.795 17.4806 142.333 17.9426C141.872 18.4045 141.284 18.7192 140.644 18.8466C140.004 18.9741 139.34 18.9087 138.737 18.6586C138.134 18.4086 137.619 17.9852 137.256 17.442C136.893 16.8987 136.7 16.2601 136.7 15.6067C136.7 15.1729 136.785 14.7434 136.951 14.3426C137.117 13.9418 137.36 13.5776 137.666 13.2709C137.973 12.9641 138.337 12.7208 138.737 12.5548C139.138 12.3888 139.567 12.3034 140 12.3034V12.3034ZM140 28.2057C138.696 28.1998 137.414 27.8755 136.264 27.2611C135.114 26.6467 134.131 25.7608 133.4 24.68C133.453 22.4779 137.8 21.2655 140 21.2655C142.2 21.2655 146.547 22.4779 146.6 24.68C145.869 25.7601 144.886 26.6457 143.736 27.2601C142.586 27.8746 141.304 28.1994 140 28.2066V28.2057Z" fill="#50526B"/>
<path d="M29.9147 53.0755L62.1738 46.1167L62.593 46.0264C62.8065 45.9801 63.0288 45.9949 63.2342 46.0692C63.4396 46.1435 63.6199 46.2743 63.7543 46.4466C63.8888 46.6188 63.9718 46.8255 63.994 47.0428C64.0162 47.2602 63.9766 47.4793 63.8797 47.6752L51.0715 73.6855C50.9887 73.8527 50.8668 73.9974 50.7163 74.1076C50.5658 74.2178 50.391 74.2902 50.2067 74.3188C50.0218 74.3476 49.8326 74.3309 49.6556 74.2702C49.4786 74.2095 49.319 74.1066 49.1906 73.9704L40.2943 64.5901C40.2311 64.5216 40.1543 64.4671 40.0689 64.4298C39.9835 64.3925 39.8913 64.3733 39.7981 64.3733C39.6714 64.3715 39.5466 64.4042 39.4371 64.4679C39.3276 64.5316 39.2375 64.6239 39.1763 64.7348L37.3541 68.1053C37.2378 68.33 37.0497 68.5094 36.8196 68.6148C36.5896 68.7202 36.3309 68.7456 36.0847 68.687L36.0756 68.685C35.8265 68.6322 35.6023 68.4972 35.4391 68.3016C35.276 68.1061 35.1833 67.8613 35.176 67.6067L34.811 59.8265C34.8067 59.7294 34.7824 59.6343 34.7398 59.547C34.694 59.4606 34.6319 59.3839 34.5569 59.3211L29.4246 55.1081C29.2559 54.9697 29.1296 54.7865 29.0602 54.5795C28.9909 54.3726 28.9812 54.1503 29.0324 53.9381C29.0835 53.726 29.1934 53.5325 29.3495 53.3799C29.5055 53.2274 29.7014 53.1218 29.9147 53.0755Z" fill="white"/>
<path d="M29.9147 53.0755L62.1738 46.1167L62.593 46.0264C62.8065 45.9801 63.0288 45.9949 63.2342 46.0692C63.4396 46.1435 63.6199 46.2743 63.7543 46.4466C63.8888 46.6188 63.9718 46.8255 63.994 47.0428C64.0162 47.2602 63.9766 47.4793 63.8797 47.6752L51.0715 73.6855C50.9887 73.8527 50.8668 73.9974 50.7163 74.1076C50.5658 74.2178 50.391 74.2902 50.2067 74.3188C50.0218 74.3476 49.8326 74.3309 49.6556 74.2702C49.4786 74.2095 49.319 74.1066 49.1906 73.9704L40.2943 64.5901C40.2311 64.5216 40.1543 64.4671 40.0689 64.4298C39.9835 64.3925 39.8913 64.3733 39.7981 64.3733C39.6714 64.3715 39.5466 64.4042 39.4371 64.4679C39.3276 64.5316 39.2375 64.6239 39.1763 64.7348L37.3541 68.1053C37.2378 68.33 37.0497 68.5094 36.8196 68.6148C36.5896 68.7202 36.3309 68.7456 36.0847 68.687L36.0756 68.685C35.8265 68.6322 35.6023 68.4972 35.4391 68.3016C35.276 68.1061 35.1833 67.8613 35.176 67.6067L34.811 59.8265C34.8067 59.7294 34.7824 59.6343 34.7398 59.547C34.694 59.4606 34.6319 59.3839 34.5569 59.3211L29.4246 55.1081C29.2559 54.9697 29.1296 54.7865 29.0602 54.5795C28.9909 54.3726 28.9812 54.1503 29.0324 53.9381C29.0835 53.726 29.1934 53.5325 29.3495 53.3799C29.5055 53.2274 29.7014 53.1218 29.9147 53.0755Z" fill="white"/>
<path d="M29.9147 53.0755L62.1738 46.1167L62.593 46.0264C62.8065 45.9801 63.0288 45.9949 63.2342 46.0692C63.4396 46.1435 63.6199 46.2743 63.7543 46.4466C63.8887 46.6188 63.9718 46.8255 63.994 47.0428C64.0162 47.2602 63.9766 47.4793 63.8797 47.6752L51.0715 73.6855C50.9886 73.8527 50.8668 73.9974 50.7163 74.1076C50.5658 74.2178 50.391 74.2902 50.2067 74.3188C50.0217 74.3476 49.8326 74.3309 49.6556 74.2702C49.4786 74.2095 49.319 74.1066 49.1906 73.9704L40.2943 64.5901C40.2311 64.5216 40.1543 64.4671 40.0689 64.4298C39.9835 64.3925 39.8913 64.3733 39.7981 64.3733C39.6714 64.3715 39.5467 64.4042 39.4371 64.4679C39.3276 64.5316 39.2375 64.6239 39.1764 64.7348L37.3541 68.1053C37.2378 68.33 37.0497 68.5094 36.8196 68.6148C36.5896 68.7202 36.3309 68.7456 36.0847 68.687L36.0756 68.685C35.8265 68.6322 35.6023 68.4972 35.4391 68.3016C35.276 68.1061 35.1833 67.8613 35.176 67.6067L34.811 59.8265C34.8067 59.7294 34.7824 59.6343 34.7398 59.547C34.694 59.4606 34.6319 59.3839 34.5569 59.3211L29.4246 55.1081C29.2559 54.9697 29.1296 54.7865 29.0602 54.5795C28.9909 54.3726 28.9812 54.1503 29.0324 53.9381C29.0835 53.726 29.1934 53.5325 29.3495 53.3799C29.5055 53.2274 29.7014 53.1218 29.9147 53.0755H29.9147ZM29.7176 54.75L34.85 58.963C34.9168 59.0169 34.9774 59.0781 35.0306 59.1455L62.2321 46.8092C62.2561 46.798 62.2811 46.7892 62.3068 46.783C62.4117 46.7559 62.5228 46.7664 62.6208 46.8126C62.7188 46.8588 62.7976 46.9377 62.8436 47.0359C62.8895 47.134 62.8997 47.2451 62.8724 47.3499C62.8451 47.4548 62.7821 47.5468 62.6941 47.6101L40.3284 64.0392C40.4419 64.0982 40.5444 64.1763 40.6313 64.2702L49.5275 73.6505C49.6047 73.7317 49.7003 73.7931 49.8063 73.8294C49.9123 73.8658 50.0255 73.876 50.1363 73.8592C50.2471 73.8424 50.3522 73.7992 50.4427 73.7331C50.5332 73.667 50.6064 73.58 50.6561 73.4796L63.4643 47.4692C63.5215 47.3517 63.5446 47.2204 63.531 47.0904C63.5173 46.9604 63.4673 46.8369 63.3868 46.7338C63.3063 46.6308 63.1985 46.5525 63.0757 46.5078C62.9529 46.463 62.8199 46.4537 62.692 46.4808L62.2629 46.5736L30.0138 53.5299C29.8858 53.5576 29.7681 53.6208 29.6743 53.7123C29.5806 53.8038 29.5144 53.9198 29.4835 54.0472C29.4526 54.1745 29.4582 54.3079 29.4996 54.4322C29.541 54.5565 29.6166 54.6666 29.7176 54.75Z" fill="#DEE2E6"/>
<path d="M29.9147 53.0755L62.1738 46.1167L62.593 46.0264C62.8065 45.9801 63.0288 45.9949 63.2342 46.0692C63.4396 46.1435 63.6199 46.2743 63.7543 46.4466C63.8887 46.6188 63.9718 46.8255 63.994 47.0428C64.0162 47.2602 63.9766 47.4793 63.8797 47.6752L51.0715 73.6855C50.9886 73.8527 50.8668 73.9974 50.7163 74.1076C50.5658 74.2178 50.391 74.2902 50.2067 74.3188C50.0217 74.3476 49.8326 74.3309 49.6556 74.2702C49.4786 74.2095 49.319 74.1066 49.1906 73.9704L40.2943 64.5901C40.2311 64.5216 40.1543 64.4671 40.0689 64.4298C39.9835 64.3925 39.8913 64.3733 39.7981 64.3733C39.6714 64.3715 39.5467 64.4042 39.4371 64.4679C39.3276 64.5316 39.2375 64.6239 39.1764 64.7348L37.3541 68.1053C37.2378 68.33 37.0497 68.5094 36.8196 68.6148C36.5896 68.7202 36.3309 68.7456 36.0847 68.687L36.0756 68.685C35.8265 68.6322 35.6023 68.4972 35.4391 68.3016C35.276 68.1061 35.1833 67.8613 35.176 67.6067L34.811 59.8265C34.8067 59.7294 34.7824 59.6343 34.7398 59.547C34.694 59.4606 34.6319 59.3839 34.5569 59.3211L29.4246 55.1081C29.2559 54.9697 29.1296 54.7865 29.0602 54.5795C28.9909 54.3726 28.9812 54.1503 29.0324 53.9381C29.0835 53.726 29.1934 53.5325 29.3495 53.3799C29.5055 53.2274 29.7014 53.1218 29.9147 53.0755H29.9147ZM29.7176 54.75L34.85 58.963C34.9168 59.0169 34.9774 59.0781 35.0306 59.1455C35.0786 59.2055 35.12 59.2704 35.1541 59.3392C35.1899 59.4096 35.2182 59.4835 35.2383 59.5598L35.2378 59.5621C35.2591 59.6416 35.2713 59.7232 35.2744 59.8054L35.6393 67.5856C35.6423 67.7386 35.6974 67.886 35.7953 68.0035C35.8933 68.1211 36.0283 68.2018 36.1782 68.2324L36.1827 68.2334C36.3305 68.2701 36.4862 68.2558 36.6248 68.1929C36.7634 68.13 36.8767 68.0221 36.9463 67.8867L38.769 64.514C38.8629 64.3405 38.9996 64.1939 39.166 64.0881C39.3325 63.9823 39.5233 63.9207 39.7202 63.9093L39.7224 63.9098C39.7489 63.9086 39.7753 63.9073 39.8012 63.9083C39.985 63.9083 40.1659 63.9533 40.3284 64.0392C40.4419 64.0982 40.5444 64.1763 40.6313 64.2702L49.5275 73.6505C49.6047 73.7317 49.7003 73.7931 49.8063 73.8294C49.9123 73.8658 50.0255 73.876 50.1363 73.8592C50.2471 73.8424 50.3522 73.7992 50.4427 73.7331C50.5332 73.667 50.6064 73.58 50.6561 73.4796L63.4643 47.4692C63.5215 47.3517 63.5446 47.2204 63.531 47.0904C63.5173 46.9604 63.4673 46.8369 63.3868 46.7338C63.3063 46.6308 63.1985 46.5525 63.0757 46.5078C62.9529 46.463 62.8199 46.4537 62.692 46.4808L62.2629 46.5736L30.0138 53.5299C29.8858 53.5576 29.7681 53.6208 29.6743 53.7123C29.5806 53.8038 29.5144 53.9198 29.4835 54.0472C29.4526 54.1745 29.4582 54.3079 29.4996 54.4322C29.541 54.5565 29.6166 54.6666 29.7176 54.75Z" fill="#3F3D56"/>
<path d="M34.927 59.192L35.1187 59.6146L35.2371 59.5624L35.2376 59.5601L62.4175 47.2357L39.7217 63.9101L39.7195 63.9097L39.6594 63.9558L39.9331 64.33L40.3277 64.0395L62.6934 47.6104C62.7814 47.5471 62.8444 47.4551 62.8717 47.3502C62.899 47.2454 62.8888 47.1343 62.8429 47.0362C62.7969 46.938 62.7181 46.8591 62.6201 46.8129C62.5221 46.7667 62.411 46.7562 62.3061 46.7833C62.2804 46.7895 62.2554 46.7983 62.2314 46.8095L35.0299 59.1458L34.927 59.192Z" fill="#3F3D56"/>
<path d="M115.904 43.2182L101.566 49.5421C100.933 49.8223 100.435 50.3459 100.182 50.998C99.9283 51.6501 99.9404 52.3775 100.215 53.0206L104.667 63.4112C104.943 64.0537 105.46 64.5588 106.102 64.8158C106.745 65.0727 107.462 65.0605 108.096 64.7818L122.434 58.4579C123.067 58.1777 123.565 57.6541 123.818 57.002C124.072 56.3499 124.06 55.6225 123.785 54.9794L119.333 44.5888C119.057 43.9463 118.54 43.4412 117.898 43.1842C117.255 42.9273 116.538 42.9395 115.904 43.2182Z" fill="white"/>
<path d="M115.904 43.2182L101.566 49.5421C100.933 49.8223 100.435 50.3459 100.182 50.998C99.9283 51.6501 99.9404 52.3775 100.215 53.0206L104.667 63.4112C104.943 64.0537 105.46 64.5588 106.102 64.8158C106.745 65.0727 107.462 65.0605 108.096 64.7818L122.434 58.4579C123.067 58.1777 123.565 57.6541 123.818 57.002C124.072 56.3499 124.06 55.6225 123.785 54.9794L119.333 44.5888C119.057 43.9463 118.54 43.4412 117.898 43.1842C117.255 42.9273 116.538 42.9395 115.904 43.2182Z" fill="white"/>
<path d="M115.904 43.2182L101.566 49.5421C100.933 49.8223 100.435 50.3459 100.182 50.998C99.9283 51.6501 99.9404 52.3775 100.215 53.0206L104.667 63.4112C104.943 64.0537 105.46 64.5588 106.102 64.8158C106.745 65.0727 107.462 65.0605 108.096 64.7818L122.434 58.4579C123.067 58.1777 123.565 57.6541 123.818 57.002C124.072 56.3499 124.06 55.6225 123.785 54.9794L119.333 44.5888C119.057 43.9463 118.54 43.4412 117.898 43.1842C117.255 42.9273 116.538 42.9395 115.904 43.2182ZM116.498 44.6037C116.583 44.5663 116.674 44.5399 116.766 44.5254L111.918 53.8045L101.962 51.0402C102.024 50.9959 102.09 50.9582 102.16 50.9276L116.498 44.6037ZM121.84 57.0724L107.502 63.3963C107.231 63.5158 106.923 63.521 106.648 63.4109C106.372 63.3008 106.151 63.0843 106.033 62.809L101.621 52.5116L112.1 55.4213C112.263 55.4666 112.437 55.4541 112.592 55.386C112.748 55.3178 112.875 55.1981 112.955 55.0464L118.028 45.3341L122.419 55.5817C122.537 55.8573 122.542 56.169 122.434 56.4485C122.325 56.728 122.112 56.9524 121.84 57.0724Z" fill="#0000FF"/>
</svg>
