<svg width="16" height="16" viewBox="0 0 16 16" fill="#000000" xmlns="http://www.w3.org/2000/svg">
<path d="M11.9998 5.66667H11.3332V4.33333C11.3332 2.49333 9.83984 1 7.99984 1C6.15984 1 4.6665 2.49333 4.6665 4.33333V5.66667H3.99984C3.2665 5.66667 2.6665 6.26667 2.6665 7V13.6667C2.6665 14.4 3.2665 15 3.99984 15H11.9998C12.7332 15 13.3332 14.4 13.3332 13.6667V7C13.3332 6.26667 12.7332 5.66667 11.9998 5.66667ZM5.99984 4.33333C5.99984 3.22667 6.89317 2.33333 7.99984 2.33333C9.1065 2.33333 9.99984 3.22667 9.99984 4.33333V5.66667H5.99984V4.33333ZM11.9998 13.6667H3.99984V7H11.9998V13.6667ZM7.99984 11.6667C8.73317 11.6667 9.33317 11.0667 9.33317 10.3333C9.33317 9.6 8.73317 9 7.99984 9C7.2665 9 6.6665 9.6 6.6665 10.3333C6.6665 11.0667 7.2665 11.6667 7.99984 11.6667Z" fill="#CCCCCC"/>
</svg>
