<svg width="16" height="16" viewBox="0 0 16 16" fill="#000000" xmlns="http://www.w3.org/2000/svg">
<path d="M2.72323 11.6668V11.2335C2.72323 11.0068 2.82989 10.7935 2.99656 10.6935C4.12323 10.0202 5.40989 9.66683 6.72323 9.66683C6.74323 9.66683 6.75656 9.66683 6.77656 9.6735C6.84323 9.20683 6.97656 8.76016 7.16989 8.3535C7.02323 8.34016 6.87656 8.3335 6.72323 8.3335C5.10989 8.3335 3.60323 8.78016 2.31656 9.54683C1.72989 9.8935 1.38989 10.5468 1.38989 11.2335V13.0002H7.56323C7.28323 12.6002 7.06323 12.1468 6.91656 11.6668H2.72323Z" fill="#4D4D4D"/>
<path d="M6.72323 7.66683C8.19656 7.66683 9.38989 6.4735 9.38989 5.00016C9.38989 3.52683 8.19656 2.3335 6.72323 2.3335C5.24989 2.3335 4.05656 3.52683 4.05656 5.00016C4.05656 6.4735 5.24989 7.66683 6.72323 7.66683ZM6.72323 3.66683C7.45656 3.66683 8.05656 4.26683 8.05656 5.00016C8.05656 5.7335 7.45656 6.3335 6.72323 6.3335C5.98989 6.3335 5.38989 5.7335 5.38989 5.00016C5.38989 4.26683 5.98989 3.66683 6.72323 3.66683Z" fill="#4D4D4D"/>
<path d="M13.8899 10.3335C13.8899 10.1868 13.8699 10.0535 13.8499 9.9135L14.6099 9.24016L13.9432 8.08683L12.9766 8.4135C12.7632 8.2335 12.5232 8.0935 12.2566 7.9935L12.0566 7.00016H10.7232L10.5232 7.9935C10.2566 8.0935 10.0166 8.2335 9.80323 8.4135L8.83656 8.08683L8.16989 9.24016L8.92989 9.9135C8.90989 10.0535 8.88989 10.1868 8.88989 10.3335C8.88989 10.4802 8.90989 10.6135 8.92989 10.7535L8.16989 11.4268L8.83656 12.5802L9.80323 12.2535C10.0166 12.4335 10.2566 12.5735 10.5232 12.6735L10.7232 13.6668H12.0566L12.2566 12.6735C12.5232 12.5735 12.7632 12.4335 12.9766 12.2535L13.9432 12.5802L14.6099 11.4268L13.8499 10.7535C13.8699 10.6135 13.8899 10.4802 13.8899 10.3335ZM11.3899 11.6668C10.6566 11.6668 10.0566 11.0668 10.0566 10.3335C10.0566 9.60016 10.6566 9.00016 11.3899 9.00016C12.1232 9.00016 12.7232 9.60016 12.7232 10.3335C12.7232 11.0668 12.1232 11.6668 11.3899 11.6668Z" fill="#4D4D4D"/>
</svg>
