<svg width="16" height="16" viewBox="0 0 16 16" fill="none" xmlns="http://www.w3.org/2000/svg">
<path d="M8.78033 2.66634L12.0003 5.88634V13.333H4.00033V2.66634H8.78033ZM9.33366 1.33301H4.00033C3.26699 1.33301 2.66699 1.93301 2.66699 2.66634V13.333C2.66699 14.0663 3.26699 14.6663 4.00033 14.6663H12.0003C12.7337 14.6663 13.3337 14.0663 13.3337 13.333V5.33301L9.33366 1.33301ZM10.0003 7.33301H7.33366V7.99967H9.33366C9.70033 7.99967 10.0003 8.29967 10.0003 8.66634V10.6663C10.0003 11.033 9.70033 11.333 9.33366 11.333H8.66699V11.9997H7.33366V11.333H6.00033V9.99967H8.66699V9.33301H6.66699C6.30033 9.33301 6.00033 9.03301 6.00033 8.66634V6.66634C6.00033 6.29967 6.30033 5.99967 6.66699 5.99967H7.33366V5.33301H8.66699V5.99967H10.0003V7.33301Z" fill="#4D4D4D"/>
</svg>
