<?xml version="1.0" encoding="UTF-8"?>
<svg width="21px" height="20px" viewBox="0 0 21 20" version="1.1" xmlns="http://www.w3.org/2000/svg" xmlns:xlink="http://www.w3.org/1999/xlink">
    <title>40A6A4C8-C154-4FBF-BADF-9DF3972A24FD</title>
    <g id="Main" stroke="none" stroke-width="1" fill="none" fill-rule="evenodd">
        <g id="Timeline-Actions-Icons" transform="translate(-39.000000, -286.000000)">
            <g id="Icons-/-Note-Edit" transform="translate(39.000000, 286.000000)">
                <g transform="translate(1.000000, 1.000000)" id="note">
                    <path d="M0.30803,13.6191 C0.13394,12.2895 0,10.7101 0,9 C0,7.28986 0.13394,5.71048 0.30803,4.38095 C0.59396,2.19718 2.21443,0.54631 4.36608,0.27838 C5.64193,0.11951 7.19996,0 9,0 C10.9006,0 12.5313,0.13324 13.845,0.30535 C15.8925,0.57361 17.4264,2.10749 17.6946,4.15498 C17.8668,5.46866 18,7.09943 18,9 C18,10.9006 17.8668,12.5313 17.6946,13.845 C17.4264,15.8925 15.8925,17.4264 13.845,17.6946 C12.5313,17.8668 10.9006,18 9,18 C7.19996,18 5.64193,17.8805 4.36608,17.7216 C2.21443,17.4537 0.59396,15.8028 0.30803,13.6191 Z" id="Path" fill-opacity="0.1" fill="#F7B500"></path>
                    <path d="M0.0773733333,11.9810267 C-0.0967166667,10.6514267 0.0773733333,10.7101 0.0773733333,9 C0.0773733333,7.28986 0.211313333,5.71048 0.385403333,4.38095 C0.671333333,2.19718 2.29180333,0.54631 4.44345333,0.27838 C5.71930333,0.11951 7.27733333,0 9.07737333,0 C10.9779733,0 12.6086733,0.13324 13.9223733,0.30535 C15.9698733,0.57361 17.5037733,2.10749 17.7719733,4.15498 C17.9441733,5.46866 18.0773733,7.09943 18.0773733,9 C18.0773733,10.9006 17.9441733,12.5313 17.7719733,13.845 C17.5037733,15.8925 15.9698733,17.4264 13.9223733,17.6946 C12.6086733,17.8668 10.9779733,18 9.07737333,18 C7.27733333,18 5.71930333,17.8805 4.44345333,17.7216" id="Path" stroke="#F7B500" stroke-width="2" fill="#FDF0CE" stroke-linecap="round" stroke-dasharray="3,4" transform="translate(9.038687, 9.000000) scale(-1, -1) translate(-9.038687, -9.000000) "></path>
                    <path d="M17.3425,1.1924 L16.965,0.81765 C16.5731,0.42854 15.9376,0.42854 15.5457,0.81765 L6.97438,9.3275 C6.90307,9.3983 6.84292,9.4793 6.79595,9.5679 L5.62327,11.7798 C5.39367,12.2129 5.86485,12.6807 6.30103,12.4527 L8.52894,11.2885 C8.61818,11.2418 8.69982,11.1821 8.77113,11.1113 L17.3425,2.60151 C17.7344,2.21239 17.7344,1.58151 17.3425,1.1924 Z" id="Path" fill="#F7B500" fill-rule="nonzero"></path>
                </g>
            </g>
        </g>
    </g>
</svg>