<?xml version="1.0" encoding="utf-8"?>
<svg viewBox="0 0 500 500" xmlns="http://www.w3.org/2000/svg">
  <g id="Main" stroke="none" stroke-width="1" fill="none" fill-rule="evenodd" transform="matrix(24.2003, 0, 0, 24.2003, 7.067089, 6.690112)" style="">
    <g id="Timeline-Actions-Icons" transform="translate(-38.000000, -110.000000)">
      <g id="Icons-/-Video-Thumbs-Up" transform="translate(38.000000, 110.000000)">
        <g id="Group-3" transform="translate(1.000000, 1.000000)"/>
      </g>
    </g>
  </g>
  <g id="g-1" stroke="none" stroke-width="1" fill="none" fill-rule="evenodd" transform="matrix(24.069359, 0, 0, 24.069359, 10.352225, 5.122069)" style="">
    <g id="g-2" transform="translate(-239.000000, -230.000000)">
      <g id="Icons-/-PDF-Thumbed-up" transform="translate(239.000000, 230.000000)">
        <g id="Icons-/-PDF-Copy-2" transform="translate(5.000000, 10.000000)">
          <g id="Group-2" transform="translate(0.740645, 0.000000)"/>
        </g>
        <rect id="Rectangle" fill="#D92121" fill-rule="nonzero" x="1" y="7" width="18" height="9" rx="2"/>
        <path d="M18,3.3 L14.1059668,-1.33226763e-15 L13.0093332,2.88766905 C13.0093332,3.49517705 14.0248691,4.46704003 14.6062376,4.46704003 L18,3.3 Z" id="Path" fill="#D92121" fill-rule="nonzero"/>
        <path d="M13.1059668,1 L13.1059668,4.17464937 L17,4.27464937 L17,17 C17,17.5522847 16.7761424,18.0522847 16.4142136,18.4142136 C16.0522847,18.7761424 15.5522847,19 15,19 L15,19 L5,19 C4.44771525,19 3.94771525,18.7761424 3.58578644,18.4142136 C3.22385763,18.0522847 3,17.5522847 3,17 L3,17 L3,3 C3,2.44771525 3.22385763,1.94771525 3.58578644,1.58578644 C3.94771525,1.22385763 4.44771525,1 5,1 L5,1 L13.1059668,1 Z" id="Rectangle" stroke="#D92022" stroke-width="2"/>
        <path d="M12.52405,9.48929384 C12.2134,9.17379942 11.78725,9 11.3239,9 C10.97755,9 10.660375,9.10256554 10.38115,9.30481637 C10.240225,9.40689016 10.112575,9.53179532 10,9.67756484 C9.8875,9.53186557 9.759775,9.40689016 9.61885,9.30481637 C9.339625,9.10256554 9.02245,9 8.6761,9 C8.21275,9 7.786525,9.17379942 7.47595,9.48929384 C7.16905,9.80113525 7,10.2272038 7,10.6889595 C7,11.1642735 7.189075,11.599334 7.595125,12.0582095 C7.958275,12.4686824 8.480275,12.8854076 9.084775,13.3678871 C9.291175,13.5326243 9.5251,13.71942 9.768025,13.9183691 C9.832225,13.9710568 9.914575,14 10,14 C10.08535,14 10.167775,13.9710568 10.231825,13.9184393 C10.474825,13.7194903 10.7089,13.5326243 10.915375,13.3677466 C11.5198,12.8853373 12.0418,12.4686824 12.40495,12.0582095 C12.810925,11.599334 13,11.1642735 13,10.6889595 C13,10.2272038 12.83095,9.80113525 12.52405,9.48929384 Z" id="Path" fill-rule="nonzero" style="fill: rgb(255, 255, 255);"/>
      </g>
    </g>
  </g>
</svg>