<?xml version="1.0" standalone="no"?>
<!DOCTYPE svg PUBLIC "-//W3C//DTD SVG 20010904//EN"
 "http://www.w3.org/TR/2001/REC-SVG-20010904/DTD/svg10.dtd">
<svg version="1.0" xmlns="http://www.w3.org/2000/svg"
 width="512.000000pt" height="512.000000pt" viewBox="0 0 512.000000 512.000000"
 preserveAspectRatio="xMidYMid meet">

<g transform="translate(0.000000,512.000000) scale(0.100000,-0.100000)"
fill="#000000" stroke="none">
<path d="M1185 5104 c-87 -19 -232 -88 -307 -149 -109 -86 -197 -222 -240
-370 l-23 -80 0 -1945 0 -1945 23 -80 c62 -213 188 -363 387 -460 162 -79 83
-75 1535 -75 1452 0 1373 -4 1535 75 196 96 322 243 387 455 l23 75 3 1270 c2
699 0 1286 -3 1305 -5 30 -137 166 -943 973 -515 516 -949 945 -964 953 -40
21 -1310 19 -1413 -2z m1267 -841 l3 -638 27 -73 c86 -233 242 -383 483 -466
58 -19 86 -20 693 -23 l632 -4 0 -1197 c0 -1050 -2 -1205 -16 -1257 -45 -176
-177 -315 -344 -365 -66 -20 -98 -20 -1370 -20 -1272 0 -1304 0 -1370 20 -167
50 -299 189 -344 365 -14 52 -16 274 -16 1955 0 1681 2 1903 16 1955 45 173
167 306 334 362 64 21 75 22 667 22 l602 1 3 -637z m1678 -986 c0 -5 -235 -7
-522 -5 -506 4 -525 5 -589 26 -174 58 -298 192 -343 373 -14 56 -16 137 -16
575 l0 509 735 -735 c404 -404 735 -739 735 -743z"/>
</g>
</svg>
