<?xml version="1.0" standalone="no"?>
<!DOCTYPE svg PUBLIC "-//W3C//DTD SVG 20010904//EN"
 "http://www.w3.org/TR/2001/REC-SVG-20010904/DTD/svg10.dtd">
<svg version="1.0" xmlns="http://www.w3.org/2000/svg"
 width="100.000000pt" height="100.000000pt" viewBox="0 0 100.000000 100.000000"
 preserveAspectRatio="xMidYMid meet">
<metadata>
Created by potrace 1.16, written by Peter Selinger 2001-2019
</metadata>
<g transform="translate(0.000000,100.000000) scale(0.100000,-0.100000)"
fill="#034DAC" stroke="none">
<path d="M295 983 c-44 -23 -94 -73 -116 -115 -26 -51 -26 -155 0 -206 41 -79
137 -142 216 -142 118 0 245 127 245 245 0 81 -62 175 -142 216 -47 24 -159
25 -203 2z m172 -118 c54 -36 65 -124 22 -179 -42 -53 -146 -53 -188 0 -87
111 48 256 166 179z"/>
<path d="M175 480 c-4 -6 -9 -8 -13 -6 -27 17 -160 -109 -148 -140 3 -8 2 -14
-2 -14 -5 0 -9 -41 -9 -91 -2 -86 0 -93 28 -132 17 -23 49 -54 72 -70 41 -27
41 -27 191 -25 l151 3 3 32 c4 44 -14 51 -139 51 -96 0 -110 2 -146 25 -50 32
-67 71 -61 139 5 44 11 57 42 85 42 38 58 40 146 13 82 -25 122 -25 201 0 63
20 99 47 99 73 0 7 -11 24 -25 37 -24 23 -28 23 -73 10 -79 -22 -116 -23 -194
-1 -82 23 -114 26 -123 11z"/>
<path d="M841 403 c-12 -10 -27 -29 -34 -42 -14 -26 -153 -95 -162 -80 -4 5
-20 9 -37 9 -34 0 -88 -49 -88 -80 0 -31 54 -80 88 -80 17 0 33 4 36 9 3 5 42
-5 86 -22 58 -24 80 -37 80 -50 0 -29 45 -67 80 -67 42 0 67 15 85 50 22 43
19 58 -20 97 -31 31 -39 34 -68 28 -54 -11 -80 -8 -131 14 l-49 22 60 28 c47
23 70 28 104 24 38 -4 47 -1 68 21 34 36 32 82 -3 113 -32 27 -66 30 -95 6z"/>
</g>
</svg>
