<?xml version="1.0" encoding="utf-8"?>
<svg viewBox="0 0 500 500" xmlns="http://www.w3.org/2000/svg">
  <g id="Main" stroke="none" stroke-width="1" fill="none" fill-rule="evenodd" transform="matrix(24.2003, 0, 0, 24.2003, 7.067089, 6.690112)" style="">
    <g id="Timeline-Actions-Icons" transform="translate(-38.000000, -110.000000)">
      <g id="Icons-/-Video-Thumbs-Up" transform="translate(38.000000, 110.000000)">
        <g id="Group-3" transform="translate(1.000000, 1.000000)"/>
      </g>
    </g>
  </g>
  <g id="g-1" stroke="none" stroke-width="1" fill="none" fill-rule="evenodd" transform="matrix(24.196083, 0, 0, 24.196083, 3.938592, 10.083067)" style="">
    <g id="g-2" transform="translate(-38.000000, -110.000000)">
      <g id="g-3" transform="translate(38.000000, 110.000000)">
        <g id="g-4" transform="translate(1.000000, 1.000000)">
          <path d="M17.9456,7 C17.9038,6.24157 17.8409,5.54636 17.7669,4.91947 C17.472,2.41874 15.5803,0.52782 13.0795,0.23293 C11.9365,0.09814 10.5664,-4.47641924e-13 9,-4.47641924e-13 C7.53147,-4.47641924e-13 6.23547,0.08626 5.13733,0.20812 C2.51273,0.49935 0.54321,2.52336 0.2325,5.14572 C0.09793,6.28147 -4.47641924e-13,7.59177 -4.47641924e-13,9 C-4.47641924e-13,10.4082 0.09793,11.7185 0.2325,12.8543 C0.54321,15.4766 2.51323,17.5007 5.13783,17.7919 C5.70664,17.855 6.32854,17.9086 7,17.9456" id="Path" stroke="#0000FF" stroke-width="2" stroke-linecap="round"/>
          <path d="M6,11.2936 L6,6.70637 C6,5.52822 7.29593,4.80995 8.295,5.43437 L11.9648,7.728 C12.9048,8.3155 12.9048,9.6845 11.9648,10.272 L8.295,12.5656 C7.29593,13.19 6,12.4718 6,11.2936 Z" id="Path" fill="#0000FF" fill-rule="nonzero"/>
          <path d="M18.3654,12.134 C17.9512,11.6849 17.383,11.4375 16.7652,11.4375 C16.3034,11.4375 15.8805,11.5835 15.5082,11.8714 C15.3203,12.0167 15.1501,12.1945 15,12.402 C14.85,12.1946 14.6797,12.0167 14.4918,11.8714 C14.1195,11.5835 13.6966,11.4375 13.2348,11.4375 C12.617,11.4375 12.0487,11.6849 11.6346,12.134 C11.2254,12.5779 11,13.1844 11,13.8417 C11,14.5183 11.2521,15.1376 11.7935,15.7908 C12.2777,16.3751 12.9737,16.9683 13.7797,17.6551 C14.0549,17.8896 14.3668,18.1555 14.6907,18.4387 C14.7763,18.5137 14.8861,18.5549 15,18.5549 C15.1138,18.5549 15.2237,18.5137 15.3091,18.4388 C15.6331,18.1556 15.9452,17.8896 16.2205,17.6549 C17.0264,16.9682 17.7224,16.3751 18.2066,15.7908 C18.7479,15.1376 19,14.5183 19,13.8417 C19,13.1844 18.7746,12.5779 18.3654,12.134 Z" id="Path" fill="#0000FF" fill-rule="nonzero"/>
        </g>
      </g>
    </g>
  </g>
</svg>