<svg width="17" height="16" viewBox="0 0 17 16" fill="none" xmlns="http://www.w3.org/2000/svg">
<path d="M8.33358 3.93317C9.10691 3.93317 9.73358 4.55984 9.73358 5.33317C9.73358 6.1065 9.10691 6.73317 8.33358 6.73317C7.56024 6.73317 6.93358 6.1065 6.93358 5.33317C6.93358 4.55984 7.56024 3.93317 8.33358 3.93317ZM8.33358 9.93317C10.3136 9.93317 12.4002 10.9065 12.4002 11.3332V12.0665H4.26691V11.3332C4.26691 10.9065 6.35358 9.93317 8.33358 9.93317ZM8.33358 2.6665C6.86024 2.6665 5.66691 3.85984 5.66691 5.33317C5.66691 6.8065 6.86024 7.99984 8.33358 7.99984C9.80691 7.99984 11.0002 6.8065 11.0002 5.33317C11.0002 3.85984 9.80691 2.6665 8.33358 2.6665ZM8.33358 8.6665C6.55358 8.6665 3.00024 9.55984 3.00024 11.3332V13.3332H13.6669V11.3332C13.6669 9.55984 10.1136 8.6665 8.33358 8.6665Z" fill="#4D4D4D"/>
</svg>
