<svg width="17" height="16" viewBox="0 0 17 16" fill="none" xmlns="http://www.w3.org/2000/svg">
<path d="M4.6935 3.33333C4.7335 3.92667 4.8335 4.50667 4.9935 5.06L4.1935 5.86C3.92016 5.06 3.74683 4.21333 3.68683 3.33333H4.6935ZM11.2668 11.3467C11.8335 11.5067 12.4135 11.6067 13.0002 11.6467V12.64C12.1202 12.58 11.2735 12.4067 10.4668 12.14L11.2668 11.3467ZM5.3335 2H3.00016C2.6335 2 2.3335 2.3 2.3335 2.66667C2.3335 8.92667 7.40683 14 13.6668 14C14.0335 14 14.3335 13.7 14.3335 13.3333V11.0067C14.3335 10.64 14.0335 10.34 13.6668 10.34C12.8402 10.34 12.0335 10.2067 11.2868 9.96C11.2202 9.93333 11.1468 9.92667 11.0802 9.92667C10.9068 9.92667 10.7402 9.99333 10.6068 10.12L9.14016 11.5867C7.2535 10.62 5.70683 9.08 4.74683 7.19333L6.2135 5.72667C6.40016 5.54 6.4535 5.28 6.38016 5.04667C6.1335 4.3 6.00016 3.5 6.00016 2.66667C6.00016 2.3 5.70016 2 5.3335 2Z" fill="#4D4D4D"/>
</svg>
