<svg width="17" height="16" viewBox="0 0 17 16" fill="none" xmlns="http://www.w3.org/2000/svg">
<path d="M7.13358 8.79971L6.43358 8.09971C6.58913 7.87748 6.66691 7.6246 6.66691 7.34104C6.66691 7.05793 6.58913 6.80526 6.43358 6.58304L7.13358 5.86637C7.48913 6.2886 7.66691 6.77748 7.66691 7.33304C7.66691 7.8886 7.48913 8.37748 7.13358 8.79971ZM8.55024 10.233L7.83358 9.51637C8.38913 8.89415 8.66691 8.16904 8.66691 7.34104C8.66691 6.51348 8.38913 5.7886 7.83358 5.16637L8.55024 4.44971C8.91691 4.86082 9.19469 5.31637 9.38358 5.81637C9.57247 6.31637 9.66691 6.8246 9.66691 7.34104C9.66691 7.85793 9.57247 8.36637 9.38358 8.86637C9.19469 9.36637 8.91691 9.82193 8.55024 10.233ZM3.66691 7.99971C3.30024 7.99971 2.98624 7.86904 2.72491 7.60771C2.46402 7.34682 2.33358 7.03304 2.33358 6.66637C2.33358 6.29971 2.46402 5.98571 2.72491 5.72437C2.98624 5.46348 3.30024 5.33304 3.66691 5.33304C4.03358 5.33304 4.34736 5.46348 4.60824 5.72437C4.86958 5.98571 5.00024 6.29971 5.00024 6.66637C5.00024 7.03304 4.86958 7.34682 4.60824 7.60771C4.34736 7.86904 4.03358 7.99971 3.66691 7.99971ZM1.00024 10.6664V10.283C1.00024 10.0164 1.07247 9.77193 1.21691 9.54971C1.36136 9.32748 1.56136 9.16082 1.81691 9.04971C2.1058 8.92748 2.40291 8.83304 2.70824 8.76637C3.01402 8.69971 3.33358 8.66637 3.66691 8.66637C4.00024 8.66637 4.3198 8.69971 4.62558 8.76637C4.93091 8.83304 5.22802 8.92748 5.51691 9.04971C5.77247 9.16082 5.97247 9.32748 6.11691 9.54971C6.26136 9.77193 6.33358 10.0164 6.33358 10.283V10.6664H1.00024ZM13.0002 7.99971C12.6336 7.99971 12.3196 7.86904 12.0582 7.60771C11.7974 7.34682 11.6669 7.03304 11.6669 6.66637C11.6669 6.29971 11.7974 5.98571 12.0582 5.72437C12.3196 5.46348 12.6336 5.33304 13.0002 5.33304C13.3669 5.33304 13.6809 5.46348 13.9422 5.72437C14.2031 5.98571 14.3336 6.29971 14.3336 6.66637C14.3336 7.03304 14.2031 7.34682 13.9422 7.60771C13.6809 7.86904 13.3669 7.99971 13.0002 7.99971ZM10.3336 10.6664V10.283C10.3336 10.0164 10.4058 9.77193 10.5502 9.54971C10.6947 9.32748 10.8947 9.16082 11.1502 9.04971C11.4391 8.92748 11.7362 8.83304 12.0416 8.76637C12.3474 8.69971 12.6669 8.66637 13.0002 8.66637C13.3336 8.66637 13.6531 8.69971 13.9589 8.76637C14.2642 8.83304 14.5614 8.92748 14.8502 9.04971C15.1058 9.16082 15.3058 9.32748 15.4502 9.54971C15.5947 9.77193 15.6669 10.0164 15.6669 10.283V10.6664H10.3336Z" fill="#4D4D4D"/>
</svg>
