<svg width="16" height="16" viewBox="0 0 16 16" fill="none" xmlns="http://www.w3.org/2000/svg">
<g clip-path="url(#clip0_4481_46595)">
<path d="M8.00005 16.0002C6.41776 16.0003 4.87098 15.5311 3.55534 14.6521C2.23969 13.773 1.21426 12.5236 0.60874 11.0617C0.00321448 9.59987 -0.155213 7.99129 0.153493 6.4394C0.462199 4.88752 1.22417 3.46203 2.34305 2.34321C3.08594 1.60032 3.96788 1.01103 4.9385 0.608979C5.90913 0.206931 6.94945 7.8276e-09 8.00005 0C9.05065 -7.82759e-09 10.091 0.206931 11.0616 0.608979C12.0322 1.01103 12.9142 1.60032 13.6571 2.34321C14.3999 3.08609 14.9892 3.96803 15.3913 4.93866C15.7933 5.90929 16.0003 6.9496 16.0003 8.00021C16.0003 9.05081 15.7933 10.0911 15.3913 11.0618C14.9892 12.0324 14.3999 12.9143 13.6571 13.6572C12.9159 14.4024 12.0343 14.9931 11.0632 15.3953C10.0922 15.7975 9.05106 16.0031 8.00005 16.0002ZM8.20005 1.93321L2.00005 6.66721V7.33421H3.73305V12.4682H12.3331V7.33321H14.0661V6.66721L12.3331 5.26721V2.80021H10.6001V3.86621L8.20005 1.93321ZM6.93305 10.7332L5.60005 9.40021L6.86605 8.13321L5.60005 6.86621L6.93405 5.53321L8.20005 6.80021L9.46705 5.53321L10.8001 6.86621L9.53305 8.13321L10.8001 9.40021L9.46705 10.7332L8.20005 9.46721L6.93405 10.7332H6.93305Z" fill="#CA1600"/>
</g>
<defs>
<clipPath id="clip0_4481_46595">
<rect width="16" height="16" fill="white"/>
</clipPath>
</defs>
</svg>
