<svg width="17" height="16" viewBox="0 0 17 16" fill="none" xmlns="http://www.w3.org/2000/svg">
<g clip-path="url(#clip0_4481_46616)">
<path d="M8.66668 16.0002C7.08438 16.0003 5.53761 15.5311 4.22196 14.6521C2.90632 13.773 1.88089 12.5236 1.27537 11.0617C0.66984 9.59987 0.511413 7.99129 0.820119 6.4394C1.12883 4.88752 1.8908 3.46203 3.00968 2.34321C3.75256 1.60032 4.6345 1.01103 5.60513 0.608979C6.57576 0.206931 7.61607 7.8276e-09 8.66668 0C9.71728 -7.82759e-09 10.7576 0.206931 11.7282 0.608979C12.6989 1.01103 13.5808 1.60032 14.3237 2.34321C15.0666 3.08609 15.6559 3.96803 16.0579 4.93866C16.46 5.90929 16.6669 6.9496 16.6669 8.00021C16.6669 9.05081 16.46 10.0911 16.0579 11.0618C15.6559 12.0324 15.0666 12.9143 14.3237 13.6572C13.5825 14.4024 12.7009 14.9931 11.7299 15.3953C10.7588 15.7975 9.71769 16.0031 8.66668 16.0002ZM8.86668 1.93321L2.66668 6.66721V7.40021H4.39968V12.5342H13.0667V12.4002C12.9942 12.4089 12.9208 12.4014 12.8516 12.3783C12.7824 12.3551 12.7192 12.3168 12.6667 12.2662L9.26668 8.86621L8.66668 9.46621C8.63005 9.49882 8.58272 9.51684 8.53368 9.51684C8.48464 9.51684 8.4373 9.49882 8.40068 9.46621L6.93268 8.00021C6.90006 7.96358 6.88205 7.91625 6.88205 7.86721C6.88205 7.81816 6.90006 7.77083 6.93268 7.73421L8.66668 6.00021C8.70337 5.96732 8.7509 5.94913 8.80018 5.94913C8.84945 5.94913 8.89699 5.96732 8.93368 6.00021L10.3997 7.46621C10.4326 7.50289 10.4508 7.55043 10.4508 7.59971C10.4508 7.64898 10.4326 7.69652 10.3997 7.73321L9.79968 8.33321L12.9997 11.5332V7.40021H14.7327V6.66721L12.9997 5.26721V2.80021H11.2667V3.86621L8.86668 1.93321ZM7.73368 10.4162C7.67081 10.4148 7.60887 10.4008 7.55151 10.375C7.49414 10.3492 7.44252 10.3122 7.39968 10.2662L6.19968 9.06621C6.15191 9.02336 6.11338 8.97122 6.08645 8.91298C6.05951 8.85474 6.04473 8.79162 6.04302 8.72747C6.0413 8.66333 6.05269 8.5995 6.07647 8.53991C6.10025 8.48031 6.13594 8.42619 6.18135 8.38085C6.22675 8.33551 6.28093 8.2999 6.34056 8.27621C6.4002 8.25251 6.46404 8.24123 6.52818 8.24304C6.59232 8.24485 6.65542 8.25972 6.71362 8.28675C6.77182 8.31377 6.8239 8.35237 6.86668 8.40021L8.06668 9.60021C8.13094 9.66762 8.17435 9.75217 8.19167 9.84368C8.20899 9.93519 8.19948 10.0298 8.16429 10.116C8.1291 10.2022 8.06973 10.2764 7.99333 10.3297C7.91693 10.383 7.82676 10.413 7.73368 10.4162ZM10.7337 7.28321C10.6708 7.28177 10.6089 7.26775 10.5515 7.24199C10.4941 7.21623 10.4425 7.17924 10.3997 7.13321L9.19968 5.93321C9.15191 5.89036 9.11338 5.83822 9.08645 5.77998C9.05951 5.72174 9.04473 5.65862 9.04302 5.59447C9.0413 5.53033 9.05268 5.4665 9.07647 5.40691C9.10025 5.34731 9.13594 5.29319 9.18135 5.24785C9.22675 5.20251 9.28093 5.1669 9.34056 5.14321C9.4002 5.11951 9.46403 5.10823 9.52818 5.11004C9.59232 5.11185 9.65542 5.12672 9.71362 5.15375C9.77182 5.18077 9.8239 5.21938 9.86668 5.26721L11.0667 6.46721C11.1309 6.53462 11.1743 6.61917 11.1917 6.71068C11.209 6.80219 11.1995 6.89676 11.1643 6.98299C11.1291 7.06922 11.0697 7.14344 10.9933 7.1967C10.9169 7.24997 10.8268 7.28001 10.7337 7.28321V7.28321Z" fill="#80A544"/>
</g>
<defs>
<clipPath id="clip0_4481_46616">
<rect width="16" height="16" fill="white" transform="translate(0.666626)"/>
</clipPath>
</defs>
</svg>
