<svg width="16" height="16" viewBox="0 0 16 16" fill="none" xmlns="http://www.w3.org/2000/svg">
<g clip-path="url(#clip0_4481_46609)">
<path d="M8 16C6.41775 16 4.87103 15.5308 3.55544 14.6518C2.23985 13.7727 1.21447 12.5233 0.608967 11.0615C0.00346625 9.59966 -0.15496 7.99113 0.153721 6.43928C0.462403 4.88743 1.22433 3.46197 2.34315 2.34315C3.46197 1.22433 4.88743 0.462403 6.43928 0.153721C7.99113 -0.15496 9.59966 0.00346625 11.0615 0.608967C12.5233 1.21447 13.7727 2.23985 14.6518 3.55544C15.5308 4.87103 16 6.41775 16 8C15.9976 10.121 15.154 12.1545 13.6542 13.6542C12.1545 15.154 10.121 15.9976 8 16ZM4.187 11.625V13.062H12.25V7.688H13.75V7.25L12.25 5.75V3.25H10.5V4.438L10.312 4.313L8.125 2.5L2.5 7.187V7.624H4.188V8.624C4.188 8.315 4.988 8.124 5.562 8.124C5.71079 8.1144 5.85995 8.13586 6 8.187C6.5268 8.41434 6.981 8.78206 7.313 9.25H8.188V8.438H9V9.188H9.563V8.438H10.313V9.188H10.938V9.25L11.312 10.125L11 10.75L10.938 10.938H7.5C7.36437 11.2552 7.15913 11.5378 6.89948 11.7649C6.63983 11.992 6.33241 12.1578 6 12.25C5.86006 12.3016 5.71081 12.3231 5.562 12.313C5.019 12.313 4.188 12.005 4.188 11.625H4.187ZM5.228 9.5C5.03919 9.50215 4.8584 9.57669 4.72294 9.70825C4.58748 9.8398 4.50768 10.0183 4.5 10.207C4.50717 10.3979 4.58614 10.579 4.72112 10.7142C4.85609 10.8494 5.03713 10.9286 5.228 10.936C5.42073 10.9287 5.60387 10.8501 5.74189 10.7154C5.87992 10.5807 5.963 10.3995 5.975 10.207C5.96242 10.0167 5.8785 9.83823 5.74001 9.70716C5.60152 9.57609 5.41867 9.50211 5.228 9.5Z" fill="#C7CC44"/>
</g>
<defs>
<clipPath id="clip0_4481_46609">
<rect width="16" height="16" fill="white"/>
</clipPath>
</defs>
</svg>
