<svg width="17" height="16" viewBox="0 0 17 16" fill="none" xmlns="http://www.w3.org/2000/svg">
<g clip-path="url(#clip0_4481_46602)">
<path d="M8.66657 16.0002C7.08427 16.0003 5.53751 15.5311 4.22186 14.6521C2.90622 13.773 1.88073 12.5236 1.27521 11.0617C0.669684 9.59987 0.511303 7.99129 0.820009 6.4394C1.12871 4.88752 1.89071 3.46203 3.00958 2.34321C4.50991 0.842876 6.54478 0 8.66657 0C10.7884 0 12.8232 0.842876 14.3236 2.34321C15.8239 3.84354 16.6668 5.87842 16.6668 8.00021C16.6668 10.122 15.8239 12.1569 14.3236 13.6572C13.5824 14.4024 12.7008 14.9932 11.7298 15.3954C10.7588 15.7976 9.71759 16.0031 8.66657 16.0002V16.0002ZM8.86652 2.06721L8.66657 2.20021L8.19953 2.60021L2.66657 6.80021V7.53321H4.3996V12.6662H12.9996V7.53421H14.7326V6.80021L12.9996 5.40021V2.93321H11.2665V4.00021L9.33356 2.40021L9.06659 2.20021L8.86652 2.06721V2.06721ZM9.46662 11.5342C9.39425 11.5431 9.32083 11.5357 9.25165 11.5127C9.18247 11.4897 9.11925 11.4516 9.06659 11.4012C9.00647 11.3387 8.95097 11.2718 8.90058 11.2012C8.8499 11.1305 8.79409 11.0637 8.73358 11.0012C8.45958 10.6932 8.16463 10.3632 7.90363 10.0722L7.88153 10.0482C7.60953 9.74821 7.32759 9.42821 7.06659 9.13521C6.96659 9.03521 6.86654 8.91621 6.76654 8.80221C6.66654 8.68821 6.56662 8.56821 6.46662 8.46921C6.33925 8.31364 6.24837 8.13151 6.20063 7.93621V5.93621C6.21274 5.82254 6.26774 5.7178 6.35456 5.64344C6.44137 5.56908 6.55336 5.53071 6.66754 5.53621H8.33454C8.49333 5.52042 8.65363 5.54341 8.80158 5.60321C8.97739 5.65111 9.13815 5.743 9.26862 5.87021C9.33724 5.96671 9.4152 6.05615 9.50153 6.13721C9.58814 6.21828 9.66653 6.30771 9.73554 6.40421C10.0685 6.80421 10.4246 7.19421 10.7686 7.57021C11.1126 7.94621 11.4686 8.33621 11.8026 8.73721C11.8848 8.81341 11.9526 8.90387 12.0026 9.00421C12.0325 9.10735 12.0359 9.21635 12.0126 9.32118C11.9894 9.42602 11.9402 9.52334 11.8696 9.60421C11.2461 10.2756 10.5532 10.8789 9.80255 11.4042C9.7101 11.487 9.5907 11.5332 9.46662 11.5342V11.5342Z" fill="#F9AC3B"/>
</g>
<defs>
<clipPath id="clip0_4481_46602">
<rect width="16" height="16" fill="white" transform="translate(0.666626)"/>
</clipPath>
</defs>
</svg>
