<svg width="16" height="16" viewBox="0 0 16 16" fill="none" xmlns="http://www.w3.org/2000/svg">
<path d="M7.66372 15.6692C5.89502 15.668 4.18111 15.0554 2.81229 13.9353C1.44348 12.8152 0.503899 11.2564 0.152709 9.52295C-0.198481 7.78947 0.060305 5.98788 0.885234 4.42335C1.71016 2.85881 3.05052 1.6275 4.67928 0.937976C6.55307 0.146454 8.66455 0.131712 10.5492 0.896991C12.4339 1.66227 13.9373 3.14489 14.7289 5.01868C15.5204 6.89247 15.5351 9.00394 14.7698 10.8886C14.0046 12.7733 12.5219 14.2767 10.6482 15.0682C9.7039 15.4673 8.68883 15.6717 7.66372 15.6692ZM3.76621 4.76375C3.28229 5.248 2.89943 5.8236 2.6399 6.4571C2.33269 7.1995 2.19393 8.00078 2.23362 8.80325C2.27331 9.60572 2.49046 10.3894 2.86944 11.0979C3.24841 11.8063 3.77978 12.4219 4.42527 12.9003C5.07076 13.3787 5.81431 13.7081 6.60237 13.8646C7.39043 14.0211 8.2034 14.0009 8.98271 13.8054C9.76202 13.6099 10.4883 13.2441 11.1092 12.7342C11.7302 12.2243 12.2303 11.5831 12.5736 10.8567C12.9169 10.1303 13.0949 9.33676 13.0946 8.53331C13.1269 7.8672 13.0248 7.2014 12.7943 6.57559C12.5639 5.94979 12.2098 5.37678 11.7531 4.89073C11.7507 5.19911 11.6847 5.50367 11.5593 5.78538C12.1491 6.57933 12.4633 7.5443 12.4539 8.53331C12.4629 9.15986 12.3472 9.78194 12.1137 10.3634C11.8801 10.9448 11.5333 11.4741 11.0934 11.9203C10.6535 12.3666 10.1293 12.7209 9.55126 12.9628C8.97321 13.2046 8.35285 13.3292 7.72624 13.3292C7.09963 13.3292 6.47926 13.2046 5.90121 12.9628C5.32316 12.7209 4.79895 12.3666 4.35906 11.9203C3.91916 11.4741 3.57235 10.9448 3.33879 10.3634C3.10522 9.78194 2.98957 9.15986 2.99854 8.53331C3.00048 7.49699 3.33629 6.48888 3.95619 5.65841C3.89416 5.41027 3.83115 5.09525 3.77009 4.79186L3.76621 4.76375ZM4.85278 7.18697C4.48539 7.65982 4.30369 8.25075 4.34197 8.84833C4.33143 9.29695 4.41016 9.7432 4.57357 10.1611C4.73699 10.5791 4.98183 10.9604 5.29387 11.2828C5.60592 11.6053 5.97894 11.8626 6.39127 12.0397C6.8036 12.2168 7.24701 12.3101 7.69574 12.3144C8.14446 12.3186 8.58956 12.2336 9.00516 12.0644C9.42076 11.8951 9.79857 11.6449 10.1167 11.3284C10.4347 11.0119 10.6867 10.6353 10.858 10.2205C11.0293 9.80572 11.1164 9.36104 11.1144 8.9123C11.1158 8.35637 10.9828 7.80833 10.7267 7.31492C10.6139 7.47737 10.4839 7.62718 10.339 7.76176L10.211 7.88971C10.3363 8.19393 10.4021 8.51934 10.4049 8.84833C10.3915 9.5512 10.1029 10.2208 9.60111 10.7131C9.09932 11.2055 8.42439 11.4813 7.72139 11.4813C7.01839 11.4813 6.34346 11.2055 5.84166 10.7131C5.33987 10.2208 5.05128 9.5512 5.03792 8.84833C5.02321 8.46965 5.11166 8.09408 5.29381 7.76176C5.12612 7.58704 4.97702 7.39539 4.84891 7.18988L4.85278 7.18697ZM7.79166 1.44201C7.02299 1.44177 6.27899 1.71335 5.69122 2.20871C5.11107 2.69777 4.72329 3.37682 4.59689 4.12499C4.54475 4.3109 4.52315 4.50404 4.53292 4.69687V5.01674C4.689 5.52039 4.92638 5.99514 5.23565 6.4222L5.29963 6.48618C5.42819 6.69278 5.57795 6.88542 5.74647 7.06096C5.77328 7.0893 5.79493 7.1221 5.81044 7.15789C5.82597 7.19368 5.84761 7.22648 5.87441 7.25482C6.03435 7.44868 6.19622 7.65805 6.35324 7.8616C6.51026 8.06515 6.67311 8.27742 6.83207 8.46837C6.90162 8.56911 6.97636 8.66617 7.05597 8.75916C7.13559 8.85214 7.21033 8.9492 7.27988 9.04994C7.31346 9.10991 7.35669 9.16395 7.40783 9.20987C7.45896 9.2558 7.50219 9.30984 7.53577 9.36981C7.55184 9.3868 7.56704 9.4046 7.58133 9.42312C7.60309 9.46087 7.63334 9.49304 7.66967 9.5171C7.70601 9.54115 7.74744 9.55643 7.79069 9.56173C7.82573 9.56622 7.86133 9.5628 7.89488 9.55173C7.92843 9.54066 7.95907 9.52222 7.98455 9.49775C8.10604 9.40916 8.21495 9.30449 8.30829 9.18661C8.35094 9.13718 8.39165 9.08968 8.43139 9.04994C8.55997 8.84334 8.70972 8.65071 8.87823 8.47515C9.11474 8.17952 9.38323 7.84415 9.58097 7.5805C9.646 7.45914 9.73273 7.35072 9.83686 7.26064C9.90083 7.16371 9.96577 7.08423 10.0307 7.00572C10.0957 6.9272 10.1587 6.84578 10.2246 6.74885C10.2244 6.74042 10.226 6.73204 10.2292 6.72422C10.2323 6.7164 10.2371 6.70929 10.243 6.70333C10.249 6.69736 10.2561 6.69265 10.2639 6.68948C10.2717 6.68632 10.2801 6.68475 10.2885 6.68488C10.612 6.21955 10.85 5.70029 10.9913 5.15147C10.9783 5.06076 10.9979 4.96838 11.0465 4.89073V4.69687C11.0567 4.54477 11.0349 4.39223 10.9826 4.24906C10.887 3.47211 10.5072 2.75804 9.91634 2.24458C9.32864 1.72864 8.5737 1.44347 7.79166 1.44201ZM7.79166 5.85032C7.51603 5.84489 7.2486 5.75563 7.02496 5.59443C6.85389 5.46815 6.71341 5.30501 6.61391 5.1171C6.51442 4.92918 6.45846 4.7213 6.45017 4.50883C6.46234 4.3117 6.50552 4.11772 6.57812 3.93404C6.6843 3.69708 6.85393 3.49408 7.06827 3.34748C7.2826 3.20089 7.53329 3.1164 7.79263 3.10336C8.06197 3.10841 8.32449 3.18893 8.55033 3.33578C8.77618 3.48263 8.95628 3.68991 9.07015 3.93404C9.12288 4.09889 9.14457 4.2721 9.13413 4.44486C9.12544 4.6663 9.06968 4.88335 8.97057 5.08157C8.87147 5.27978 8.73128 5.45462 8.55934 5.59443C8.33543 5.75582 8.06762 5.84508 7.79166 5.85032Z" fill="#EF432A"/>
</svg>
