<svg width="16" height="16" viewBox="0 0 16 16" fill="none" xmlns="http://www.w3.org/2000/svg">
<g clip-path="url(#clip0_4481_46623)">
<path d="M10.03 4.23438H9.67603V6.61537H11.826V6.23737H10.026L10.03 4.23438Z" fill="#066FD3"/>
<path d="M7.45502 16.0002H8.56502C10.497 15.8665 12.3149 15.0363 13.6815 13.6638C15.048 12.2912 15.8704 10.4693 15.996 8.53632V7.49406C15.8979 5.95818 15.3594 4.4831 14.4451 3.24528C13.5308 2.00746 12.2793 1.05932 10.8404 0.514268C9.40149 -0.0307806 7.83605 -0.149655 6.33137 0.171865C4.82668 0.493385 3.44646 1.24169 2.3558 2.32725C1.26514 3.41282 0.510235 4.78969 0.181383 6.29314C-0.14747 7.7966 -0.0363433 9.36299 0.50147 10.8049C1.03928 12.2469 1.98101 13.5033 3.214 14.4239C4.44699 15.3446 5.91902 15.8904 7.45402 15.9962L7.45502 16.0002ZM4.31102 3.42305H10.255L12.373 5.89666V12.4443H10.937C10.8323 11.8934 10.5825 11.3805 10.2133 10.9584C9.84413 10.5364 9.36901 10.2206 8.83702 10.0437C9.21059 9.82679 9.50225 9.49275 9.66685 9.09329C9.83144 8.69383 9.85979 8.25124 9.7475 7.83404C9.63522 7.41684 9.38856 7.0483 9.04572 6.78548C8.70287 6.52266 8.28297 6.38023 7.85102 6.38023C7.41908 6.38023 6.99918 6.52266 6.65633 6.78548C6.31349 7.0483 6.06683 7.41684 5.95455 7.83404C5.84226 8.25124 5.8706 8.69383 6.0352 9.09329C6.19979 9.49275 6.49146 9.82679 6.86502 10.0437C6.33314 10.2208 5.85813 10.5367 5.48899 10.9587C5.11984 11.3806 4.86993 11.8935 4.76502 12.4443H4.31402L4.31102 3.42305Z" fill="#066FD3"/>
</g>
<defs>
<clipPath id="clip0_4481_46623">
<rect width="16" height="16" fill="white"/>
</clipPath>
</defs>
</svg>
