<svg width="80" height="81" viewBox="0 0 80 81" fill="none" xmlns="http://www.w3.org/2000/svg">
<path d="M48 30.1445C48 26.7695 50.625 24.1445 54 24.1445C57.1875 24.1445 60 26.7695 60 30.1445C60 33.332 57.1875 36.1445 54 36.1445C50.625 36.1445 48 33.332 48 30.1445ZM19.875 30.1445C19.875 26.7695 22.6875 24.1445 25.875 24.1445C29.25 24.1445 31.875 26.7695 31.875 30.1445C31.875 33.332 29.25 36.1445 25.875 36.1445C22.6875 36.1445 19.875 33.332 19.875 30.1445ZM39.9375 48.1445C30.5625 48.1445 22.6875 53.957 19.5 62.0195H26.0625C28.875 57.332 33.9375 54.1445 39.9375 54.1445C45.9375 54.1445 51 57.332 53.8125 62.0195H60.375C57.1875 53.957 49.3125 48.1445 39.9375 48.1445ZM39.9375 0.144531C17.8125 0.144531 0 17.957 0 40.082C0 62.207 17.8125 80.0195 39.9375 80.0195C62.0625 80.0195 79.875 62.207 79.875 40.082C79.875 17.957 62.0625 0.144531 39.9375 0.144531ZM39.9375 72.1445C22.3125 72.1445 7.875 57.707 7.875 40.082C7.875 22.457 22.3125 8.01953 39.9375 8.01953C57.5625 8.01953 72 22.457 72 40.082C72 57.707 57.5625 72.1445 39.9375 72.1445Z" fill="#101336"/>
</svg>
