<svg width="101" height="101" viewBox="0 0 101 101" fill="none" xmlns="http://www.w3.org/2000/svg">
<path d="M50.1172 100.332C77.7314 100.332 100.117 77.9463 100.117 50.332C100.117 22.7178 77.7314 0.332031 50.1172 0.332031C22.503 0.332031 0.117188 22.7178 0.117188 50.332C0.117188 77.9463 22.503 100.332 50.1172 100.332Z" fill="#101336"/>
<path d="M66.3455 27.9629H33.8894C30.4982 27.9629 27.749 30.712 27.749 34.1032V66.5594C27.749 69.9506 30.4982 72.6997 33.8894 72.6997H66.3455C69.7367 72.6997 72.4859 69.9506 72.4859 66.5594V34.1032C72.4859 30.712 69.7367 27.9629 66.3455 27.9629Z" fill="white"/>
<path fill-rule="evenodd" clip-rule="evenodd" d="M72.5484 56.1504V79.0773L58.0117 72.4813L72.5484 56.1504Z" fill="white"/>
<path d="M36.959 62.1738C45.7309 66.8522 54.5028 66.8522 63.2748 62.1738" stroke="#101336" stroke-width="6" stroke-linecap="round" stroke-linejoin="round"/>
</svg>
