<svg width="73" height="89" viewBox="0 0 73 89" fill="none" xmlns="http://www.w3.org/2000/svg">
<path d="M64.375 52.3945V68.332H56.5V52.3945H64.375ZM16.375 52.3945V68.332H12.4375C10.1875 68.332 8.5 66.457 8.5 64.3945V52.3945H16.375ZM36.4375 0.269531C16.5625 0.269531 0.4375 16.3945 0.4375 36.2695V64.3945C0.4375 70.957 5.875 76.3945 12.4375 76.3945H24.4375V44.332H8.5V36.2695C8.5 20.8945 20.875 8.33203 36.4375 8.33203C52 8.33203 64.375 20.8945 64.375 36.2695V44.332H48.4375V76.3945H64.375V80.332H36.4375V88.3945H60.4375C67 88.3945 72.4375 82.957 72.4375 76.3945V36.2695C72.4375 16.3945 56.3125 0.269531 36.4375 0.269531Z" fill="#101336"/>
</svg>
