<svg width="76" height="76" viewBox="0 0 76 76" fill="none" xmlns="http://www.w3.org/2000/svg">
<path d="M26.8672 52.832H34.3672V22.832H26.8672V52.832ZM38.1172 0.332031C17.4172 0.332031 0.617188 17.132 0.617188 37.832C0.617188 58.532 17.4172 75.332 38.1172 75.332C58.8172 75.332 75.6172 58.532 75.6172 37.832C75.6172 17.132 58.8172 0.332031 38.1172 0.332031ZM38.1172 67.832C21.5797 67.832 8.11719 54.3695 8.11719 37.832C8.11719 21.2945 21.5797 7.83203 38.1172 7.83203C54.6547 7.83203 68.1172 21.2945 68.1172 37.832C68.1172 54.3695 54.6547 67.832 38.1172 67.832ZM41.8672 52.832H49.3672V22.832H41.8672V52.832Z" fill="#101336"/>
</svg>
